<?xml version="1.0" encoding="UTF-8"?> <svg xmlns="http://www.w3.org/2000/svg" width="648" height="120" viewBox="0 0 648 120" fill="none"><path d="M36.5101 17.5624C38.6533 17.3328 39.9927 17.9451 40.5285 19.3994C40.5285 20.9302 34.5583 31.6077 22.6179 51.4319L19.2884 57.0577L15.844 62.6834C13.3947 66.8932 11.4046 70.2993 9.8738 72.9017C5.74057 79.7904 3.40607 84.0002 2.87028 85.531C1.95179 85.4544 1.22465 84.8421 0.688858 83.694C0.229611 82.7755 0.114799 81.8953 0.344422 81.0533C1.03329 78.5275 6.19982 69.3808 15.844 53.6133L18.7143 49.0208L21.4698 44.3136C23.6895 40.7161 25.4882 37.731 26.8659 35.3582C30.7695 28.9288 33.4485 24.298 34.9028 21.466C34.2904 22.1549 33.7929 22.7289 33.4102 23.1882L31.8028 24.9104C30.5782 26.3647 29.4301 27.551 28.3585 28.4695C25.6795 30.9954 23.6512 32.1818 22.2735 32.0287C21.355 31.646 20.7044 31.0337 20.3217 30.1917C19.939 29.2732 19.9772 28.3547 20.4365 27.4362C21.8908 27.972 24.7228 26.6708 28.9325 23.5326L31.3436 21.6956C31.8794 21.2364 32.6065 20.6623 33.525 19.9735C35.1324 18.5957 36.1274 17.792 36.5101 17.5624ZM69.8306 22.729C77.2551 25.4079 80.8526 30.0386 80.623 36.6212C80.4699 40.984 78.8242 46.1505 75.686 52.1208C72.5479 57.9379 68.6443 63.334 63.9752 68.3092C58.9235 73.5906 53.9101 77.4176 48.9349 79.7904C43.2709 82.4693 38.2957 82.9668 34.0094 81.2829C30.565 79.9052 28.7663 76.8053 28.6132 71.9832C28.4601 67.5438 29.6848 62.2242 32.2872 56.0244C38.1043 42.0939 46.3708 31.6077 57.0865 24.5659H55.9384L54.7903 24.6807C53.9484 24.2215 53.757 23.6092 54.2162 22.8438C54.5224 22.1549 55.0199 21.6956 55.7088 21.466C58.005 21.0833 60.4926 21.0068 63.1716 21.2364C68.606 18.7871 73.8491 18.5192 78.9008 20.4327C79.4366 20.6623 79.6279 21.0833 79.4748 21.6956C79.3983 22.308 79.0921 22.5376 78.5563 22.3845C75.9539 21.6191 73.0454 21.7339 69.8306 22.729ZM66.8455 57.2873C80.776 37.4631 80.1254 26.6325 64.8937 24.7956C54.8668 30.23 45.9881 40.1803 38.2574 54.6466C34.9661 60.8464 32.9761 66.2043 32.2872 70.7203C31.4452 75.6189 32.3255 78.604 34.9279 79.6756C39.1376 81.436 44.4572 79.7904 50.8867 74.7387C56.2446 70.5289 61.5642 64.7118 66.8455 57.2873ZM154.047 66.2426C154.276 66.013 154.621 66.013 155.08 66.2426C155.463 66.4722 155.539 66.8167 155.31 67.2759C153.702 69.9548 150.756 72.3276 146.469 74.3942C142.183 76.4608 137.82 77.609 133.381 77.8386C128.329 82.2014 123.622 83.6557 119.259 82.2014C115.202 80.8237 112.906 78.0682 112.37 73.935C111.834 69.7252 113.327 65.5537 116.848 61.4205C117.613 57.2107 119.565 53.7281 122.703 50.9726C126.148 48.0641 130.013 46.9925 134.299 47.7579C140.576 48.906 143.637 52.5035 143.484 58.5502C143.408 63.9846 141.073 69.3808 136.481 74.7387C139.772 74.1263 143.216 72.8634 146.814 70.9499C149.875 69.4191 152.286 67.85 154.047 66.2426ZM122.244 58.665C121.019 61.4205 120.598 64.0994 120.981 66.7018C121.364 69.3042 122.474 71.2943 124.311 72.6721C125.995 74.0498 128.061 74.8535 130.51 75.0831C132.041 73.3992 133.687 71.103 135.447 68.1944C137.973 63.6785 139.274 59.6601 139.351 56.1392C139.351 52.2356 137.591 50.169 134.07 49.9393C131.62 49.7863 129.286 50.5899 127.066 52.3504C124.923 54.0343 123.316 56.1392 122.244 58.665ZM120.292 80.02C122.359 81.015 124.923 80.1731 127.985 77.4942C125.688 77.1114 123.698 76.3078 122.014 75.0831C119.412 73.3227 117.728 70.8733 116.963 67.7352C115.661 74.3942 116.771 78.4892 120.292 80.02ZM169.996 42.1321C169.69 44.8876 168.695 47.5666 167.011 50.169C165.327 52.7714 162.992 56.8663 160.007 62.4538C155.185 71.4091 152.162 78.3744 150.937 83.3496C154.917 76.4608 161.385 68.845 170.34 60.502C179.831 51.6998 186.184 47.911 189.399 49.1357C190.241 49.4418 190.968 49.9011 191.58 50.5134C192.269 51.1257 192.575 51.7763 192.499 52.4652C192.422 52.7714 192.269 52.9244 192.04 52.9244C191.734 53.001 191.542 52.9627 191.466 52.8096C191.389 52.1208 191.121 51.8146 190.662 51.8911C187.064 52.1973 180.099 57.249 169.766 67.0463H169.881C169.116 68.8833 168.542 71.7918 168.159 75.772C167.776 80.2114 168.121 82.699 169.192 83.2347C170.876 84.1532 175.048 82.0866 181.707 77.0349C184.156 75.1214 186.605 73.093 189.055 70.9499C191.274 68.9598 192.805 67.429 193.647 66.3574C194.03 66.0512 194.412 66.0512 194.795 66.3574C195.101 66.6636 195.178 67.008 195.025 67.3907L194.566 67.9648L193.991 68.6536L192.843 70.0314C191.848 71.256 190.93 72.3659 190.088 73.3609C187.639 76.193 185.342 78.5275 183.199 80.3644C177.076 85.6458 171.986 87.2149 167.929 85.0717C164.102 83.0051 162.686 78.9484 163.681 72.9017C155.415 81.4743 151.052 87.2532 150.593 90.2383C150.133 90.6975 149.445 90.774 148.526 90.4679C147.684 90.1617 147.148 89.7025 146.919 89.0901C144.775 84.4211 147.914 74.4708 156.333 59.2391C159.471 53.6516 161.997 49.2505 163.911 46.0357C165.901 42.7445 166.705 39.7594 166.322 37.0804C167.47 36.5446 168.465 36.8891 169.307 38.1137C170.072 39.3384 170.302 40.6779 169.996 42.1321ZM205.097 53.0393C204.638 54.7997 203.03 57.8613 200.275 62.2242L198.553 64.8649L196.83 67.7352C195.529 70.0314 194.458 72.1745 193.616 74.1646C194.84 72.7103 196.601 70.4141 198.897 67.2759L201.652 63.2575L204.523 59.3539C209.115 53.3837 212.253 50.5517 213.937 50.8578C214.932 51.0109 215.736 51.5467 216.348 52.4652C216.961 53.2306 217.267 53.996 217.267 54.7614C217.267 55.833 216.846 57.7465 216.004 60.502C215.621 61.5736 215.162 62.8365 214.626 64.2908L213.248 68.3092C210.723 75.0448 209.689 78.5275 210.149 78.7571C210.531 78.9102 213.402 74.356 218.759 65.0945C221.285 60.8082 223.275 57.6317 224.73 55.5651C226.796 52.6565 228.251 51.2023 229.092 51.2023C229.858 51.2023 230.662 51.6998 231.504 52.6948C232.269 53.6133 232.575 54.417 232.422 55.1059C232.192 56.1774 231.695 57.9762 230.929 60.502C230.7 61.344 230.355 62.4921 229.896 63.9464L228.863 67.6203C227.026 73.6671 226.184 77.0732 226.337 77.8386C226.72 79.5225 229.705 78.9867 235.292 76.2312C237.206 75.3127 239.234 74.2412 241.377 73.0165C242.143 72.5572 242.87 72.098 243.559 71.6388C244.171 71.256 244.592 70.9882 244.822 70.8351C245.357 70.4524 245.778 70.4906 246.085 70.9499C246.314 71.4091 246.238 71.8301 245.855 72.2128C245.549 72.519 245.166 72.9017 244.707 73.3609C244.018 73.8967 243.329 74.4708 242.64 75.0831C240.727 76.6139 238.813 77.9151 236.9 78.9867C231.465 82.0484 227.332 82.5459 224.5 80.4793C222.893 79.3311 222.165 77.2263 222.319 74.1646C222.319 71.7153 222.893 68.7302 224.041 65.2093C224.5 63.8316 224.998 62.3773 225.533 60.8464C225.993 59.6983 226.49 58.4737 227.026 57.1725L228.404 53.7281C228.174 53.8047 227.179 55.4503 225.418 58.665L224.844 59.8131L224.156 60.9613L222.778 63.4871C221.63 65.6303 220.635 67.4673 219.793 68.9981C214.052 78.9484 210.225 83.6174 208.312 83.0051C206.015 82.2397 204.944 80.2114 205.097 76.9201C205.25 74.3942 206.13 71.0264 207.737 66.8167C208.35 65.3624 209.077 63.7167 209.919 61.8798L210.952 59.5835C211.335 58.665 211.603 58.0144 211.756 57.6317C212.904 55.0293 213.21 53.8429 212.674 54.0726C211.297 54.6083 207.431 59.507 201.078 68.7685C198.706 72.2128 196.333 75.8102 193.96 79.5608C191.817 82.852 190.286 85.2631 189.368 86.7939C189.138 87.4828 188.564 87.5976 187.645 87.1383C186.65 86.6791 186.076 85.8371 185.923 84.6125C185.464 81.2447 187.722 75.0831 192.697 66.1278L194.075 63.4871L195.453 61.0761C196.677 59.0095 197.558 57.4786 198.093 56.4836C199.777 53.2689 200.734 51.0492 200.964 49.8245C201.04 49.2887 201.308 49.0208 201.767 49.0208C202.227 49.0208 202.762 49.2122 203.375 49.5949C203.987 50.0541 204.446 50.5899 204.752 51.2023C205.135 51.8146 205.25 52.4269 205.097 53.0393ZM271.606 53.0393C271.989 52.5035 272.333 52.0059 272.639 51.5467C272.257 51.0109 271.683 50.8578 270.917 51.0874C269.846 51.2405 268.43 52.1973 266.669 53.9577C265.138 55.412 263.646 57.2107 262.191 59.3539C260.737 61.4205 259.704 63.1427 259.092 64.5204C258.479 66.0512 258.594 66.7018 259.436 66.4722C259.512 66.3957 259.666 66.3191 259.895 66.2426C261.043 65.0945 262.115 63.9846 263.11 62.9131C263.569 62.4538 264.067 61.918 264.602 61.3057C265.138 60.6934 265.751 59.928 266.439 59.0095L268.506 56.7132C269.731 55.2589 270.764 54.0343 271.606 53.0393ZM265.865 63.9464C263.799 66.3957 261.732 68.7302 259.666 70.9499C251.399 79.5225 245.582 83.5026 242.214 82.8903C240.454 82.5841 239.459 81.5508 239.229 79.7904C238.77 76.4226 240.301 71.8301 243.822 66.013L244.74 63.7167C244.74 63.181 245.046 62.7982 245.659 62.5686C246.194 62.4155 246.845 62.4538 247.61 62.6834C248.376 62.9131 248.95 63.2575 249.333 63.7167C249.792 64.2525 249.83 64.8266 249.447 65.4389L248.873 67.1611L247.496 69.3425C243.592 76.0781 242.099 79.6373 243.018 80.02C244.166 80.4027 249.026 76.5374 257.599 68.424C256.987 68.1179 256.413 67.7352 255.877 67.2759C254.729 66.2043 254.308 65.171 254.614 64.176C255.379 61.2674 257.561 57.9379 261.158 54.1874C264.985 50.2072 268.2 48.4085 270.802 48.7912C271.797 48.9443 272.678 49.2505 273.443 49.7097C273.52 49.5566 273.596 49.3653 273.673 49.1357C273.979 48.2172 274.782 48.2172 276.084 49.1357C277.385 50.1307 278.074 51.0109 278.15 51.7763C278.15 52.8479 277.347 54.838 275.739 57.7465C275.127 58.8946 274.285 60.3107 273.213 61.9946L271.836 64.2908L270.458 66.4722C265.789 74.2794 264.028 78.7954 265.177 80.02C266.018 80.9385 269.731 78.9484 276.313 74.0498C278.456 72.519 280.714 70.7968 283.087 68.8833C283.853 68.2709 284.58 67.6586 285.269 67.0463C285.498 66.8932 285.69 66.7401 285.843 66.587L286.072 66.3574C286.378 66.1278 286.723 66.1278 287.106 66.3574C287.565 66.587 287.68 66.9315 287.45 67.3907L287.22 67.6203C287.144 67.7734 286.991 68.003 286.761 68.3092C286.225 68.9215 285.651 69.6104 285.039 70.3758C283.125 72.5955 281.174 74.5856 279.184 76.346C272.831 81.857 267.511 83.8088 263.225 82.2014C259.168 80.6706 259.359 76.1547 263.799 68.6536C264.564 67.3524 265.444 65.9747 266.439 64.5204L267.702 62.5686C268.085 62.1094 268.506 61.5353 268.965 60.8464C270.726 58.3971 271.568 57.0959 271.491 56.9429C271.415 57.0959 271.032 57.5934 270.343 58.4354C269.578 59.4304 268.697 60.5403 267.702 61.7649C267.32 62.3007 266.899 62.7982 266.439 63.2575C266.363 63.4106 266.248 63.5637 266.095 63.7167C266.018 63.7933 265.942 63.8698 265.865 63.9464ZM291.853 66.7018C292.236 69.3042 293.346 71.2943 295.183 72.6721C296.867 74.0498 298.933 74.8535 301.383 75.0831C302.913 73.3992 304.559 71.103 306.32 68.1944C308.845 63.6785 310.147 59.6601 310.223 56.1392C310.223 52.2356 308.463 50.169 304.942 49.9393C302.492 49.7863 300.158 50.5899 297.938 52.3504C295.795 54.0343 294.188 56.1392 293.116 58.665C291.892 61.4205 291.471 64.0994 291.853 66.7018ZM298.857 77.4942C296.561 77.1114 294.57 76.3078 292.887 75.0831C290.284 73.3227 288.6 70.8733 287.835 67.7352C286.534 74.3942 287.643 78.4892 291.164 80.02C293.231 81.015 295.795 80.1731 298.857 77.4942ZM310.338 70.6054C309.496 71.9832 308.501 73.3609 307.353 74.7387C310.644 74.1263 314.088 72.8634 317.686 70.9499C320.748 69.4191 323.159 67.85 324.919 66.2426C325.149 66.013 325.493 66.013 325.952 66.2426C326.335 66.4722 326.412 66.8167 326.182 67.2759C324.575 69.9548 321.628 72.3276 317.341 74.3942C313.055 76.4608 308.692 77.609 304.253 77.8386C299.201 82.2014 294.494 83.6557 290.131 82.2014C286.074 80.8237 283.778 78.0682 283.242 73.935C282.707 69.7252 284.199 65.5537 287.72 61.4205C288.485 57.2107 290.437 53.7281 293.575 50.9726C297.02 48.0641 300.885 46.9925 305.171 47.7579C310.376 48.6764 313.361 51.3171 314.127 55.6799C314.433 52.6183 313.667 49.6714 311.83 46.8394C309.534 43.4716 305.822 39.7594 300.694 35.7027C297.709 32.641 295.948 28.9671 295.412 24.6807C294.877 20.5475 296.178 16.5674 299.316 12.7403C301.918 9.5256 305.21 7.03801 309.19 5.27756C317.303 1.75667 324.842 0.49374 331.808 1.48877L335.252 2.29246C338.696 3.28749 341.452 4.85659 343.519 6.99974C345.585 9.14289 346.657 11.5157 346.733 14.1181C346.963 20.2414 342.447 25.4844 333.185 29.8473C332.497 30.23 331.884 30.0769 331.348 29.388C330.66 28.7757 330.698 28.1634 331.463 27.551C343.557 19.8969 347.116 13.3144 342.141 7.80342C340.533 6.04297 337.893 4.97139 334.219 4.58869L330.43 4.35907C323.771 4.51215 317.074 6.08124 310.338 9.06635C306.511 10.9033 303.373 13.1996 300.923 15.9551C298.857 18.7105 298.13 21.9635 298.742 25.7141C299.431 29.4646 301.536 32.7558 305.057 35.5879C308.577 38.3433 311.448 41.0988 313.667 43.8543C315.887 46.6098 316.92 50.3603 316.767 55.1059C316.614 59.7749 315.083 64.1377 312.175 68.1944C311.409 69.266 310.797 70.0697 310.338 70.6054ZM349.02 47.7579C354.148 46.916 356.674 48.4468 356.597 52.3504C356.521 56.254 354.263 61.6501 349.823 68.5388C345.69 74.9683 342.169 79.1398 339.261 81.0533C336.582 82.7372 333.788 82.6607 330.879 80.8237C328.2 79.0632 326.784 76.8818 326.631 74.2794C321.35 80.7089 316.949 86.7174 313.428 92.3049C306.08 105.393 303.21 114.196 304.817 118.712C302.215 119.018 300.684 118.291 300.225 116.53C298.694 111.172 304.013 98.5812 316.183 78.7571L319.628 73.1313L321.35 70.3758L322.957 67.7352C325.483 63.6019 327.473 60.2724 328.928 57.7465C332.755 50.9344 334.515 46.3802 334.209 44.0839C335.357 43.5481 336.352 43.8926 337.194 45.1172C337.959 46.2654 338.189 47.6048 337.883 49.1357C337.5 52.0442 334.592 57.9379 329.157 66.8167C339.184 54.7232 345.805 48.3702 349.02 47.7579ZM335.357 79.1015C337.577 78.4126 341.404 73.3992 346.838 64.0612C352.273 54.6466 353.88 49.8245 351.66 49.5949C350.742 49.5184 348.063 51.585 343.623 55.7947C338.878 60.3107 334.018 65.5155 329.042 71.4091C329.655 73.935 330.573 75.9633 331.798 77.4942C333.023 78.9484 334.209 79.4842 335.357 79.1015ZM389.894 53.0393C390.276 52.5035 390.621 52.0059 390.927 51.5467C390.544 51.0109 389.97 50.8578 389.205 51.0874C388.133 51.2405 386.717 52.1973 384.957 53.9577C383.426 55.412 381.933 57.2107 380.479 59.3539C379.025 61.4205 377.991 63.1427 377.379 64.5204C376.767 66.0512 376.882 66.7018 377.723 66.4722C377.8 66.3957 377.953 66.3191 378.183 66.2426C379.331 65.0945 380.402 63.9846 381.397 62.9131C381.857 62.4538 382.354 61.918 382.89 61.3057C383.426 60.6934 384.038 59.928 384.727 59.0095L386.794 56.7132C388.018 55.2589 389.052 54.0343 389.894 53.0393ZM384.153 63.9464C382.086 66.3957 380.02 68.7302 377.953 70.9499C369.687 79.5225 363.87 83.5026 360.502 82.8903C358.741 82.5841 357.746 81.5508 357.517 79.7904C357.057 76.4226 358.588 71.8301 362.109 66.013L363.028 63.7167C363.028 63.181 363.334 62.7982 363.946 62.5686C364.482 62.4155 365.132 62.4538 365.898 62.6834C366.663 62.9131 367.237 63.2575 367.62 63.7167C368.079 64.2525 368.118 64.8266 367.735 65.4389L367.161 67.1611L365.783 69.3425C361.879 76.0781 360.387 79.6373 361.305 80.02C362.454 80.4027 367.314 76.5374 375.886 68.424C375.274 68.1179 374.7 67.7352 374.164 67.2759C373.016 66.2043 372.595 65.171 372.901 64.176C373.667 61.2674 375.848 57.9379 379.446 54.1874C383.273 50.2072 386.487 48.4085 389.09 48.7912C390.085 48.9443 390.965 49.2505 391.73 49.7097C391.807 49.5566 391.884 49.3653 391.96 49.1357C392.266 48.2172 393.07 48.2172 394.371 49.1357C395.672 50.1307 396.361 51.0109 396.438 51.7763C396.438 52.8479 395.634 54.838 394.027 57.7465C393.414 58.8946 392.572 60.3107 391.501 61.9946L390.123 64.2908L388.745 66.4722C384.076 74.2794 382.316 78.7954 383.464 80.02C384.306 80.9385 388.018 78.9484 394.601 74.0498C396.744 72.519 399.002 70.7968 401.375 68.8833C402.14 68.2709 402.867 67.6586 403.556 67.0463C403.786 66.8932 403.977 66.7401 404.13 66.587L404.36 66.3574C404.666 66.1278 405.01 66.1278 405.393 66.3574C405.852 66.587 405.967 66.9315 405.738 67.3907L405.508 67.6203C405.431 67.7734 405.278 68.003 405.049 68.3092C404.513 68.9215 403.939 69.6104 403.326 70.3758C401.413 72.5955 399.461 74.5856 397.471 76.346C391.118 81.857 385.799 83.8088 381.512 82.2014C377.456 80.6706 377.647 76.1547 382.086 68.6536C382.852 67.3524 383.732 65.9747 384.727 64.5204L385.99 62.5686C386.373 62.1094 386.794 61.5353 387.253 60.8464C389.013 58.3971 389.855 57.0959 389.779 56.9429C389.702 57.0959 389.319 57.5934 388.631 58.4354C387.865 59.4304 386.985 60.5403 385.99 61.7649C385.607 62.3007 385.186 62.7982 384.727 63.2575C384.65 63.4106 384.536 63.5637 384.383 63.7167C384.306 63.7933 384.229 63.8698 384.153 63.9464ZM497.747 32.7176C498.053 39.6828 489.671 48.0258 472.603 57.7465C470.154 59.2008 466.747 61.0761 462.385 63.3723L457.333 66.1278C455.496 67.1228 453.889 68.003 452.511 68.7685C445.469 72.7486 440.762 75.9633 438.389 78.4126C441.833 76.7287 446.541 75.9633 452.511 76.1164C458.175 76.2695 461.925 77.1114 463.762 78.6423C464.222 79.2546 464.375 80.2114 464.222 81.5126C464.068 82.7372 463.686 83.5026 463.073 83.8088C462.078 81.8953 457.83 80.7472 450.329 80.3644C442.675 79.9817 437.93 80.862 436.093 83.0051C434.179 82.852 433.069 82.2014 432.763 81.0533C432.304 77.9917 435.71 74.1263 442.981 69.4573C445.66 67.7734 449.373 65.6303 454.118 63.0279L460.318 59.5835L466.633 56.1392C477.042 50.322 484.352 45.4234 488.562 41.4433C494.455 35.8558 496.101 30.7275 493.499 26.0585C492.044 23.3795 488.676 22.1932 483.395 22.4993C478.726 22.8055 473.636 24.1832 468.125 26.6325C462.538 29.0053 458.328 31.6843 455.496 34.6694C452.281 38.0372 451.669 40.8692 453.659 43.1654C453.506 43.4716 453.2 43.663 452.74 43.7395C452.128 43.816 451.592 43.663 451.133 43.2803C447 37.157 450.061 31.1102 460.318 25.14C464.145 22.9968 468.431 21.1599 473.177 19.629C477.54 18.3278 480.946 17.6772 483.395 17.6772C487.069 17.6772 490.322 19.1698 493.154 22.1549C496.063 25.14 497.594 28.6609 497.747 32.7176ZM531.432 22.729C538.857 25.4079 542.454 30.0386 542.224 36.6212C542.071 40.984 540.426 46.1505 537.288 52.1208C534.149 57.9379 530.246 63.334 525.577 68.3092C520.525 73.5906 515.512 77.4176 510.536 79.7904C504.872 82.4693 499.897 82.9668 495.611 81.2829C492.167 79.9052 490.368 76.8053 490.215 71.9832C490.062 67.5438 491.286 62.2242 493.889 56.0244C499.706 42.0939 507.972 31.6077 518.688 24.5659H517.54L516.392 24.6807C515.55 24.2215 515.359 23.6092 515.818 22.8438C516.124 22.1549 516.621 21.6956 517.31 21.466C519.607 21.0833 522.094 21.0068 524.773 21.2364C530.208 18.7871 535.451 18.5192 540.502 20.4327C541.038 20.6623 541.229 21.0833 541.076 21.6956C541 22.308 540.694 22.5376 540.158 22.3845C537.555 21.6191 534.647 21.7339 531.432 22.729ZM528.447 57.2873C542.378 37.4631 541.727 26.6325 526.495 24.7956C516.468 30.23 507.59 40.1803 499.859 54.6466C496.568 60.8464 494.578 66.2043 493.889 70.7203C493.047 75.6189 493.927 78.604 496.529 79.6756C500.739 81.436 506.059 79.7904 512.488 74.7387C517.846 70.5289 523.166 64.7118 528.447 57.2873ZM603.589 32.7176C603.895 39.6828 595.514 48.0258 578.445 57.7465C575.996 59.2008 572.589 61.0761 568.227 63.3723L563.175 66.1278C561.338 67.1228 559.731 68.003 558.353 68.7685C551.311 72.7486 546.604 75.9633 544.231 78.4126C547.675 76.7287 552.383 75.9633 558.353 76.1164C564.017 76.2695 567.767 77.1114 569.604 78.6423C570.064 79.2546 570.217 80.2114 570.064 81.5126C569.91 82.7372 569.528 83.5026 568.915 83.8088C567.92 81.8953 563.672 80.7472 556.171 80.3644C548.517 79.9817 543.772 80.862 541.935 83.0051C540.021 82.852 538.911 82.2014 538.605 81.0533C538.146 77.9917 541.552 74.1263 548.823 69.4573C551.502 67.7734 555.215 65.6303 559.96 63.0279L566.16 59.5835L572.475 56.1392C582.884 50.322 590.194 45.4234 594.404 41.4433C600.297 35.8558 601.943 30.7275 599.341 26.0585C597.886 23.3795 594.518 22.1932 589.237 22.4993C584.568 22.8055 579.478 24.1832 573.967 26.6325C568.38 29.0053 564.17 31.6843 561.338 34.6694C558.123 38.0372 557.511 40.8692 559.501 43.1654C559.348 43.4716 559.042 43.663 558.582 43.7395C557.97 43.816 557.434 43.663 556.975 43.2803C552.842 37.157 555.903 31.1102 566.16 25.14C569.987 22.9968 574.273 21.1599 579.019 19.629C583.382 18.3278 586.788 17.6772 589.237 17.6772C592.911 17.6772 596.164 19.1698 598.996 22.1549C601.905 25.14 603.436 28.6609 603.589 32.7176ZM646.804 43.0506C647.263 45.4234 645.885 49.0974 642.67 54.0726C639.456 58.9712 635.361 63.7167 630.386 68.3092C624.875 73.3609 619.478 77.0349 614.197 79.3311C608.074 82.0101 602.792 82.4693 598.353 80.7089C595.444 79.5608 593.952 77.2263 593.875 73.7054C593.722 70.3376 594.832 66.8932 597.205 63.3723C597.894 62.3007 598.965 61.6884 600.42 61.5353C601.874 61.3822 602.831 61.7267 603.29 62.5686C600.764 63.8698 599.004 66.6636 598.009 70.9499C597.014 75.2362 597.588 77.8769 599.731 78.8719C602.486 80.0966 606.505 79.3311 611.786 76.5757C616.532 73.9733 621.468 70.261 626.597 65.4389C632.261 60.081 636.662 54.9145 639.8 49.9393C643.244 44.5049 644.201 40.8692 642.67 39.0322C640.374 36.2002 634.519 35.7409 625.104 37.6545C615.613 39.6445 609.834 42.6679 607.768 46.7246C606.466 46.495 605.816 45.5382 605.816 43.8543C606.581 42.2469 607.959 40.1421 609.949 37.5397C611.174 35.9323 613.126 33.5595 615.804 30.4213C620.933 24.2215 623.803 20.3179 624.415 18.7105C625.64 19.1698 629.008 19.055 634.519 18.3661L637.619 18.0217C638.767 17.8686 639.724 17.792 640.489 17.792C642.556 17.5624 644.01 17.5624 644.852 17.792C645.541 18.0982 645.962 18.7488 646.115 19.7438C646.191 20.8154 645.885 21.6191 645.196 22.1549C644.584 21.466 641.867 21.2364 637.045 21.466L633.945 21.5808L630.96 21.8105C628.663 21.887 626.941 21.887 625.793 21.8105C625.487 23.4178 624.071 25.8289 621.545 29.0436C620.627 30.2683 619.44 31.7608 617.986 33.5213L616.034 35.8175L614.082 38.1137C618.215 36.0471 622.923 34.6311 628.204 33.8657C633.639 33.1003 637.848 33.3299 640.833 34.5546C641.905 34.9373 643.091 36.0471 644.393 37.8841C645.694 39.7211 646.497 41.4433 646.804 43.0506Z" fill="#FEFAEF"></path></svg> 