<?xml version="1.0" encoding="UTF-8"?> <svg xmlns="http://www.w3.org/2000/svg" width="242" height="72" viewBox="0 0 242 72" fill="none"><path d="M38.4198 0.361779C40.6751 0.120143 42.0846 0.764499 42.6484 2.29485C42.6484 3.90574 36.3659 15.1417 23.801 36.0028L20.2973 41.9228L16.6728 47.8428C14.0953 52.2728 12.0012 55.857 10.3903 58.5955C6.04087 65.8445 3.58426 70.2745 3.02045 71.8854C2.05391 71.8049 1.28874 71.1605 0.724924 69.9523C0.241656 68.9858 0.120839 68.0595 0.362473 67.1735C1.08737 64.5156 6.52414 54.8905 16.6728 38.2983L19.6932 33.4656L22.5928 28.5121C24.9286 24.7265 26.8214 21.5853 28.2712 19.0884C32.379 12.3227 35.198 7.4497 36.7284 4.46955C36.084 5.19445 35.5605 5.79854 35.1577 6.2818L33.4663 8.09406C32.1776 9.62441 30.9694 10.8729 29.8418 11.8394C27.0227 14.4974 24.8883 15.7458 23.4385 15.5847C22.472 15.182 21.7873 14.5376 21.3846 13.6516C20.9819 12.6851 21.0222 11.7186 21.5054 10.752C23.0358 11.3158 26.0159 9.94659 30.4459 6.64426L32.983 4.71119C33.5469 4.22792 34.312 3.62383 35.2786 2.89893C36.97 1.44913 38.0171 0.60341 38.4198 0.361779ZM69.4962 41.0771C73.2818 41.0771 75.2551 40.8354 75.4162 40.3522C75.6578 40.7549 75.4565 41.4395 74.8121 42.4061C74.0872 43.3726 73.3623 44.017 72.6374 44.3391C71.9125 44.5808 70.1405 44.621 67.3215 44.46C58.2199 58.8774 53.1859 67.2944 52.2194 69.7107C51.0917 69.0663 50.3668 68.2206 50.0447 67.1735C49.9641 66.9319 49.8836 66.5695 49.803 66.0862V65.6029L49.6822 65.1196C50.4877 62.4617 54.4746 55.4543 61.6431 44.0975L57.4145 43.8559L52.8234 43.6142C49.2795 43.3726 46.3799 43.2115 44.1246 43.131C37.6005 42.9699 33.6538 43.2921 32.2846 44.0975L32.1638 43.3726L32.0429 42.6477C31.9624 42.0839 32.0429 41.6812 32.2846 41.4395C32.6873 41.0368 33.2914 40.7146 34.0968 40.473C35.305 39.0232 37.6811 36.043 41.225 31.5325L43.5205 28.5121L45.9369 25.2501C47.9505 22.6726 49.6419 20.4979 51.0112 18.726C59.71 7.53025 65.1065 1.4894 67.2007 0.60341C68.4088 0.200687 69.7378 0.240959 71.1876 0.724225C72.4763 1.12695 73.3623 1.73104 73.8456 2.53648C71.6709 2.45594 66.1536 7.4497 57.2937 17.5178C54.3135 20.9812 50.8098 25.1695 46.7826 30.0827C45.655 31.5325 44.1649 33.3448 42.3124 35.5195L41.3458 36.7277L40.3793 37.9358C39.7349 38.7413 39.2114 39.3856 38.8087 39.8689C41.6277 39.7078 45.655 39.7481 50.8904 39.9897L57.4145 40.3522C60.2336 40.5133 62.3277 40.6341 63.697 40.7146L66.8382 35.882L69.8586 31.0493C72.1944 27.5053 74.047 24.6057 75.4162 22.3505C79.0407 16.3902 80.853 12.8462 80.853 11.7186C81.739 11.638 82.5444 11.9602 83.2693 12.6851C83.8331 13.41 84.115 14.2557 84.115 15.2223C84.115 16.7526 79.2421 25.3709 69.4962 41.0771ZM94.4118 51.3465C96.5865 51.7492 96.9087 53.481 95.3784 56.5416C93.7675 59.5218 91.8747 60.8105 89.7 60.4078C87.5253 59.9245 87.2434 58.1928 88.8543 55.2127C90.3846 52.2325 92.2371 50.9438 94.4118 51.3465ZM105.527 34.3113C103.433 33.9086 103.151 32.1769 104.681 29.1162C106.292 26.1361 108.185 24.8473 110.36 25.2501C112.534 25.7333 112.816 27.465 111.205 30.4452C109.594 33.5059 107.702 34.7946 105.527 34.3113ZM169.995 5.79854C177.808 8.6176 181.594 13.4905 181.352 20.4174C181.191 25.0084 179.459 30.4452 176.157 36.7277C172.854 42.8491 168.747 48.5275 163.833 53.7629C158.517 59.3204 153.242 63.3477 148.006 65.8445C142.046 68.6636 136.811 69.1872 132.3 67.4152C128.676 65.9654 126.783 62.7033 126.622 57.629C126.461 52.9574 127.749 47.3596 130.488 40.8354C136.609 26.1763 145.308 15.1417 156.584 7.73161H155.376L154.168 7.85243C153.282 7.36916 153.081 6.7248 153.564 5.91936C153.886 5.19446 154.41 4.71119 155.135 4.46955C157.551 4.06683 160.169 3.98629 162.988 4.22792C168.706 1.65049 174.224 1.36859 179.54 3.3822C180.103 3.62383 180.305 4.06683 180.144 4.71119C180.063 5.35554 179.741 5.59718 179.177 5.43609C176.439 4.63064 173.378 4.75146 169.995 5.79854ZM166.854 42.1644C181.513 21.3034 180.828 9.90631 164.8 7.97324C154.249 13.6919 144.905 24.1627 136.77 39.3856C133.307 45.9098 131.213 51.5479 130.488 56.3C129.602 61.4549 130.528 64.5961 133.267 65.7237C137.697 67.5763 143.295 65.8445 150.06 60.5286C155.698 56.0987 161.296 49.9773 166.854 42.1644ZM222.97 5.79854C230.783 8.6176 234.569 13.4905 234.327 20.4174C234.166 25.0084 232.434 30.4452 229.132 36.7277C225.83 42.8491 221.722 48.5275 216.809 53.7629C211.493 59.3204 206.217 63.3477 200.982 65.8445C195.021 68.6636 189.786 69.1872 185.276 67.4152C181.651 65.9654 179.758 62.7033 179.597 57.629C179.436 52.9574 180.725 47.3596 183.463 40.8354C189.585 26.1763 198.284 15.1417 209.56 7.73161H208.352L207.143 7.85243C206.257 7.36916 206.056 6.7248 206.539 5.91936C206.862 5.19446 207.385 4.71119 208.11 4.46955C210.526 4.06683 213.144 3.98629 215.963 4.22792C221.682 1.65049 227.199 1.36859 232.515 3.3822C233.079 3.62383 233.28 4.06683 233.119 4.71119C233.039 5.35554 232.716 5.59718 232.153 5.43609C229.414 4.63064 226.353 4.75146 222.97 5.79854ZM219.829 42.1644C234.488 21.3034 233.804 9.90631 217.775 7.97324C207.224 13.6919 197.881 24.1627 189.746 39.3856C186.282 45.9098 184.188 51.5479 183.463 56.3C182.577 61.4549 183.504 64.5961 186.242 65.7237C190.672 67.5763 196.27 65.8445 203.036 60.5286C208.674 56.0987 214.272 49.9773 219.829 42.1644Z" fill="#FEFAEF"></path></svg> 