<?xml version="1.0" encoding="UTF-8"?> <svg xmlns="http://www.w3.org/2000/svg" width="247" height="72" viewBox="0 0 247 72" fill="none"><path d="M38.4198 0.361779C40.675 0.120143 42.0846 0.764499 42.6484 2.29485C42.6484 3.90574 36.3659 15.1417 23.8009 36.0028L20.2972 41.9228L16.6727 47.8428C14.0953 52.2728 12.0011 55.857 10.3903 58.5955C6.04085 65.8445 3.58423 70.2745 3.02042 71.8854C2.05389 71.8049 1.28871 71.1605 0.724901 69.9523C0.241633 68.9858 0.120816 68.0595 0.36245 67.1735C1.08735 64.5156 6.52411 54.8905 16.6727 38.2983L19.6932 33.4656L22.5928 28.5121C24.9286 24.7265 26.8214 21.5853 28.2712 19.0884C32.3789 12.3227 35.198 7.4497 36.7283 4.46955C36.084 5.19445 35.5604 5.79854 35.1577 6.2818L33.4663 8.09406C32.1776 9.62441 30.9694 10.8729 29.8418 11.8394C27.0227 14.4974 24.8883 15.7458 23.4385 15.5847C22.4719 15.182 21.7873 14.5376 21.3846 13.6516C20.9819 12.6851 21.0221 11.7186 21.5054 10.752C23.0358 11.3158 26.0159 9.94659 30.4459 6.64426L32.983 4.71119C33.5468 4.22792 34.312 3.62383 35.2785 2.89893C36.97 1.44913 38.0171 0.60341 38.4198 0.361779ZM83.5109 27.1831C83.9942 29.68 82.5444 33.5462 79.1615 38.7816C75.7786 43.9364 71.4695 48.9302 66.2341 53.7629C60.4349 59.0788 54.7565 62.9449 49.1989 65.3613C42.7553 68.1803 37.1978 68.6636 32.5262 66.8111C29.4655 65.6029 27.8949 63.1463 27.8143 59.4413C27.6532 55.8973 28.8211 52.2728 31.318 48.5677C32.0429 47.4401 33.1705 46.7957 34.7009 46.6347C36.2312 46.4736 37.238 46.836 37.7213 47.722C35.0633 49.0913 33.2108 52.0311 32.1637 56.5416C31.1166 61.0521 31.7207 63.8309 33.976 64.878C36.8756 66.1667 41.1042 65.3613 46.6618 62.4617C51.6555 59.7232 56.8507 55.8167 62.2471 50.7424C68.2074 45.1043 72.8388 39.6675 76.1411 34.4322C79.7656 28.7135 80.7724 24.8876 79.1615 22.9545C76.7452 19.9744 70.5835 19.4911 60.6765 21.5047C50.689 23.5989 44.6079 26.7804 42.4332 31.0493C41.0639 30.8076 40.3793 29.8008 40.3793 28.0289C41.1847 26.3374 42.6345 24.1224 44.7287 21.3839C46.0174 19.6925 48.0713 17.1956 50.8904 13.8933C56.2868 7.36916 59.3073 3.26139 59.9516 1.56995C61.2403 2.05321 64.7843 1.9324 70.5835 1.20749L73.8456 0.845047C75.0537 0.683956 76.0605 0.60341 76.866 0.60341C79.0407 0.361779 80.571 0.361779 81.457 0.60341C82.1819 0.925589 82.6249 1.61022 82.786 2.6573C82.8666 3.78492 82.5444 4.63064 81.8195 5.19445C81.1751 4.46955 78.3158 4.22792 73.2415 4.46955L69.9794 4.59037L66.8382 4.832C64.4218 4.91255 62.6096 4.91255 61.4014 4.832C61.0792 6.52344 59.5892 9.06059 56.9312 12.4435C55.9647 13.7322 54.7162 15.3028 53.1859 17.1553L51.132 19.5717L49.0781 21.988C53.4275 19.8133 58.381 18.3232 63.9386 17.5178C69.6572 16.7123 74.0872 16.954 77.2284 18.2427C78.3561 18.6454 79.6045 19.8133 80.9738 21.7464C82.343 23.6794 83.1887 25.4917 83.5109 27.1831ZM98.8953 51.3465C101.07 51.7492 101.392 53.481 99.8618 56.5416C98.2509 59.5218 96.3581 60.8105 94.1834 60.4078C92.0087 59.9245 91.7268 58.1928 93.3377 55.2127C94.868 52.2325 96.7206 50.9438 98.8953 51.3465ZM110.01 34.3113C107.916 33.9086 107.634 32.1769 109.165 29.1162C110.776 26.1361 112.668 24.8473 114.843 25.2501C117.018 25.7333 117.3 27.465 115.689 30.4452C114.078 33.5059 112.185 34.7946 110.01 34.3113ZM174.479 5.79854C182.291 8.6176 186.077 13.4905 185.835 20.4174C185.674 25.0084 183.942 30.4452 180.64 36.7277C177.338 42.8491 173.23 48.5275 168.317 53.7629C163.001 59.3204 157.725 63.3477 152.49 65.8445C146.53 68.6636 141.294 69.1872 136.784 67.4152C133.159 65.9654 131.266 62.7033 131.105 57.629C130.944 52.9574 132.233 47.3596 134.971 40.8354C141.093 26.1763 149.792 15.1417 161.068 7.73161H159.86L158.651 7.85243C157.765 7.36916 157.564 6.7248 158.047 5.91936C158.37 5.19446 158.893 4.71119 159.618 4.46955C162.034 4.06683 164.652 3.98629 167.471 4.22792C173.19 1.65049 178.707 1.36859 184.023 3.3822C184.587 3.62383 184.788 4.06683 184.627 4.71119C184.547 5.35554 184.224 5.59718 183.661 5.43609C180.922 4.63064 177.861 4.75146 174.479 5.79854ZM171.337 42.1644C185.996 21.3034 185.312 9.90631 169.283 7.97324C158.732 13.6919 149.389 24.1627 141.254 39.3856C137.79 45.9098 135.696 51.5479 134.971 56.3C134.085 61.4549 135.012 64.5961 137.75 65.7237C142.18 67.5763 147.778 65.8445 154.544 60.5286C160.182 56.0987 165.78 49.9773 171.337 42.1644ZM227.454 5.79854C235.267 8.6176 239.052 13.4905 238.811 20.4174C238.65 25.0084 236.918 30.4452 233.616 36.7277C230.313 42.8491 226.205 48.5275 221.292 53.7629C215.976 59.3204 210.701 63.3477 205.465 65.8445C199.505 68.6636 194.27 69.1872 189.759 67.4152C186.135 65.9654 184.242 62.7033 184.081 57.629C183.92 52.9574 185.208 47.3596 187.947 40.8354C194.068 26.1763 202.767 15.1417 214.043 7.73161H212.835L211.627 7.85243C210.741 7.36916 210.54 6.7248 211.023 5.91936C211.345 5.19446 211.869 4.71119 212.593 4.46955C215.01 4.06683 217.627 3.98629 220.447 4.22792C226.165 1.65049 231.682 1.36859 236.998 3.3822C237.562 3.62383 237.764 4.06683 237.603 4.71119C237.522 5.35554 237.2 5.59718 236.636 5.43609C233.897 4.63064 230.837 4.75146 227.454 5.79854ZM224.313 42.1644C238.972 21.3034 238.287 9.90631 222.259 7.97324C211.707 13.6919 202.364 24.1627 194.229 39.3856C190.766 45.9098 188.672 51.5479 187.947 56.3C187.061 61.4549 187.987 64.5961 190.726 65.7237C195.156 67.5763 200.753 65.8445 207.519 60.5286C213.157 56.0987 218.755 49.9773 224.313 42.1644Z" fill="#FEFAEF"></path></svg> 