<?xml version="1.0" encoding="UTF-8"?> <svg xmlns="http://www.w3.org/2000/svg" width="283" height="70" viewBox="0 0 283 70" fill="none"><path d="M69.1073 15.9502C69.4295 23.2798 60.6098 32.0592 42.6484 42.2883C40.071 43.8187 36.4867 45.792 31.8957 48.2084L26.5797 51.108C24.6467 52.155 22.9552 53.0813 21.5054 53.8868C14.0953 58.0751 9.14183 61.4579 6.64495 64.0354C10.2695 62.2634 15.2229 61.4579 21.5054 61.619C27.4657 61.7801 31.4124 62.6661 33.3455 64.277C33.8288 64.9214 33.9898 65.9282 33.8288 67.2974C33.6677 68.5861 33.2649 69.3916 32.6206 69.7138C31.5735 67.7002 27.1033 66.492 19.2099 66.0893C11.1554 65.6865 6.16168 66.6128 4.22861 68.868C2.21499 68.707 1.0471 68.0223 0.724919 66.8142C0.241651 63.5924 3.82589 59.5249 11.4776 54.6117C14.2967 52.8397 18.2031 50.5844 23.1969 47.8459L29.721 44.2214L36.3659 40.5969C47.32 34.4755 55.012 29.3206 59.4419 25.1323C65.6439 19.2526 67.3756 13.8561 64.6371 8.94286C63.1067 6.12379 59.5628 4.87535 54.0052 5.19753C49.092 5.51971 43.7357 6.96951 37.9365 9.54694C32.0568 12.0438 27.6268 14.8629 24.6467 18.0041C21.2638 21.5481 20.6194 24.5282 22.7136 26.9446C22.5525 27.2668 22.2303 27.4681 21.7471 27.5487C21.1027 27.6292 20.5389 27.4681 20.0556 27.0654C15.7062 20.6218 18.928 14.2588 29.721 7.97632C33.7482 5.72107 38.2587 3.788 43.2525 2.17711C47.8435 0.807849 51.4278 0.123219 54.0052 0.123219C57.8713 0.123219 61.2945 1.69384 64.2746 4.83508C67.3353 7.97632 68.9462 11.6814 69.1073 15.9502ZM127.51 15.9502C127.832 23.2798 119.013 32.0592 101.051 42.2883C98.4737 43.8187 94.8894 45.792 90.2984 48.2084L84.9825 51.108C83.0494 52.155 81.3579 53.0813 79.9081 53.8868C72.498 58.0751 67.5445 61.4579 65.0477 64.0354C68.6722 62.2634 73.6257 61.4579 79.9081 61.619C85.8684 61.7801 89.8151 62.6661 91.7482 64.277C92.2315 64.9214 92.3926 65.9282 92.2315 67.2974C92.0704 68.5861 91.6677 69.3916 91.0233 69.7138C89.9762 67.7002 85.506 66.492 77.6126 66.0893C69.5582 65.6865 64.5644 66.6128 62.6313 68.868C60.6177 68.707 59.4498 68.0223 59.1276 66.8142C58.6444 63.5924 62.2286 59.5249 69.8803 54.6117C72.6994 52.8397 76.6058 50.5844 81.5996 47.8459L88.1237 44.2214L94.7686 40.5969C105.723 34.4755 113.415 29.3206 117.845 25.1323C124.047 19.2526 125.778 13.8561 123.04 8.94286C121.509 6.12379 117.965 4.87535 112.408 5.19753C107.495 5.51971 102.138 6.96951 96.3392 9.54694C90.4595 12.0438 86.0295 14.8629 83.0494 18.0041C79.6665 21.5481 79.0221 24.5282 81.1163 26.9446C80.9552 27.2668 80.633 27.4681 80.1498 27.5487C79.5054 27.6292 78.9416 27.4681 78.4583 27.0654C74.1089 20.6218 77.3307 14.2588 88.1237 7.97632C92.1509 5.72107 96.6614 3.788 101.655 2.17711C106.246 0.807849 109.83 0.123219 112.408 0.123219C116.274 0.123219 119.697 1.69384 122.677 4.83508C125.738 7.97632 127.349 11.6814 127.51 15.9502ZM134.686 50.9871C136.861 51.3899 137.183 53.1216 135.653 56.1823C134.042 59.1624 132.149 60.4511 129.974 60.0484C127.8 59.5651 127.518 57.8334 129.129 54.8533C130.659 51.8731 132.512 50.5844 134.686 50.9871ZM145.801 33.952C143.707 33.5492 143.425 31.8175 144.956 28.7568C146.567 25.7767 148.459 24.488 150.634 24.8907C152.809 25.374 153.091 27.1057 151.48 30.0858C149.869 33.1465 147.976 34.4352 145.801 33.952ZM210.27 5.43917C218.082 8.25823 221.868 13.1312 221.626 20.058C221.465 24.6491 219.734 30.0858 216.431 36.3683C213.129 42.4897 209.021 48.1681 204.108 53.4035C198.792 58.9611 193.516 62.9883 188.281 65.4852C182.321 68.3042 177.085 68.8278 172.575 67.0558C168.95 65.606 167.057 62.3439 166.896 57.2696C166.735 52.598 168.024 47.0002 170.762 40.4761C176.884 25.817 185.583 14.7823 196.859 7.37223H195.651L194.443 7.49305C193.557 7.00978 193.355 6.36543 193.838 5.55998C194.161 4.83508 194.684 4.35181 195.409 4.11018C197.825 3.70745 200.443 3.62691 203.262 3.86855C208.981 1.29112 214.498 1.00921 219.814 3.02282C220.378 3.26446 220.579 3.70746 220.418 4.35181C220.338 4.99617 220.015 5.2378 219.452 5.07671C216.713 4.27127 213.652 4.39209 210.27 5.43917ZM207.128 41.8051C221.787 20.944 221.103 9.54694 205.074 7.61387C194.523 13.3325 185.18 23.8033 177.045 39.0263C173.582 45.5504 171.487 51.1885 170.762 55.9406C169.876 61.0955 170.803 64.2367 173.541 65.3644C177.971 67.2169 183.569 65.4852 190.335 60.1692C195.973 55.7393 201.571 49.6179 207.128 41.8051ZM263.245 5.43917C271.058 8.25823 274.843 13.1312 274.602 20.058C274.441 24.6491 272.709 30.0858 269.407 36.3683C266.104 42.4897 261.997 48.1681 257.083 53.4035C251.767 58.9611 246.492 62.9883 241.256 65.4852C235.296 68.3042 230.061 68.8278 225.55 67.0558C221.926 65.606 220.033 62.3439 219.872 57.2696C219.711 52.598 220.999 47.0002 223.738 40.4761C229.859 25.817 238.558 14.7823 249.834 7.37223H248.626L247.418 7.49305C246.532 7.00978 246.331 6.36543 246.814 5.55998C247.136 4.83508 247.66 4.35181 248.384 4.11018C250.801 3.70745 253.419 3.62691 256.238 3.86855C261.956 1.29112 267.474 1.00921 272.79 3.02282C273.353 3.26446 273.555 3.70746 273.394 4.35181C273.313 4.99617 272.991 5.2378 272.427 5.07671C269.689 4.27127 266.628 4.39209 263.245 5.43917ZM260.104 41.8051C274.763 20.944 274.078 9.54694 258.05 7.61387C247.499 13.3325 238.155 23.8033 230.02 39.0263C226.557 45.5504 224.463 51.1885 223.738 55.9406C222.852 61.0955 223.778 64.2367 226.517 65.3644C230.947 67.2169 236.544 65.4852 243.31 60.1692C248.948 55.7393 254.546 49.6179 260.104 41.8051Z" fill="#FEFAEF"></path></svg> 