<?xml version="1.0" encoding="UTF-8"?> <svg xmlns="http://www.w3.org/2000/svg" width="877" height="185" viewBox="0 0 877 185" fill="none"><path d="M65.3205 132.483C74.3889 123.604 84.0713 112.504 94.3676 99.1851C81.9931 109.481 71.2244 119.069 62.0616 127.949C51.9541 137.678 47.5144 143.015 48.7424 143.96C50.6317 145.377 56.1577 141.551 65.3205 132.483ZM108.679 90.4001C97.5321 106.175 86.0077 119.778 74.1055 131.208C60.4085 144.527 51.4818 149.722 47.3255 146.794C43.2636 143.96 48.034 135.978 61.6365 122.848C66.9264 117.747 73.4915 111.937 81.3319 105.42C87.6608 100.224 94.6038 94.6981 102.161 88.8415C114.441 71.7438 123.226 56.8188 128.516 44.0664C134.75 28.9525 135.222 18.5617 129.933 12.8939C123.037 5.62036 111.938 4.15619 96.6347 8.50145C82.9377 12.3744 68.4378 20.0258 53.1349 31.4557C38.021 42.6023 26.3549 54.2211 18.1367 66.3122C9.16282 79.5369 6.65958 90.1639 10.627 98.1932C12.8941 102.633 17.4283 105.278 24.2295 106.128C29.8028 106.884 37.6431 106.459 47.7506 104.853C48.6007 104.758 49.0731 105.089 49.1675 105.845C49.3564 106.6 49.1203 107.167 48.4591 107.545C39.0128 111.323 30.3696 112.315 22.5292 110.521C14.7833 108.82 9.5879 104.947 6.94296 98.9017C2.31432 88.6053 4.29802 76.5614 12.8941 62.7699C20.64 50.3009 32.2116 38.6349 47.6089 27.7717C62.9118 16.9086 78.1674 9.635 93.3758 5.95097C110.001 1.98356 123.037 3.30603 132.483 9.91838C144.763 18.6089 140.56 39.7684 119.872 73.3969C119.211 74.436 118.644 75.3334 118.172 76.0891C118.644 75.6168 119.117 75.0972 119.589 74.5305C125.729 68.3904 129.933 64.5175 132.2 62.9116C132.955 62.0615 134.089 62.1559 135.6 63.195C137.206 64.423 138.056 65.5093 138.151 66.4539C138.151 67.7764 137.159 70.2324 135.175 73.822C134.42 75.2389 133.38 76.9865 132.058 79.0646L130.358 81.8985L128.657 84.5907C122.895 94.2258 120.723 99.7991 122.139 101.31C123.179 102.444 127.76 99.988 135.884 93.9424C138.529 92.0532 141.315 89.9278 144.244 87.5662C144.433 87.4718 144.574 87.3301 144.669 87.1411C149.014 75.2389 156.051 63.2895 165.781 51.2928C177.4 37.029 190.53 25.5519 205.172 16.8613C221.325 7.22621 237.005 2.55034 252.214 2.83372C265.722 3.02265 276.065 5.71482 283.245 10.9102C289.479 15.4444 292.88 21.5372 293.446 29.1886C294.013 36.0844 292.218 43.169 288.062 50.4426C284.095 57.5273 278.805 63.195 272.193 67.4458C271.437 67.8236 270.87 67.6347 270.492 66.879C270.02 66.1233 270.209 65.3676 271.059 64.6119C281.261 55.7325 286.74 45.3889 287.495 33.5811C288.251 21.0177 282.678 12.6106 270.776 8.35976C257.645 3.63665 242.437 5.28974 225.15 13.319C209.659 20.4981 194.923 31.503 180.942 46.3335C167.245 60.8807 157.468 75.5695 151.612 90.4001C145.377 106.364 145.235 118.975 151.187 128.232C156.382 136.45 166.395 140.654 181.226 140.843C193.695 141.032 208.714 138.387 226.284 132.908C241.303 128.185 255.803 122.234 269.784 115.055C282.914 108.253 291.368 102.633 295.147 98.1932C296.186 96.9652 297.178 96.6818 298.122 97.343C298.973 98.0987 298.925 99.1851 297.981 100.602C293.635 105.797 284.992 112.126 272.051 119.589C257.598 127.996 242.909 134.656 227.984 139.568C209.848 145.613 194.072 148.116 180.659 147.077C164.6 145.755 152.792 139.379 145.235 127.949C139.568 119.353 138.67 107.97 142.543 93.8007C141.504 94.8398 140.465 95.8317 139.426 96.7763C131.586 103.578 125.021 105.986 119.731 104.003C114.724 102.113 114.96 96.5401 120.439 87.2828C121.384 85.677 122.47 83.9767 123.698 82.1819L125.257 79.7731C125.729 79.2063 126.249 78.4979 126.815 77.6477L132.058 68.8627C128.657 70.6575 122.801 76.0418 114.488 85.0157C113.638 85.7714 112.835 86.4799 112.079 87.1411C111.418 87.8024 110.284 88.8887 108.679 90.4001ZM348.31 96.3512C348.594 95.8789 349.019 95.8317 349.586 96.2095C350.153 96.5873 350.294 97.0597 350.011 97.6264C347.555 101.877 342.926 106.128 336.125 110.379C333.574 111.985 330.221 113.874 326.065 116.047L320.539 119.022L314.729 121.998C304.905 141.835 296.215 156.429 288.658 165.781C278.55 178.344 269.954 182.453 262.87 178.108C256.068 173.952 256.163 166.631 263.153 156.146C269.01 147.361 277.228 139.284 287.808 131.916C293.853 127.665 301.174 123.32 309.77 118.88C312.509 113.402 315.154 108.017 317.705 102.727C318.744 100.649 319.736 98.5238 320.68 96.3512C321.436 94.9343 322.286 93.1867 323.231 91.1085L319.972 95.3593L316.571 99.8935C314.021 103.2 311.754 105.939 309.77 108.112C304.48 113.779 300.324 116.377 297.301 115.905C294.75 115.621 292.767 114.771 291.35 113.354C289.744 111.749 289.224 109.859 289.791 107.687C291.492 101.452 295.648 94.462 302.26 86.7161C309.439 78.2145 315.438 74.3415 320.255 75.0972C322.995 75.5695 324.601 76.8448 325.073 78.9229C325.262 79.6786 325.262 80.576 325.073 81.6151C324.884 82.4653 324.601 83.3627 324.223 84.3073L326.631 81.7568L329.04 79.348C329.135 79.2536 329.418 79.1591 329.89 79.0646C330.457 78.9702 331.024 78.9702 331.591 79.0646C333.197 79.1591 334.047 79.8203 334.141 81.0483C332.63 83.5043 330.599 87.6134 328.048 93.3756L327.057 95.3593L326.065 97.6264C325.215 99.5157 324.506 101.169 323.939 102.586C321.956 106.742 320.019 110.851 318.13 114.913C334.283 107.073 344.343 100.885 348.31 96.3512ZM296.592 111.796C298.765 112.079 302.024 109.907 306.369 105.278C307.975 103.578 310.053 101.216 312.604 98.1932L315.863 94.2258L319.263 90.2584C320.586 87.519 321.389 84.874 321.672 82.3236C322.05 79.4897 321.53 78.1672 320.114 78.3562C317.752 78.8285 314.588 81.3317 310.62 85.8659C307.125 89.7388 303.772 94.2258 300.56 99.3267C295.553 107.45 294.231 111.607 296.592 111.796ZM263.295 175.416C267.356 178.439 273.685 174.707 282.281 164.222C289.65 155.154 297.537 142.638 305.944 126.674C299.237 130.358 293.522 133.853 288.799 137.159C280.77 142.921 273.78 149.77 267.829 157.704C260.933 166.678 259.422 172.582 263.295 175.416ZM393.692 95.7844C394.259 95.4066 394.778 95.4066 395.251 95.7844C395.629 96.1623 395.676 96.5873 395.392 97.0597C393.314 100.744 390.292 104.286 386.324 107.687C382.923 110.521 378.814 112.788 373.997 114.488C368.801 116.283 364.031 116.944 359.686 116.472C352.507 115.81 347.642 112.126 345.091 105.42C342.919 99.4684 345.942 92.2893 354.16 83.8822C357.655 80.2926 361.292 77.5532 365.07 75.664C369.132 73.5858 372.533 72.8774 375.272 73.5386C379.334 74.5777 381.648 76.4669 382.215 79.2063C382.687 81.7568 381.601 84.5907 378.956 87.7079C372.816 95.076 363.559 99.6574 351.184 101.452C350.429 105.042 350.948 107.876 352.743 109.954C356.238 113.732 361.528 114.582 368.612 112.504C371.257 111.654 374.044 110.473 376.972 108.962C379.428 107.639 381.601 106.222 383.49 104.711C385.757 103.011 389.158 100.035 393.692 95.7844ZM356.427 90.4001C354.538 92.9506 353.026 95.7372 351.893 98.76C357.938 97.0597 364.078 93.2812 370.313 87.4245C376.453 81.5679 378.011 77.8839 374.989 76.3725C373.099 75.5223 369.793 77.1282 365.07 81.19C363.275 82.7959 361.528 84.5434 359.827 86.4327C358.316 88.0385 357.183 89.361 356.427 90.4001ZM414.842 104.569C415.976 102.019 416.873 100.13 417.534 98.9017C418.479 97.2958 419.565 95.5955 420.793 93.8007L422.352 91.3919C422.824 90.8252 423.344 90.1167 423.91 89.2665C426.083 86.2437 427.122 84.6379 427.028 84.449C426.933 84.6379 426.461 85.2519 425.611 86.291C424.666 87.519 423.58 88.8887 422.352 90.4001C419.046 94.462 415.739 98.2404 412.433 101.736C402.231 112.315 395.052 117.227 390.896 116.472C388.723 116.094 387.495 114.819 387.212 112.646C386.645 108.49 388.534 102.822 392.88 95.6427L394.013 92.8089C394.013 92.1476 394.391 91.6753 395.147 91.3919C395.808 91.203 396.611 91.2502 397.556 91.5336C398.5 91.817 399.209 92.2421 399.681 92.8089C400.248 93.4701 400.295 94.1786 399.823 94.9343L399.114 97.0597L397.414 99.7518C392.596 108.064 390.754 112.457 391.888 112.929C393.305 113.402 399.586 108.348 410.733 97.7681C422.163 86.8105 428.492 79.1591 429.72 74.8138C430.098 73.6803 431.09 73.6803 432.695 74.8138C434.301 76.0418 435.151 77.1282 435.246 78.0728C435.246 79.3952 434.254 81.8513 432.27 85.4408C431.515 86.8578 430.476 88.6053 429.153 90.6835L427.453 93.5173L425.752 96.2095C425.186 97.1541 424.572 98.2404 423.91 99.4684C418.998 107.97 417.109 112.457 418.243 112.929C419.66 113.402 425.941 108.348 437.088 97.7681C446.723 88.5108 452.721 81.6151 455.083 77.0809C455.555 76.2308 455.886 75.4751 456.075 74.8138C456.169 74.6249 456.264 74.436 456.358 74.2471C456.453 74.1526 456.594 74.0581 456.783 73.9637C457.256 73.7748 458.011 74.0581 459.05 74.8138C460.656 76.0418 461.506 77.1282 461.601 78.0728C461.601 79.3952 460.609 81.8513 458.625 85.4408C457.87 86.8578 456.83 88.6053 455.508 90.6835L453.808 93.5173L452.107 96.2095C446.345 105.845 444.173 111.418 445.589 112.929C446.629 114.063 451.21 111.607 459.334 105.561C461.979 103.672 464.765 101.547 467.694 99.1851C468.638 98.4294 469.536 97.6737 470.386 96.918C470.669 96.729 470.905 96.5401 471.094 96.3512L471.378 96.0678C471.755 95.7844 472.181 95.7844 472.653 96.0678C473.22 96.3512 473.361 96.7763 473.078 97.343L472.795 97.6264C472.7 97.8154 472.511 98.0987 472.228 98.4766C471.567 99.2323 470.858 100.082 470.102 101.027C467.741 103.766 465.332 106.222 462.876 108.395C455.036 115.196 448.471 117.605 443.181 115.621C438.174 113.732 438.41 108.159 443.889 98.9017C444.834 97.2958 445.92 95.5955 447.148 93.8007L448.707 91.3919C449.179 90.8252 449.699 90.1167 450.265 89.2665C452.438 86.2437 453.477 84.6379 453.383 84.449C453.288 84.6379 452.816 85.2519 451.966 86.291C451.021 87.519 449.935 88.8887 448.707 90.4001C445.401 94.462 442.094 98.2404 438.788 101.736C428.586 112.315 421.407 117.227 417.251 116.472C415.078 116.094 413.85 114.819 413.567 112.646C413.283 110.473 413.709 107.781 414.842 104.569ZM531.868 80.7649C524.5 86.9994 518.03 93.8007 512.456 101.169C511.701 103.625 511.654 106.364 512.315 109.387C512.976 112.41 513.968 113.779 515.29 113.496C520.202 113.118 526.909 106.789 535.411 94.5092C538.811 89.5027 541.409 84.7324 543.204 80.1982C545.188 75.4751 545.471 73.0191 544.054 72.8301C542.448 72.5467 538.386 75.1917 531.868 80.7649ZM549.722 30.1805C542.354 39.2489 534.466 51.7651 526.059 67.7292C532.86 64.0452 538.575 60.5501 543.204 57.2439C551.328 51.4817 558.365 44.6332 564.316 36.6984C571.117 27.63 572.582 21.7261 568.709 18.9867C564.647 15.964 558.318 19.6952 549.722 30.1805ZM523.65 74.8138L523.934 75.2389C521.194 78.9229 517.982 84.2128 514.298 91.1085L513.165 93.3756L511.89 95.6427C517.463 88.1802 523.131 81.804 528.893 76.5142C534.655 71.2243 538.622 68.6738 540.795 68.8627C543.157 69.1461 545.282 70.2797 547.171 72.2634C549.155 74.3415 550.005 76.5614 549.722 78.9229C548.872 83.1737 546.227 88.6525 541.787 95.3593C533.758 107.545 526.437 115.007 519.824 117.747C518.974 118.03 517.699 117.936 515.999 117.463C514.11 116.991 512.787 116.33 512.031 115.48C510.898 114.346 510.095 112.788 509.623 110.804C509.245 109.387 509.103 107.734 509.198 105.845C506.836 109.245 504.899 112.646 503.388 116.047C502.349 120.203 502.16 123.32 502.821 125.398C502.16 125.965 501.263 126.06 500.129 125.682C499.09 125.304 498.429 124.784 498.145 124.123C495.501 118.361 499.421 106.081 509.906 87.2828C511.606 84.26 514.062 79.3008 517.274 72.4051C527.098 52.568 535.836 37.9736 543.487 28.6219C553.595 16.0584 562.144 11.9493 569.134 16.2946C576.029 20.4509 575.935 27.7717 568.85 38.257C562.994 47.042 554.775 55.1185 544.196 62.4865C538.528 66.4539 531.679 70.563 523.65 74.8138ZM588.6 87.5662C589.545 83.6933 588.789 80.576 586.333 78.2145C584.349 76.2308 580.712 77.2699 575.422 81.3317C573.439 82.7487 571.455 84.449 569.471 86.4327C567.771 88.2275 566.496 89.6916 565.646 90.8252C559.128 99.8935 557.616 106.364 561.111 110.237C563.945 113.165 568.291 114.299 574.147 113.638C580.571 112.977 586.522 110.946 592.001 107.545C595.212 105.561 599.983 101.783 606.312 96.2095C606.878 95.8317 607.398 95.8317 607.87 96.2095C608.248 96.5873 608.295 97.0124 608.012 97.4847C604.517 103.719 598.991 108.678 591.434 112.363C583.971 116.141 576.462 117.652 568.905 116.897C561.725 116.235 556.908 112.504 554.452 105.703C552.279 99.8463 555.302 92.6672 563.52 84.1656C567.015 80.6705 570.652 77.9311 574.431 75.9474C578.398 73.8692 581.751 73.1608 584.491 73.822C588.364 74.7666 590.867 76.7975 592.001 79.9148C593.04 82.5597 592.803 85.1574 591.292 87.7079C590.914 88.2747 590.347 88.6053 589.592 88.6998C588.836 88.6998 588.505 88.3219 588.6 87.5662ZM620.725 79.6314C620.159 81.804 618.175 85.5825 614.774 90.9669L612.649 94.2258L610.524 97.7681C608.918 100.602 607.595 103.247 606.556 105.703C608.068 103.908 610.24 101.074 613.074 97.2014L616.475 92.2421L620.017 87.4245C625.685 80.0565 629.558 76.5614 631.636 76.9392C632.864 77.1282 633.856 77.7894 634.611 78.9229C635.367 79.8676 635.745 80.8122 635.745 81.7568C635.745 83.0793 635.225 85.4408 634.186 88.8415C633.714 90.1639 633.147 91.7226 632.486 93.5173L630.786 98.4766C627.668 106.789 626.393 111.087 626.96 111.371C627.432 111.56 630.975 105.939 637.587 94.5092C640.704 89.2193 643.16 85.2991 644.955 82.7487C647.505 79.1591 649.3 77.3643 650.339 77.3643C651.284 77.3643 652.276 77.9783 653.315 79.2063C654.26 80.3399 654.637 81.3317 654.448 82.1819C654.165 83.5043 653.551 85.7242 652.606 88.8415C652.323 89.8805 651.898 91.2975 651.331 93.0923L650.056 97.6264C647.789 105.089 646.75 109.292 646.939 110.237C647.411 112.315 651.095 111.654 657.991 108.253C660.352 107.12 662.856 105.797 665.501 104.286C666.445 103.719 667.343 103.152 668.193 102.586C668.948 102.113 669.468 101.783 669.751 101.594C670.413 101.122 670.932 101.169 671.31 101.736C671.593 102.302 671.499 102.822 671.027 103.294C670.649 103.672 670.176 104.144 669.61 104.711C668.759 105.372 667.909 106.081 667.059 106.836C664.698 108.726 662.336 110.332 659.974 111.654C653.268 115.433 648.167 116.047 644.672 113.496C642.688 112.079 641.791 109.481 641.979 105.703C641.979 102.68 642.688 98.9961 644.105 94.6509C644.672 92.9506 645.286 91.1558 645.947 89.2665C646.514 87.8496 647.128 86.3382 647.789 84.7324L649.489 80.4816C649.206 80.576 647.978 82.607 645.805 86.5744L645.097 87.9913L644.247 89.4082L642.546 92.5255C641.129 95.1704 639.901 97.4375 638.862 99.3267C631.778 111.607 627.054 117.369 624.693 116.613C621.859 115.669 620.537 113.165 620.725 109.104C620.914 105.986 622.001 101.83 623.984 96.6346C624.74 94.8398 625.637 92.8089 626.677 90.5418L627.952 87.7079C628.424 86.5744 628.755 85.7714 628.944 85.2991C630.361 82.0874 630.738 80.6233 630.077 80.9066C628.377 81.5679 623.607 87.6134 615.766 99.0434C612.838 103.294 609.91 107.734 606.981 112.363C604.336 116.424 602.447 119.4 601.314 121.289C601.03 122.139 600.322 122.281 599.188 121.714C597.96 121.147 597.252 120.108 597.063 118.597C596.496 114.441 599.283 106.836 605.423 95.7844L607.123 92.5255L608.823 89.5499C610.335 86.9994 611.421 85.1102 612.082 83.8822C614.16 79.9148 615.341 77.1754 615.625 75.664C615.719 75.0028 616.05 74.6721 616.616 74.6721C617.183 74.6721 617.844 74.9083 618.6 75.3806C619.356 75.9474 619.923 76.6086 620.3 77.3643C620.773 78.12 620.914 78.8757 620.725 79.6314ZM699.548 73.1135C705.877 72.0744 708.994 73.9637 708.9 78.7812C708.805 83.5988 706.018 90.2584 700.54 98.76C695.439 106.695 691.093 111.843 687.504 114.205C684.198 116.283 680.75 116.188 677.16 113.921C673.854 111.749 672.107 109.056 671.918 105.845C665.4 113.779 659.968 121.195 655.623 128.09C646.555 144.243 643.012 155.107 644.996 160.68C641.784 161.058 639.895 160.16 639.328 157.988C637.439 151.375 644.004 135.836 659.024 111.371L663.274 104.428L665.4 101.027L667.383 97.7681C670.501 92.6672 672.957 88.5581 674.751 85.4408C679.475 77.0337 681.647 71.4132 681.269 68.5793C682.686 67.9181 683.914 68.3432 684.953 69.8546C685.898 71.2715 686.181 72.9246 685.804 74.8138C685.331 78.4034 681.742 85.677 675.035 96.6346C687.409 81.7096 695.58 73.8692 699.548 73.1135ZM682.686 111.796C685.426 110.946 690.149 104.758 696.856 93.2339C703.562 81.6151 705.546 75.664 702.807 75.3806C701.673 75.2861 698.367 77.8366 692.888 83.032C687.032 88.6053 681.033 95.0287 674.893 102.302C675.649 105.42 676.782 107.923 678.294 109.812C679.805 111.607 681.269 112.268 682.686 111.796ZM762.177 95.7844C762.744 95.4066 763.264 95.4066 763.736 95.7844C764.114 96.1623 764.161 96.5873 763.878 97.0597C761.799 100.744 758.777 104.286 754.809 107.687C751.409 110.521 747.3 112.788 742.482 114.488C737.287 116.283 732.516 116.944 728.171 116.472C720.992 115.81 716.127 112.126 713.577 105.42C711.404 99.4684 714.427 92.2893 722.645 83.8822C726.14 80.2926 729.777 77.5532 733.555 75.664C737.617 73.5858 741.018 72.8774 743.757 73.5386C747.819 74.5777 750.133 76.4669 750.7 79.2063C751.172 81.7568 750.086 84.5907 747.441 87.7079C741.301 95.076 732.044 99.6574 719.669 101.452C718.914 105.042 719.433 107.876 721.228 109.954C724.723 113.732 730.013 114.582 737.098 112.504C739.743 111.654 742.529 110.473 745.457 108.962C747.914 107.639 750.086 106.222 751.975 104.711C754.242 103.011 757.643 100.035 762.177 95.7844ZM724.912 90.4001C723.023 92.9506 721.511 95.7372 720.378 98.76C726.423 97.0597 732.563 93.2812 738.798 87.4245C744.938 81.5679 746.497 77.8839 743.474 76.3725C741.585 75.5223 738.278 77.1282 733.555 81.19C731.76 82.7959 730.013 84.5434 728.313 86.4327C726.801 88.0385 725.668 89.361 724.912 90.4001ZM764.199 69.8546C764.671 73.0663 766.041 75.5695 768.308 77.3643C770.386 78.8757 772.842 79.7731 775.676 80.0565C777.093 78.5451 778.415 76.9865 779.643 75.3806C780.682 73.9637 781.485 72.7829 782.052 71.8383C785.264 65.9816 787.058 60.6445 787.436 55.827C787.814 50.3482 785.83 47.4671 781.485 47.1837C778.557 46.9947 775.487 48.3172 772.275 51.1511C769.347 53.796 767.174 56.7243 765.757 59.9361C764.246 63.4312 763.726 66.7373 764.199 69.8546ZM805.29 75.8057C804.817 77.2226 803.259 80.0565 800.614 84.3073L798.913 86.9994L797.213 89.8333C795.796 92.1004 794.615 94.0841 793.671 95.7844C788.192 105.608 787.625 111.371 791.97 113.071C793.86 114.11 798.158 112.268 804.865 107.545C811.099 103.2 815.539 99.2795 818.184 95.7844C819.317 95.7844 819.979 96.2567 820.167 97.2014C810.343 110.237 801.322 116.802 793.104 116.897C788.948 116.897 786.114 115.149 784.602 111.654C782.619 107.309 784.177 100.46 789.278 91.1085C790.128 89.5972 791.168 87.8496 792.396 85.8659L793.813 83.4571L795.229 81.0483C795.607 80.3871 795.985 79.7731 796.363 79.2063C796.174 79.3008 795.938 79.3952 795.655 79.4897C790.365 82.0402 784.98 83.4571 779.501 83.7405C776.195 86.5744 771.85 90.8724 766.466 96.6346C765.616 97.3903 764.813 98.146 764.057 98.9017C763.301 99.5629 761.837 100.885 759.664 102.869C759.003 103.53 758.436 103.247 757.964 102.019C757.397 100.791 757.586 99.8463 758.531 99.1851C761.081 96.729 765.427 92.3838 771.567 86.1493C772.511 85.2047 773.267 84.26 773.834 83.3154H772.559C769.819 82.7487 767.458 81.7568 765.474 80.3399C761.979 77.8839 759.948 74.436 759.381 69.9963C758.72 65.8399 759.381 61.6364 761.365 57.3856C763.254 53.0403 765.946 49.6869 769.441 47.3254C773.314 44.6804 777.423 43.7358 781.769 44.4915C788.003 45.625 791.498 49.2146 792.254 55.2602C792.915 60.5501 791.593 66.3122 788.286 72.5467C786.964 75.0028 785.264 77.4115 783.186 79.7731C791.97 78.3562 797.213 76.4669 798.913 74.1054V73.9637H799.055V73.822H799.197C800.236 73.5386 801.275 73.5386 802.314 73.822C803.637 74.1054 804.581 74.7194 805.148 75.664L805.715 75.8057H805.29ZM870.27 96.0678C870.837 96.3512 870.979 96.7763 870.695 97.343L870.412 97.6264C870.318 97.8154 870.129 98.0987 869.845 98.4766C869.184 99.2323 868.476 100.082 867.72 101.027C865.358 103.766 862.95 106.222 860.494 108.395C852.653 115.196 846.088 117.605 840.798 115.621C835.792 113.732 836.028 108.159 841.507 98.9017C842.451 97.2958 843.538 95.5955 844.766 93.8007L846.324 91.3919C846.797 90.8252 847.316 90.1167 847.883 89.2665C850.056 86.2437 851.095 84.6379 851 84.449C850.906 84.6379 850.433 85.2519 849.583 86.291C848.639 87.519 847.552 88.8887 846.324 90.4001C843.018 94.462 839.712 98.2404 836.406 101.736C826.204 112.315 819.025 117.227 814.868 116.472C812.696 116.094 811.468 114.819 811.184 112.646C810.618 108.49 812.743 102.444 817.561 94.5092L818.977 92.2421L820.394 90.1167C821.528 88.2275 822.378 86.8105 822.945 85.8659C824.645 82.9376 825.637 80.7177 825.92 79.2063C825.92 78.5451 826.298 78.0728 827.054 77.7894C827.715 77.6005 828.518 77.6477 829.463 77.9311C830.407 78.2145 831.116 78.6396 831.588 79.2063C832.155 79.8676 832.202 80.576 831.73 81.3317C831.446 82.4653 830.313 84.7796 828.329 88.2747C827.574 89.5027 826.582 91.203 825.354 93.3756L823.795 95.9261L822.095 98.6183C816.805 107.687 814.727 112.457 815.86 112.929C817.277 113.402 823.559 108.348 834.705 97.7681C846.135 86.8105 852.464 79.1591 853.692 74.8138C854.07 73.6803 855.062 73.6803 856.668 74.8138C858.274 76.0418 859.124 77.1282 859.218 78.0728C859.218 79.3952 858.226 81.8513 856.243 85.4408C855.487 86.8578 854.448 88.6053 853.126 90.6835L851.425 93.5173L849.725 96.2095C843.963 105.845 841.79 111.418 843.207 112.929C844.246 114.063 848.827 111.607 856.951 105.561C859.596 103.672 862.383 101.547 865.311 99.1851C866.256 98.4294 867.153 97.6737 868.003 96.918C868.287 96.729 868.523 96.5401 868.712 96.3512L868.995 96.0678C869.373 95.7844 869.798 95.7844 870.27 96.0678ZM874.288 106.553C875.799 106.836 876.46 107.876 876.271 109.67C876.271 110.521 875.941 111.796 875.279 113.496C874.524 115.385 873.626 117.133 872.587 118.739C869.659 123.273 866.4 125.162 862.81 124.406C862.244 124.312 862.055 123.981 862.244 123.415C862.433 122.848 862.763 122.564 863.236 122.564C866.825 121.62 869.139 119.825 870.178 117.18H868.762C866.211 116.613 865.88 114.535 867.77 110.946C869.564 107.45 871.737 105.986 874.288 106.553Z" fill="#FEFAEF"></path></svg> 