<?xml version="1.0" encoding="UTF-8"?> <svg xmlns="http://www.w3.org/2000/svg" width="389" height="411" viewBox="0 0 389 411" fill="none"><path d="M171.081 186.659C184.629 189.204 196.034 192.161 196.094 193.013C196.832 195.067 161.334 190.366 152.073 186.996C137.492 181.956 147.157 181.744 171.081 186.659Z" fill="#FEFAEF"></path><path d="M191.378 152.474C198.527 157.636 206.737 164.765 209.505 168.521L214.364 174.83L208.689 171.868C202.601 168.672 178.913 147.55 178.32 144.762C178.054 143.793 184.024 147.194 191.378 152.474Z" fill="#FEFAEF"></path><path d="M208.706 134.024C210.971 135.315 216.284 148.963 214.108 147.996C211.226 146.354 204.862 136.464 205.916 134.614C206.385 133.791 207.677 133.438 208.706 134.024Z" fill="#FEFAEF"></path><path d="M179.427 220.824C196.93 216.906 199.486 216.728 191.443 220.316C181.022 224.727 157.967 229.294 157.464 226.828C157.285 226.183 167.093 223.327 179.427 220.824Z" fill="#FEFAEF"></path><path d="M194.898 246.804C199.324 241.427 203.989 237.548 204.812 238.018C206.459 238.956 200.275 247.417 190.628 257.17C183.326 264.721 186.513 256.733 194.898 246.804Z" fill="#FEFAEF"></path><path d="M213.689 256.42C215.844 261.733 213.621 267.548 210.327 265.671C209.092 264.968 208.738 263.675 209.323 262.648C209.909 261.619 210.814 258.595 211.162 256.069C211.801 252.076 212.007 252.194 213.689 256.42Z" fill="#FEFAEF"></path></svg> 