<?xml version="1.0" encoding="UTF-8"?> <svg xmlns="http://www.w3.org/2000/svg" width="807" height="157" viewBox="0 0 807 157" fill="none"><path d="M111.918 121.025C114.678 115.137 119.048 107.455 125.028 97.9786L126.822 95.2186L130.548 89.4226L134.412 83.4886C137.356 78.7966 139.794 74.7946 141.726 71.4826C147.246 62.2826 151.248 54.5086 153.732 48.1606C147.292 61.0406 134.366 75.9906 114.954 93.0106L111.228 96.1846C90.2521 113.849 70.0121 127.143 50.5081 136.067C28.9801 145.819 15.0881 146.739 8.83206 138.827C2.94406 131.559 5.56606 122.865 16.6981 112.745C26.9101 103.637 41.3081 97.3806 59.8921 93.9766L55.3381 99.0826C40.5261 103.591 28.2901 109.801 18.6301 117.713C10.4421 124.429 8.00406 130.639 11.3161 136.343C15.4561 143.519 27.2781 142.507 46.7821 133.307C64.6301 124.843 83.6281 112.331 103.776 95.7706L108.054 92.1826C133.998 70.1026 148.856 51.8866 152.628 37.5346C155.48 26.4026 153.548 18.0306 146.832 12.4186C140.668 7.26656 131.56 5.15056 119.508 6.07056C107.548 7.08256 95.2661 10.7626 82.6621 17.1106C69.0461 24.0106 57.5461 32.9346 48.1621 43.8826C43.1941 49.6786 40.1121 55.1066 38.9161 60.1666C37.9041 64.6746 38.5021 68.4466 40.7101 71.4826C45.8621 78.8426 57.9141 77.7386 76.8661 68.1706C77.6941 68.0786 78.1541 68.4006 78.2461 69.1366C78.4301 69.8726 78.2001 70.4246 77.5561 70.7926C70.6561 76.0366 63.6641 79.0266 56.5801 79.7626C50.0481 80.4986 44.6201 79.2106 40.2961 75.8986C35.9721 72.5866 33.7641 67.9866 33.6721 62.0986C33.5801 55.5666 36.2481 48.5286 41.6761 40.9846C54.8321 22.5846 73.8301 10.3026 98.6701 4.13856C109.618 1.37856 119.738 0.596556 129.03 1.79256C138.69 2.98856 146.096 6.16256 151.248 11.3146V11.1766C160.632 19.7326 162.518 32.7506 156.906 50.2306C154.698 57.0386 151.202 64.9046 146.418 73.8286C144.578 77.4166 142.37 81.3726 139.794 85.6966C138.23 88.4566 134.136 95.3106 127.512 106.259C126.132 108.559 124.844 110.721 123.648 112.745L117.576 123.509C116.84 124.797 116.564 125.947 116.748 126.959V127.097C117.668 126.453 122.682 120.979 131.79 110.675L133.308 108.881L134.826 107.087L138.138 103.361C140.806 100.325 143.152 97.6566 145.176 95.3566C150.88 88.9166 156.032 83.1666 160.632 78.1066C188.416 47.5626 205.022 32.9346 210.45 34.2226C215.234 35.5106 216.568 39.1906 214.452 45.2626C212.888 50.0466 210.128 56.3026 206.172 64.0306C204.608 67.1586 202.722 70.7466 200.514 74.7946L197.34 80.4526L194.304 85.9726C193.66 87.0766 192.418 89.1926 190.578 92.3206L189.474 94.2526L188.232 96.3226C187.22 97.8866 186.346 99.3586 185.61 100.739C181.194 108.375 177.928 114.861 175.812 120.197C169.464 136.389 172.684 144.439 185.472 144.347C186.208 144.439 186.622 144.715 186.714 145.175C186.714 145.727 186.392 146.095 185.748 146.279C183.264 147.383 180.366 147.475 177.054 146.555C173.282 145.451 170.43 143.289 168.498 140.069C165.094 134.181 166.428 124.751 172.5 111.779C174.524 107.547 177.238 102.487 180.642 96.5986L182.712 93.1486L183.678 91.6306L184.644 90.1126C186.024 87.7206 187.036 85.9266 187.68 84.7306C191.912 77.0026 194.994 71.2986 196.926 67.6186C200.146 61.5466 202.676 56.5786 204.516 52.7146C209.116 43.0546 210.266 38.2706 207.966 38.3626C203.642 38.9146 188.554 53.5886 162.702 82.3846L155.25 90.5266L151.662 94.6666L148.074 98.6686C142.554 104.833 138.092 109.755 134.688 113.435C125.396 123.463 119.37 129.305 116.61 130.961C114.862 131.053 113.344 130.501 112.056 129.305C111.228 128.569 110.676 127.741 110.4 126.821C110.216 125.901 110.262 125.027 110.538 124.199C110.814 123.371 111.274 122.313 111.918 121.025ZM259.439 92.4586C259.991 92.0906 260.497 92.0906 260.957 92.4586C261.325 92.8266 261.371 93.2406 261.095 93.7006C259.071 97.2886 256.127 100.739 252.263 104.051C248.951 106.811 244.949 109.019 240.257 110.675C235.197 112.423 230.551 113.067 226.319 112.607C219.327 111.963 214.589 108.375 212.105 101.843C209.989 96.0466 212.933 89.0546 220.937 80.8666C224.341 77.3706 227.883 74.7026 231.563 72.8626C235.519 70.8386 238.831 70.1486 241.499 70.7926C245.455 71.8046 247.709 73.6446 248.261 76.3126C248.721 78.7966 247.663 81.5566 245.087 84.5926C239.107 91.7686 230.091 96.2306 218.039 97.9786C217.303 101.475 217.809 104.235 219.557 106.259C222.961 109.939 228.113 110.767 235.013 108.743C237.589 107.915 240.303 106.765 243.155 105.293C245.547 104.005 247.663 102.625 249.503 101.153C251.711 99.4966 255.023 96.5986 259.439 92.4586ZM223.145 87.2146C221.305 89.6986 219.833 92.4126 218.729 95.3566C224.617 93.7006 230.597 90.0206 236.669 84.3166C242.649 78.6126 244.167 75.0246 241.223 73.5526C239.383 72.7246 236.163 74.2886 231.563 78.2446C229.815 79.8086 228.113 81.5106 226.457 83.3506C224.985 84.9146 223.881 86.2026 223.145 87.2146ZM289.974 84.4546C290.894 80.6826 290.158 77.6466 287.766 75.3466C285.834 73.4146 282.292 74.4266 277.14 78.3826C275.208 79.7626 273.276 81.4186 271.344 83.3506C269.688 85.0986 268.446 86.5246 267.618 87.6286C261.27 96.4606 259.798 102.763 263.202 106.535C265.962 109.387 270.194 110.491 275.898 109.847C282.154 109.203 287.95 107.225 293.286 103.913C296.414 101.981 301.06 98.3006 307.224 92.8726C307.776 92.5046 308.282 92.5046 308.742 92.8726C309.11 93.2406 309.156 93.6546 308.88 94.1146C305.476 100.187 300.094 105.017 292.734 108.605C285.466 112.285 278.152 113.757 270.792 113.021C263.8 112.377 259.108 108.743 256.716 102.119C254.6 96.4146 257.544 89.4226 265.548 81.1426C268.952 77.7386 272.494 75.0706 276.174 73.1386C280.038 71.1146 283.304 70.4246 285.972 71.0686C289.744 71.9886 292.182 73.9666 293.286 77.0026C294.298 79.5786 294.068 82.1086 292.596 84.5926C292.228 85.1446 291.676 85.4666 290.94 85.5586C290.204 85.5586 289.882 85.1906 289.974 84.4546ZM321.262 76.7266C320.71 78.8426 318.778 82.5226 315.466 87.7666L313.396 90.9406L311.326 94.3906C309.762 97.1506 308.474 99.7266 307.462 102.119C308.934 100.371 311.05 97.6106 313.81 93.8386L317.122 89.0086L320.572 84.3166C326.092 77.1406 329.864 73.7366 331.888 74.1046C333.084 74.2886 334.05 74.9326 334.786 76.0366C335.522 76.9566 335.89 77.8766 335.89 78.7966C335.89 80.0846 335.384 82.3846 334.372 85.6966C333.912 86.9846 333.36 88.5026 332.716 90.2506L331.06 95.0806C328.024 103.177 326.782 107.363 327.334 107.639C327.794 107.823 331.244 102.349 337.684 91.2166C340.72 86.0646 343.112 82.2466 344.86 79.7626C347.344 76.2666 349.092 74.5186 350.104 74.5186C351.024 74.5186 351.99 75.1166 353.002 76.3126C353.922 77.4166 354.29 78.3826 354.106 79.2106C353.83 80.4986 353.232 82.6606 352.312 85.6966C352.036 86.7086 351.622 88.0886 351.07 89.8366L349.828 94.2526C347.62 101.521 346.608 105.615 346.792 106.535C347.252 108.559 350.84 107.915 357.556 104.603C359.856 103.499 362.294 102.211 364.87 100.739C365.79 100.187 366.664 99.6346 367.492 99.0826C368.228 98.6226 368.734 98.3006 369.01 98.1166C369.654 97.6566 370.16 97.7026 370.528 98.2546C370.804 98.8066 370.712 99.3126 370.252 99.7726C369.884 100.141 369.424 100.601 368.872 101.153C368.044 101.797 367.216 102.487 366.388 103.223C364.088 105.063 361.788 106.627 359.488 107.915C352.956 111.595 347.988 112.193 344.584 109.709C342.652 108.329 341.778 105.799 341.962 102.119C341.962 99.1746 342.652 95.5866 344.032 91.3546C344.584 89.6986 345.182 87.9506 345.826 86.1106C346.378 84.7306 346.976 83.2586 347.62 81.6946L349.276 77.5546C349 77.6466 347.804 79.6246 345.688 83.4886L344.998 84.8686L344.17 86.2486L342.514 89.2846C341.134 91.8606 339.938 94.0686 338.926 95.9086C332.026 107.869 327.426 113.481 325.126 112.745C322.366 111.825 321.078 109.387 321.262 105.431C321.446 102.395 322.504 98.3466 324.436 93.2866C325.172 91.5386 326.046 89.5606 327.058 87.3526L328.3 84.5926C328.76 83.4886 329.082 82.7066 329.266 82.2466C330.646 79.1186 331.014 77.6926 330.37 77.9686C328.714 78.6126 324.068 84.5006 316.432 95.6326C313.58 99.7726 310.728 104.097 307.876 108.605C305.3 112.561 303.46 115.459 302.356 117.299C302.08 118.127 301.39 118.265 300.286 117.713C299.09 117.161 298.4 116.149 298.216 114.677C297.664 110.629 300.378 103.223 306.358 92.4586L308.014 89.2846L309.67 86.3866C311.142 83.9026 312.2 82.0626 312.844 80.8666C314.868 77.0026 316.018 74.3346 316.294 72.8626C316.386 72.2186 316.708 71.8966 317.26 71.8966C317.812 71.8966 318.456 72.1266 319.192 72.5866C319.928 73.1386 320.48 73.7826 320.848 74.5186C321.308 75.2546 321.446 75.9906 321.262 76.7266ZM415.556 92.5966C415.832 92.3206 416.246 92.3206 416.798 92.5966C417.258 92.8726 417.35 93.2866 417.074 93.8386C415.142 97.0586 411.6 99.9106 406.448 102.395C401.296 104.879 396.052 106.259 390.716 106.535C384.644 111.779 378.986 113.527 373.742 111.779C368.866 110.123 366.106 106.811 365.462 101.843C364.818 96.7826 366.612 91.7686 370.844 86.8006C371.764 81.7406 374.11 77.5546 377.882 74.2426C382.022 70.7466 386.668 69.4586 391.82 70.3786C399.364 71.7586 403.044 76.0826 402.86 83.3506C402.768 89.8826 399.962 96.3686 394.442 102.809C398.398 102.073 402.538 100.555 406.862 98.2546C410.542 96.4146 413.44 94.5286 415.556 92.5966ZM377.33 83.4886C375.858 86.8006 375.352 90.0206 375.812 93.1486C376.272 96.2766 377.606 98.6686 379.814 100.325C381.838 101.981 384.322 102.947 387.266 103.223C389.106 101.199 391.084 98.4386 393.2 94.9426C396.236 89.5146 397.8 84.6846 397.892 80.4526C397.892 75.7606 395.776 73.2766 391.544 73.0006C388.6 72.8166 385.794 73.7826 383.126 75.8986C380.55 77.9226 378.618 80.4526 377.33 83.4886ZM374.984 109.157C377.468 110.353 380.55 109.341 384.23 106.121C381.47 105.661 379.078 104.695 377.054 103.223C373.926 101.107 371.902 98.1626 370.982 94.3906C369.418 102.395 370.752 107.317 374.984 109.157ZM506.353 92.7346C506.905 93.0106 507.043 93.4246 506.767 93.9766L506.491 94.2526C506.399 94.4366 506.215 94.7126 505.939 95.0806C505.295 95.8166 504.605 96.6446 503.869 97.5646C501.569 100.233 499.223 102.625 496.831 104.741C489.195 111.365 482.801 113.711 477.649 111.779C472.773 109.939 473.003 104.511 478.339 95.4946C479.259 93.9306 480.317 92.2746 481.513 90.5266L483.031 88.1806C483.491 87.6286 483.997 86.9386 484.549 86.1106C486.665 83.1666 487.677 81.6026 487.585 81.4186C487.493 81.6026 487.033 82.2006 486.205 83.2126C485.285 84.4086 484.227 85.7426 483.031 87.2146C479.811 91.1706 476.591 94.8506 473.371 98.2546C463.435 108.559 456.443 113.343 452.395 112.607C450.279 112.239 449.083 110.997 448.807 108.881C448.255 104.833 450.325 98.9446 455.017 91.2166L456.397 89.0086L457.777 86.9386C458.881 85.0986 459.709 83.7186 460.261 82.7986C461.917 79.9466 462.883 77.7846 463.159 76.3126C463.159 75.6686 463.527 75.2086 464.263 74.9326C464.907 74.7486 465.689 74.7946 466.609 75.0706C467.529 75.3466 468.219 75.7606 468.679 76.3126C469.231 76.9566 469.277 77.6466 468.817 78.3826C468.541 79.4866 467.437 81.7406 465.505 85.1446C464.769 86.3406 463.803 87.9966 462.607 90.1126L461.089 92.5966L459.433 95.2186C454.281 104.051 452.257 108.697 453.361 109.157C454.741 109.617 460.859 104.695 471.715 94.3906C482.847 83.7186 489.011 76.2666 490.207 72.0346C490.575 70.9306 491.541 70.9306 493.105 72.0346C494.669 73.2306 495.497 74.2886 495.589 75.2086C495.589 76.4966 494.623 78.8886 492.691 82.3846C491.955 83.7646 490.943 85.4666 489.655 87.4906L487.999 90.2506L486.343 92.8726C480.731 102.257 478.615 107.685 479.995 109.157C481.007 110.261 485.469 107.869 493.381 101.981C495.957 100.141 498.671 98.0706 501.523 95.7706C502.443 95.0346 503.317 94.2986 504.145 93.5626C504.421 93.3786 504.651 93.1946 504.835 93.0106L505.111 92.7346C505.479 92.4586 505.893 92.4586 506.353 92.7346ZM563.953 77.8306C556.777 83.9026 550.475 90.5266 545.047 97.7026C544.311 100.095 544.265 102.763 544.909 105.707C545.553 108.651 546.519 109.985 547.807 109.709C552.591 109.341 559.123 103.177 567.403 91.2166C570.715 86.3406 573.245 81.6946 574.993 77.2786C576.925 72.6786 577.201 70.2866 575.821 70.1026C574.257 69.8266 570.301 72.4026 563.953 77.8306ZM581.341 28.5646C574.165 37.3966 566.483 49.5866 558.295 65.1346C564.919 61.5466 570.485 58.1426 574.993 54.9226C582.905 49.3106 589.759 42.6406 595.555 34.9126C602.179 26.0806 603.605 20.3306 599.833 17.6626C595.877 14.7186 589.713 18.3526 581.341 28.5646ZM555.949 72.0346L556.225 72.4486C553.557 76.0366 550.429 81.1886 546.841 87.9046L545.737 90.1126L544.495 92.3206C549.923 85.0526 555.443 78.8426 561.055 73.6906C566.667 68.5386 570.531 66.0546 572.647 66.2386C574.947 66.5146 577.017 67.6186 578.857 69.5506C580.789 71.5746 581.617 73.7366 581.341 76.0366C580.513 80.1766 577.937 85.5126 573.613 92.0446C565.793 103.913 558.663 111.181 552.223 113.849C551.395 114.125 550.153 114.033 548.497 113.573C546.657 113.113 545.369 112.469 544.633 111.641C543.529 110.537 542.747 109.019 542.287 107.087C541.919 105.707 541.781 104.097 541.873 102.257C539.573 105.569 537.687 108.881 536.215 112.193C535.203 116.241 535.019 119.277 535.663 121.301C535.019 121.853 534.145 121.945 533.041 121.577C532.029 121.209 531.385 120.703 531.109 120.059C528.533 114.447 532.351 102.487 542.563 84.1786C544.219 81.2346 546.611 76.4046 549.739 69.6886C559.307 50.3686 567.817 36.1546 575.269 27.0466C585.113 14.8106 593.439 10.8086 600.247 15.0406C606.963 19.0886 606.871 26.2186 599.971 36.4306C594.267 44.9866 586.263 52.8526 575.959 60.0286C570.439 63.8926 563.769 67.8946 555.949 72.0346ZM618.102 70.3786C624.266 69.3666 627.302 71.2066 627.21 75.8986C627.118 80.5906 624.404 87.0766 619.068 95.3566C614.1 103.085 609.868 108.099 606.372 110.399C603.152 112.423 599.794 112.331 596.298 110.123C593.078 108.007 591.376 105.385 591.192 102.257C584.844 109.985 579.554 117.207 575.322 123.923C566.49 139.655 563.04 150.235 564.972 155.663C561.844 156.031 560.004 155.157 559.452 153.041C557.612 146.601 564.006 131.467 578.634 107.639L582.774 100.877L584.844 97.5646L586.776 94.3906C589.812 89.4226 592.204 85.4206 593.952 82.3846C598.552 74.1966 600.668 68.7226 600.3 65.9626C601.68 65.3186 602.876 65.7326 603.888 67.2046C604.808 68.5846 605.084 70.1946 604.716 72.0346C604.256 75.5306 600.76 82.6146 594.228 93.2866C606.28 78.7506 614.238 71.1146 618.102 70.3786ZM601.68 108.053C604.348 107.225 608.948 101.199 615.48 89.9746C622.012 78.6586 623.944 72.8626 621.276 72.5866C620.172 72.4946 616.952 74.9786 611.616 80.0386C605.912 85.4666 600.07 91.7226 594.09 98.8066C594.826 101.843 595.93 104.281 597.402 106.121C598.874 107.869 600.3 108.513 601.68 108.053ZM679.099 92.4586C679.651 92.0906 680.157 92.0906 680.617 92.4586C680.985 92.8266 681.031 93.2406 680.755 93.7006C678.731 97.2886 675.787 100.739 671.923 104.051C668.611 106.811 664.609 109.019 659.917 110.675C654.857 112.423 650.211 113.067 645.979 112.607C638.987 111.963 634.249 108.375 631.765 101.843C629.649 96.0466 632.593 89.0546 640.597 80.8666C644.001 77.3706 647.543 74.7026 651.223 72.8626C655.179 70.8386 658.491 70.1486 661.159 70.7926C665.115 71.8046 667.369 73.6446 667.921 76.3126C668.381 78.7966 667.323 81.5566 664.747 84.5926C658.767 91.7686 649.751 96.2306 637.699 97.9786C636.963 101.475 637.469 104.235 639.217 106.259C642.621 109.939 647.773 110.767 654.673 108.743C657.249 107.915 659.963 106.765 662.815 105.293C665.207 104.005 667.323 102.625 669.163 101.153C671.371 99.4966 674.683 96.5986 679.099 92.4586ZM642.805 87.2146C640.965 89.6986 639.493 92.4126 638.389 95.3566C644.277 93.7006 650.257 90.0206 656.329 84.3166C662.309 78.6126 663.827 75.0246 660.883 73.5526C659.043 72.7246 655.823 74.2886 651.223 78.2446C649.475 79.8086 647.773 81.5106 646.117 83.3506C644.645 84.9146 643.541 86.2026 642.805 87.2146ZM699.698 101.015C700.802 98.5306 701.676 96.6906 702.32 95.4946C703.24 93.9306 704.298 92.2746 705.494 90.5266L707.012 88.1806C707.472 87.6286 707.978 86.9386 708.53 86.1106C710.646 83.1666 711.658 81.6026 711.566 81.4186C711.474 81.6026 711.014 82.2006 710.186 83.2126C709.266 84.4086 708.208 85.7426 707.012 87.2146C703.792 91.1706 700.572 94.8506 697.352 98.2546C687.416 108.559 680.424 113.343 676.376 112.607C674.26 112.239 673.064 110.997 672.788 108.881C672.236 104.833 674.076 99.3126 678.308 92.3206L679.412 89.5606C679.412 88.9166 679.78 88.4566 680.516 88.1806C681.16 87.9966 681.942 88.0426 682.862 88.3186C683.782 88.5946 684.472 89.0086 684.932 89.5606C685.484 90.2046 685.53 90.8946 685.07 91.6306L684.38 93.7006L682.724 96.3226C678.032 104.419 676.238 108.697 677.342 109.157C678.722 109.617 684.84 104.695 695.696 94.3906C706.828 83.7186 712.992 76.2666 714.188 72.0346C714.556 70.9306 715.522 70.9306 717.086 72.0346C718.65 73.2306 719.478 74.2886 719.57 75.2086C719.57 76.4966 718.604 78.8886 716.672 82.3846C715.936 83.7646 714.924 85.4666 713.636 87.4906L711.98 90.2506L710.324 92.8726C709.772 93.7926 709.174 94.8506 708.53 96.0466C703.746 104.327 701.906 108.697 703.01 109.157C704.39 109.617 710.508 104.695 721.364 94.3906C730.748 85.3746 736.59 78.6586 738.89 74.2426C739.35 73.4146 739.672 72.6786 739.856 72.0346C739.948 71.8506 740.04 71.6666 740.132 71.4826C740.224 71.3906 740.362 71.2986 740.546 71.2066C741.006 71.0226 741.742 71.2986 742.754 72.0346C744.318 73.2306 745.146 74.2886 745.238 75.2086C745.238 76.4966 744.272 78.8886 742.34 82.3846C741.604 83.7646 740.592 85.4666 739.304 87.4906L737.648 90.2506L735.992 92.8726C730.38 102.257 728.264 107.685 729.644 109.157C730.656 110.261 735.118 107.869 743.03 101.981C745.606 100.141 748.32 98.0706 751.172 95.7706C752.092 95.0346 752.966 94.2986 753.794 93.5626C754.07 93.3786 754.3 93.1946 754.484 93.0106L754.76 92.7346C755.128 92.4586 755.542 92.4586 756.002 92.7346C756.554 93.0106 756.692 93.4246 756.416 93.9766L756.14 94.2526C756.048 94.4366 755.864 94.7126 755.588 95.0806C754.944 95.8166 754.254 96.6446 753.518 97.5646C751.218 100.233 748.872 102.625 746.48 104.741C738.844 111.365 732.45 113.711 727.298 111.779C722.422 109.939 722.652 104.511 727.988 95.4946C728.908 93.9306 729.966 92.2746 731.162 90.5266L732.68 88.1806C733.14 87.6286 733.646 86.9386 734.198 86.1106C736.314 83.1666 737.326 81.6026 737.234 81.4186C737.142 81.6026 736.682 82.2006 735.854 83.2126C734.934 84.4086 733.876 85.7426 732.68 87.2146C729.46 91.1706 726.24 94.8506 723.02 98.2546C713.084 108.559 706.092 113.343 702.044 112.607C699.928 112.239 698.732 110.997 698.456 108.881C698.18 106.765 698.594 104.143 699.698 101.015ZM787.173 76.7266C787.633 76.0826 788.047 75.4846 788.415 74.9326C787.955 74.2886 787.265 74.1046 786.345 74.3806C785.057 74.5646 783.355 75.7146 781.239 77.8306C779.399 79.5786 777.605 81.7406 775.857 84.3166C774.109 86.8006 772.867 88.8706 772.131 90.5266C771.395 92.3666 771.533 93.1486 772.545 92.8726C772.637 92.7806 772.821 92.6886 773.097 92.5966C774.477 91.2166 775.765 89.8826 776.961 88.5946C777.513 88.0426 778.111 87.3986 778.755 86.6626C779.399 85.9266 780.135 85.0066 780.963 83.9026L783.447 81.1426C784.919 79.3946 786.161 77.9226 787.173 76.7266ZM780.273 89.8366C777.789 92.7806 775.305 95.5866 772.821 98.2546C762.885 108.559 755.893 113.343 751.845 112.607C749.729 112.239 748.533 110.997 748.257 108.881C747.705 104.833 749.545 99.3126 753.777 92.3206L754.881 89.5606C754.881 88.9166 755.249 88.4566 755.985 88.1806C756.629 87.9966 757.411 88.0426 758.331 88.3186C759.251 88.5946 759.941 89.0086 760.401 89.5606C760.953 90.2046 760.999 90.8946 760.539 91.6306L759.849 93.7006L758.193 96.3226C753.501 104.419 751.707 108.697 752.811 109.157C754.191 109.617 760.033 104.971 770.337 95.2186C769.601 94.8506 768.911 94.3906 768.267 93.8386C766.887 92.5506 766.381 91.3086 766.749 90.1126C767.669 86.6166 770.291 82.6146 774.615 78.1066C779.215 73.3226 783.079 71.1606 786.207 71.6206C787.403 71.8046 788.461 72.1726 789.381 72.7246C789.473 72.5406 789.565 72.3106 789.657 72.0346C790.025 70.9306 790.991 70.9306 792.555 72.0346C794.119 73.2306 794.947 74.2886 795.039 75.2086C795.039 76.4966 794.073 78.8886 792.141 82.3846C791.405 83.7646 790.393 85.4666 789.105 87.4906L787.449 90.2506L785.793 92.8726C780.181 102.257 778.065 107.685 779.445 109.157C780.457 110.261 784.919 107.869 792.831 101.981C795.407 100.141 798.121 98.0706 800.973 95.7706C801.893 95.0346 802.767 94.2986 803.595 93.5626C803.871 93.3786 804.101 93.1946 804.285 93.0106L804.561 92.7346C804.929 92.4586 805.343 92.4586 805.803 92.7346C806.355 93.0106 806.493 93.4246 806.217 93.9766L805.941 94.2526C805.849 94.4366 805.665 94.7126 805.389 95.0806C804.745 95.8166 804.055 96.6446 803.319 97.5646C801.019 100.233 798.673 102.625 796.281 104.741C788.645 111.365 782.251 113.711 777.099 111.779C772.223 109.939 772.453 104.511 777.789 95.4946C778.709 93.9306 779.767 92.2746 780.963 90.5266L782.481 88.1806C782.941 87.6286 783.447 86.9386 783.999 86.1106C786.115 83.1666 787.127 81.6026 787.035 81.4186C786.943 81.6026 786.483 82.2006 785.655 83.2126C784.735 84.4086 783.677 85.7426 782.481 87.2146C782.021 87.8586 781.515 88.4566 780.963 89.0086C780.871 89.1926 780.733 89.3766 780.549 89.5606C780.457 89.6526 780.365 89.7446 780.273 89.8366Z" fill="#FEFAEF"></path></svg> 