<?xml version="1.0" encoding="UTF-8"?> <svg xmlns="http://www.w3.org/2000/svg" width="868" height="179" viewBox="0 0 868 179" fill="none"><path d="M195.684 38.7791C201.388 31.2351 203.78 27.0491 202.86 26.2211C201.848 25.3931 199.18 27.7851 194.856 33.3971C193.476 35.2371 191.774 37.3991 189.75 39.8831L186.852 43.3331L183.954 46.9211C178.802 53.2691 174.754 58.3751 171.81 62.2391C182.85 53.0391 190.808 45.2191 195.684 38.7791ZM148.35 143.797C148.718 141.497 148.35 139.473 147.246 137.725C146.234 136.253 144.854 135.103 143.106 134.275C141.818 135.011 140.622 135.747 139.518 136.483C138.506 137.219 137.724 137.863 137.172 138.415C133.768 141.635 131.376 144.855 129.996 148.075C128.616 151.663 129.306 154.055 132.066 155.251C133.906 156.079 136.206 155.895 138.966 154.699C141.45 153.595 143.474 152.123 145.038 150.283C146.878 148.259 147.982 146.097 148.35 143.797ZM138.138 131.929C137.678 131.469 137.218 131.009 136.758 130.549C130.41 123.373 132.664 110.217 143.52 91.0811C121.9 107.457 102.304 120.567 84.732 130.411C65.228 141.359 53.82 144.993 50.508 141.313C46.644 137.081 49.404 127.973 58.788 113.989C62.284 108.837 67.068 102.397 73.14 94.6691L81.144 84.7331L85.008 79.7651L88.872 74.9351C100.464 60.3071 108.146 48.6691 111.918 40.0211C117.162 28.0611 116.656 18.9531 110.4 12.6971C103.684 6.07312 93.748 3.86512 80.592 6.07312C68.908 8.00512 56.718 13.0191 44.022 21.1151C31.602 29.0271 22.126 37.7671 15.594 47.3351C8.50995 57.6391 6.76195 66.5171 10.35 73.9691C12.466 78.3851 16.79 81.0071 23.322 81.8351C28.474 82.4791 36.202 82.0191 46.506 80.4551C47.334 80.3631 47.794 80.7311 47.886 81.5591C48.07 82.2951 47.84 82.8011 47.196 83.0771C37.996 86.7571 29.532 87.7231 21.804 85.9751C14.352 84.3191 9.33795 80.5471 6.76195 74.6591C2.25395 64.7231 3.31195 54.1891 9.93595 43.0571C15.916 32.9371 25.346 24.0131 38.226 16.2851C50.922 8.64912 63.94 4.09512 77.28 2.62312C91.724 0.875122 103.592 3.26712 112.884 9.79912C122.452 16.5151 124.43 26.5891 118.818 40.0211C116.61 45.4491 113.022 51.7971 108.054 59.0651C105.018 63.4811 100.142 70.1051 93.426 78.9371C87.998 86.0211 83.306 92.2311 79.35 97.5671C74.106 104.651 69.69 110.769 66.102 115.921C56.902 129.169 52.808 136.667 53.82 138.415C55.108 140.531 66.516 135.011 88.044 121.855C109.756 108.607 130.87 94.1631 151.386 78.5231C158.194 68.4951 166.244 58.0991 175.536 47.3351C183.264 38.5031 189.428 32.0171 194.028 27.8771C196.972 25.3011 199.594 23.5991 201.894 22.7711C204.102 22.0351 205.574 22.2651 206.31 23.4611C208.242 26.3131 205.942 32.0631 199.41 40.7111C192.142 50.2791 178.986 62.7911 159.942 78.2471C152.214 89.2871 146.556 98.6711 142.968 106.399C137.448 118.083 136.804 125.489 141.036 128.617C142.6 129.813 145.038 130.457 148.35 130.549C149.454 130.641 150.88 130.641 152.628 130.549L157.044 130.411C158.332 129.859 159.206 129.997 159.666 130.825C160.126 131.653 159.574 132.435 158.01 133.171C155.618 134.183 153.134 134.781 150.558 134.965C150.834 135.241 151.064 135.517 151.248 135.793C153.18 138.553 153.824 141.681 153.18 145.177C152.628 148.489 151.11 151.525 148.626 154.285C146.142 157.045 143.382 158.885 140.346 159.805C136.85 160.817 133.63 160.449 130.686 158.701C126.454 156.309 124.798 152.721 125.718 147.937C126.546 143.797 128.892 139.795 132.756 135.931C134.32 134.367 136.114 133.033 138.138 131.929ZM204.663 77.5571C197.487 83.6291 191.185 90.2531 185.757 97.4291C185.021 99.8211 184.975 102.489 185.619 105.433C186.263 108.377 187.229 109.711 188.517 109.435C193.301 109.067 199.833 102.903 208.113 90.9431C211.425 86.0671 213.955 81.4211 215.703 77.0051C217.635 72.4051 217.911 70.0131 216.531 69.8291C214.967 69.5531 211.011 72.1291 204.663 77.5571ZM222.051 28.2911C214.875 37.1231 207.193 49.3131 199.005 64.8611C205.629 61.2731 211.195 57.8691 215.703 54.6491C223.615 49.0371 230.469 42.3671 236.265 34.6391C242.889 25.8071 244.315 20.0571 240.543 17.3891C236.587 14.4451 230.423 18.0791 222.051 28.2911ZM196.659 71.7611L196.935 72.1751C194.267 75.7631 191.139 80.9151 187.551 87.6311L186.447 89.8391L185.205 92.0471C190.633 84.7791 196.153 78.5691 201.765 73.4171C207.377 68.2651 211.241 65.7811 213.357 65.9651C215.657 66.2411 217.727 67.3451 219.567 69.2771C221.499 71.3011 222.327 73.4631 222.051 75.7631C221.223 79.9031 218.647 85.2391 214.323 91.7711C206.503 103.639 199.373 110.907 192.933 113.575C192.105 113.851 190.863 113.759 189.207 113.299C187.367 112.839 186.079 112.195 185.343 111.367C184.239 110.263 183.457 108.745 182.997 106.813C182.629 105.433 182.491 103.823 182.583 101.983C180.283 105.295 178.397 108.607 176.925 111.919C175.913 115.967 175.729 119.003 176.373 121.027C175.729 121.579 174.855 121.671 173.751 121.303C172.739 120.935 172.095 120.429 171.819 119.785C169.243 114.173 173.061 102.213 183.273 83.9051C184.929 80.9611 187.321 76.1311 190.449 69.4151C200.017 50.0951 208.527 35.8811 215.979 26.7731C225.823 14.5371 234.149 10.5351 240.957 14.7671C247.673 18.8151 247.581 25.9451 240.681 36.1571C234.977 44.7131 226.973 52.5791 216.669 59.7551C211.149 63.6191 204.479 67.6211 196.659 71.7611ZM273.853 92.1851C274.405 91.8171 274.911 91.8171 275.371 92.1851C275.739 92.5531 275.785 92.9671 275.509 93.4271C273.485 97.0151 270.541 100.465 266.677 103.777C263.365 106.537 259.363 108.745 254.671 110.401C249.611 112.149 244.965 112.793 240.733 112.333C233.741 111.689 229.003 108.101 226.519 101.569C224.403 95.7731 227.347 88.7811 235.351 80.5931C238.755 77.0971 242.297 74.4291 245.977 72.5891C249.933 70.5651 253.245 69.8751 255.913 70.5191C259.869 71.5311 262.123 73.3711 262.675 76.0391C263.135 78.5231 262.077 81.2831 259.501 84.3191C253.521 91.4951 244.505 95.9571 232.453 97.7051C231.717 101.201 232.223 103.961 233.971 105.985C237.375 109.665 242.527 110.493 249.427 108.469C252.003 107.641 254.717 106.491 257.569 105.019C259.961 103.731 262.077 102.351 263.917 100.879C266.125 99.2231 269.437 96.3251 273.853 92.1851ZM237.559 86.9411C235.719 89.4251 234.247 92.1391 233.143 95.0831C239.031 93.4271 245.011 89.7471 251.083 84.0431C257.063 78.3391 258.581 74.7511 255.637 73.2791C253.797 72.4511 250.577 74.0151 245.977 77.9711C244.229 79.5351 242.527 81.2371 240.871 83.0771C239.399 84.6411 238.295 85.9291 237.559 86.9411ZM288.104 76.4531C287.552 78.5691 285.62 82.2491 282.308 87.4931L280.238 90.6671L278.168 94.1171C276.604 96.8771 275.316 99.4531 274.304 101.845C275.776 100.097 277.892 97.3371 280.652 93.5651L283.964 88.7351L287.414 84.0431C292.934 76.8671 296.706 73.4631 298.73 73.8311C299.926 74.0151 300.892 74.6591 301.628 75.7631C302.364 76.6831 302.732 77.6031 302.732 78.5231C302.732 79.8111 302.226 82.1111 301.214 85.4231C300.754 86.7111 300.202 88.2291 299.558 89.9771L297.902 94.8071C294.866 102.903 293.624 107.089 294.176 107.365C294.636 107.549 298.086 102.075 304.526 90.9431C307.562 85.7911 309.954 81.9731 311.702 79.4891C314.186 75.9931 315.934 74.2451 316.946 74.2451C317.866 74.2451 318.832 74.8431 319.844 76.0391C320.764 77.1431 321.132 78.1091 320.948 78.9371C320.672 80.2251 320.074 82.3871 319.154 85.4231C318.878 86.4351 318.464 87.8151 317.912 89.5631L316.67 93.9791C314.462 101.247 313.45 105.341 313.634 106.261C314.094 108.285 317.682 107.641 324.398 104.329C326.698 103.225 329.136 101.937 331.712 100.465C332.632 99.9131 333.506 99.3611 334.334 98.8091C335.07 98.3491 335.576 98.0271 335.852 97.8431C336.496 97.3831 337.002 97.4291 337.37 97.9811C337.646 98.5331 337.554 99.0391 337.094 99.4991C336.726 99.8671 336.266 100.327 335.714 100.879C334.886 101.523 334.058 102.213 333.23 102.949C330.93 104.789 328.63 106.353 326.33 107.641C319.798 111.321 314.83 111.919 311.426 109.435C309.494 108.055 308.62 105.525 308.804 101.845C308.804 98.9011 309.494 95.3131 310.874 91.0811C311.426 89.4251 312.024 87.6771 312.668 85.8371C313.22 84.4571 313.818 82.9851 314.462 81.4211L316.118 77.2811C315.842 77.3731 314.646 79.3511 312.53 83.2151L311.84 84.5951L311.012 85.9751L309.356 89.0111C307.976 91.5871 306.78 93.7951 305.768 95.6351C298.868 107.595 294.268 113.207 291.968 112.471C289.208 111.551 287.92 109.113 288.104 105.157C288.288 102.121 289.346 98.0731 291.278 93.0131C292.014 91.2651 292.888 89.2871 293.9 87.0791L295.142 84.3191C295.602 83.2151 295.924 82.4331 296.108 81.9731C297.488 78.8451 297.856 77.4191 297.212 77.6951C295.556 78.3391 290.91 84.2271 283.274 95.3591C280.422 99.4991 277.57 103.823 274.718 108.331C272.142 112.287 270.302 115.185 269.198 117.025C268.922 117.853 268.232 117.991 267.128 117.439C265.932 116.887 265.242 115.875 265.058 114.403C264.506 110.355 267.22 102.949 273.2 92.1851L274.856 89.0111L276.512 86.1131C277.984 83.6291 279.042 81.7891 279.686 80.5931C281.71 76.7291 282.86 74.0611 283.136 72.5891C283.228 71.9451 283.55 71.6231 284.102 71.6231C284.654 71.6231 285.298 71.8531 286.034 72.3131C286.77 72.8651 287.322 73.5091 287.69 74.2451C288.15 74.9811 288.288 75.7171 288.104 76.4531ZM341.136 103.915C343.252 101.523 345.368 98.7171 347.484 95.4971C349.692 92.2771 350.658 90.2071 350.382 89.2871C350.198 88.2751 349.6 87.8611 348.588 88.0451C347.116 88.0451 345.414 89.1491 343.482 91.3571C341.826 93.1971 340.216 95.4971 338.652 98.2571C337.18 100.833 336.214 103.041 335.754 104.881C335.294 106.813 335.57 107.687 336.582 107.503C337.502 107.411 339.02 106.215 341.136 103.915ZM352.59 93.5651C363.354 83.1691 369.334 75.9011 370.53 71.7611C370.898 70.6571 371.864 70.6571 373.428 71.7611C374.992 72.9571 375.82 74.0151 375.912 74.9351C375.912 76.2231 374.946 78.6151 373.014 82.1111C372.278 83.4911 371.266 85.1931 369.978 87.2171L368.322 89.9771L366.666 92.5991C361.054 101.983 358.938 107.411 360.318 108.883C361.33 109.987 365.792 107.595 373.704 101.707C376.28 99.8671 378.994 97.7971 381.846 95.4971C382.766 94.7611 383.64 94.0251 384.468 93.2891C384.744 93.1051 384.974 92.9211 385.158 92.7371L385.434 92.4611C385.802 92.1851 386.216 92.1851 386.676 92.4611C387.228 92.7371 387.366 93.1511 387.09 93.7031L386.814 93.9791C386.722 94.1631 386.538 94.4391 386.262 94.8071C385.618 95.5431 384.928 96.3711 384.192 97.2911C381.892 99.9591 379.546 102.351 377.154 104.467C369.518 111.091 363.124 113.437 357.972 111.505C353.096 109.665 353.326 104.237 358.662 95.2211C359.582 93.6571 360.64 92.0011 361.836 90.2531L363.354 87.9071C363.814 87.3551 364.32 86.6651 364.872 85.8371C366.988 82.8931 368 81.3291 367.908 81.1451C367.816 81.3291 367.356 81.9271 366.528 82.9391C365.608 84.1351 364.55 85.4691 363.354 86.9411C360.134 90.8971 356.914 94.5771 353.694 97.9811C343.758 108.285 336.766 113.069 332.718 112.333C330.602 111.965 329.406 110.723 329.13 108.607C328.578 104.559 330.648 98.6711 335.34 90.9431L336.72 88.7351L338.1 86.6651C339.204 84.8251 340.032 83.4451 340.584 82.5251C342.24 79.6731 343.206 77.5111 343.482 76.0391C343.482 75.3951 343.85 74.9351 344.586 74.6591C345.23 74.4751 346.012 74.5211 346.932 74.7971C347.852 75.0731 348.542 75.4871 349.002 76.0391C349.554 76.6831 349.6 77.3731 349.14 78.1091C348.864 79.2131 347.76 81.4671 345.828 84.8711C345.736 84.9631 345.644 85.1011 345.552 85.2851C346.38 85.1931 347.208 85.2391 348.036 85.4231C352.82 85.8831 354.522 88.2751 353.142 92.5991L352.59 93.5651ZM476.43 92.4611C476.982 92.7371 477.12 93.1511 476.844 93.7031L476.568 93.9791C476.476 94.1631 476.292 94.4391 476.016 94.8071C475.372 95.5431 474.682 96.3711 473.946 97.2911C471.646 99.9591 469.3 102.351 466.908 104.467C459.272 111.091 452.878 113.437 447.726 111.505C442.85 109.665 443.08 104.237 448.416 95.2211C449.336 93.6571 450.394 92.0011 451.59 90.2531L453.108 87.9071C453.568 87.3551 454.074 86.6651 454.626 85.8371C456.742 82.8931 457.754 81.3291 457.662 81.1451C457.57 81.3291 457.11 81.9271 456.282 82.9391C455.362 84.1351 454.304 85.4691 453.108 86.9411C449.888 90.8971 446.668 94.5771 443.448 97.9811C433.512 108.285 426.52 113.069 422.472 112.333C420.356 111.965 419.16 110.723 418.884 108.607C418.332 104.559 420.402 98.6711 425.094 90.9431L426.474 88.7351L427.854 86.6651C428.958 84.8251 429.786 83.4451 430.338 82.5251C431.994 79.6731 432.96 77.5111 433.236 76.0391C433.236 75.3951 433.604 74.9351 434.34 74.6591C434.984 74.4751 435.766 74.5211 436.686 74.7971C437.606 75.0731 438.296 75.4871 438.756 76.0391C439.308 76.6831 439.354 77.3731 438.894 78.1091C438.618 79.2131 437.514 81.4671 435.582 84.8711C434.846 86.0671 433.88 87.7231 432.684 89.8391L431.166 92.3231L429.51 94.9451C424.358 103.777 422.334 108.423 423.438 108.883C424.818 109.343 430.936 104.421 441.792 94.1171C452.924 83.4451 459.088 75.9931 460.284 71.7611C460.652 70.6571 461.618 70.6571 463.182 71.7611C464.746 72.9571 465.574 74.0151 465.666 74.9351C465.666 76.2231 464.7 78.6151 462.768 82.1111C462.032 83.4911 461.02 85.1931 459.732 87.2171L458.076 89.9771L456.42 92.5991C450.808 101.983 448.692 107.411 450.072 108.883C451.084 109.987 455.546 107.595 463.458 101.707C466.034 99.8671 468.748 97.7971 471.6 95.4971C472.52 94.7611 473.394 94.0251 474.222 93.2891C474.498 93.1051 474.728 92.9211 474.912 92.7371L475.188 92.4611C475.556 92.1851 475.97 92.1851 476.43 92.4611ZM531.684 72.8651C531.132 74.8891 528.97 78.9831 525.198 85.1471C523.266 88.2751 521.748 90.8051 520.644 92.7371C518.988 95.7731 517.7 98.5791 516.78 101.155C518.896 98.5791 521.334 95.8651 524.094 93.0131C527.314 89.5171 530.304 86.3891 533.064 83.6291C540.608 76.4531 545.484 73.0951 547.692 73.5551C548.796 73.8311 549.762 74.4751 550.59 75.4871C551.326 76.4991 551.694 77.4191 551.694 78.2471C551.694 79.5351 551.234 81.6511 550.314 84.5951C550.038 85.5151 549.578 86.8491 548.934 88.5971L547.554 92.8751C545.07 100.051 544.518 104.421 545.898 105.985C547.37 107.733 551.418 105.985 558.042 100.741C560.158 99.1771 562.412 97.2911 564.804 95.0831C565.54 94.4391 566.23 93.7951 566.874 93.1511C567.058 92.9671 567.242 92.7831 567.426 92.5991L567.702 92.3231C568.07 92.0471 568.484 92.0471 568.944 92.3231C569.496 92.5991 569.588 93.0131 569.22 93.5651V93.7031L569.082 93.8411C568.898 94.0251 568.76 94.2551 568.668 94.5311C568.116 95.2671 567.564 96.0031 567.012 96.7391C565.172 99.2231 563.286 101.385 561.354 103.225C555.19 109.205 549.532 111.229 544.38 109.297C541.712 108.285 540.286 105.985 540.102 102.397C539.918 99.6371 540.516 96.0031 541.896 91.4951C542.356 89.9311 542.954 88.1371 543.69 86.1131L544.656 83.7671L545.07 82.6631L545.346 81.5591C546.45 78.7071 546.726 77.3271 546.174 77.4191C544.242 77.7871 538.63 83.0311 529.338 93.1511C520.23 103.179 514.71 109.987 512.778 113.575C512.502 114.311 511.812 114.403 510.708 113.851C509.512 113.299 508.822 112.287 508.638 110.815C508.178 106.767 510.8 99.6371 516.504 89.4251L518.16 86.5271L519.678 83.7671C521.058 81.3751 522.07 79.6271 522.714 78.5231C524.646 74.8431 525.75 72.2671 526.026 70.7951C526.026 70.1511 526.394 69.6911 527.13 69.4151C527.774 69.2311 528.556 69.2771 529.476 69.5531C530.396 69.8291 531.086 70.2431 531.546 70.7951C532.006 71.4391 532.052 72.1291 531.684 72.8651ZM614.464 92.3231C614.74 92.0471 615.154 92.0471 615.706 92.3231C616.166 92.5991 616.258 93.0131 615.982 93.5651C614.05 96.7851 610.508 99.6371 605.356 102.121C600.204 104.605 594.96 105.985 589.624 106.261C583.552 111.505 577.894 113.253 572.65 111.505C567.774 109.849 565.014 106.537 564.37 101.569C563.726 96.5091 565.52 91.4951 569.752 86.5271C570.672 81.4671 573.018 77.2811 576.79 73.9691C580.93 70.4731 585.576 69.1851 590.728 70.1051C598.272 71.4851 601.952 75.8091 601.768 83.0771C601.676 89.6091 598.87 96.0951 593.35 102.535C597.306 101.799 601.446 100.281 605.77 97.9811C609.45 96.1411 612.348 94.2551 614.464 92.3231ZM576.238 83.2151C574.766 86.5271 574.26 89.7471 574.72 92.8751C575.18 96.0031 576.514 98.3951 578.722 100.051C580.746 101.707 583.23 102.673 586.174 102.949C588.014 100.925 589.992 98.1651 592.108 94.6691C595.144 89.2411 596.708 84.4111 596.8 80.1791C596.8 75.4871 594.684 73.0031 590.452 72.7271C587.508 72.5431 584.702 73.5091 582.034 75.6251C579.458 77.6491 577.526 80.1791 576.238 83.2151ZM573.892 108.883C576.376 110.079 579.458 109.067 583.138 105.847C580.378 105.387 577.986 104.421 575.962 102.949C572.834 100.833 570.81 97.8891 569.89 94.1171C568.326 102.121 569.66 107.043 573.892 108.883ZM664.409 92.7371C664.685 92.2771 665.099 92.2311 665.651 92.5991C666.203 92.9671 666.341 93.4271 666.065 93.9791C663.673 98.1191 659.165 102.259 652.541 106.399C650.057 107.963 646.791 109.803 642.743 111.919L637.361 114.817L631.703 117.715C622.135 137.035 613.671 151.249 606.311 160.357C596.466 172.593 588.094 176.595 581.194 172.363C574.57 168.315 574.662 161.185 581.47 150.973C587.175 142.417 595.179 134.551 605.483 127.375C611.371 123.235 618.501 119.003 626.873 114.679C629.541 109.343 632.117 104.099 634.601 98.9471C635.613 96.9231 636.579 94.8531 637.499 92.7371C638.235 91.3571 639.063 89.6551 639.983 87.6311L636.809 91.7711L633.497 96.1871C631.013 99.4071 628.805 102.075 626.873 104.191C621.721 109.711 617.673 112.241 614.729 111.781C612.245 111.505 610.313 110.677 608.933 109.297C607.369 107.733 606.863 105.893 607.415 103.777C609.071 97.7051 613.119 90.8971 619.559 83.3531C626.551 75.0731 632.393 71.3011 637.085 72.0371C639.753 72.4971 641.317 73.7391 641.777 75.7631C641.961 76.4991 641.961 77.3731 641.777 78.3851C641.593 79.2131 641.317 80.0871 640.949 81.0071L643.295 78.5231L645.641 76.1771C645.733 76.0851 646.009 75.9931 646.469 75.9011C647.021 75.8091 647.573 75.8091 648.125 75.9011C649.689 75.9931 650.517 76.6371 650.609 77.8331C649.137 80.2251 647.159 84.2271 644.675 89.8391L643.709 91.7711L642.743 93.9791C641.915 95.8191 641.225 97.4291 640.673 98.8091C638.741 102.857 636.855 106.859 635.015 110.815C650.747 103.179 660.545 97.1531 664.409 92.7371ZM614.039 107.779C616.155 108.055 619.329 105.939 623.561 101.431C625.125 99.7751 627.149 97.4751 629.633 94.5311L632.807 90.6671L636.119 86.8031C637.407 84.1351 638.189 81.5591 638.465 79.0751C638.833 76.3151 638.327 75.0271 636.947 75.2111C634.647 75.6711 631.565 78.1091 627.701 82.5251C624.297 86.2971 621.031 90.6671 617.903 95.6351C613.027 103.547 611.739 107.595 614.039 107.779ZM581.608 169.741C585.564 172.685 591.728 169.051 600.101 158.839C607.277 150.007 614.959 137.817 623.147 122.269C616.615 125.857 611.049 129.261 606.449 132.481C598.629 138.093 591.821 144.763 586.025 152.491C579.308 161.231 577.836 166.981 581.608 169.741ZM722.131 92.3231C723.143 92.2311 723.787 92.6451 724.063 93.5651C713.483 107.365 704.191 114.265 696.187 114.265C694.255 114.265 692.553 113.851 691.081 113.023C689.333 112.103 688.275 110.815 687.907 109.159C686.067 102.351 688.183 92.2771 694.255 78.9371L692.461 81.5591L690.529 84.3191L686.665 89.9771C683.629 94.2091 680.961 97.7051 678.661 100.465C672.681 107.825 668.265 111.321 665.413 110.953C663.021 110.585 661.135 109.711 659.755 108.331C658.191 106.859 657.685 105.065 658.237 102.949C659.893 96.7851 663.941 89.9311 670.381 82.3871C677.373 74.1071 683.215 70.3811 687.907 71.2091C690.575 71.5771 692.415 72.4971 693.427 73.9691C697.107 69.0931 700.051 65.6431 702.259 63.6191C703.179 63.2511 704.191 63.2511 705.295 63.6191C706.491 63.9871 707.365 64.6771 707.917 65.6891C706.629 67.6211 705.019 70.5651 703.087 74.5211C700.695 79.3971 698.671 83.9971 697.015 88.3211C692.323 100.833 691.955 108.147 695.911 110.263C697.751 111.183 702.029 109.205 708.745 104.329C715.001 99.8211 719.463 95.8191 722.131 92.3231ZM664.723 106.951C666.839 107.135 670.657 103.823 676.177 97.0151C678.017 94.7151 680.547 91.3571 683.767 86.9411L687.631 81.5591L691.633 76.3151C691.081 74.5671 689.793 73.9231 687.769 74.3831C685.469 74.7511 682.387 77.1431 678.523 81.5591C675.119 85.3311 671.853 89.7011 668.725 94.6691C663.941 102.581 662.607 106.675 664.723 106.951ZM751.784 70.1051C757.948 69.0931 760.984 70.9331 760.892 75.6251C760.8 80.3171 758.086 86.8031 752.75 95.0831C747.782 102.811 743.55 107.825 740.054 110.125C736.834 112.149 733.476 112.057 729.98 109.849C726.76 107.733 725.058 105.111 724.874 101.983C718.526 109.711 713.236 116.933 709.004 123.649C700.172 139.381 696.722 149.961 698.654 155.389C695.526 155.757 693.686 154.883 693.134 152.767C691.294 146.327 697.688 131.193 712.316 107.365L716.456 100.603L718.526 97.2911L720.458 94.1171C723.494 89.1491 725.886 85.1471 727.634 82.1111C732.234 73.9231 734.35 68.4491 733.982 65.6891C735.362 65.0451 736.558 65.4591 737.57 66.9311C738.49 68.3111 738.766 69.9211 738.398 71.7611C737.938 75.2571 734.442 82.3411 727.91 93.0131C739.962 78.4771 747.92 70.8411 751.784 70.1051ZM735.362 107.779C738.03 106.951 742.63 100.925 749.162 89.7011C755.694 78.3851 757.626 72.5891 754.958 72.3131C753.854 72.2211 750.634 74.7051 745.298 79.7651C739.594 85.1931 733.752 91.4491 727.772 98.5331C728.508 101.569 729.612 104.007 731.084 105.847C732.556 107.595 733.982 108.239 735.362 107.779ZM787.941 63.3431C787.573 66.6551 786.377 69.8751 784.353 73.0031C782.329 76.1311 779.523 81.0531 775.935 87.7691C770.139 98.5331 766.505 106.905 765.033 112.885C769.817 104.605 777.591 95.4511 788.355 85.4231C799.763 74.8431 807.399 70.2891 811.263 71.7611C812.275 72.1291 813.149 72.6811 813.885 73.4171C814.713 74.1531 815.081 74.9351 814.989 75.7631C814.897 76.1311 814.713 76.3151 814.437 76.3151C814.069 76.4071 813.839 76.3611 813.747 76.1771C813.655 75.3491 813.333 74.9811 812.781 75.0731C808.457 75.4411 800.085 81.5131 787.665 93.2891H787.803C786.883 95.4971 786.193 98.9931 785.733 103.777C785.273 109.113 785.687 112.103 786.975 112.747C788.999 113.851 794.013 111.367 802.017 105.295C804.961 102.995 807.905 100.557 810.849 97.9811C813.517 95.5891 815.357 93.7491 816.369 92.4611C816.829 92.0931 817.289 92.0931 817.749 92.4611C818.117 92.8291 818.209 93.2431 818.025 93.7031L817.473 94.3931L816.783 95.2211L815.403 96.8771C814.207 98.3491 813.103 99.6831 812.091 100.879C809.147 104.283 806.387 107.089 803.811 109.297C796.451 115.645 790.333 117.531 785.457 114.955C780.857 112.471 779.155 107.595 780.351 100.327C770.415 110.631 765.171 117.577 764.619 121.165C764.067 121.717 763.239 121.809 762.135 121.441C761.123 121.073 760.479 120.521 760.203 119.785C757.627 114.173 761.399 102.213 771.519 83.9051C775.291 77.1891 778.327 71.8991 780.627 68.0351C783.019 64.0791 783.985 60.4911 783.525 57.2711C784.905 56.6271 786.101 57.0411 787.113 58.5131C788.033 59.9851 788.309 61.5951 787.941 63.3431ZM867.115 92.4611C867.667 92.7371 867.805 93.1511 867.529 93.7031L867.253 93.9791C867.161 94.1631 866.977 94.4391 866.701 94.8071C866.057 95.5431 865.367 96.3711 864.631 97.2911C862.331 99.9591 859.985 102.351 857.593 104.467C849.957 111.091 843.563 113.437 838.411 111.505C833.535 109.665 833.765 104.237 839.101 95.2211C840.021 93.6571 841.079 92.0011 842.275 90.2531L843.793 87.9071C844.253 87.3551 844.759 86.6651 845.311 85.8371C847.427 82.8931 848.439 81.3291 848.347 81.1451C848.255 81.3291 847.795 81.9271 846.967 82.9391C846.047 84.1351 844.989 85.4691 843.793 86.9411C840.573 90.8971 837.353 94.5771 834.133 97.9811C824.197 108.285 817.205 113.069 813.157 112.333C811.041 111.965 809.845 110.723 809.569 108.607C809.017 104.559 811.087 98.6711 815.779 90.9431L817.159 88.7351L818.539 86.6651C819.643 84.8251 820.471 83.4451 821.023 82.5251C822.679 79.6731 823.645 77.5111 823.921 76.0391C823.921 75.3951 824.289 74.9351 825.025 74.6591C825.669 74.4751 826.451 74.5211 827.371 74.7971C828.291 75.0731 828.981 75.4871 829.441 76.0391C829.993 76.6831 830.039 77.3731 829.579 78.1091C829.303 79.2131 828.199 81.4671 826.267 84.8711C825.531 86.0671 824.565 87.7231 823.369 89.8391L821.851 92.3231L820.195 94.9451C815.043 103.777 813.019 108.423 814.123 108.883C815.503 109.343 821.621 104.421 832.477 94.1171C843.609 83.4451 849.773 75.9931 850.969 71.7611C851.337 70.6571 852.303 70.6571 853.867 71.7611C855.431 72.9571 856.259 74.0151 856.351 74.9351C856.351 76.2231 855.385 78.6151 853.453 82.1111C852.717 83.4911 851.705 85.1931 850.417 87.2171L848.761 89.9771L847.105 92.5991C841.493 101.983 839.377 107.411 840.757 108.883C841.769 109.987 846.231 107.595 854.143 101.707C856.719 99.8671 859.433 97.7971 862.285 95.4971C863.205 94.7611 864.079 94.0251 864.907 93.2891C865.183 93.1051 865.413 92.9211 865.597 92.7371L865.873 92.4611C866.241 92.1851 866.655 92.1851 867.115 92.4611Z" fill="#771919"></path></svg> 