<?xml version="1.0" encoding="UTF-8"?> <svg xmlns="http://www.w3.org/2000/svg" width="947" height="134" viewBox="0 0 947 134" fill="none"><path d="M32.522 68.9591C26.1643 74.3387 20.581 80.2074 15.772 86.5651C15.1199 88.6843 15.0791 91.0481 15.6497 93.6563C16.2203 96.2646 17.0761 97.4465 18.2172 97.202C22.4557 96.8759 28.2428 91.4148 35.5786 80.8187C38.5129 76.4987 40.7544 72.3825 42.3031 68.4701C44.0148 64.3946 44.2593 62.2754 43.0367 62.1124C41.651 61.8679 38.1461 64.1501 32.522 68.9591ZM47.9272 25.3111C41.5695 33.136 34.7635 43.9359 27.5092 57.7109C33.3779 54.5321 38.3092 51.5162 42.3031 48.6634C49.3129 43.6914 55.3853 37.782 60.5203 30.9352C66.389 23.1104 67.6524 18.0161 64.3105 15.6523C60.8056 13.044 55.3445 16.2636 47.9272 25.3111ZM25.4308 63.8241L25.6753 64.1909C23.3115 67.3697 20.5402 71.9342 17.3614 77.8844L16.3833 79.8406L15.2829 81.7968C20.0919 75.3576 24.9825 69.8557 29.9545 65.2912C34.9265 60.7267 38.3499 58.526 40.2246 58.689C42.2623 58.9336 44.0963 59.9117 45.7265 61.6233C47.4382 63.4165 48.1717 65.332 47.9272 67.3697C47.1936 71.0376 44.9114 75.7651 41.0805 81.5523C34.1522 92.0669 27.8353 98.5061 22.1296 100.87C21.3961 101.114 20.2957 101.033 18.8285 100.625C17.1984 100.218 16.0572 99.6472 15.4052 98.9137C14.4271 97.9356 13.7342 96.5907 13.3267 94.879C13.0007 93.6563 12.8784 92.2299 12.9599 90.5998C10.9222 93.5341 9.25124 96.4684 7.9471 99.4027C7.0505 102.989 6.88749 105.679 7.45805 107.472C6.88749 107.961 6.11315 108.043 5.13505 107.717C4.23845 107.391 3.66789 106.942 3.42336 106.372C1.14111 101.4 4.52373 90.8035 13.5712 74.5833C15.0384 71.975 17.1576 67.6958 19.9289 61.7456C28.4058 44.6287 35.9454 32.0356 42.5476 23.9662C51.2691 13.1256 58.6456 9.57992 64.6773 13.3293C70.6274 16.9157 70.5459 23.2327 64.4328 32.2801C59.3792 39.8605 52.2879 46.8295 43.1589 53.1872C38.2684 56.6105 32.359 60.1562 25.4308 63.8241ZM105.805 82.0413C106.701 81.9598 107.272 82.3266 107.516 83.1417C98.1427 95.368 89.9103 101.481 82.8191 101.481C81.1074 101.481 79.5995 101.114 78.2953 100.381C76.7467 99.5657 75.8093 98.4246 75.4833 96.9575C73.8531 90.9258 75.7278 82.0006 81.1074 70.1818L79.518 72.5048L77.8063 74.9501L74.3829 79.9628C71.6931 83.7123 69.3293 86.8096 67.2916 89.2549C61.9935 95.7756 58.0811 98.8729 55.5543 98.5469C53.4351 98.2208 51.7642 97.4465 50.5415 96.2239C49.1559 94.9197 48.7076 93.3303 49.1967 91.4556C50.6638 85.9945 54.2502 79.9221 59.9558 73.2384C66.1505 65.9026 71.3263 62.6015 75.4833 63.335C77.847 63.6611 79.4772 64.4762 80.3738 65.7803C83.6342 61.4603 86.2424 58.4037 88.1987 56.6105C89.0137 56.2845 89.9103 56.2845 90.8885 56.6105C91.9481 56.9366 92.7224 57.5479 93.2115 58.4445C92.0703 60.1562 90.6439 62.7645 88.9322 66.2694C86.813 70.5893 85.0198 74.6648 83.5527 78.4957C79.3957 89.5809 79.0697 96.0609 82.5745 97.9356C84.2047 98.7506 87.9949 96.9982 93.945 92.6782C99.4876 88.6843 103.441 85.1387 105.805 82.0413ZM54.943 95.0012C56.8177 95.1643 60.2004 92.2299 65.0909 86.1983C66.7211 84.1606 68.9626 81.1855 71.8154 77.2731L75.2387 72.5048L78.7844 67.8588C78.2953 66.3101 77.1542 65.7395 75.361 66.1471C73.3233 66.4731 70.5927 68.5924 67.1694 72.5048C64.1535 75.8466 61.26 79.7183 58.4887 84.1198C54.2502 91.1296 53.0683 94.7567 54.943 95.0012ZM126.33 84.9756C126.411 84.8941 126.493 84.7719 126.574 84.6089C127.389 83.2232 128.326 81.756 129.386 80.2074L130.731 78.1289C131.139 77.6398 131.587 77.0285 132.076 76.2949C133.951 73.6867 134.847 72.301 134.766 72.138C134.684 72.301 134.277 72.8308 133.543 73.7274C132.728 74.787 131.791 75.9689 130.731 77.2731C127.878 80.7779 125.025 84.0383 122.173 87.0541C113.37 96.1831 107.175 100.422 103.589 99.7695C101.714 99.4435 100.654 98.3431 100.41 96.4684C99.9207 92.882 101.755 87.6654 105.912 80.8187L107.134 78.8625L108.357 77.0285C109.335 75.3983 110.069 74.1757 110.558 73.3606C112.025 70.8339 112.881 68.9184 113.125 67.6142C113.125 67.0437 113.451 66.6361 114.103 66.3916C114.674 66.2286 115.367 66.2694 116.182 66.5139C116.997 66.7584 117.608 67.1252 118.016 67.6142C118.505 68.1848 118.545 68.7961 118.138 69.4482C117.893 70.4263 116.915 72.4233 115.204 75.4391C114.551 76.4987 113.696 77.9659 112.636 79.8406L111.291 82.0413L109.824 84.3643C105.259 92.1892 103.466 96.3054 104.444 96.7129C105.667 97.1205 111.087 92.7597 120.705 83.6307C130.568 74.1757 136.029 67.5735 137.089 63.8241C137.415 62.846 138.271 62.846 139.656 63.8241C141.042 64.8837 141.775 65.8211 141.857 66.6361C141.857 67.7773 141.001 69.8965 139.289 72.9938C138.637 74.2165 137.741 75.7244 136.6 77.5176L135.132 79.9628L133.665 82.2859C132.932 83.5085 132.28 84.6904 131.709 85.8315C130.813 87.4617 130.038 88.8881 129.386 90.1107C129.223 90.3552 129.101 90.5998 129.019 90.8443C127.145 94.4307 126.533 96.3869 127.185 96.7129C128.408 97.1205 133.828 92.7597 143.446 83.6307C153.309 74.1757 158.77 67.5735 159.83 63.8241C160.156 62.846 161.012 62.846 162.397 63.8241C163.783 64.8837 164.516 65.8211 164.598 66.6361C164.598 67.7773 163.742 69.8965 162.03 72.9938C161.378 74.2165 160.482 75.7244 159.341 77.5176L157.873 79.9628L156.406 82.2859C151.434 90.5998 149.56 95.4088 150.782 96.7129C151.679 97.691 155.632 95.5718 162.642 90.3552C164.924 88.7251 167.329 86.8911 169.855 84.8534C170.67 84.2013 171.445 83.5492 172.178 82.8972C172.423 82.7341 172.627 82.5711 172.79 82.4081L173.034 82.1636C173.36 81.9191 173.727 81.9191 174.134 82.1636C174.624 82.4081 174.746 82.7749 174.501 83.264L174.257 83.5085C174.175 83.6715 174.012 83.916 173.768 84.2421C173.197 84.8941 172.586 85.6277 171.934 86.4428C169.896 88.8066 167.818 90.9258 165.698 92.8005C158.933 98.6691 153.268 100.748 148.704 99.0359C144.384 97.4058 144.588 92.5967 149.315 84.6089C150.13 83.2232 151.067 81.756 152.127 80.2074L153.472 78.1289C153.88 77.6398 154.328 77.0285 154.817 76.2949C156.692 73.6867 157.588 72.301 157.507 72.138C157.425 72.301 157.018 72.8308 156.284 73.7274C155.469 74.787 154.532 75.9689 153.472 77.2731C150.619 80.7779 147.766 84.0383 144.914 87.0541C136.111 96.1831 129.916 100.422 126.33 99.7695C124.455 99.4435 123.395 98.3431 123.151 96.4684C122.988 95.0827 123.069 93.4526 123.395 91.5779C123.884 89.9477 124.699 88.0322 125.84 85.8315C126.003 85.587 126.167 85.3017 126.33 84.9756ZM218.137 82.1636C218.626 82.4081 218.748 82.7749 218.504 83.264L218.259 83.5085C218.178 83.6715 218.015 83.916 217.77 84.2421C217.2 84.8941 216.588 85.6277 215.936 86.4428C213.898 88.8066 211.82 90.9258 209.701 92.8005C202.935 98.6691 197.271 100.748 192.706 99.0359C188.386 97.4058 188.59 92.5967 193.317 84.6089C194.133 83.2232 195.07 81.756 196.129 80.2074L197.474 78.1289C197.882 77.6398 198.33 77.0285 198.819 76.2949C200.694 73.6867 201.591 72.301 201.509 72.138C201.428 72.301 201.02 72.8308 200.286 73.7274C199.471 74.787 198.534 75.9689 197.474 77.2731C194.622 80.7779 191.769 84.0383 188.916 87.0541C180.113 96.1831 173.918 100.422 170.332 99.7695C168.457 99.4435 167.398 98.3431 167.153 96.4684C166.664 92.882 168.498 87.6654 172.655 80.8187L173.878 78.8625L175.1 77.0285C176.078 75.3983 176.812 74.1757 177.301 73.3606C178.768 70.8339 179.624 68.9184 179.868 67.6142C179.868 67.0437 180.194 66.6361 180.847 66.3916C181.417 66.2286 182.11 66.2694 182.925 66.5139C183.74 66.7584 184.351 67.1252 184.759 67.6142C185.248 68.1848 185.289 68.7961 184.881 69.4482C184.637 70.4263 183.659 72.4233 181.947 75.4391C181.295 76.4987 180.439 77.9659 179.379 79.8406L178.035 82.0413L176.567 84.3643C172.003 92.1892 170.21 96.3054 171.188 96.7129C172.41 97.1205 177.831 92.7597 187.449 83.6307C197.311 74.1757 202.772 67.5735 203.832 63.8241C204.158 62.846 205.014 62.846 206.4 63.8241C207.785 64.8837 208.519 65.8211 208.6 66.6361C208.6 67.7773 207.744 69.8965 206.033 72.9938C205.381 74.2165 204.484 75.7244 203.343 77.5176L201.876 79.9628L200.409 82.2859C195.437 90.5998 193.562 95.4088 194.785 96.7129C195.681 97.691 199.634 95.5718 206.644 90.3552C208.926 88.7251 211.331 86.8911 213.858 84.8534C214.673 84.2013 215.447 83.5492 216.181 82.8972C216.425 82.7341 216.629 82.5711 216.792 82.4081L217.037 82.1636C217.363 81.9191 217.729 81.9191 218.137 82.1636ZM358.421 88.5213C358.91 88.9288 359.032 89.3771 358.787 89.8662C358.543 90.3552 358.135 90.5182 357.565 90.3552C355.527 89.4586 353.53 88.7658 351.574 88.2768C343.26 101.97 338.451 111.344 337.147 116.397C335.191 123.652 336.739 127.89 341.793 129.113C343.749 129.52 345.787 129.276 347.906 128.379C350.025 127.401 351.615 125.893 352.674 123.855C353 123.529 353.367 123.529 353.775 123.855C354.264 124.1 354.386 124.467 354.141 124.956C352.511 127.809 350.148 129.683 347.05 130.58C344.197 131.395 341.385 131.232 338.614 130.091C335.68 128.95 333.56 127.034 332.256 124.344C330.789 121.329 330.626 117.783 331.767 113.708C333.316 108.246 338.003 99.2805 345.828 86.8096C342.567 86.1575 338.492 85.6277 333.601 85.2202C315.017 100.87 297.085 112.648 279.805 120.554C260.732 129.194 248.424 130.009 242.882 123C237.665 116.56 239.988 108.858 249.851 99.8918C258.898 91.8224 271.654 86.2798 288.119 83.264C301.731 80.7372 315.955 80.2074 330.789 81.6745C353.775 62.1124 366.938 45.9736 370.28 33.2582C372.807 23.3957 371.095 15.9784 365.145 11.0063C359.684 6.44183 351.615 4.56712 340.937 5.38221C330.341 6.27881 319.459 9.53916 308.293 15.1633C296.229 21.2764 286.041 29.1828 277.727 38.8824C273.325 44.0174 270.595 48.8265 269.535 53.3094C268.639 57.3034 269.168 60.6452 271.125 63.335C275.689 69.8557 286.367 68.8776 303.158 60.4007C303.891 60.3192 304.299 60.6045 304.38 61.2566C304.543 61.9086 304.34 62.3977 303.769 62.7237C297.656 67.3697 291.461 70.0188 285.185 70.6708C279.398 71.3229 274.589 70.1818 270.758 67.2475C266.927 64.3131 264.971 60.2377 264.889 55.0211C264.808 49.234 267.171 42.9986 271.981 36.3148C283.636 20.0131 300.468 9.13162 322.475 3.67052C332.175 1.22525 341.141 0.532428 349.373 1.59204C357.932 2.65166 364.493 5.46372 369.058 10.0282V9.90595C377.372 17.4863 379.042 29.0198 374.07 44.5065C372.114 50.5381 369.017 57.5071 364.778 65.4135C363.148 68.5924 361.192 72.0972 358.91 75.9282C357.524 78.3734 355.527 81.756 352.919 86.076C354.957 86.7281 356.791 87.5432 358.421 88.5213ZM245.083 120.799C248.75 127.156 259.224 126.26 276.504 118.109C292.317 110.61 309.149 99.525 326.999 84.8534C313.061 84.3643 299.612 85.6277 286.652 88.6435C271.817 92.0669 260.121 97.2835 251.563 104.293C244.308 110.243 242.148 115.745 245.083 120.799ZM336.902 82.4081C340 82.8157 343.505 83.4677 347.417 84.3643L350.718 79.2293L354.141 73.9719C356.75 69.815 358.91 66.2694 360.621 63.335C365.512 55.1841 369.058 48.2966 371.258 42.6725C365.553 54.0838 354.101 67.329 336.902 82.4081ZM358.421 88.5213C358.91 88.9288 359.032 89.3771 358.787 89.8662C358.543 90.3552 358.135 90.5182 357.565 90.3552C355.527 89.4586 353.53 88.7658 351.574 88.2768C343.26 101.97 338.451 111.344 337.147 116.397C335.191 123.652 336.739 127.89 341.793 129.113C343.749 129.52 345.787 129.276 347.906 128.379C350.025 127.401 351.615 125.893 352.674 123.855C353 123.529 353.367 123.529 353.775 123.855C354.264 124.1 354.386 124.467 354.141 124.956C352.511 127.809 350.148 129.683 347.05 130.58C344.197 131.395 341.385 131.232 338.614 130.091C335.68 128.95 333.56 127.034 332.256 124.344C330.789 121.329 330.626 117.783 331.767 113.708C333.316 108.246 338.003 99.2805 345.828 86.8096C342.567 86.1575 338.492 85.6277 333.601 85.2202C315.017 100.87 297.085 112.648 279.805 120.554C260.732 129.194 248.424 130.009 242.882 123C237.665 116.56 239.988 108.858 249.851 99.8918C258.898 91.8224 271.654 86.2798 288.119 83.264C301.731 80.7372 315.955 80.2074 330.789 81.6745C353.775 62.1124 366.938 45.9736 370.28 33.2582C372.807 23.3957 371.095 15.9784 365.145 11.0063C359.684 6.44183 351.615 4.56712 340.937 5.38221C330.341 6.27881 319.459 9.53916 308.293 15.1633C296.229 21.2764 286.041 29.1828 277.727 38.8824C273.325 44.0174 270.595 48.8265 269.535 53.3094C268.639 57.3034 269.168 60.6452 271.125 63.335C275.689 69.8557 286.367 68.8776 303.158 60.4007C303.891 60.3192 304.299 60.6045 304.38 61.2566C304.543 61.9086 304.34 62.3977 303.769 62.7237C297.656 67.3697 291.461 70.0188 285.185 70.6708C279.398 71.3229 274.589 70.1818 270.758 67.2475C266.927 64.3131 264.971 60.2377 264.889 55.0211C264.808 49.234 267.171 42.9986 271.981 36.3148C283.636 20.0131 300.468 9.13162 322.475 3.67052C332.175 1.22525 341.141 0.532428 349.373 1.59204C357.932 2.65166 364.493 5.46372 369.058 10.0282V9.90595C377.372 17.4863 379.042 29.0198 374.07 44.5065C372.114 50.5381 369.017 57.5071 364.778 65.4135C363.148 68.5924 361.192 72.0972 358.91 75.9282C357.524 78.3734 355.527 81.756 352.919 86.076C354.957 86.7281 356.791 87.5432 358.421 88.5213ZM245.083 120.799C248.75 127.156 259.224 126.26 276.504 118.109C292.317 110.61 309.149 99.525 326.999 84.8534C313.061 84.3643 299.612 85.6277 286.652 88.6435C271.817 92.0669 260.121 97.2835 251.563 104.293C244.308 110.243 242.148 115.745 245.083 120.799ZM336.902 82.4081C340 82.8157 343.505 83.4677 347.417 84.3643L350.718 79.2293L354.141 73.9719C356.75 69.815 358.91 66.2694 360.621 63.335C365.512 55.1841 369.058 48.2966 371.258 42.6725C365.553 54.0838 354.101 67.329 336.902 82.4081ZM402.651 72.9938L403.629 71.2822L404.852 69.2037C406.727 66.1878 407.786 64.1501 408.031 63.0905C409.009 62.7645 409.987 62.7237 410.965 62.9682C412.188 63.2128 413.044 63.7833 413.533 64.6799C413.125 65.9026 411.78 68.3478 409.498 72.0157L408.031 74.3387L406.564 76.784C405.341 78.7402 404.322 80.4519 403.507 81.9191C398.78 90.396 398.291 95.368 402.04 96.8352C403.67 97.7318 407.379 96.1424 413.166 92.0669C418.546 88.3175 422.377 84.9349 424.659 81.9191C425.637 81.9191 426.207 82.3266 426.37 83.1417C417.894 94.3899 410.109 100.055 403.018 100.136C399.432 100.136 396.986 98.6284 395.682 95.6126C394.215 92.3522 394.99 87.5432 398.005 81.1855C397.435 81.756 396.864 82.2859 396.294 82.7749C389.528 88.6435 383.864 90.722 379.299 89.0103C378.892 88.8473 378.484 88.6435 378.076 88.399C377.587 89.7847 377.139 91.2518 376.732 92.8005C375.427 97.039 374.449 99.7288 373.797 100.87C373.553 101.522 372.941 101.603 371.963 101.114C370.904 100.625 370.292 99.7288 370.129 98.4246C369.722 94.8382 372.045 88.5213 377.098 79.4738L378.565 76.9063L379.91 74.461C381.133 72.3418 382.03 70.7931 382.6 69.815C384.312 66.5546 385.29 64.2724 385.534 62.9682C385.534 62.3977 385.861 61.9901 386.513 61.7456C387.083 61.5826 387.776 61.6233 388.591 61.8679C389.406 62.1124 390.017 62.4792 390.425 62.9682C390.833 63.5388 390.873 64.1501 390.547 64.8022C390.058 66.5954 388.143 70.2225 384.801 75.6836C384.067 76.8248 383.415 77.8844 382.845 78.8625C380.97 83.1824 380.481 85.7907 381.378 86.6873C382.274 87.6654 386.227 85.5462 393.237 80.3296C395.519 78.6995 397.924 76.8655 400.451 74.8278C401.184 74.2572 401.918 73.6459 402.651 72.9938ZM437.18 67.981C436.691 69.8557 434.98 73.1161 432.045 77.7621L430.211 80.5742L428.377 83.6307C426.992 86.076 425.851 88.3583 424.954 90.4775C426.258 88.9288 428.133 86.4836 430.578 83.1417L433.512 78.8625L436.569 74.7055C441.459 68.3478 444.801 65.332 446.595 65.658C447.654 65.8211 448.51 66.3916 449.162 67.3697C449.814 68.1848 450.14 68.9999 450.14 69.815C450.14 70.9561 449.692 72.9938 448.795 75.9282C448.388 77.0693 447.899 78.4142 447.328 79.9628L445.861 84.2421C443.171 91.4148 442.071 95.1235 442.56 95.368C442.967 95.531 446.024 90.6813 451.73 80.8187C454.419 76.2542 456.539 72.8716 458.087 70.6708C460.288 67.5735 461.837 66.0248 462.733 66.0248C463.548 66.0248 464.404 66.5546 465.301 67.6142C466.116 68.5924 466.442 69.4482 466.279 70.1818C466.034 71.3229 465.505 73.2384 464.69 75.9282C464.445 76.8248 464.078 78.0474 463.589 79.5961L462.489 83.5085C460.533 89.9477 459.636 93.5748 459.799 94.3899C460.207 96.1831 463.385 95.6126 469.336 92.6782C471.373 91.7001 473.533 90.559 475.815 89.2549C476.631 88.7658 477.405 88.2768 478.138 87.7877C478.791 87.3802 479.239 87.0949 479.483 86.9319C480.054 86.5243 480.502 86.5651 480.828 87.0541C481.073 87.5432 480.991 87.9915 480.584 88.399C480.258 88.7251 479.85 89.1326 479.361 89.6217C478.628 90.1922 477.894 90.8035 477.16 91.4556C475.123 93.0858 473.085 94.4714 471.047 95.6126C465.26 98.8729 460.859 99.4027 457.843 97.202C456.131 95.9793 455.357 93.7379 455.52 90.4775C455.52 87.8692 456.131 84.6904 457.354 80.941C457.843 79.4738 458.373 77.9251 458.943 76.2949C459.432 75.0723 459.962 73.7682 460.533 72.3825L462 68.7146C461.755 68.7961 460.696 70.5486 458.821 73.9719L458.21 75.1946L457.476 76.4172L456.009 79.107C454.786 81.3893 453.727 83.3455 452.83 84.9756C446.717 95.5718 442.641 100.544 440.604 99.8918C438.158 99.0767 437.017 96.9167 437.18 93.4118C437.343 90.722 438.281 87.1356 439.992 82.6526C440.644 81.104 441.419 79.3515 442.315 77.3953L443.416 74.9501C443.823 73.9719 444.109 73.2791 444.272 72.8716C445.494 70.1003 445.82 68.8369 445.25 69.0814C443.782 69.652 439.666 74.8685 432.901 84.7311C430.374 88.399 427.847 92.2299 425.321 96.2239C423.038 99.7288 421.408 102.296 420.43 103.926C420.186 104.66 419.574 104.782 418.596 104.293C417.537 103.804 416.925 102.908 416.762 101.603C416.273 98.0171 418.678 91.4556 423.976 81.9191L425.443 79.107L426.91 76.5395C428.214 74.3387 429.152 72.7086 429.722 71.6489C431.515 68.2256 432.534 65.8618 432.779 64.5577C432.86 63.9871 433.146 63.7018 433.635 63.7018C434.124 63.7018 434.694 63.9056 435.346 64.3131C435.998 64.8022 436.487 65.3728 436.813 66.0248C437.221 66.6769 437.343 67.329 437.18 67.981ZM520.721 82.0413C520.966 81.7968 521.333 81.7968 521.822 82.0413C522.229 82.2859 522.311 82.6526 522.066 83.1417C520.355 85.9945 517.217 88.5213 512.652 90.722C508.088 92.9228 503.442 94.1454 498.714 94.3899C493.334 99.0359 488.322 100.585 483.676 99.0359C479.356 97.5688 476.91 94.6344 476.34 90.233C475.769 85.75 477.359 81.3077 481.108 76.9063C481.923 72.4233 484.002 68.7146 487.344 65.7803C491.011 62.683 495.128 61.5418 499.692 62.3569C506.376 63.5796 509.636 67.4105 509.473 73.8497C509.392 79.6368 506.906 85.3832 502.015 91.0888C505.52 90.4367 509.188 89.0918 513.019 87.0541C516.279 85.4239 518.847 83.753 520.721 82.0413ZM486.855 73.9719C485.55 76.9063 485.102 79.7591 485.51 82.5304C485.917 85.3017 487.099 87.4209 489.055 88.8881C490.848 90.3552 493.049 91.2111 495.657 91.4556C497.288 89.6624 499.04 87.2171 500.915 84.1198C503.605 79.3108 504.99 75.0316 505.072 71.2822C505.072 67.1252 503.197 64.9245 499.448 64.6799C496.839 64.5169 494.353 65.3728 491.99 67.2475C489.707 69.0407 487.996 71.2821 486.855 73.9719ZM484.776 96.7129C486.977 97.7725 489.707 96.8759 492.968 94.0231C490.522 93.6156 488.403 92.7597 486.61 91.4556C483.839 89.5809 482.045 86.9726 481.23 83.6307C479.845 90.722 481.027 95.0827 484.776 96.7129ZM547.242 72.9938L548.22 71.2822L549.443 69.2037C551.318 66.1878 552.377 64.1501 552.622 63.0905C553.6 62.7645 554.578 62.7237 555.556 62.9682C556.779 63.2128 557.634 63.7833 558.124 64.6799C557.716 65.9026 556.371 68.3478 554.089 72.0157L552.622 74.3387L551.155 76.784C549.932 78.7402 548.913 80.4519 548.098 81.9191C543.37 90.396 542.881 95.368 546.631 96.8352C548.261 97.7318 551.97 96.1424 557.757 92.0669C563.136 88.3175 566.967 84.9349 569.249 81.9191C570.228 81.9191 570.798 82.3266 570.961 83.1417C562.484 94.3899 554.7 100.055 547.609 100.136C544.022 100.136 541.577 98.6284 540.273 95.6126C538.806 92.3522 539.58 87.5432 542.596 81.1855C542.026 81.756 541.455 82.2859 540.884 82.7749C534.119 88.6435 528.454 90.722 523.89 89.0103C523.482 88.8473 523.075 88.6435 522.667 88.399C522.178 89.7847 521.73 91.2518 521.322 92.8005C520.018 97.039 519.04 99.7288 518.388 100.87C518.143 101.522 517.532 101.603 516.554 101.114C515.494 100.625 514.883 99.7288 514.72 98.4246C514.312 94.8382 516.635 88.5213 521.689 79.4738L523.156 76.9063L524.501 74.461C525.724 72.3418 526.62 70.7931 527.191 69.815C528.903 66.5546 529.881 64.2724 530.125 62.9682C530.125 62.3977 530.451 61.9901 531.103 61.7456C531.674 61.5826 532.367 61.6233 533.182 61.8679C533.997 62.1124 534.608 62.4792 535.016 62.9682C535.423 63.5388 535.464 64.1501 535.138 64.8022C534.649 66.5954 532.734 70.2225 529.392 75.6836C528.658 76.8248 528.006 77.8844 527.435 78.8625C525.561 83.1824 525.072 85.7907 525.968 86.6873C526.865 87.6654 530.818 85.5462 537.828 80.3296C540.11 78.6995 542.515 76.8655 545.041 74.8278C545.775 74.2572 546.509 73.6459 547.242 72.9938ZM649.999 82.1636C650.488 82.4081 650.61 82.7749 650.365 83.264L650.121 83.5085C650.039 83.6715 649.876 83.916 649.632 84.2421C649.061 84.8941 648.45 85.6277 647.798 86.4428C645.76 88.8066 643.682 90.9258 641.563 92.8005C634.797 98.6691 629.132 100.748 624.568 99.0359C620.248 97.4058 620.452 92.5967 625.179 84.6089C625.994 83.2232 626.932 81.756 627.991 80.2074L629.336 78.1289C629.744 77.6398 630.192 77.0285 630.681 76.2949C632.556 73.6867 633.452 72.301 633.371 72.138C633.289 72.301 632.882 72.8308 632.148 73.7274C631.333 74.787 630.396 75.9689 629.336 77.2731C626.483 80.7779 623.631 84.0383 620.778 87.0541C611.975 96.1831 605.78 100.422 602.194 99.7695C600.319 99.4435 599.259 98.3431 599.015 96.4684C598.526 92.882 600.36 87.6654 604.517 80.8187L605.739 78.8625L606.962 77.0285C607.94 75.3983 608.674 74.1757 609.163 73.3606C610.63 70.8339 611.486 68.9184 611.73 67.6142C611.73 67.0437 612.056 66.6361 612.708 66.3916C613.279 66.2286 613.972 66.2694 614.787 66.5139C615.602 66.7584 616.213 67.1252 616.621 67.6142C617.11 68.1848 617.151 68.7961 616.743 69.4482C616.499 70.4263 615.52 72.4233 613.809 75.4391C613.157 76.4987 612.301 77.9659 611.241 79.8406L609.896 82.0413L608.429 84.3643C603.865 92.1892 602.071 96.3054 603.05 96.7129C604.272 97.1205 609.693 92.7597 619.311 83.6307C629.173 74.1757 634.634 67.5735 635.694 63.8241C636.02 62.846 636.876 62.846 638.261 63.8241C639.647 64.8837 640.381 65.8211 640.462 66.6361C640.462 67.7773 639.606 69.8965 637.895 72.9938C637.243 74.2165 636.346 75.7244 635.205 77.5176L633.738 79.9628L632.27 82.2859C627.298 90.5998 625.424 95.4088 626.646 96.7129C627.543 97.691 631.496 95.5718 638.506 90.3552C640.788 88.7251 643.193 86.8911 645.719 84.8534C646.535 84.2013 647.309 83.5492 648.042 82.8972C648.287 82.7341 648.491 82.5711 648.654 82.4081L648.898 82.1636C649.224 81.9191 649.591 81.9191 649.999 82.1636ZM790.282 88.5213C790.772 88.9288 790.894 89.3771 790.649 89.8662C790.405 90.3552 789.997 90.5182 789.427 90.3552C787.389 89.4586 785.392 88.7658 783.436 88.2768C775.122 101.97 770.313 111.344 769.009 116.397C767.052 123.652 768.601 127.89 773.655 129.113C775.611 129.52 777.649 129.276 779.768 128.379C781.887 127.401 783.476 125.893 784.536 123.855C784.862 123.529 785.229 123.529 785.636 123.855C786.126 124.1 786.248 124.467 786.003 124.956C784.373 127.809 782.009 129.683 778.912 130.58C776.059 131.395 773.247 131.232 770.476 130.091C767.542 128.95 765.422 127.034 764.118 124.344C762.651 121.329 762.488 117.783 763.629 113.708C765.178 108.246 769.865 99.2805 777.689 86.8096C774.429 86.1575 770.354 85.6277 765.463 85.2202C746.879 100.87 728.947 112.648 711.667 120.554C692.594 129.194 680.286 130.009 674.744 123C669.527 116.56 671.85 108.858 681.713 99.8918C690.76 91.8224 703.516 86.2798 719.981 83.264C733.593 80.7372 747.816 80.2074 762.651 81.6745C785.636 62.1124 798.8 45.9736 802.142 33.2582C804.669 23.3957 802.957 15.9784 797.007 11.0063C791.546 6.44183 783.476 4.56712 772.799 5.38221C762.203 6.27881 751.321 9.53916 740.155 15.1633C728.091 21.2764 717.903 29.1828 709.589 38.8824C705.187 44.0174 702.457 48.8265 701.397 53.3094C700.5 57.3034 701.03 60.6452 702.986 63.335C707.551 69.8557 718.229 68.8776 735.019 60.4007C735.753 60.3192 736.161 60.6045 736.242 61.2566C736.405 61.9086 736.201 62.3977 735.631 62.7237C729.518 67.3697 723.323 70.0188 717.047 70.6708C711.26 71.3229 706.451 70.1818 702.62 67.2475C698.789 64.3131 696.833 60.2377 696.751 55.0211C696.67 49.234 699.033 42.9986 703.842 36.3148C715.498 20.0131 732.33 9.13162 754.337 3.67052C764.037 1.22525 773.003 0.532428 781.235 1.59204C789.793 2.65166 796.355 5.46372 800.919 10.0282V9.90595C809.233 17.4863 810.904 29.0198 805.932 44.5065C803.976 50.5381 800.879 57.5071 796.64 65.4135C795.01 68.5924 793.054 72.0972 790.772 75.9282C789.386 78.3734 787.389 81.756 784.781 86.076C786.818 86.7281 788.652 87.5432 790.282 88.5213ZM676.944 120.799C680.612 127.156 691.086 126.26 708.366 118.109C724.179 110.61 741.01 99.525 758.861 84.8534C744.923 84.3643 731.474 85.6277 718.514 88.6435C703.679 92.0669 691.983 97.2835 683.424 104.293C676.17 110.243 674.01 115.745 676.944 120.799ZM768.764 82.4081C771.861 82.8157 775.366 83.4677 779.279 84.3643L782.58 79.2293L786.003 73.9719C788.612 69.815 790.772 66.2694 792.483 63.335C797.374 55.1841 800.919 48.2966 803.12 42.6725C797.415 54.0838 785.963 67.329 768.764 82.4081ZM790.282 88.5213C790.772 88.9288 790.894 89.3771 790.649 89.8662C790.405 90.3552 789.997 90.5182 789.427 90.3552C787.389 89.4586 785.392 88.7658 783.436 88.2768C775.122 101.97 770.313 111.344 769.009 116.397C767.052 123.652 768.601 127.89 773.655 129.113C775.611 129.52 777.649 129.276 779.768 128.379C781.887 127.401 783.476 125.893 784.536 123.855C784.862 123.529 785.229 123.529 785.636 123.855C786.126 124.1 786.248 124.467 786.003 124.956C784.373 127.809 782.009 129.683 778.912 130.58C776.059 131.395 773.247 131.232 770.476 130.091C767.542 128.95 765.422 127.034 764.118 124.344C762.651 121.329 762.488 117.783 763.629 113.708C765.178 108.246 769.865 99.2805 777.689 86.8096C774.429 86.1575 770.354 85.6277 765.463 85.2202C746.879 100.87 728.947 112.648 711.667 120.554C692.594 129.194 680.286 130.009 674.744 123C669.527 116.56 671.85 108.858 681.713 99.8918C690.76 91.8224 703.516 86.2798 719.981 83.264C733.593 80.7372 747.816 80.2074 762.651 81.6745C785.636 62.1124 798.8 45.9736 802.142 33.2582C804.669 23.3957 802.957 15.9784 797.007 11.0063C791.546 6.44183 783.476 4.56712 772.799 5.38221C762.203 6.27881 751.321 9.53916 740.155 15.1633C728.091 21.2764 717.903 29.1828 709.589 38.8824C705.187 44.0174 702.457 48.8265 701.397 53.3094C700.5 57.3034 701.03 60.6452 702.986 63.335C707.551 69.8557 718.229 68.8776 735.019 60.4007C735.753 60.3192 736.161 60.6045 736.242 61.2566C736.405 61.9086 736.201 62.3977 735.631 62.7237C729.518 67.3697 723.323 70.0188 717.047 70.6708C711.26 71.3229 706.451 70.1818 702.62 67.2475C698.789 64.3131 696.833 60.2377 696.751 55.0211C696.67 49.234 699.033 42.9986 703.842 36.3148C715.498 20.0131 732.33 9.13162 754.337 3.67052C764.037 1.22525 773.003 0.532428 781.235 1.59204C789.793 2.65166 796.355 5.46372 800.919 10.0282V9.90595C809.233 17.4863 810.904 29.0198 805.932 44.5065C803.976 50.5381 800.879 57.5071 796.64 65.4135C795.01 68.5924 793.054 72.0972 790.772 75.9282C789.386 78.3734 787.389 81.756 784.781 86.076C786.818 86.7281 788.652 87.5432 790.282 88.5213ZM676.944 120.799C680.612 127.156 691.086 126.26 708.366 118.109C724.179 110.61 741.01 99.525 758.861 84.8534C744.923 84.3643 731.474 85.6277 718.514 88.6435C703.679 92.0669 691.983 97.2835 683.424 104.293C676.17 110.243 674.01 115.745 676.944 120.799ZM768.764 82.4081C771.861 82.8157 775.366 83.4677 779.279 84.3643L782.58 79.2293L786.003 73.9719C788.612 69.815 790.772 66.2694 792.483 63.335C797.374 55.1841 800.919 48.2966 803.12 42.6725C797.415 54.0838 785.963 67.329 768.764 82.4081ZM871.681 72.9938L872.659 71.2822L873.882 69.2037C875.757 66.1878 876.816 64.1501 877.061 63.0905C878.039 62.7645 879.017 62.7237 879.995 62.9682C881.218 63.2128 882.074 63.7833 882.563 64.6799C882.155 65.9026 880.81 68.3478 878.528 72.0157L877.061 74.3387L875.594 76.784C874.371 78.7402 873.352 80.4519 872.537 81.9191C867.809 90.396 867.32 95.368 871.07 96.8352C872.7 97.7318 876.409 96.1424 882.196 92.0669C887.575 88.3175 891.406 84.9349 893.689 81.9191C894.667 81.9191 895.237 82.3266 895.4 83.1417C886.923 94.3899 879.139 100.055 872.048 100.136C868.462 100.136 866.016 98.6284 864.712 95.6126C863.245 92.3522 864.019 87.5432 867.035 81.1855C866.465 81.756 865.894 82.2859 865.323 82.7749C858.558 88.6435 852.893 90.722 848.329 89.0103C847.921 88.8473 847.514 88.6435 847.106 88.399C846.617 89.7847 846.169 91.2518 845.761 92.8005C844.457 97.039 843.479 99.7288 842.827 100.87C842.582 101.522 841.971 101.603 840.993 101.114C839.933 100.625 839.322 99.7288 839.159 98.4246C838.752 94.8382 841.075 88.5213 846.128 79.4738L847.595 76.9063L848.94 74.461C850.163 72.3418 851.059 70.7931 851.63 69.815C853.342 66.5546 854.32 64.2724 854.564 62.9682C854.564 62.3977 854.89 61.9901 855.542 61.7456C856.113 61.5826 856.806 61.6233 857.621 61.8679C858.436 62.1124 859.047 62.4792 859.455 62.9682C859.862 63.5388 859.903 64.1501 859.577 64.8022C859.088 66.5954 857.173 70.2225 853.831 75.6836C853.097 76.8248 852.445 77.8844 851.875 78.8625C850 83.1824 849.511 85.7907 850.407 86.6873C851.304 87.6654 855.257 85.5462 862.267 80.3296C864.549 78.6995 866.954 76.8655 869.48 74.8278C870.214 74.2572 870.948 73.6459 871.681 72.9938ZM828.522 84.2421C828.93 83.264 829.378 82.2451 829.867 81.1855C829.297 81.756 828.726 82.2859 828.155 82.7749C821.39 88.6435 815.725 90.722 811.161 89.0103C810.753 88.8473 810.346 88.6435 809.938 88.399C809.449 89.7847 809.001 91.2518 808.593 92.8005C807.289 97.039 806.311 99.7288 805.659 100.87C805.414 101.522 804.803 101.603 803.825 101.114C802.765 100.625 802.154 99.7288 801.991 98.4246C801.584 94.8382 803.907 88.5213 808.96 79.4738L810.427 76.9063L811.772 74.461C812.995 72.3418 813.891 70.7931 814.462 69.815C816.174 66.5546 817.152 64.2724 817.396 62.9682C817.396 62.3977 817.722 61.9901 818.374 61.7456C818.945 61.5826 819.638 61.6233 820.453 61.8679C821.268 62.1124 821.879 62.4792 822.287 62.9682C822.694 63.5388 822.735 64.1501 822.409 64.8022C821.92 66.5954 820.005 70.2225 816.663 75.6836C815.929 76.8248 815.277 77.8844 814.706 78.8625C812.832 83.1824 812.343 85.7907 813.239 86.6873C814.136 87.6654 818.089 85.5462 825.099 80.3296C827.381 78.6995 829.786 76.8655 832.312 74.8278C833.046 74.2572 833.78 73.6459 834.513 72.9938L835.491 71.2822L836.714 69.2037C838.589 66.1878 839.648 64.1501 839.893 63.0905C840.871 62.7645 841.849 62.7237 842.827 62.9682C844.05 63.2128 844.905 63.7833 845.395 64.6799C844.987 65.9026 843.642 68.3478 841.36 72.0157L839.893 74.3387L838.426 76.784C837.203 78.7402 836.184 80.4519 835.369 81.9191C834.88 82.8157 833.657 85.7092 831.701 90.5998C829.745 95.4903 830.234 98.2616 833.168 98.9137C833.494 98.9952 833.78 99.1989 834.024 99.525C834.35 99.9325 834.513 100.34 834.513 100.748C834.513 101.726 833.617 102.093 831.823 101.848C828.237 101.359 826.403 99.0359 826.321 94.879C826.24 92.1077 826.974 88.562 828.522 84.2421ZM945.052 82.0413C945.948 81.9598 946.519 82.3266 946.763 83.1417C937.39 95.368 929.157 101.481 922.066 101.481C920.354 101.481 918.846 101.114 917.542 100.381C915.994 99.5657 915.056 98.4246 914.73 96.9575C913.1 90.9258 914.975 82.0006 920.354 70.1818L918.765 72.5048L917.053 74.9501L913.63 79.9628C910.94 83.7123 908.576 86.8096 906.539 89.2549C901.241 95.7756 897.328 98.8729 894.801 98.5469C892.682 98.2208 891.011 97.4465 889.789 96.2239C888.403 94.9197 887.955 93.3303 888.444 91.4556C889.911 85.9945 893.497 79.9221 899.203 73.2384C905.398 65.9026 910.573 62.6015 914.73 63.335C917.094 63.6611 918.724 64.4762 919.621 65.7803C922.881 61.4603 925.489 58.4037 927.446 56.6105C928.261 56.2845 929.157 56.2845 930.135 56.6105C931.195 56.9366 931.969 57.5479 932.458 58.4445C931.317 60.1562 929.891 62.7645 928.179 66.2694C926.06 70.5893 924.267 74.6648 922.8 78.4957C918.643 89.5809 918.317 96.0609 921.822 97.9356C923.452 98.7506 927.242 96.9982 933.192 92.6782C938.735 88.6843 942.688 85.1387 945.052 82.0413ZM894.19 95.0012C896.065 95.1643 899.447 92.2299 904.338 86.1983C905.968 84.1606 908.21 81.1855 911.062 77.2731L914.486 72.5048L918.031 67.8588C917.542 66.3101 916.401 65.7395 914.608 66.1471C912.57 66.4731 909.84 68.5924 906.416 72.5048C903.401 75.8466 900.507 79.7183 897.736 84.1198C893.497 91.1296 892.315 94.7567 894.19 95.0012Z" fill="#FEFAEF"></path></svg> 