<?xml version="1.0" encoding="UTF-8"?> <svg xmlns="http://www.w3.org/2000/svg" width="1013" height="169" viewBox="0 0 1013 169" fill="none"><path d="M139.567 2.95C160.627 5.98333 172.847 14.78 176.227 29.34C179.173 41.9933 175.317 57.03 164.657 74.45C154.603 91.0033 141.343 105.13 124.877 116.83C107.37 129.31 91.2499 135.333 76.5165 134.9C71.5765 134.813 66.1165 134.033 60.1365 132.56C57.7965 131.953 55.1965 131.217 52.3365 130.35L48.5665 129.18L44.9265 128.01C37.8199 133.123 28.9365 135.377 18.2765 134.77C11.8632 134.423 7.13986 133.383 4.10652 131.65C1.41986 130.09 0.466523 128.227 1.24652 126.06C1.93986 123.893 4.01986 122.073 7.48652 120.6C11.2999 118.867 15.8499 117.957 21.1365 117.87C27.0299 117.783 34.6132 119.257 43.8865 122.29C46.4865 119.95 49.5199 116.44 52.9865 111.76C55.8465 107.947 59.7465 102.313 64.6865 94.86L67.5465 90.57L70.4065 86.28C72.5732 83.0733 74.4365 80.3867 75.9965 78.22C84.4899 66.3467 91.2065 60.54 96.1465 60.8C96.8399 60.8867 97.2732 61.2767 97.4465 61.97C97.5332 62.6633 97.3165 63.14 96.7965 63.4C94.9765 62.9667 90.0799 68.5133 82.1065 80.04C80.8932 81.86 79.1165 84.5033 76.7765 87.97L73.9165 92.13L71.0565 96.42C66.3765 103.18 62.4332 108.683 59.2265 112.93C55.3265 117.87 52.0765 121.597 49.4765 124.11C62.1299 128.617 71.1865 130.827 76.6465 130.74C91.0332 130.48 107.457 122.897 125.917 107.99C136.403 99.5833 145.547 90.05 153.347 79.39C161.233 68.47 166.52 58.0267 169.207 48.06C172.067 37.3133 171.417 28.3433 167.257 21.15C162.577 13.2633 153.823 8.19333 140.997 5.94C127.997 3.68666 113.09 5.33333 96.2765 10.88C81.2832 15.82 67.1999 22.8833 54.0265 32.07C42.8465 39.9567 34.4399 48.06 28.8065 56.38C22.9999 64.96 21.0932 72.5433 23.0865 79.13C24.2999 82.8567 27.0299 85.1967 31.2765 86.15C35.2632 87.1033 39.2499 86.54 43.2365 84.46C44.1899 83.8533 44.8832 83.8533 45.3165 84.46C45.8365 85.1533 45.6199 85.8467 44.6665 86.54C39.4665 90.7867 33.9632 91.5667 28.1565 88.88C22.2632 86.1067 19.1865 81.1667 18.9265 74.06C18.5799 64.44 22.3065 54.82 30.1065 45.2C37.2999 36.1867 47.2232 28.0833 59.8765 20.89C72.2699 13.7833 85.3999 8.62666 99.2665 5.42C113.827 2.03999 127.26 1.21666 139.567 2.95ZM18.9265 131.26C26.9865 131.347 33.7465 129.613 39.2065 126.06C31.2332 123.547 25.0365 122.29 20.6165 122.29C10.3899 122.29 4.92986 123.72 4.23652 126.58C3.97652 127.793 5.01652 128.833 7.35652 129.7C10.0432 130.653 13.8999 131.173 18.9265 131.26ZM225.201 87.45C225.461 87.19 225.851 87.19 226.371 87.45C226.804 87.71 226.891 88.1 226.631 88.62C224.811 91.6533 221.474 94.34 216.621 96.68C211.768 99.02 206.828 100.32 201.801 100.58C196.081 105.52 190.751 107.167 185.811 105.52C181.218 103.96 178.618 100.84 178.011 96.16C177.404 91.3933 179.094 86.67 183.081 81.99C183.948 77.2233 186.158 73.28 189.711 70.16C193.611 66.8667 197.988 65.6533 202.841 66.52C209.948 67.82 213.414 71.8933 213.241 78.74C213.154 84.8933 210.511 91.0033 205.311 97.07C209.038 96.3767 212.938 94.9467 217.011 92.78C220.478 91.0467 223.208 89.27 225.201 87.45ZM189.191 78.87C187.804 81.99 187.328 85.0233 187.761 87.97C188.194 90.9167 189.451 93.17 191.531 94.73C193.438 96.29 195.778 97.2 198.551 97.46C200.284 95.5533 202.148 92.9533 204.141 89.66C207.001 84.5467 208.474 79.9967 208.561 76.01C208.561 71.59 206.568 69.25 202.581 68.99C199.808 68.8167 197.164 69.7267 194.651 71.72C192.224 73.6267 190.404 76.01 189.191 78.87ZM186.981 103.05C189.321 104.177 192.224 103.223 195.691 100.19C193.091 99.7567 190.838 98.8467 188.931 97.46C185.984 95.4667 184.078 92.6933 183.211 89.14C181.738 96.68 182.994 101.317 186.981 103.05ZM291.235 79.78C292.102 76.2267 291.408 73.3667 289.155 71.2C287.335 69.38 283.998 70.3333 279.145 74.06C277.325 75.36 275.505 76.92 273.685 78.74C272.125 80.3867 270.955 81.73 270.175 82.77C264.195 91.09 262.808 97.0267 266.015 100.58C268.615 103.267 272.602 104.307 277.975 103.7C283.868 103.093 289.328 101.23 294.355 98.11C297.302 96.29 301.678 92.8233 307.485 87.71C308.005 87.3633 308.482 87.3633 308.915 87.71C309.262 88.0567 309.305 88.4467 309.045 88.88C305.838 94.6 300.768 99.15 293.835 102.53C286.988 105.997 280.098 107.383 273.165 106.69C266.578 106.083 262.158 102.66 259.905 96.42C257.912 91.0467 260.685 84.46 268.225 76.66C271.432 73.4533 274.768 70.94 278.235 69.12C281.875 67.2133 284.952 66.5633 287.465 67.17C291.018 68.0367 293.315 69.9 294.355 72.76C295.308 75.1867 295.092 77.57 293.705 79.91C293.358 80.43 292.838 80.7333 292.145 80.82C291.452 80.82 291.148 80.4733 291.235 79.78ZM325.259 73.54C318.499 79.26 312.563 85.5 307.449 92.26C306.756 94.5133 306.713 97.0267 307.319 99.8C307.926 102.573 308.836 103.83 310.049 103.57C314.556 103.223 320.709 97.4167 328.509 86.15C331.629 81.5567 334.013 77.18 335.659 73.02C337.479 68.6867 337.739 66.4333 336.439 66.26C334.966 66 331.239 68.4267 325.259 73.54ZM341.639 27.13C334.879 35.45 327.643 46.9333 319.929 61.58C326.169 58.2 331.413 54.9933 335.659 51.96C343.113 46.6733 349.569 40.39 355.029 33.11C361.269 24.79 362.613 19.3733 359.059 16.86C355.333 14.0867 349.526 17.51 341.639 27.13ZM317.719 68.08L317.979 68.47C315.466 71.85 312.519 76.7033 309.139 83.03L308.099 85.11L306.929 87.19C312.043 80.3433 317.243 74.4933 322.529 69.64C327.816 64.7867 331.456 62.4467 333.449 62.62C335.616 62.88 337.566 63.92 339.299 65.74C341.119 67.6467 341.899 69.6833 341.639 71.85C340.859 75.75 338.433 80.7767 334.359 86.93C326.993 98.11 320.276 104.957 314.209 107.47C313.429 107.73 312.259 107.643 310.699 107.21C308.966 106.777 307.753 106.17 307.059 105.39C306.019 104.35 305.283 102.92 304.849 101.1C304.503 99.8 304.373 98.2833 304.459 96.55C302.293 99.67 300.516 102.79 299.129 105.91C298.176 109.723 298.003 112.583 298.609 114.49C298.003 115.01 297.179 115.097 296.139 114.75C295.186 114.403 294.579 113.927 294.319 113.32C291.893 108.033 295.489 96.7667 305.109 79.52C306.669 76.7467 308.923 72.1967 311.869 65.87C320.883 47.67 328.899 34.28 335.919 25.7C345.193 14.1733 353.036 10.4033 359.449 14.39C365.776 18.2033 365.689 24.92 359.189 34.54C353.816 42.6 346.276 50.01 336.569 56.77C331.369 60.41 325.086 64.18 317.719 68.08ZM403.179 87.45C404.132 87.3633 404.739 87.7533 404.999 88.62C395.032 101.62 386.279 108.12 378.739 108.12C376.919 108.12 375.316 107.73 373.929 106.95C372.282 106.083 371.286 104.87 370.939 103.31C369.206 96.8967 371.199 87.4067 376.919 74.84L375.229 77.31L373.409 79.91L369.769 85.24C366.909 89.2267 364.396 92.52 362.229 95.12C356.596 102.053 352.436 105.347 349.749 105C347.496 104.653 345.719 103.83 344.419 102.53C342.946 101.143 342.469 99.4533 342.989 97.46C344.549 91.6533 348.362 85.1967 354.429 78.09C361.016 70.29 366.519 66.78 370.939 67.56C373.452 67.9067 375.186 68.7733 376.139 70.16C379.606 65.5667 382.379 62.3167 384.459 60.41C385.326 60.0633 386.279 60.0633 387.319 60.41C388.446 60.7567 389.269 61.4067 389.789 62.36C388.576 64.18 387.059 66.9533 385.239 70.68C382.986 75.2733 381.079 79.6067 379.519 83.68C375.099 95.4667 374.752 102.357 378.479 104.35C380.212 105.217 384.242 103.353 390.569 98.76C396.462 94.5133 400.666 90.7433 403.179 87.45ZM349.099 101.23C351.092 101.403 354.689 98.2833 359.889 91.87C361.622 89.7033 364.006 86.54 367.039 82.38L370.679 77.31L374.449 72.37C373.929 70.7233 372.716 70.1167 370.809 70.55C368.642 70.8967 365.739 73.15 362.099 77.31C358.892 80.8633 355.816 84.98 352.869 89.66C348.362 97.1133 347.106 100.97 349.099 101.23ZM450.873 87.84C451.133 87.4067 451.523 87.3633 452.043 87.71C452.563 88.0567 452.693 88.49 452.433 89.01C450.18 92.91 445.933 96.81 439.693 100.71C437.353 102.183 434.276 103.917 430.463 105.91L425.393 108.64L420.063 111.37C411.05 129.57 403.076 142.96 396.143 151.54C386.87 163.067 378.983 166.837 372.483 162.85C366.243 159.037 366.33 152.32 372.743 142.7C378.116 134.64 385.656 127.23 395.363 120.47C400.91 116.57 407.626 112.583 415.513 108.51C418.026 103.483 420.453 98.5433 422.793 93.69C423.746 91.7833 424.656 89.8333 425.523 87.84C426.216 86.54 426.996 84.9367 427.863 83.03L424.873 86.93L421.753 91.09C419.413 94.1233 417.333 96.6367 415.513 98.63C410.66 103.83 406.846 106.213 404.073 105.78C401.733 105.52 399.913 104.74 398.613 103.44C397.14 101.967 396.663 100.233 397.183 98.24C398.743 92.52 402.556 86.1067 408.623 79C415.21 71.2 420.713 67.6467 425.133 68.34C427.646 68.7733 429.12 69.9433 429.553 71.85C429.726 72.5433 429.726 73.3667 429.553 74.32C429.38 75.1 429.12 75.9233 428.773 76.79L430.983 74.45L433.193 72.24C433.28 72.1533 433.54 72.0667 433.973 71.98C434.493 71.8933 435.013 71.8933 435.533 71.98C437.006 72.0667 437.786 72.6733 437.873 73.8C436.486 76.0533 434.623 79.8233 432.283 85.11L431.373 86.93L430.463 89.01C429.683 90.7433 429.033 92.26 428.513 93.56C426.693 97.3733 424.916 101.143 423.183 104.87C438.003 97.6767 447.233 92 450.873 87.84ZM403.423 102.01C405.416 102.27 408.406 100.277 412.393 96.03C413.866 94.47 415.773 92.3033 418.113 89.53L421.103 85.89L424.223 82.25C425.436 79.7367 426.173 77.31 426.433 74.97C426.78 72.37 426.303 71.1567 425.003 71.33C422.836 71.7633 419.933 74.06 416.293 78.22C413.086 81.7733 410.01 85.89 407.063 90.57C402.47 98.0233 401.256 101.837 403.423 102.01ZM372.873 160.38C376.6 163.153 382.406 159.73 390.293 150.11C397.053 141.79 404.29 130.307 412.003 115.66C405.85 119.04 400.606 122.247 396.273 125.28C388.906 130.567 382.493 136.85 377.033 144.13C370.706 152.363 369.32 157.78 372.873 160.38ZM459.359 84.85C457.626 86.7567 456.153 89.1833 454.939 92.13C453.639 95.0767 452.989 97.59 452.989 99.67C452.989 102.01 453.899 103.223 455.719 103.31C457.799 103.05 459.966 101.88 462.219 99.8C464.559 97.72 466.119 94.34 466.899 89.66C467.593 84.8933 466.683 82.3367 464.169 81.99C462.783 81.73 461.179 82.6833 459.359 84.85ZM460.009 81.47C461.916 80.69 463.866 80.4733 465.859 80.82C468.286 81.5133 469.933 82.9867 470.799 85.24C471.666 87.2333 471.753 89.53 471.059 92.13C470.453 94.6433 469.239 96.81 467.419 98.63C466.986 99.0633 466.596 99.4533 466.249 99.8C467.289 99.28 468.286 98.7167 469.239 98.11C472.186 96.29 476.563 92.8233 482.369 87.71C482.889 87.3633 483.366 87.3633 483.799 87.71C484.146 88.0567 484.189 88.4467 483.929 88.88C480.723 94.6 475.653 99.15 468.719 102.53C461.873 106.43 455.936 107.383 450.909 105.39C449.696 104.523 448.786 103.353 448.179 101.88C446.359 97.8933 447.789 91.61 452.469 83.03C453.249 81.6433 454.203 80.04 455.329 78.22L456.629 76.01L457.929 73.8C459.923 70.5933 461.049 68.4267 461.309 67.3C462.349 66.9533 463.389 66.91 464.429 67.17C465.729 67.43 466.639 68.0367 467.159 68.99C466.726 70.29 465.296 72.89 462.869 76.79L461.309 79.26L460.009 81.47ZM489.021 87.97C489.454 90.9167 490.711 93.17 492.791 94.73C494.697 96.29 497.037 97.2 499.811 97.46C501.544 95.5533 503.407 92.9533 505.401 89.66C508.261 84.5467 509.734 79.9967 509.821 76.01C509.821 71.59 507.827 69.25 503.841 68.99C501.067 68.8167 498.424 69.7267 495.911 71.72C493.484 73.6267 491.664 76.01 490.451 78.87C489.064 81.99 488.587 85.0233 489.021 87.97ZM496.951 100.19C494.351 99.7567 492.097 98.8467 490.191 97.46C487.244 95.4667 485.337 92.6933 484.471 89.14C482.997 96.68 484.254 101.317 488.241 103.05C490.581 104.177 493.484 103.223 496.951 100.19ZM509.951 92.39C508.997 93.95 507.871 95.51 506.571 97.07C510.297 96.3767 514.197 94.9467 518.271 92.78C521.737 91.0467 524.467 89.27 526.461 87.45C526.721 87.19 527.111 87.19 527.631 87.45C528.064 87.71 528.151 88.1 527.891 88.62C526.071 91.6533 522.734 94.34 517.881 96.68C513.027 99.02 508.087 100.32 503.061 100.58C497.341 105.52 492.011 107.167 487.071 105.52C482.477 103.96 479.877 100.84 479.271 96.16C478.664 91.3933 480.354 86.67 484.341 81.99C485.207 77.2233 487.417 73.28 490.971 70.16C494.871 66.8667 499.247 65.6533 504.101 66.52C509.994 67.56 513.374 70.55 514.241 75.49C514.587 72.0233 513.721 68.6867 511.641 65.48C509.041 61.6667 504.837 57.4633 499.031 52.87C495.651 49.4033 493.657 45.2433 493.051 40.39C492.444 35.71 493.917 31.2033 497.471 26.87C500.417 23.23 504.144 20.4133 508.651 18.42C517.837 14.4333 526.374 13.0033 534.261 14.13L538.161 15.04C542.061 16.1667 545.181 17.9433 547.521 20.37C549.861 22.7967 551.074 25.4833 551.161 28.43C551.421 35.3633 546.307 41.3 535.821 46.24C535.041 46.6733 534.347 46.5 533.741 45.72C532.961 45.0267 533.004 44.3333 533.871 43.64C547.564 34.9733 551.594 27.52 545.961 21.28C544.141 19.2867 541.151 18.0733 536.991 17.64L532.701 17.38C525.161 17.5533 517.577 19.33 509.951 22.71C505.617 24.79 502.064 27.39 499.291 30.51C496.951 33.63 496.127 37.3133 496.821 41.56C497.601 45.8067 499.984 49.5333 503.971 52.74C507.957 55.86 511.207 58.98 513.721 62.1C516.234 65.22 517.404 69.4667 517.231 74.84C517.057 80.1267 515.324 85.0667 512.031 89.66C511.164 90.8733 510.471 91.7833 509.951 92.39ZM531.39 98.37C533.383 96.1167 535.376 93.4733 537.37 90.44C539.45 87.4067 540.36 85.4567 540.1 84.59C539.926 83.6367 539.363 83.2467 538.41 83.42C537.023 83.42 535.42 84.46 533.6 86.54C532.04 88.2733 530.523 90.44 529.05 93.04C527.663 95.4667 526.753 97.5467 526.32 99.28C525.886 101.1 526.146 101.923 527.1 101.75C527.966 101.663 529.396 100.537 531.39 98.37ZM542.18 88.62C552.32 78.8267 557.953 71.98 559.08 68.08C559.426 67.04 560.336 67.04 561.81 68.08C563.283 69.2067 564.063 70.2033 564.15 71.07C564.15 72.2833 563.24 74.5367 561.42 77.83C560.726 79.13 559.773 80.7333 558.56 82.64L557 85.24L555.44 87.71C550.153 96.55 548.16 101.663 549.46 103.05C550.413 104.09 554.616 101.837 562.07 96.29C564.496 94.5567 567.053 92.6067 569.74 90.44C570.606 89.7467 571.43 89.0533 572.21 88.36C572.47 88.1867 572.686 88.0133 572.86 87.84L573.12 87.58C573.466 87.32 573.856 87.32 574.29 87.58C574.81 87.84 574.94 88.23 574.68 88.75L574.42 89.01C574.333 89.1833 574.16 89.4433 573.9 89.79C573.293 90.4833 572.643 91.2633 571.95 92.13C569.783 94.6433 567.573 96.8967 565.32 98.89C558.126 105.13 552.103 107.34 547.25 105.52C542.656 103.787 542.873 98.6733 547.9 90.18C548.766 88.7067 549.763 87.1467 550.89 85.5L552.32 83.29C552.753 82.77 553.23 82.12 553.75 81.34C555.743 78.5667 556.696 77.0933 556.61 76.92C556.523 77.0933 556.09 77.6567 555.31 78.61C554.443 79.7367 553.446 80.9933 552.32 82.38C549.286 86.1067 546.253 89.5733 543.22 92.78C533.86 102.487 527.273 106.993 523.46 106.3C521.466 105.953 520.34 104.783 520.08 102.79C519.56 98.9767 521.51 93.43 525.93 86.15L527.23 84.07L528.53 82.12C529.57 80.3867 530.35 79.0867 530.87 78.22C532.43 75.5333 533.34 73.4967 533.6 72.11C533.6 71.5033 533.946 71.07 534.64 70.81C535.246 70.6367 535.983 70.68 536.85 70.94C537.716 71.2 538.366 71.59 538.8 72.11C539.32 72.7167 539.363 73.3667 538.93 74.06C538.67 75.1 537.63 77.2233 535.81 80.43C535.723 80.5167 535.636 80.6467 535.55 80.82C536.33 80.7333 537.11 80.7767 537.89 80.95C542.396 81.3833 544 83.6367 542.7 87.71L542.18 88.62ZM654.81 87.45C655.07 87.19 655.46 87.19 655.98 87.45C656.414 87.71 656.5 88.1 656.24 88.62C654.42 91.6533 651.084 94.34 646.23 96.68C641.377 99.02 636.437 100.32 631.41 100.58C625.69 105.52 620.36 107.167 615.42 105.52C610.827 103.96 608.227 100.84 607.62 96.16C607.014 91.3933 608.704 86.67 612.69 81.99C613.557 77.2233 615.767 73.28 619.32 70.16C623.22 66.8667 627.597 65.6533 632.45 66.52C639.557 67.82 643.024 71.8933 642.85 78.74C642.764 84.8933 640.12 91.0033 634.92 97.07C638.647 96.3767 642.547 94.9467 646.62 92.78C650.087 91.0467 652.817 89.27 654.81 87.45ZM618.8 78.87C617.414 81.99 616.937 85.0233 617.37 87.97C617.804 90.9167 619.06 93.17 621.14 94.73C623.047 96.29 625.387 97.2 628.16 97.46C629.894 95.5533 631.757 92.9533 633.75 89.66C636.61 84.5467 638.084 79.9967 638.17 76.01C638.17 71.59 636.177 69.25 632.19 68.99C629.417 68.8167 626.774 69.7267 624.26 71.72C621.834 73.6267 620.014 76.01 618.8 78.87ZM616.59 103.05C618.93 104.177 621.834 103.223 625.3 100.19C622.7 99.7567 620.447 98.8467 618.54 97.46C615.594 95.4667 613.687 92.6933 612.82 89.14C611.347 96.68 612.604 101.317 616.59 103.05ZM683.139 79.78C684.006 76.2267 683.313 73.3667 681.059 71.2C679.239 69.38 675.903 70.3333 671.049 74.06C669.229 75.36 667.409 76.92 665.589 78.74C664.029 80.3867 662.859 81.73 662.079 82.77C656.099 91.09 654.713 97.0267 657.919 100.58C660.519 103.267 664.506 104.307 669.879 103.7C675.773 103.093 681.233 101.23 686.259 98.11C689.206 96.29 693.583 92.8233 699.389 87.71C699.909 87.3633 700.386 87.3633 700.819 87.71C701.166 88.0567 701.209 88.4467 700.949 88.88C697.743 94.6 692.673 99.15 685.739 102.53C678.893 105.997 672.003 107.383 665.069 106.69C658.483 106.083 654.063 102.66 651.809 96.42C649.816 91.0467 652.589 84.46 660.129 76.66C663.336 73.4533 666.673 70.94 670.139 69.12C673.779 67.2133 676.856 66.5633 679.369 67.17C682.923 68.0367 685.219 69.9 686.259 72.76C687.213 75.1867 686.996 77.57 685.609 79.91C685.263 80.43 684.743 80.7333 684.049 80.82C683.356 80.82 683.053 80.4733 683.139 79.78ZM712.614 72.5C712.094 74.4933 710.274 77.96 707.154 82.9L705.204 85.89L703.254 89.14C701.78 91.74 700.567 94.1667 699.614 96.42C701 94.7733 702.994 92.1733 705.594 88.62L708.714 84.07L711.964 79.65C717.164 72.89 720.717 69.6833 722.624 70.03C723.75 70.2033 724.66 70.81 725.354 71.85C726.047 72.7167 726.394 73.5833 726.394 74.45C726.394 75.6633 725.917 77.83 724.964 80.95C724.53 82.1633 724.01 83.5933 723.404 85.24L721.844 89.79C718.984 97.4167 717.814 101.36 718.334 101.62C718.767 101.793 722.017 96.6367 728.084 86.15C730.944 81.2967 733.197 77.7 734.844 75.36C737.184 72.0667 738.83 70.42 739.784 70.42C740.65 70.42 741.56 70.9833 742.514 72.11C743.38 73.15 743.727 74.06 743.554 74.84C743.294 76.0533 742.73 78.09 741.864 80.95C741.604 81.9033 741.214 83.2033 740.694 84.85L739.524 89.01C737.444 95.8567 736.49 99.7133 736.664 100.58C737.097 102.487 740.477 101.88 746.804 98.76C748.97 97.72 751.267 96.5067 753.694 95.12C754.56 94.6 755.384 94.08 756.164 93.56C756.857 93.1267 757.334 92.8233 757.594 92.65C758.2 92.2167 758.677 92.26 759.024 92.78C759.284 93.3 759.197 93.7767 758.764 94.21C758.417 94.5567 757.984 94.99 757.464 95.51C756.684 96.1167 755.904 96.7667 755.124 97.46C752.957 99.1933 750.79 100.667 748.624 101.88C742.47 105.347 737.79 105.91 734.584 103.57C732.764 102.27 731.94 99.8867 732.114 96.42C732.114 93.6467 732.764 90.2667 734.064 86.28C734.584 84.72 735.147 83.0733 735.754 81.34C736.274 80.04 736.837 78.6533 737.444 77.18L739.004 73.28C738.744 73.3667 737.617 75.23 735.624 78.87L734.974 80.17L734.194 81.47L732.634 84.33C731.334 86.7567 730.207 88.8367 729.254 90.57C722.754 101.837 718.42 107.123 716.254 106.43C713.654 105.563 712.44 103.267 712.614 99.54C712.787 96.68 713.784 92.8667 715.604 88.1C716.297 86.4533 717.12 84.59 718.074 82.51L719.244 79.91C719.677 78.87 719.98 78.1333 720.154 77.7C721.454 74.7533 721.8 73.41 721.194 73.67C719.634 74.2767 715.257 79.8233 708.064 90.31C705.377 94.21 702.69 98.2833 700.004 102.53C697.577 106.257 695.844 108.987 694.804 110.72C694.544 111.5 693.894 111.63 692.854 111.11C691.727 110.59 691.077 109.637 690.904 108.25C690.384 104.437 692.94 97.46 698.574 87.32L700.134 84.33L701.694 81.6C703.08 79.26 704.077 77.5267 704.684 76.4C706.59 72.76 707.674 70.2467 707.934 68.86C708.02 68.2533 708.324 67.95 708.844 67.95C709.364 67.95 709.97 68.1667 710.664 68.6C711.357 69.12 711.877 69.7267 712.224 70.42C712.657 71.1133 712.787 71.8067 712.614 72.5ZM811.841 87.45C812.795 87.3633 813.401 87.7533 813.661 88.62C803.695 101.62 794.941 108.12 787.401 108.12C785.581 108.12 783.978 107.73 782.591 106.95C780.945 106.083 779.948 104.87 779.601 103.31C777.868 96.8967 779.861 87.4067 785.581 74.84L783.891 77.31L782.071 79.91L778.431 85.24C775.571 89.2267 773.058 92.52 770.891 95.12C765.258 102.053 761.098 105.347 758.411 105C756.158 104.653 754.381 103.83 753.081 102.53C751.608 101.143 751.131 99.4533 751.651 97.46C753.211 91.6533 757.025 85.1967 763.091 78.09C769.678 70.29 775.181 66.78 779.601 67.56C782.115 67.9067 783.848 68.7733 784.801 70.16C788.268 65.5667 791.041 62.3167 793.121 60.41C793.988 60.0633 794.941 60.0633 795.981 60.41C797.108 60.7567 797.931 61.4067 798.451 62.36C797.238 64.18 795.721 66.9533 793.901 70.68C791.648 75.2733 789.741 79.6067 788.181 83.68C783.761 95.4667 783.415 102.357 787.141 104.35C788.875 105.217 792.905 103.353 799.231 98.76C805.125 94.5133 809.328 90.7433 811.841 87.45ZM757.761 101.23C759.755 101.403 763.351 98.2833 768.551 91.87C770.285 89.7033 772.668 86.54 775.701 82.38L779.341 77.31L783.111 72.37C782.591 70.7233 781.378 70.1167 779.471 70.55C777.305 70.8967 774.401 73.15 770.761 77.31C767.555 80.8633 764.478 84.98 761.531 89.66C757.025 97.1133 755.768 100.97 757.761 101.23ZM859.145 87.58C859.492 87.32 859.882 87.32 860.315 87.58C860.835 87.84 860.965 88.23 860.705 88.75L860.445 89.01C860.358 89.1833 860.185 89.4433 859.925 89.79C859.318 90.4833 858.668 91.2633 857.975 92.13C855.808 94.6433 853.598 96.8967 851.345 98.89C844.152 105.13 838.128 107.34 833.275 105.52C828.682 103.787 828.898 98.6733 833.925 90.18C834.792 88.7067 835.788 87.1467 836.915 85.5L838.345 83.29C838.778 82.77 839.255 82.12 839.775 81.34C841.768 78.5667 842.722 77.0933 842.635 76.92C842.548 77.0933 842.115 77.6567 841.335 78.61C840.468 79.7367 839.472 80.9933 838.345 82.38C835.312 86.1067 832.278 89.5733 829.245 92.78C819.885 102.487 813.298 106.993 809.485 106.3C807.492 105.953 806.365 104.783 806.105 102.79C805.585 98.9767 807.318 93.7767 811.305 87.19L812.345 84.59C812.345 83.9833 812.692 83.55 813.385 83.29C813.992 83.1167 814.728 83.16 815.595 83.42C816.462 83.68 817.112 84.07 817.545 84.59C818.065 85.1967 818.108 85.8467 817.675 86.54L817.025 88.49L815.465 90.96C811.045 98.5867 809.355 102.617 810.395 103.05C811.695 103.483 817.458 98.8467 827.685 89.14C838.172 79.0867 843.978 72.0667 845.105 68.08C845.452 67.04 846.362 67.04 847.835 68.08C849.308 69.2067 850.088 70.2033 850.175 71.07C850.175 72.2833 849.265 74.5367 847.445 77.83C846.752 79.13 845.798 80.7333 844.585 82.64L843.025 85.24L841.465 87.71C836.178 96.55 834.185 101.663 835.485 103.05C836.438 104.09 840.642 101.837 848.095 96.29C850.522 94.5567 853.078 92.6067 855.765 90.44C856.632 89.7467 857.455 89.0533 858.235 88.36C858.495 88.1867 858.712 88.0133 858.885 87.84L859.145 87.58ZM903.131 87.45C903.391 87.19 903.781 87.19 904.301 87.45C904.734 87.71 904.821 88.1 904.561 88.62C902.741 91.6533 899.404 94.34 894.551 96.68C889.697 99.02 884.757 100.32 879.731 100.58C874.011 105.52 868.681 107.167 863.741 105.52C859.147 103.96 856.547 100.84 855.941 96.16C855.334 91.3933 857.024 86.67 861.011 81.99C861.877 77.2233 864.087 73.28 867.641 70.16C871.541 66.8667 875.917 65.6533 880.771 66.52C887.877 67.82 891.344 71.8933 891.171 78.74C891.084 84.8933 888.441 91.0033 883.241 97.07C886.967 96.3767 890.867 94.9467 894.941 92.78C898.407 91.0467 901.137 89.27 903.131 87.45ZM867.121 78.87C865.734 81.99 865.257 85.0233 865.691 87.97C866.124 90.9167 867.381 93.17 869.461 94.73C871.367 96.29 873.707 97.2 876.481 97.46C878.214 95.5533 880.077 92.9533 882.071 89.66C884.931 84.5467 886.404 79.9967 886.491 76.01C886.491 71.59 884.497 69.25 880.511 68.99C877.737 68.8167 875.094 69.7267 872.581 71.72C870.154 73.6267 868.334 76.01 867.121 78.87ZM864.911 103.05C867.251 104.177 870.154 103.223 873.621 100.19C871.021 99.7567 868.767 98.8467 866.861 97.46C863.914 95.4667 862.007 92.6933 861.141 89.14C859.667 96.68 860.924 101.317 864.911 103.05ZM931.459 79.78C932.326 76.2267 931.633 73.3667 929.379 71.2C927.559 69.38 924.223 70.3333 919.369 74.06C917.549 75.36 915.729 76.92 913.909 78.74C912.349 80.3867 911.179 81.73 910.399 82.77C904.419 91.09 903.033 97.0267 906.239 100.58C908.839 103.267 912.826 104.307 918.199 103.7C924.093 103.093 929.553 101.23 934.579 98.11C937.526 96.29 941.903 92.8233 947.709 87.71C948.229 87.3633 948.706 87.3633 949.139 87.71C949.486 88.0567 949.529 88.4467 949.269 88.88C946.063 94.6 940.993 99.15 934.059 102.53C927.213 105.997 920.323 107.383 913.389 106.69C906.803 106.083 902.383 102.66 900.129 96.42C898.136 91.0467 900.909 84.46 908.449 76.66C911.656 73.4533 914.993 70.94 918.459 69.12C922.099 67.2133 925.176 66.5633 927.689 67.17C931.243 68.0367 933.539 69.9 934.579 72.76C935.533 75.1867 935.316 77.57 933.929 79.91C933.583 80.43 933.063 80.7333 932.369 80.82C931.676 80.82 931.373 80.4733 931.459 79.78ZM956.254 84.85C954.521 86.7567 953.047 89.1833 951.834 92.13C950.534 95.0767 949.884 97.59 949.884 99.67C949.884 102.01 950.794 103.223 952.614 103.31C954.694 103.05 956.861 101.88 959.114 99.8C961.454 97.72 963.014 94.34 963.794 89.66C964.487 84.8933 963.577 82.3367 961.064 81.99C959.677 81.73 958.074 82.6833 956.254 84.85ZM956.904 81.47C958.811 80.69 960.761 80.4733 962.754 80.82C965.181 81.5133 966.827 82.9867 967.694 85.24C968.561 87.2333 968.647 89.53 967.954 92.13C967.347 94.6433 966.134 96.81 964.314 98.63C963.881 99.0633 963.491 99.4533 963.144 99.8C964.184 99.28 965.181 98.7167 966.134 98.11C969.081 96.29 973.457 92.8233 979.264 87.71C979.784 87.3633 980.261 87.3633 980.694 87.71C981.041 88.0567 981.084 88.4467 980.824 88.88C977.617 94.6 972.547 99.15 965.614 102.53C958.767 106.43 952.831 107.383 947.804 105.39C946.591 104.523 945.681 103.353 945.074 101.88C943.254 97.8933 944.684 91.61 949.364 83.03C950.144 81.6433 951.097 80.04 952.224 78.22L953.524 76.01L954.824 73.8C956.817 70.5933 957.944 68.4267 958.204 67.3C959.244 66.9533 960.284 66.91 961.324 67.17C962.624 67.43 963.534 68.0367 964.054 68.99C963.621 70.29 962.191 72.89 959.764 76.79L958.204 79.26L956.904 81.47ZM992.285 87.19C994.625 87.6233 994.972 89.4867 993.325 92.78C991.592 95.9867 989.555 97.3733 987.215 96.94C984.875 96.42 984.572 94.5567 986.305 91.35C987.952 88.1433 989.945 86.7567 992.285 87.19ZM1004.25 68.86C1001.99 68.4267 1001.69 66.5633 1003.34 63.27C1005.07 60.0633 1007.11 58.6767 1009.45 59.11C1011.79 59.63 1012.09 61.4933 1010.36 64.7C1008.62 67.9933 1006.59 69.38 1004.25 68.86Z" fill="#711717"></path></svg> 