<?xml version="1.0" encoding="UTF-8"?> <svg xmlns="http://www.w3.org/2000/svg" width="893" height="289" viewBox="0 0 893 289" fill="none"><path d="M-2.67476e-06 0.714841H2.915V36.4098H18.205V0.714841H21.12V36.4098H36.41V0.714841H39.325V39.2148H-2.67476e-06V0.714841ZM58.0809 39.6548C56.6142 39.6548 55.1842 39.3798 53.7909 38.8298C52.4342 38.2798 51.2242 37.4732 50.1609 36.4098C49.0975 35.3465 48.2359 34.0632 47.5759 32.5598C46.9525 31.0198 46.6409 29.2598 46.6409 27.2798C46.6409 25.3732 46.9525 23.6682 47.5759 22.1648C48.1992 20.6248 49.0242 19.3232 50.0509 18.2598C51.1142 17.1965 52.3425 16.3898 53.7359 15.8398C55.1292 15.2532 56.6142 14.9598 58.1909 14.9598C60.4642 14.9598 62.3709 15.5098 63.9109 16.6098C65.4509 17.6732 66.5875 18.9565 67.3209 20.4598V15.3998H69.9609V39.2148H67.3209V33.6048C66.5875 35.3648 65.4142 36.8132 63.8009 37.9498C62.2242 39.0865 60.3175 39.6548 58.0809 39.6548ZM58.1909 37.0148C59.6575 37.0148 60.9409 36.7398 62.0409 36.1898C63.1775 35.6032 64.1125 34.8515 64.8459 33.9348C65.6159 33.0182 66.1842 31.9915 66.5509 30.8548C66.9542 29.7182 67.1559 28.5998 67.1559 27.4998V26.8948C67.1559 25.7215 66.9725 24.5848 66.6059 23.4848C66.2392 22.3482 65.6892 21.3398 64.9559 20.4598C64.2225 19.5798 63.3059 18.8832 62.2059 18.3698C61.1059 17.8198 59.8225 17.5448 58.3559 17.5448C55.7525 17.5448 53.6259 18.3882 51.9759 20.0748C50.3625 21.7615 49.5559 24.1448 49.5559 27.2248C49.5559 30.1582 50.3259 32.5232 51.8659 34.3198C53.4425 36.1165 55.5509 37.0148 58.1909 37.0148ZM88.0159 39.6548C84.1659 39.6548 81.1959 38.3165 79.1059 35.6398C77.0159 32.9265 75.9709 28.5632 75.9709 22.5498C75.9709 18.5898 76.3559 15.3448 77.1259 12.8148C77.9326 10.2482 78.9959 8.23151 80.3159 6.76484C81.6359 5.26151 83.1392 4.19818 84.8259 3.57484C86.5126 2.91484 88.2542 2.49318 90.0509 2.30984C91.8109 2.08984 93.1676 1.83317 94.1209 1.53984C95.1109 1.24651 95.9726 0.733175 96.7059 -0.000159502L98.6309 1.70484C98.2642 2.25484 97.7692 2.71317 97.1459 3.07984C96.5226 3.44651 95.8259 3.75818 95.0559 4.01484C94.3226 4.27151 93.5342 4.47318 92.6909 4.61984C91.8842 4.72984 91.1142 4.82151 90.3809 4.89484C88.7676 5.07818 87.2826 5.38984 85.9259 5.82984C84.6059 6.26984 83.4326 7.05818 82.4059 8.19484C81.4159 9.33151 80.5909 10.9082 79.9309 12.9248C79.3076 14.9415 78.9042 17.5815 78.7209 20.8448C79.7476 18.8282 81.1409 17.3615 82.9009 16.4448C84.6609 15.5282 86.5859 15.0698 88.6759 15.0698C90.4359 15.0698 91.9942 15.3815 93.3509 16.0048C94.7442 16.6282 95.9176 17.4898 96.8709 18.5898C97.8609 19.6898 98.5942 20.9915 99.0709 22.4948C99.5842 23.9615 99.8409 25.5382 99.8409 27.2248C99.8409 29.0582 99.5476 30.7448 98.9609 32.2848C98.3742 33.7882 97.5492 35.0898 96.4859 36.1898C95.4592 37.2898 94.2126 38.1515 92.7459 38.7748C91.3159 39.3615 89.7392 39.6548 88.0159 39.6548ZM88.0709 37.0698C90.6742 37.0698 92.8009 36.2082 94.4509 34.4848C96.1009 32.7248 96.9259 30.3048 96.9259 27.2248C96.9259 25.8682 96.7242 24.6032 96.3209 23.4298C95.9542 22.2565 95.4042 21.2482 94.6709 20.4048C93.9376 19.5615 93.0209 18.9015 91.9209 18.4248C90.8576 17.9115 89.6476 17.6548 88.2909 17.6548C87.1909 17.6548 86.1092 17.8198 85.0459 18.1498C83.9826 18.4798 83.0109 19.0298 82.1309 19.7998C81.2876 20.5332 80.5909 21.5048 80.0409 22.7148C79.5276 23.9248 79.2709 25.4098 79.2709 27.1698C79.2709 30.2132 80.0776 32.6332 81.6909 34.4298C83.3042 36.1898 85.4309 37.0698 88.0709 37.0698ZM103.504 39.4898C103.211 39.4898 102.972 39.4715 102.789 39.4348C102.606 39.3982 102.477 39.3615 102.404 39.3248V36.4098C102.551 36.4465 102.807 36.4648 103.174 36.4648C103.614 36.4648 104.054 36.3182 104.494 36.0248C104.971 35.6948 105.392 35.0348 105.759 34.0448C106.162 33.0548 106.474 31.6432 106.694 29.8098C106.951 27.9398 107.079 25.4648 107.079 22.3848V15.3998H122.424V39.2148H119.564V17.9848H109.774V23.8698C109.774 26.8398 109.609 29.3332 109.279 31.3498C108.949 33.3298 108.491 34.9248 107.904 36.1348C107.354 37.3448 106.694 38.2065 105.924 38.7198C105.154 39.2332 104.347 39.4898 103.504 39.4898ZM140.109 39.6548C138.422 39.6548 136.846 39.3432 135.379 38.7198C133.949 38.0965 132.684 37.2348 131.584 36.1348C130.521 34.9982 129.677 33.6782 129.054 32.1748C128.467 30.6348 128.174 28.9665 128.174 27.1698C128.174 25.4098 128.467 23.7782 129.054 22.2748C129.677 20.7715 130.521 19.4882 131.584 18.4248C132.684 17.3248 133.949 16.4815 135.379 15.8948C136.846 15.2715 138.422 14.9598 140.109 14.9598C141.796 14.9598 143.354 15.2715 144.784 15.8948C146.214 16.4815 147.461 17.3248 148.524 18.4248C149.587 19.4882 150.412 20.7715 150.999 22.2748C151.622 23.7782 151.934 25.4098 151.934 27.1698C151.934 28.9665 151.622 30.6348 150.999 32.1748C150.412 33.6782 149.587 34.9982 148.524 36.1348C147.461 37.2348 146.196 38.0965 144.729 38.7198C143.299 39.3432 141.759 39.6548 140.109 39.6548ZM140.109 37.0698C141.429 37.0698 142.639 36.8315 143.739 36.3548C144.839 35.8782 145.792 35.1998 146.599 34.3198C147.406 33.4398 148.029 32.3948 148.469 31.1848C148.946 29.9748 149.184 28.6365 149.184 27.1698C149.184 25.7398 148.946 24.4382 148.469 23.2648C148.029 22.0915 147.406 21.0832 146.599 20.2398C145.792 19.3598 144.839 18.6998 143.739 18.2598C142.639 17.7832 141.429 17.5448 140.109 17.5448C138.789 17.5448 137.561 17.7832 136.424 18.2598C135.324 18.6998 134.371 19.3598 133.564 20.2398C132.757 21.0832 132.116 22.0915 131.639 23.2648C131.199 24.4382 130.979 25.7398 130.979 27.1698C130.979 28.6365 131.199 29.9748 131.639 31.1848C132.116 32.3948 132.757 33.4398 133.564 34.3198C134.407 35.1998 135.379 35.8782 136.479 36.3548C137.579 36.8315 138.789 37.0698 140.109 37.0698ZM174.628 27.6098H160.548V39.2148H157.743V15.3998H160.548V25.0248H174.628V15.3998H177.433V39.2148H174.628V27.6098ZM196.854 39.4898C196.56 39.4898 196.322 39.4715 196.139 39.4348C195.955 39.3982 195.827 39.3615 195.754 39.3248V36.4098C195.9 36.4465 196.157 36.4648 196.524 36.4648C196.964 36.4648 197.404 36.3182 197.844 36.0248C198.32 35.6948 198.742 35.0348 199.109 34.0448C199.512 33.0548 199.824 31.6432 200.044 29.8098C200.3 27.9398 200.429 25.4648 200.429 22.3848V15.3998H215.774V39.2148H212.914V17.9848H203.124V23.8698C203.124 26.8398 202.959 29.3332 202.629 31.3498C202.299 33.3298 201.84 34.9248 201.254 36.1348C200.704 37.3448 200.044 38.2065 199.274 38.7198C198.504 39.2332 197.697 39.4898 196.854 39.4898ZM233.789 39.6548C232.065 39.6548 230.452 39.3615 228.949 38.7748C227.482 38.1882 226.199 37.3448 225.099 36.2448C223.999 35.1448 223.119 33.8248 222.459 32.2848C221.835 30.7448 221.524 29.0215 221.524 27.1148C221.524 25.2082 221.854 23.5032 222.514 21.9998C223.21 20.4965 224.109 19.2315 225.209 18.2048C226.345 17.1415 227.629 16.3348 229.059 15.7848C230.489 15.2348 231.974 14.9598 233.514 14.9598C235.384 14.9598 237.015 15.3082 238.409 16.0048C239.839 16.6648 241.03 17.5265 241.984 18.5898C242.937 19.6532 243.652 20.8632 244.129 22.2198C244.605 23.5398 244.844 24.8782 244.844 26.2348V27.7198H224.329C224.365 29.1498 224.64 30.4332 225.154 31.5698C225.704 32.7065 226.419 33.6965 227.299 34.5398C228.179 35.3465 229.169 35.9698 230.269 36.4098C231.405 36.8498 232.615 37.0698 233.899 37.0698C235.622 37.0698 237.18 36.7398 238.574 36.0798C239.967 35.3832 241.14 34.4848 242.094 33.3848L243.964 35.0898C242.644 36.6665 241.104 37.8215 239.344 38.5548C237.584 39.2882 235.732 39.6548 233.789 39.6548ZM233.459 17.5448C232.359 17.5448 231.314 17.7282 230.324 18.0948C229.334 18.4615 228.435 18.9932 227.629 19.6898C226.822 20.3498 226.144 21.1565 225.594 22.1098C225.08 23.0632 224.714 24.1082 224.494 25.2448H241.984C241.874 24.1815 241.599 23.1915 241.159 22.2748C240.719 21.3215 240.132 20.4965 239.399 19.7998C238.665 19.1032 237.804 18.5532 236.814 18.1498C235.824 17.7465 234.705 17.5448 233.459 17.5448ZM250.663 15.3998H265.678V17.9848H253.468V39.2148H250.663V15.3998ZM271.127 15.3998H273.932V25.4098H276.297L285.537 15.3998H288.672V15.7848L278.717 26.3448L290.982 38.8298V39.2148H287.627L276.242 27.8848H273.932V39.2148H271.127V15.3998ZM304.196 39.6548C302.509 39.6548 300.933 39.3432 299.466 38.7198C298.036 38.0965 296.771 37.2348 295.671 36.1348C294.608 34.9982 293.764 33.6782 293.141 32.1748C292.554 30.6348 292.261 28.9665 292.261 27.1698C292.261 25.4098 292.554 23.7782 293.141 22.2748C293.764 20.7715 294.608 19.4882 295.671 18.4248C296.771 17.3248 298.036 16.4815 299.466 15.8948C300.933 15.2715 302.509 14.9598 304.196 14.9598C305.883 14.9598 307.441 15.2715 308.871 15.8948C310.301 16.4815 311.548 17.3248 312.611 18.4248C313.674 19.4882 314.499 20.7715 315.086 22.2748C315.709 23.7782 316.021 25.4098 316.021 27.1698C316.021 28.9665 315.709 30.6348 315.086 32.1748C314.499 33.6782 313.674 34.9982 312.611 36.1348C311.548 37.2348 310.283 38.0965 308.816 38.7198C307.386 39.3432 305.846 39.6548 304.196 39.6548ZM304.196 37.0698C305.516 37.0698 306.726 36.8315 307.826 36.3548C308.926 35.8782 309.879 35.1998 310.686 34.3198C311.493 33.4398 312.116 32.3948 312.556 31.1848C313.033 29.9748 313.271 28.6365 313.271 27.1698C313.271 25.7398 313.033 24.4382 312.556 23.2648C312.116 22.0915 311.493 21.0832 310.686 20.2398C309.879 19.3598 308.926 18.6998 307.826 18.2598C306.726 17.7832 305.516 17.5448 304.196 17.5448C302.876 17.5448 301.648 17.7832 300.511 18.2598C299.411 18.6998 298.458 19.3598 297.651 20.2398C296.844 21.0832 296.203 22.0915 295.726 23.2648C295.286 24.4382 295.066 25.7398 295.066 27.1698C295.066 28.6365 295.286 29.9748 295.726 31.1848C296.203 32.3948 296.844 33.4398 297.651 34.3198C298.494 35.1998 299.466 35.8782 300.566 36.3548C301.666 36.8315 302.876 37.0698 304.196 37.0698ZM346.347 39.6548C344.881 39.6548 343.451 39.3798 342.057 38.8298C340.701 38.2798 339.491 37.4732 338.427 36.4098C337.364 35.3465 336.502 34.0632 335.842 32.5598C335.219 31.0198 334.907 29.2598 334.907 27.2798C334.907 25.3732 335.219 23.6682 335.842 22.1648C336.466 20.6248 337.291 19.3232 338.317 18.2598C339.381 17.1965 340.609 16.3898 342.002 15.8398C343.396 15.2532 344.881 14.9598 346.457 14.9598C348.731 14.9598 350.637 15.5098 352.177 16.6098C353.717 17.6732 354.854 18.9565 355.587 20.4598V15.3998H358.227V39.2148H355.587V33.6048C354.854 35.3648 353.681 36.8132 352.067 37.9498C350.491 39.0865 348.584 39.6548 346.347 39.6548ZM346.457 37.0148C347.924 37.0148 349.207 36.7398 350.307 36.1898C351.444 35.6032 352.379 34.8515 353.112 33.9348C353.882 33.0182 354.451 31.9915 354.817 30.8548C355.221 29.7182 355.422 28.5998 355.422 27.4998V26.8948C355.422 25.7215 355.239 24.5848 354.872 23.4848C354.506 22.3482 353.956 21.3398 353.222 20.4598C352.489 19.5798 351.572 18.8832 350.472 18.3698C349.372 17.8198 348.089 17.5448 346.622 17.5448C344.019 17.5448 341.892 18.3882 340.242 20.0748C338.629 21.7615 337.822 24.1448 337.822 27.2248C337.822 30.1582 338.592 32.5232 340.132 34.3198C341.709 36.1165 343.817 37.0148 346.457 37.0148ZM362.202 36.6298H365.062C366.162 34.8332 366.932 32.5965 367.372 29.9198C367.849 27.2065 368.087 24.3282 368.087 21.2848V15.3998H383.762V36.6298H387.722V45.4298H385.027V39.2148H364.897V45.4298H362.202V36.6298ZM370.782 22.1648C370.782 24.6948 370.599 27.2065 370.232 29.6998C369.866 32.1932 369.169 34.5032 368.142 36.6298H380.957V17.9848H370.782V22.1648ZM401.938 39.6548C400.472 39.6548 399.042 39.3798 397.648 38.8298C396.292 38.2798 395.082 37.4732 394.018 36.4098C392.955 35.3465 392.093 34.0632 391.433 32.5598C390.81 31.0198 390.498 29.2598 390.498 27.2798C390.498 25.3732 390.81 23.6682 391.433 22.1648C392.057 20.6248 392.882 19.3232 393.908 18.2598C394.972 17.1965 396.2 16.3898 397.593 15.8398C398.987 15.2532 400.472 14.9598 402.048 14.9598C404.322 14.9598 406.228 15.5098 407.768 16.6098C409.308 17.6732 410.445 18.9565 411.178 20.4598V15.3998H413.818V39.2148H411.178V33.6048C410.445 35.3648 409.272 36.8132 407.658 37.9498C406.082 39.0865 404.175 39.6548 401.938 39.6548ZM402.048 37.0148C403.515 37.0148 404.798 36.7398 405.898 36.1898C407.035 35.6032 407.97 34.8515 408.703 33.9348C409.473 33.0182 410.042 31.9915 410.408 30.8548C410.812 29.7182 411.013 28.5998 411.013 27.4998V26.8948C411.013 25.7215 410.83 24.5848 410.463 23.4848C410.097 22.3482 409.547 21.3398 408.813 20.4598C408.08 19.5798 407.163 18.8832 406.063 18.3698C404.963 17.8198 403.68 17.5448 402.213 17.5448C399.61 17.5448 397.483 18.3882 395.833 20.0748C394.22 21.7615 393.413 24.1448 393.413 27.2248C393.413 30.1582 394.183 32.5232 395.723 34.3198C397.3 36.1165 399.408 37.0148 402.048 37.0148ZM420.873 15.3998H439.573V39.2148H436.713V17.9848H423.678V39.2148H420.873V15.3998ZM452.432 17.9848H444.402V15.3998H463.322V17.9848H455.292V39.2148H452.432V17.9848ZM468.193 15.3998H470.998V33.5498L486.783 15.3998H487.828V39.2148H485.023V21.0098L469.238 39.2148H468.193V15.3998ZM494.887 52.4148V15.3998H497.527V20.7898C498.15 19.2132 499.232 17.8565 500.772 16.7198C502.312 15.5465 504.274 14.9598 506.657 14.9598C508.234 14.9598 509.719 15.2532 511.112 15.8398C512.505 16.3898 513.715 17.1965 514.742 18.2598C515.805 19.3232 516.649 20.6248 517.272 22.1648C517.895 23.6682 518.207 25.3732 518.207 27.2798C518.207 29.2598 517.877 31.0198 517.217 32.5598C516.594 34.0632 515.75 35.3465 514.687 36.4098C513.624 37.4732 512.395 38.2798 511.002 38.8298C509.645 39.3798 508.234 39.6548 506.767 39.6548C504.604 39.6548 502.734 39.1232 501.157 38.0598C499.58 36.9598 498.425 35.5848 497.692 33.9348V52.4148H494.887ZM506.492 17.5448C505.062 17.5448 503.797 17.8015 502.697 18.3148C501.634 18.8282 500.735 19.5065 500.002 20.3498C499.269 21.1932 498.7 22.1648 498.297 23.2648C497.93 24.3282 497.729 25.4282 497.692 26.5648V27.8298C497.729 28.9298 497.93 30.0298 498.297 31.1298C498.7 32.2298 499.269 33.2198 500.002 34.0998C500.772 34.9432 501.707 35.6398 502.807 36.1898C503.944 36.7398 505.227 37.0148 506.657 37.0148C509.297 37.0148 511.387 36.1165 512.927 34.3198C514.504 32.5232 515.292 30.1582 515.292 27.2248C515.292 24.1448 514.467 21.7615 512.817 20.0748C511.204 18.3882 509.095 17.5448 506.492 17.5448ZM525.171 51.9748L530.286 38.6098L520.441 15.6198V15.3998H523.466L531.771 34.8148L539.251 15.3998H542.056V15.6198L527.866 52.4148H525.171V51.9748ZM556.484 39.6548C554.761 39.6548 553.147 39.3615 551.644 38.7748C550.177 38.1882 548.894 37.3448 547.794 36.2448C546.694 35.1448 545.814 33.8248 545.154 32.2848C544.531 30.7448 544.219 29.0215 544.219 27.1148C544.219 25.2082 544.549 23.5032 545.209 21.9998C545.906 20.4965 546.804 19.2315 547.904 18.2048C549.041 17.1415 550.324 16.3348 551.754 15.7848C553.184 15.2348 554.669 14.9598 556.209 14.9598C558.079 14.9598 559.711 15.3082 561.104 16.0048C562.534 16.6648 563.726 17.5265 564.679 18.5898C565.632 19.6532 566.347 20.8632 566.824 22.2198C567.301 23.5398 567.539 24.8782 567.539 26.2348V27.7198H547.024C547.061 29.1498 547.336 30.4332 547.849 31.5698C548.399 32.7065 549.114 33.6965 549.994 34.5398C550.874 35.3465 551.864 35.9698 552.964 36.4098C554.101 36.8498 555.311 37.0698 556.594 37.0698C558.317 37.0698 559.876 36.7398 561.269 36.0798C562.662 35.3832 563.836 34.4848 564.789 33.3848L566.659 35.0898C565.339 36.6665 563.799 37.8215 562.039 38.5548C560.279 39.2882 558.427 39.6548 556.484 39.6548ZM556.154 17.5448C555.054 17.5448 554.009 17.7282 553.019 18.0948C552.029 18.4615 551.131 18.9932 550.324 19.6898C549.517 20.3498 548.839 21.1565 548.289 22.1098C547.776 23.0632 547.409 24.1082 547.189 25.2448H564.679C564.569 24.1815 564.294 23.1915 563.854 22.2748C563.414 21.3215 562.827 20.4965 562.094 19.7998C561.361 19.1032 560.499 18.5532 559.509 18.1498C558.519 17.7465 557.401 17.5448 556.154 17.5448ZM577.686 17.9848H569.656V15.3998H588.576V17.9848H580.546V39.2148H577.686V17.9848ZM603.054 39.6548C601.147 39.6548 599.424 39.3248 597.884 38.6648C596.381 38.0048 595.079 37.1065 593.979 35.9698C592.916 34.8332 592.091 33.5132 591.504 32.0098C590.954 30.4698 590.679 28.8382 590.679 27.1148C590.679 25.2082 590.991 23.5032 591.614 21.9998C592.274 20.4965 593.154 19.2315 594.254 18.2048C595.391 17.1415 596.711 16.3348 598.214 15.7848C599.717 15.2348 601.312 14.9598 602.999 14.9598C604.759 14.9598 606.427 15.2532 608.004 15.8398C609.581 16.4265 610.956 17.3065 612.129 18.4798L610.479 20.6248C609.562 19.6348 608.444 18.8832 607.124 18.3698C605.841 17.8198 604.466 17.5448 602.999 17.5448C601.716 17.5448 600.487 17.7648 599.314 18.2048C598.177 18.6082 597.169 19.2132 596.289 20.0198C595.446 20.8265 594.767 21.8348 594.254 23.0448C593.741 24.2182 593.484 25.5748 593.484 27.1148C593.484 28.6182 593.722 29.9748 594.199 31.1848C594.712 32.3948 595.409 33.4398 596.289 34.3198C597.169 35.1998 598.196 35.8782 599.369 36.3548C600.542 36.8315 601.826 37.0698 603.219 37.0698C604.832 37.0698 606.281 36.7765 607.564 36.1898C608.847 35.6032 609.874 34.8332 610.644 33.8798L612.404 35.6398C611.414 36.7398 610.131 37.6932 608.554 38.4998C607.014 39.2698 605.181 39.6548 603.054 39.6548ZM616.459 38.8298L623.829 29.9748C621.849 29.6082 620.309 28.8565 619.209 27.7198C618.146 26.5832 617.614 24.9698 617.614 22.8798C617.614 20.2398 618.476 18.3332 620.199 17.1598C621.959 15.9865 624.507 15.3998 627.844 15.3998H635.599V39.2148H632.739V30.2498H627.294H627.129L619.704 39.2148H616.459V38.8298ZM632.739 27.7198V17.9848H628.064C625.571 17.9848 623.664 18.3332 622.344 19.0298C621.024 19.6898 620.382 20.9915 620.419 22.9348C620.419 24.7315 621.006 25.9782 622.179 26.6748C623.352 27.3715 625.131 27.7198 627.514 27.7198H632.739ZM656.879 15.3998H675.579V39.2148H672.719V17.9848H659.684V39.2148H656.879V15.3998ZM693.278 39.6548C691.591 39.6548 690.015 39.3432 688.548 38.7198C687.118 38.0965 685.853 37.2348 684.753 36.1348C683.69 34.9982 682.846 33.6782 682.223 32.1748C681.636 30.6348 681.343 28.9665 681.343 27.1698C681.343 25.4098 681.636 23.7782 682.223 22.2748C682.846 20.7715 683.69 19.4882 684.753 18.4248C685.853 17.3248 687.118 16.4815 688.548 15.8948C690.015 15.2715 691.591 14.9598 693.278 14.9598C694.965 14.9598 696.523 15.2715 697.953 15.8948C699.383 16.4815 700.63 17.3248 701.693 18.4248C702.756 19.4882 703.581 20.7715 704.168 22.2748C704.791 23.7782 705.103 25.4098 705.103 27.1698C705.103 28.9665 704.791 30.6348 704.168 32.1748C703.581 33.6782 702.756 34.9982 701.693 36.1348C700.63 37.2348 699.365 38.0965 697.898 38.7198C696.468 39.3432 694.928 39.6548 693.278 39.6548ZM693.278 37.0698C694.598 37.0698 695.808 36.8315 696.908 36.3548C698.008 35.8782 698.961 35.1998 699.768 34.3198C700.575 33.4398 701.198 32.3948 701.638 31.1848C702.115 29.9748 702.353 28.6365 702.353 27.1698C702.353 25.7398 702.115 24.4382 701.638 23.2648C701.198 22.0915 700.575 21.0832 699.768 20.2398C698.961 19.3598 698.008 18.6998 696.908 18.2598C695.808 17.7832 694.598 17.5448 693.278 17.5448C691.958 17.5448 690.73 17.7832 689.593 18.2598C688.493 18.6998 687.54 19.3598 686.733 20.2398C685.926 21.0832 685.285 22.0915 684.808 23.2648C684.368 24.4382 684.148 25.7398 684.148 27.1698C684.148 28.6365 684.368 29.9748 684.808 31.1848C685.285 32.3948 685.926 33.4398 686.733 34.3198C687.576 35.1998 688.548 35.8782 689.648 36.3548C690.748 36.8315 691.958 37.0698 693.278 37.0698ZM706.919 36.6298H709.779C710.879 34.8332 711.649 32.5965 712.089 29.9198C712.566 27.2065 712.804 24.3282 712.804 21.2848V15.3998H728.479V36.6298H732.439V45.4298H729.744V39.2148H709.614V45.4298H706.919V36.6298ZM715.499 22.1648C715.499 24.6948 715.316 27.2065 714.949 29.6998C714.583 32.1932 713.886 34.5032 712.859 36.6298H725.674V17.9848H715.499V22.1648ZM749.163 39.4898C748.87 39.4898 748.631 39.4715 748.448 39.4348C748.265 39.3982 748.136 39.3615 748.063 39.3248V36.4098C748.21 36.4465 748.466 36.4648 748.833 36.4648C749.273 36.4648 749.713 36.3182 750.153 36.0248C750.63 35.6948 751.051 35.0348 751.418 34.0448C751.821 33.0548 752.133 31.6432 752.353 29.8098C752.61 27.9398 752.738 25.4648 752.738 22.3848V15.3998H768.083V39.2148H765.223V17.9848H755.433V23.8698C755.433 26.8398 755.268 29.3332 754.938 31.3498C754.608 33.3298 754.15 34.9248 753.563 36.1348C753.013 37.3448 752.353 38.2065 751.583 38.7198C750.813 39.2332 750.006 39.4898 749.163 39.4898ZM775.043 15.3998H777.848V25.2998H783.183C783.403 23.6132 783.843 22.1282 784.503 20.8448C785.2 19.5615 786.043 18.4798 787.033 17.5998C788.06 16.7198 789.197 16.0598 790.443 15.6198C791.727 15.1798 793.047 14.9598 794.403 14.9598C796.017 14.9598 797.52 15.2532 798.913 15.8398C800.307 16.4265 801.498 17.2698 802.488 18.3698C803.515 19.4332 804.322 20.7348 804.908 22.2748C805.495 23.8148 805.788 25.5565 805.788 27.4998C805.788 29.4432 805.477 31.1848 804.853 32.7248C804.23 34.2282 803.387 35.4932 802.323 36.5198C801.26 37.5465 800.032 38.3348 798.638 38.8848C797.245 39.3982 795.797 39.6548 794.293 39.6548C792.753 39.6548 791.305 39.3982 789.948 38.8848C788.628 38.3348 787.455 37.5648 786.428 36.5748C785.438 35.5482 784.632 34.3198 784.008 32.8898C783.422 31.4232 783.11 29.7548 783.073 27.8848H777.848V39.2148H775.043V15.3998ZM794.403 37.0698C795.65 37.0698 796.787 36.8498 797.813 36.4098C798.877 35.9698 799.793 35.3465 800.563 34.5398C801.333 33.6965 801.92 32.7065 802.323 31.5698C802.763 30.3965 802.983 29.0765 802.983 27.6098C802.983 26.0332 802.763 24.6215 802.323 23.3748C801.883 22.1282 801.26 21.0832 800.453 20.2398C799.683 19.3598 798.767 18.6998 797.703 18.2598C796.64 17.7832 795.503 17.5448 794.293 17.5448C793.01 17.5448 791.837 17.7832 790.773 18.2598C789.747 18.6998 788.867 19.3415 788.133 20.1848C787.4 21.0282 786.813 22.0548 786.373 23.2648C785.97 24.4748 785.768 25.8315 785.768 27.3348C785.768 28.8748 785.988 30.2498 786.428 31.4598C786.868 32.6698 787.473 33.6965 788.243 34.5398C789.013 35.3465 789.93 35.9698 790.993 36.4098C792.057 36.8498 793.193 37.0698 794.403 37.0698ZM822.62 39.6548C818.77 39.6548 815.8 38.3165 813.71 35.6398C811.62 32.9265 810.575 28.5632 810.575 22.5498C810.575 18.5898 810.96 15.3448 811.73 12.8148C812.537 10.2482 813.6 8.23151 814.92 6.76484C816.24 5.26151 817.744 4.19818 819.43 3.57484C821.117 2.91484 822.859 2.49318 824.655 2.30984C826.415 2.08984 827.772 1.83317 828.725 1.53984C829.715 1.24651 830.577 0.733175 831.31 -0.000159502L833.235 1.70484C832.869 2.25484 832.374 2.71317 831.75 3.07984C831.127 3.44651 830.43 3.75818 829.66 4.01484C828.927 4.27151 828.139 4.47318 827.295 4.61984C826.489 4.72984 825.719 4.82151 824.985 4.89484C823.372 5.07818 821.887 5.38984 820.53 5.82984C819.21 6.26984 818.037 7.05818 817.01 8.19484C816.02 9.33151 815.195 10.9082 814.535 12.9248C813.912 14.9415 813.509 17.5815 813.325 20.8448C814.352 18.8282 815.745 17.3615 817.505 16.4448C819.265 15.5282 821.19 15.0698 823.28 15.0698C825.04 15.0698 826.599 15.3815 827.955 16.0048C829.349 16.6282 830.522 17.4898 831.475 18.5898C832.465 19.6898 833.199 20.9915 833.675 22.4948C834.189 23.9615 834.445 25.5382 834.445 27.2248C834.445 29.0582 834.152 30.7448 833.565 32.2848C832.979 33.7882 832.154 35.0898 831.09 36.1898C830.064 37.2898 828.817 38.1515 827.35 38.7748C825.92 39.3615 824.344 39.6548 822.62 39.6548ZM822.675 37.0698C825.279 37.0698 827.405 36.2082 829.055 34.4848C830.705 32.7248 831.53 30.3048 831.53 27.2248C831.53 25.8682 831.329 24.6032 830.925 23.4298C830.559 22.2565 830.009 21.2482 829.275 20.4048C828.542 19.5615 827.625 18.9015 826.525 18.4248C825.462 17.9115 824.252 17.6548 822.895 17.6548C821.795 17.6548 820.714 17.8198 819.65 18.1498C818.587 18.4798 817.615 19.0298 816.735 19.7998C815.892 20.5332 815.195 21.5048 814.645 22.7148C814.132 23.9248 813.875 25.4098 813.875 27.1698C813.875 30.2132 814.682 32.6332 816.295 34.4298C817.909 36.1898 820.035 37.0698 822.675 37.0698ZM841.153 51.9748L846.268 38.6098L836.423 15.6198V15.3998H839.448L847.753 34.8148L855.233 15.3998H858.038V15.6198L843.848 52.4148H841.153V51.9748ZM862.216 15.3998H865.021V25.2998H870.356C870.576 23.6132 871.016 22.1282 871.676 20.8448C872.373 19.5615 873.216 18.4798 874.206 17.5998C875.233 16.7198 876.369 16.0598 877.616 15.6198C878.899 15.1798 880.219 14.9598 881.576 14.9598C883.189 14.9598 884.693 15.2532 886.086 15.8398C887.479 16.4265 888.671 17.2698 889.661 18.3698C890.688 19.4332 891.494 20.7348 892.081 22.2748C892.668 23.8148 892.961 25.5565 892.961 27.4998C892.961 29.4432 892.649 31.1848 892.026 32.7248C891.403 34.2282 890.559 35.4932 889.496 36.5198C888.433 37.5465 887.204 38.3348 885.811 38.8848C884.418 39.3982 882.969 39.6548 881.466 39.6548C879.926 39.6548 878.478 39.3982 877.121 38.8848C875.801 38.3348 874.628 37.5648 873.601 36.5748C872.611 35.5482 871.804 34.3198 871.181 32.8898C870.594 31.4232 870.283 29.7548 870.246 27.8848H865.021V39.2148H862.216V15.3998ZM881.576 37.0698C882.823 37.0698 883.959 36.8498 884.986 36.4098C886.049 35.9698 886.966 35.3465 887.736 34.5398C888.506 33.6965 889.093 32.7065 889.496 31.5698C889.936 30.3965 890.156 29.0765 890.156 27.6098C890.156 26.0332 889.936 24.6215 889.496 23.3748C889.056 22.1282 888.433 21.0832 887.626 20.2398C886.856 19.3598 885.939 18.6998 884.876 18.2598C883.813 17.7832 882.676 17.5448 881.466 17.5448C880.183 17.5448 879.009 17.7832 877.946 18.2598C876.919 18.6998 876.039 19.3415 875.306 20.1848C874.573 21.0282 873.986 22.0548 873.546 23.2648C873.143 24.4748 872.941 25.8315 872.941 27.3348C872.941 28.8748 873.161 30.2498 873.601 31.4598C874.041 32.6698 874.646 33.6965 875.416 34.5398C876.186 35.3465 877.103 35.9698 878.166 36.4098C879.229 36.8498 880.366 37.0698 881.576 37.0698ZM87.2489 98.2148H67.7239V74.3998H70.5289V95.6298H83.1789V74.3998H85.9839V95.6298H89.9439V104.43H87.2489V98.2148ZM94.3108 74.3998H103.166C105.696 74.3998 107.547 74.9132 108.721 75.9398C109.931 76.9665 110.536 78.3415 110.536 80.0648C110.536 81.2382 110.242 82.2648 109.656 83.1448C109.069 83.9882 108.226 84.6115 107.126 85.0148C108.776 85.3448 110.077 86.0048 111.031 86.9948C111.984 87.9848 112.461 89.3782 112.461 91.1748C112.461 93.4482 111.654 95.1898 110.041 96.3998C108.464 97.6098 106.172 98.2148 103.166 98.2148H94.3108V74.3998ZM97.1158 86.4998V95.6298H102.616C105.109 95.6298 106.887 95.2448 107.951 94.4748C109.051 93.6682 109.601 92.4948 109.601 90.9548C109.601 89.3782 109.032 88.2415 107.896 87.5448C106.796 86.8482 105.072 86.4998 102.726 86.4998H97.1158ZM97.1158 76.9298V84.0248H102.616C104.192 84.0248 105.439 83.7682 106.356 83.2548C107.309 82.7048 107.786 81.7882 107.786 80.5048C107.786 78.1215 106.007 76.9298 102.451 76.9298H97.1158ZM128.891 98.6548C127.168 98.6548 125.555 98.3615 124.051 97.7748C122.585 97.1882 121.301 96.3448 120.201 95.2448C119.101 94.1448 118.221 92.8248 117.561 91.2848C116.938 89.7448 116.626 88.0215 116.626 86.1148C116.626 84.2082 116.956 82.5032 117.616 80.9998C118.313 79.4965 119.211 78.2315 120.311 77.2048C121.448 76.1415 122.731 75.3348 124.161 74.7848C125.591 74.2348 127.076 73.9598 128.616 73.9598C130.486 73.9598 132.118 74.3082 133.511 75.0048C134.941 75.6648 136.133 76.5265 137.086 77.5898C138.04 78.6532 138.755 79.8632 139.231 81.2198C139.708 82.5398 139.946 83.8782 139.946 85.2348V86.7198H119.431C119.468 88.1498 119.743 89.4332 120.256 90.5698C120.806 91.7065 121.521 92.6965 122.401 93.5398C123.281 94.3465 124.271 94.9698 125.371 95.4098C126.508 95.8498 127.718 96.0698 129.001 96.0698C130.725 96.0698 132.283 95.7398 133.676 95.0798C135.07 94.3832 136.243 93.4848 137.196 92.3848L139.066 94.0898C137.746 95.6665 136.206 96.8215 134.446 97.5548C132.686 98.2882 130.835 98.6548 128.891 98.6548ZM128.561 76.5448C127.461 76.5448 126.416 76.7282 125.426 77.0948C124.436 77.4615 123.538 77.9932 122.731 78.6898C121.925 79.3498 121.246 80.1565 120.696 81.1098C120.183 82.0632 119.816 83.1082 119.596 84.2448H137.086C136.976 83.1815 136.701 82.1915 136.261 81.2748C135.821 80.3215 135.235 79.4965 134.501 78.7998C133.768 78.1032 132.906 77.5532 131.916 77.1498C130.926 76.7465 129.808 76.5448 128.561 76.5448ZM150.093 76.9848H142.063V74.3998H160.983V76.9848H152.953V98.2148H150.093V76.9848ZM175.021 98.6548C173.335 98.6548 171.758 98.3432 170.291 97.7198C168.861 97.0965 167.596 96.2348 166.496 95.1348C165.433 93.9982 164.59 92.6782 163.966 91.1748C163.38 89.6348 163.086 87.9665 163.086 86.1698C163.086 84.4098 163.38 82.7782 163.966 81.2748C164.59 79.7715 165.433 78.4882 166.496 77.4248C167.596 76.3248 168.861 75.4815 170.291 74.8948C171.758 74.2715 173.335 73.9598 175.021 73.9598C176.708 73.9598 178.266 74.2715 179.696 74.8948C181.126 75.4815 182.373 76.3248 183.436 77.4248C184.5 78.4882 185.325 79.7715 185.911 81.2748C186.535 82.7782 186.846 84.4098 186.846 86.1698C186.846 87.9665 186.535 89.6348 185.911 91.1748C185.325 92.6782 184.5 93.9982 183.436 95.1348C182.373 96.2348 181.108 97.0965 179.641 97.7198C178.211 98.3432 176.671 98.6548 175.021 98.6548ZM175.021 96.0698C176.341 96.0698 177.551 95.8315 178.651 95.3548C179.751 94.8782 180.705 94.1998 181.511 93.3198C182.318 92.4398 182.941 91.3948 183.381 90.1848C183.858 88.9748 184.096 87.6365 184.096 86.1698C184.096 84.7398 183.858 83.4382 183.381 82.2648C182.941 81.0915 182.318 80.0832 181.511 79.2398C180.705 78.3598 179.751 77.6998 178.651 77.2598C177.551 76.7832 176.341 76.5448 175.021 76.5448C173.701 76.5448 172.473 76.7832 171.336 77.2598C170.236 77.6998 169.283 78.3598 168.476 79.2398C167.67 80.0832 167.028 81.0915 166.551 82.2648C166.111 83.4382 165.891 84.7398 165.891 86.1698C165.891 87.6365 166.111 88.9748 166.551 90.1848C167.028 91.3948 167.67 92.4398 168.476 93.3198C169.32 94.1998 170.291 94.8782 171.391 95.3548C172.491 95.8315 173.701 96.0698 175.021 96.0698ZM192.656 74.3998H201.511C204.041 74.3998 205.892 74.9132 207.066 75.9398C208.276 76.9665 208.881 78.3415 208.881 80.0648C208.881 81.2382 208.587 82.2648 208.001 83.1448C207.414 83.9882 206.571 84.6115 205.471 85.0148C207.121 85.3448 208.422 86.0048 209.376 86.9948C210.329 87.9848 210.806 89.3782 210.806 91.1748C210.806 93.4482 209.999 95.1898 208.386 96.3998C206.809 97.6098 204.517 98.2148 201.511 98.2148H192.656V74.3998ZM195.461 86.4998V95.6298H200.961C203.454 95.6298 205.232 95.2448 206.296 94.4748C207.396 93.6682 207.946 92.4948 207.946 90.9548C207.946 89.3782 207.377 88.2415 206.241 87.5448C205.141 86.8482 203.417 86.4998 201.071 86.4998H195.461ZM195.461 76.9298V84.0248H200.961C202.537 84.0248 203.784 83.7682 204.701 83.2548C205.654 82.7048 206.131 81.7882 206.131 80.5048C206.131 78.1215 204.352 76.9298 200.796 76.9298H195.461ZM217.032 110.975L222.147 97.6098L212.302 74.6198V74.3998H215.327L223.632 93.8148L231.112 74.3998H233.917V74.6198L219.727 111.415H217.032V110.975ZM238.095 74.3998H240.9V84.2998H246.235C246.455 82.6132 246.895 81.1282 247.555 79.8448C248.252 78.5615 249.095 77.4798 250.085 76.5998C251.112 75.7198 252.248 75.0598 253.495 74.6198C254.778 74.1798 256.098 73.9598 257.455 73.9598C259.068 73.9598 260.572 74.2532 261.965 74.8398C263.358 75.4265 264.55 76.2698 265.54 77.3698C266.567 78.4332 267.373 79.7348 267.96 81.2748C268.547 82.8148 268.84 84.5565 268.84 86.4998C268.84 88.4432 268.528 90.1848 267.905 91.7248C267.282 93.2282 266.438 94.4932 265.375 95.5198C264.312 96.5465 263.083 97.3348 261.69 97.8848C260.297 98.3982 258.848 98.6548 257.345 98.6548C255.805 98.6548 254.357 98.3982 253 97.8848C251.68 97.3348 250.507 96.5648 249.48 95.5748C248.49 94.5482 247.683 93.3198 247.06 91.8898C246.473 90.4232 246.162 88.7548 246.125 86.8848H240.9V98.2148H238.095V74.3998ZM257.455 96.0698C258.702 96.0698 259.838 95.8498 260.865 95.4098C261.928 94.9698 262.845 94.3465 263.615 93.5398C264.385 92.6965 264.972 91.7065 265.375 90.5698C265.815 89.3965 266.035 88.0765 266.035 86.6098C266.035 85.0332 265.815 83.6215 265.375 82.3748C264.935 81.1282 264.312 80.0832 263.505 79.2398C262.735 78.3598 261.818 77.6998 260.755 77.2598C259.692 76.7832 258.555 76.5448 257.345 76.5448C256.062 76.5448 254.888 76.7832 253.825 77.2598C252.798 77.6998 251.918 78.3415 251.185 79.1848C250.452 80.0282 249.865 81.0548 249.425 82.2648C249.022 83.4748 248.82 84.8315 248.82 86.3348C248.82 87.8748 249.04 89.2498 249.48 90.4598C249.92 91.6698 250.525 92.6965 251.295 93.5398C252.065 94.3465 252.982 94.9698 254.045 95.4098C255.108 95.8498 256.245 96.0698 257.455 96.0698ZM288.959 74.3998H307.659V98.2148H304.799V76.9848H291.764V98.2148H288.959V74.3998ZM324.863 98.6548C323.396 98.6548 321.966 98.3798 320.573 97.8298C319.216 97.2798 318.006 96.4732 316.943 95.4098C315.88 94.3465 315.018 93.0632 314.358 91.5598C313.735 90.0198 313.423 88.2598 313.423 86.2798C313.423 84.3732 313.735 82.6682 314.358 81.1648C314.981 79.6248 315.806 78.3232 316.833 77.2598C317.896 76.1965 319.125 75.3898 320.518 74.8398C321.911 74.2532 323.396 73.9598 324.973 73.9598C327.246 73.9598 329.153 74.5098 330.693 75.6098C332.233 76.6732 333.37 77.9565 334.103 79.4598V74.3998H336.743V98.2148H334.103V92.6048C333.37 94.3648 332.196 95.8132 330.583 96.9498C329.006 98.0865 327.1 98.6548 324.863 98.6548ZM324.973 96.0148C326.44 96.0148 327.723 95.7398 328.823 95.1898C329.96 94.6032 330.895 93.8515 331.628 92.9348C332.398 92.0182 332.966 90.9915 333.333 89.8548C333.736 88.7182 333.938 87.5998 333.938 86.4998V85.8948C333.938 84.7215 333.755 83.5848 333.388 82.4848C333.021 81.3482 332.471 80.3398 331.738 79.4598C331.005 78.5798 330.088 77.8832 328.988 77.3698C327.888 76.8198 326.605 76.5448 325.138 76.5448C322.535 76.5448 320.408 77.3882 318.758 79.0748C317.145 80.7615 316.338 83.1448 316.338 86.2248C316.338 89.1582 317.108 91.5232 318.648 93.3198C320.225 95.1165 322.333 96.0148 324.973 96.0148ZM341.873 98.4898C341.58 98.4898 341.341 98.4715 341.158 98.4348C340.975 98.3982 340.846 98.3615 340.773 98.3248V95.4098C340.92 95.4465 341.176 95.4648 341.543 95.4648C341.983 95.4648 342.423 95.3182 342.863 95.0248C343.34 94.6948 343.761 94.0348 344.128 93.0448C344.531 92.0548 344.843 90.6432 345.063 88.8098C345.32 86.9398 345.448 84.4648 345.448 81.3848V74.3998H360.793V98.2148H357.933V76.9848H348.143V82.8698C348.143 85.8398 347.978 88.3332 347.648 90.3498C347.318 92.3298 346.86 93.9248 346.273 95.1348C345.723 96.3448 345.063 97.2065 344.293 97.7198C343.523 98.2332 342.716 98.4898 341.873 98.4898ZM367.753 74.3998H370.558V92.5498L386.343 74.3998H387.388V98.2148H384.583V80.0098L368.798 98.2148H367.753V74.3998ZM400.333 76.9848H392.303V74.3998H411.223V76.9848H403.193V98.2148H400.333V76.9848ZM416.093 111.415V74.3998H418.733V79.7898C419.356 78.2132 420.438 76.8565 421.978 75.7198C423.518 74.5465 425.48 73.9598 427.863 73.9598C429.44 73.9598 430.925 74.2532 432.318 74.8398C433.711 75.3898 434.921 76.1965 435.948 77.2598C437.011 78.3232 437.855 79.6248 438.478 81.1648C439.101 82.6682 439.413 84.3732 439.413 86.2798C439.413 88.2598 439.083 90.0198 438.423 91.5598C437.8 93.0632 436.956 94.3465 435.893 95.4098C434.83 96.4732 433.601 97.2798 432.208 97.8298C430.851 98.3798 429.44 98.6548 427.973 98.6548C425.81 98.6548 423.94 98.1232 422.363 97.0598C420.786 95.9598 419.631 94.5848 418.898 92.9348V111.415H416.093ZM427.698 76.5448C426.268 76.5448 425.003 76.8015 423.903 77.3148C422.84 77.8282 421.941 78.5065 421.208 79.3498C420.475 80.1932 419.906 81.1648 419.503 82.2648C419.136 83.3282 418.935 84.4282 418.898 85.5648V86.8298C418.935 87.9298 419.136 89.0298 419.503 90.1298C419.906 91.2298 420.475 92.2198 421.208 93.0998C421.978 93.9432 422.913 94.6398 424.013 95.1898C425.15 95.7398 426.433 96.0148 427.863 96.0148C430.503 96.0148 432.593 95.1165 434.133 93.3198C435.71 91.5232 436.498 89.1582 436.498 86.2248C436.498 83.1448 435.673 80.7615 434.023 79.0748C432.41 77.3882 430.301 76.5448 427.698 76.5448ZM446.377 110.975L451.492 97.6098L441.647 74.6198V74.3998H444.672L452.977 93.8148L460.457 74.3998H463.262V74.6198L449.072 111.415H446.377V110.975ZM466.034 98.7648C465.411 98.7648 464.898 98.5815 464.494 98.2148C464.128 97.8115 463.944 97.3165 463.944 96.7298C463.944 96.1065 464.128 95.5932 464.494 95.1898C464.861 94.7865 465.374 94.5848 466.034 94.5848C466.731 94.5848 467.263 94.7865 467.629 95.1898C467.996 95.5932 468.179 96.1065 468.179 96.7298C468.179 97.3165 467.978 97.8115 467.574 98.2148C467.208 98.5815 466.694 98.7648 466.034 98.7648ZM488.091 97.1148L500.246 77.8648L489.521 60.8148V59.7148H492.216L502.061 75.4448L512.016 59.7148H514.601V60.8148L503.766 77.8648L515.811 97.1148V98.2148H513.116L501.896 80.4498L490.786 98.2148H488.091V97.1148ZM531.34 98.6548C529.653 98.6548 528.076 98.3432 526.61 97.7198C525.18 97.0965 523.915 96.2348 522.815 95.1348C521.751 93.9982 520.908 92.6782 520.285 91.1748C519.698 89.6348 519.405 87.9665 519.405 86.1698C519.405 84.4098 519.698 82.7782 520.285 81.2748C520.908 79.7715 521.751 78.4882 522.815 77.4248C523.915 76.3248 525.18 75.4815 526.61 74.8948C528.076 74.2715 529.653 73.9598 531.34 73.9598C533.026 73.9598 534.585 74.2715 536.015 74.8948C537.445 75.4815 538.691 76.3248 539.755 77.4248C540.818 78.4882 541.643 79.7715 542.23 81.2748C542.853 82.7782 543.165 84.4098 543.165 86.1698C543.165 87.9665 542.853 89.6348 542.23 91.1748C541.643 92.6782 540.818 93.9982 539.755 95.1348C538.691 96.2348 537.426 97.0965 535.96 97.7198C534.53 98.3432 532.99 98.6548 531.34 98.6548ZM531.34 96.0698C532.66 96.0698 533.87 95.8315 534.97 95.3548C536.07 94.8782 537.023 94.1998 537.83 93.3198C538.636 92.4398 539.26 91.3948 539.7 90.1848C540.176 88.9748 540.415 87.6365 540.415 86.1698C540.415 84.7398 540.176 83.4382 539.7 82.2648C539.26 81.0915 538.636 80.0832 537.83 79.2398C537.023 78.3598 536.07 77.6998 534.97 77.2598C533.87 76.7832 532.66 76.5448 531.34 76.5448C530.02 76.5448 528.791 76.7832 527.655 77.2598C526.555 77.6998 525.601 78.3598 524.795 79.2398C523.988 80.0832 523.346 81.0915 522.87 82.2648C522.43 83.4382 522.21 84.7398 522.21 86.1698C522.21 87.6365 522.43 88.9748 522.87 90.1848C523.346 91.3948 523.988 92.4398 524.795 93.3198C525.638 94.1998 526.61 94.8782 527.71 95.3548C528.81 95.8315 530.02 96.0698 531.34 96.0698ZM553.301 76.9848H545.271V74.3998H564.191V76.9848H556.161V98.2148H553.301V76.9848ZM569.062 74.3998H571.867V92.5498L587.652 74.3998H588.697V98.2148H585.892V80.0098L570.107 98.2148H569.062V74.3998ZM601.641 76.9848H593.611V74.3998H612.531V76.9848H604.501V98.2148H601.641V76.9848ZM626.899 98.6548C625.176 98.6548 623.562 98.3615 622.059 97.7748C620.592 97.1882 619.309 96.3448 618.209 95.2448C617.109 94.1448 616.229 92.8248 615.569 91.2848C614.946 89.7448 614.634 88.0215 614.634 86.1148C614.634 84.2082 614.964 82.5032 615.624 80.9998C616.321 79.4965 617.219 78.2315 618.319 77.2048C619.456 76.1415 620.739 75.3348 622.169 74.7848C623.599 74.2348 625.084 73.9598 626.624 73.9598C628.494 73.9598 630.126 74.3082 631.519 75.0048C632.949 75.6648 634.141 76.5265 635.094 77.5898C636.047 78.6532 636.762 79.8632 637.239 81.2198C637.716 82.5398 637.954 83.8782 637.954 85.2348V86.7198H617.439C617.476 88.1498 617.751 89.4332 618.264 90.5698C618.814 91.7065 619.529 92.6965 620.409 93.5398C621.289 94.3465 622.279 94.9698 623.379 95.4098C624.516 95.8498 625.726 96.0698 627.009 96.0698C628.732 96.0698 630.291 95.7398 631.684 95.0798C633.077 94.3832 634.251 93.4848 635.204 92.3848L637.074 94.0898C635.754 95.6665 634.214 96.8215 632.454 97.5548C630.694 98.2882 628.842 98.6548 626.899 98.6548ZM626.569 76.5448C625.469 76.5448 624.424 76.7282 623.434 77.0948C622.444 77.4615 621.546 77.9932 620.739 78.6898C619.932 79.3498 619.254 80.1565 618.704 81.1098C618.191 82.0632 617.824 83.1082 617.604 84.2448H635.094C634.984 83.1815 634.709 82.1915 634.269 81.2748C633.829 80.3215 633.242 79.4965 632.509 78.7998C631.776 78.1032 630.914 77.5532 629.924 77.1498C628.934 76.7465 627.816 76.5448 626.569 76.5448ZM659.986 110.975L665.101 97.6098L655.256 74.6198V74.3998H658.281L666.586 93.8148L674.066 74.3998H676.871V74.6198L662.681 111.415H659.986V110.975ZM681.049 74.3998H689.904C692.434 74.3998 694.286 74.9132 695.459 75.9398C696.669 76.9665 697.274 78.3415 697.274 80.0648C697.274 81.2382 696.981 82.2648 696.394 83.1448C695.807 83.9882 694.964 84.6115 693.864 85.0148C695.514 85.3448 696.816 86.0048 697.769 86.9948C698.722 87.9848 699.199 89.3782 699.199 91.1748C699.199 93.4482 698.392 95.1898 696.779 96.3998C695.202 97.6098 692.911 98.2148 689.904 98.2148H681.049V74.3998ZM683.854 86.4998V95.6298H689.354C691.847 95.6298 693.626 95.2448 694.689 94.4748C695.789 93.6682 696.339 92.4948 696.339 90.9548C696.339 89.3782 695.771 88.2415 694.634 87.5448C693.534 86.8482 691.811 86.4998 689.464 86.4998H683.854ZM683.854 76.9298V84.0248H689.354C690.931 84.0248 692.177 83.7682 693.094 83.2548C694.047 82.7048 694.524 81.7882 694.524 80.5048C694.524 78.1215 692.746 76.9298 689.189 76.9298H683.854ZM704.574 74.3998H707.379V92.5498L723.164 74.3998H724.209V98.2148H721.404V80.0098L705.619 98.2148H704.574V74.3998ZM728.189 95.6298H731.049C732.149 93.8332 732.919 91.5965 733.359 88.9198C733.835 86.2065 734.074 83.3282 734.074 80.2848V74.3998H749.749V95.6298H753.709V104.43H751.014V98.2148H730.884V104.43H728.189V95.6298ZM736.769 81.1648C736.769 83.6948 736.585 86.2065 736.219 88.6998C735.852 91.1932 735.155 93.5032 734.129 95.6298H746.944V76.9848H736.769V81.1648ZM768.75 98.6548C767.026 98.6548 765.413 98.3615 763.91 97.7748C762.443 97.1882 761.16 96.3448 760.06 95.2448C758.96 94.1448 758.08 92.8248 757.42 91.2848C756.796 89.7448 756.485 88.0215 756.485 86.1148C756.485 84.2082 756.815 82.5032 757.475 80.9998C758.171 79.4965 759.07 78.2315 760.17 77.2048C761.306 76.1415 762.59 75.3348 764.02 74.7848C765.45 74.2348 766.935 73.9598 768.475 73.9598C770.345 73.9598 771.976 74.3082 773.37 75.0048C774.8 75.6648 775.991 76.5265 776.945 77.5898C777.898 78.6532 778.613 79.8632 779.09 81.2198C779.566 82.5398 779.805 83.8782 779.805 85.2348V86.7198H759.29C759.326 88.1498 759.601 89.4332 760.115 90.5698C760.665 91.7065 761.38 92.6965 762.26 93.5398C763.14 94.3465 764.13 94.9698 765.23 95.4098C766.366 95.8498 767.576 96.0698 768.86 96.0698C770.583 96.0698 772.141 95.7398 773.535 95.0798C774.928 94.3832 776.101 93.4848 777.055 92.3848L778.925 94.0898C777.605 95.6665 776.065 96.8215 774.305 97.5548C772.545 98.2882 770.693 98.6548 768.75 98.6548ZM768.42 76.5448C767.32 76.5448 766.275 76.7282 765.285 77.0948C764.295 77.4615 763.396 77.9932 762.59 78.6898C761.783 79.3498 761.105 80.1565 760.555 81.1098C760.041 82.0632 759.675 83.1082 759.455 84.2448H776.945C776.835 83.1815 776.56 82.1915 776.12 81.2748C775.68 80.3215 775.093 79.4965 774.36 78.7998C773.626 78.1032 772.765 77.5532 771.775 77.1498C770.785 76.7465 769.666 76.5448 768.42 76.5448ZM789.952 76.9848H781.922V74.3998H800.842V76.9848H792.812V98.2148H789.952V76.9848ZM805.712 74.3998H808.517V82.9248H814.017C817.244 82.9248 819.664 83.5298 821.277 84.7398C822.891 85.9498 823.697 87.8748 823.697 90.5148C823.697 93.1548 822.854 95.0982 821.167 96.3448C819.517 97.5915 816.951 98.2148 813.467 98.2148H805.712V74.3998ZM813.027 95.6298C815.704 95.6298 817.684 95.2632 818.967 94.5298C820.287 93.7965 820.947 92.4582 820.947 90.5148C820.947 88.6815 820.342 87.3982 819.132 86.6648C817.922 85.9315 816.052 85.5648 813.522 85.5648H808.517V95.6298H813.027ZM133.94 157.655C132.217 157.655 130.603 157.362 129.1 156.775C127.633 156.188 126.35 155.345 125.25 154.245C124.15 153.145 123.27 151.825 122.61 150.285C121.987 148.745 121.675 147.022 121.675 145.115C121.675 143.208 122.005 141.503 122.665 140C123.362 138.497 124.26 137.232 125.36 136.205C126.497 135.142 127.78 134.335 129.21 133.785C130.64 133.235 132.125 132.96 133.665 132.96C135.535 132.96 137.167 133.308 138.56 134.005C139.99 134.665 141.182 135.527 142.135 136.59C143.088 137.653 143.803 138.863 144.28 140.22C144.757 141.54 144.995 142.878 144.995 144.235V145.72H124.48C124.517 147.15 124.792 148.433 125.305 149.57C125.855 150.707 126.57 151.697 127.45 152.54C128.33 153.347 129.32 153.97 130.42 154.41C131.557 154.85 132.767 155.07 134.05 155.07C135.773 155.07 137.332 154.74 138.725 154.08C140.118 153.383 141.292 152.485 142.245 151.385L144.115 153.09C142.795 154.667 141.255 155.822 139.495 156.555C137.735 157.288 135.883 157.655 133.94 157.655ZM133.61 135.545C132.51 135.545 131.465 135.728 130.475 136.095C129.485 136.462 128.587 136.993 127.78 137.69C126.973 138.35 126.295 139.157 125.745 140.11C125.232 141.063 124.865 142.108 124.645 143.245H142.135C142.025 142.182 141.75 141.192 141.31 140.275C140.87 139.322 140.283 138.497 139.55 137.8C138.817 137.103 137.955 136.553 136.965 136.15C135.975 135.747 134.857 135.545 133.61 135.545ZM150.815 133.4H165.83V135.985H153.62V157.215H150.815V133.4ZM180.446 157.655C178.759 157.655 177.183 157.343 175.716 156.72C174.286 156.097 173.021 155.235 171.921 154.135C170.858 152.998 170.014 151.678 169.391 150.175C168.804 148.635 168.511 146.967 168.511 145.17C168.511 143.41 168.804 141.778 169.391 140.275C170.014 138.772 170.858 137.488 171.921 136.425C173.021 135.325 174.286 134.482 175.716 133.895C177.183 133.272 178.759 132.96 180.446 132.96C182.133 132.96 183.691 133.272 185.121 133.895C186.551 134.482 187.798 135.325 188.861 136.425C189.924 137.488 190.749 138.772 191.336 140.275C191.959 141.778 192.271 143.41 192.271 145.17C192.271 146.967 191.959 148.635 191.336 150.175C190.749 151.678 189.924 152.998 188.861 154.135C187.798 155.235 186.533 156.097 185.066 156.72C183.636 157.343 182.096 157.655 180.446 157.655ZM180.446 155.07C181.766 155.07 182.976 154.832 184.076 154.355C185.176 153.878 186.129 153.2 186.936 152.32C187.743 151.44 188.366 150.395 188.806 149.185C189.283 147.975 189.521 146.637 189.521 145.17C189.521 143.74 189.283 142.438 188.806 141.265C188.366 140.092 187.743 139.083 186.936 138.24C186.129 137.36 185.176 136.7 184.076 136.26C182.976 135.783 181.766 135.545 180.446 135.545C179.126 135.545 177.898 135.783 176.761 136.26C175.661 136.7 174.708 137.36 173.901 138.24C173.094 139.083 172.453 140.092 171.976 141.265C171.536 142.438 171.316 143.74 171.316 145.17C171.316 146.637 171.536 147.975 171.976 149.185C172.453 150.395 173.094 151.44 173.901 152.32C174.744 153.2 175.716 153.878 176.816 154.355C177.916 154.832 179.126 155.07 180.446 155.07ZM212.367 133.4H221.222C223.752 133.4 225.604 133.913 226.777 134.94C227.987 135.967 228.592 137.342 228.592 139.065C228.592 140.238 228.299 141.265 227.712 142.145C227.126 142.988 226.282 143.612 225.182 144.015C226.832 144.345 228.134 145.005 229.087 145.995C230.041 146.985 230.517 148.378 230.517 150.175C230.517 152.448 229.711 154.19 228.097 155.4C226.521 156.61 224.229 157.215 221.222 157.215H212.367V133.4ZM215.172 145.5V154.63H220.672C223.166 154.63 224.944 154.245 226.007 153.475C227.107 152.668 227.657 151.495 227.657 149.955C227.657 148.378 227.089 147.242 225.952 146.545C224.852 145.848 223.129 145.5 220.782 145.5H215.172ZM215.172 135.93V143.025H220.672C222.249 143.025 223.496 142.768 224.412 142.255C225.366 141.705 225.842 140.788 225.842 139.505C225.842 137.122 224.064 135.93 220.507 135.93H215.172ZM269.705 157.215H250.18V133.4H252.985V154.63H265.635V133.4H268.44V154.63H272.4V163.43H269.705V157.215ZM276.767 133.4H285.622C288.152 133.4 290.004 133.913 291.177 134.94C292.387 135.967 292.992 137.342 292.992 139.065C292.992 140.238 292.699 141.265 292.112 142.145C291.525 142.988 290.682 143.612 289.582 144.015C291.232 144.345 292.534 145.005 293.487 145.995C294.44 146.985 294.917 148.378 294.917 150.175C294.917 152.448 294.11 154.19 292.497 155.4C290.92 156.61 288.629 157.215 285.622 157.215H276.767V133.4ZM279.572 145.5V154.63H285.072C287.565 154.63 289.344 154.245 290.407 153.475C291.507 152.668 292.057 151.495 292.057 149.955C292.057 148.378 291.489 147.242 290.352 146.545C289.252 145.848 287.529 145.5 285.182 145.5H279.572ZM279.572 135.93V143.025H285.072C286.649 143.025 287.895 142.768 288.812 142.255C289.765 141.705 290.242 140.788 290.242 139.505C290.242 137.122 288.464 135.93 284.907 135.93H279.572ZM311.347 157.655C309.624 157.655 308.011 157.362 306.507 156.775C305.041 156.188 303.757 155.345 302.657 154.245C301.557 153.145 300.677 151.825 300.017 150.285C299.394 148.745 299.082 147.022 299.082 145.115C299.082 143.208 299.412 141.503 300.072 140C300.769 138.497 301.667 137.232 302.767 136.205C303.904 135.142 305.187 134.335 306.617 133.785C308.047 133.235 309.532 132.96 311.072 132.96C312.942 132.96 314.574 133.308 315.967 134.005C317.397 134.665 318.589 135.527 319.542 136.59C320.496 137.653 321.211 138.863 321.687 140.22C322.164 141.54 322.402 142.878 322.402 144.235V145.72H301.887C301.924 147.15 302.199 148.433 302.712 149.57C303.262 150.707 303.977 151.697 304.857 152.54C305.737 153.347 306.727 153.97 307.827 154.41C308.964 154.85 310.174 155.07 311.457 155.07C313.181 155.07 314.739 154.74 316.132 154.08C317.526 153.383 318.699 152.485 319.652 151.385L321.522 153.09C320.202 154.667 318.662 155.822 316.902 156.555C315.142 157.288 313.291 157.655 311.347 157.655ZM311.017 135.545C309.917 135.545 308.872 135.728 307.882 136.095C306.892 136.462 305.994 136.993 305.187 137.69C304.381 138.35 303.702 139.157 303.152 140.11C302.639 141.063 302.272 142.108 302.052 143.245H319.542C319.432 142.182 319.157 141.192 318.717 140.275C318.277 139.322 317.691 138.497 316.957 137.8C316.224 137.103 315.362 136.553 314.372 136.15C313.382 135.747 312.264 135.545 311.017 135.545ZM332.549 135.985H324.519V133.4H343.439V135.985H335.409V157.215H332.549V135.985ZM356.982 157.655C355.516 157.655 354.086 157.38 352.692 156.83C351.336 156.28 350.126 155.473 349.062 154.41C347.999 153.347 347.137 152.063 346.477 150.56C345.854 149.02 345.542 147.26 345.542 145.28C345.542 143.373 345.854 141.668 346.477 140.165C347.101 138.625 347.926 137.323 348.952 136.26C350.016 135.197 351.244 134.39 352.637 133.84C354.031 133.253 355.516 132.96 357.092 132.96C359.366 132.96 361.272 133.51 362.812 134.61C364.352 135.673 365.489 136.957 366.222 138.46V133.4H368.862V157.215H366.222V151.605C365.489 153.365 364.316 154.813 362.702 155.95C361.126 157.087 359.219 157.655 356.982 157.655ZM357.092 155.015C358.559 155.015 359.842 154.74 360.942 154.19C362.079 153.603 363.014 152.852 363.747 151.935C364.517 151.018 365.086 149.992 365.452 148.855C365.856 147.718 366.057 146.6 366.057 145.5V144.895C366.057 143.722 365.874 142.585 365.507 141.485C365.141 140.348 364.591 139.34 363.857 138.46C363.124 137.58 362.207 136.883 361.107 136.37C360.007 135.82 358.724 135.545 357.257 135.545C354.654 135.545 352.527 136.388 350.877 138.075C349.264 139.762 348.457 142.145 348.457 145.225C348.457 148.158 349.227 150.523 350.767 152.32C352.344 154.117 354.452 155.015 357.092 155.015ZM373.222 156.94L381.802 145.06L373.607 133.62V133.4H376.962L383.727 143.025L390.382 133.4H393.407V133.62L385.377 144.895L394.067 156.94V157.215H390.712L383.507 147.205L376.357 157.215H373.222V156.94ZM423.874 157.655C421.968 157.655 420.244 157.325 418.704 156.665C417.201 156.005 415.899 155.107 414.799 153.97C413.736 152.833 412.911 151.513 412.324 150.01C411.774 148.47 411.499 146.838 411.499 145.115C411.499 143.208 411.811 141.503 412.434 140C413.094 138.497 413.974 137.232 415.074 136.205C416.211 135.142 417.531 134.335 419.034 133.785C420.538 133.235 422.133 132.96 423.819 132.96C425.579 132.96 427.248 133.253 428.824 133.84C430.401 134.427 431.776 135.307 432.949 136.48L431.299 138.625C430.383 137.635 429.264 136.883 427.944 136.37C426.661 135.82 425.286 135.545 423.819 135.545C422.536 135.545 421.308 135.765 420.134 136.205C418.998 136.608 417.989 137.213 417.109 138.02C416.266 138.827 415.588 139.835 415.074 141.045C414.561 142.218 414.304 143.575 414.304 145.115C414.304 146.618 414.543 147.975 415.019 149.185C415.533 150.395 416.229 151.44 417.109 152.32C417.989 153.2 419.016 153.878 420.189 154.355C421.363 154.832 422.646 155.07 424.039 155.07C425.653 155.07 427.101 154.777 428.384 154.19C429.668 153.603 430.694 152.833 431.464 151.88L433.224 153.64C432.234 154.74 430.951 155.693 429.374 156.5C427.834 157.27 426.001 157.655 423.874 157.655ZM438.652 133.4H447.507C450.037 133.4 451.888 133.913 453.062 134.94C454.272 135.967 454.877 137.342 454.877 139.065C454.877 140.238 454.583 141.265 453.997 142.145C453.41 142.988 452.567 143.612 451.467 144.015C453.117 144.345 454.418 145.005 455.372 145.995C456.325 146.985 456.802 148.378 456.802 150.175C456.802 152.448 455.995 154.19 454.382 155.4C452.805 156.61 450.513 157.215 447.507 157.215H438.652V133.4ZM441.457 145.5V154.63H446.957C449.45 154.63 451.228 154.245 452.292 153.475C453.392 152.668 453.942 151.495 453.942 149.955C453.942 148.378 453.373 147.242 452.237 146.545C451.137 145.848 449.413 145.5 447.067 145.5H441.457ZM441.457 135.93V143.025H446.957C448.533 143.025 449.78 142.768 450.697 142.255C451.65 141.705 452.127 140.788 452.127 139.505C452.127 137.122 450.348 135.93 446.792 135.93H441.457ZM472.902 157.655C471.215 157.655 469.639 157.343 468.172 156.72C466.742 156.097 465.477 155.235 464.377 154.135C463.314 152.998 462.47 151.678 461.847 150.175C461.26 148.635 460.967 146.967 460.967 145.17C460.967 143.41 461.26 141.778 461.847 140.275C462.47 138.772 463.314 137.488 464.377 136.425C465.477 135.325 466.742 134.482 468.172 133.895C469.639 133.272 471.215 132.96 472.902 132.96C474.589 132.96 476.147 133.272 477.577 133.895C479.007 134.482 480.254 135.325 481.317 136.425C482.38 137.488 483.205 138.772 483.792 140.275C484.415 141.778 484.727 143.41 484.727 145.17C484.727 146.967 484.415 148.635 483.792 150.175C483.205 151.678 482.38 152.998 481.317 154.135C480.254 155.235 478.989 156.097 477.522 156.72C476.092 157.343 474.552 157.655 472.902 157.655ZM472.902 155.07C474.222 155.07 475.432 154.832 476.532 154.355C477.632 153.878 478.585 153.2 479.392 152.32C480.199 151.44 480.822 150.395 481.262 149.185C481.739 147.975 481.977 146.637 481.977 145.17C481.977 143.74 481.739 142.438 481.262 141.265C480.822 140.092 480.199 139.083 479.392 138.24C478.585 137.36 477.632 136.7 476.532 136.26C475.432 135.783 474.222 135.545 472.902 135.545C471.582 135.545 470.354 135.783 469.217 136.26C468.117 136.7 467.164 137.36 466.357 138.24C465.55 139.083 464.909 140.092 464.432 141.265C463.992 142.438 463.772 143.74 463.772 145.17C463.772 146.637 463.992 147.975 464.432 149.185C464.909 150.395 465.55 151.44 466.357 152.32C467.2 153.2 468.172 153.878 469.272 154.355C470.372 154.832 471.582 155.07 472.902 155.07ZM501.591 157.655C499.868 157.655 498.255 157.362 496.751 156.775C495.285 156.188 494.001 155.345 492.901 154.245C491.801 153.145 490.921 151.825 490.261 150.285C489.638 148.745 489.326 147.022 489.326 145.115C489.326 143.208 489.656 141.503 490.316 140C491.013 138.497 491.911 137.232 493.011 136.205C494.148 135.142 495.431 134.335 496.861 133.785C498.291 133.235 499.776 132.96 501.316 132.96C503.186 132.96 504.818 133.308 506.211 134.005C507.641 134.665 508.833 135.527 509.786 136.59C510.74 137.653 511.455 138.863 511.931 140.22C512.408 141.54 512.646 142.878 512.646 144.235V145.72H492.131C492.168 147.15 492.443 148.433 492.956 149.57C493.506 150.707 494.221 151.697 495.101 152.54C495.981 153.347 496.971 153.97 498.071 154.41C499.208 154.85 500.418 155.07 501.701 155.07C503.425 155.07 504.983 154.74 506.376 154.08C507.77 153.383 508.943 152.485 509.896 151.385L511.766 153.09C510.446 154.667 508.906 155.822 507.146 156.555C505.386 157.288 503.535 157.655 501.591 157.655ZM501.261 135.545C500.161 135.545 499.116 135.728 498.126 136.095C497.136 136.462 496.238 136.993 495.431 137.69C494.625 138.35 493.946 139.157 493.396 140.11C492.883 141.063 492.516 142.108 492.296 143.245H509.786C509.676 142.182 509.401 141.192 508.961 140.275C508.521 139.322 507.935 138.497 507.201 137.8C506.468 137.103 505.606 136.553 504.616 136.15C503.626 135.747 502.508 135.545 501.261 135.545ZM518.466 133.4H521.271V151.55L537.056 133.4H538.101V157.215H535.296V139.01L519.511 157.215H518.466V133.4ZM528.311 129.33C526.001 129.33 524.149 128.78 522.756 127.68C521.399 126.543 520.758 124.967 520.831 122.95H523.361C523.324 124.233 523.746 125.26 524.626 126.03C525.506 126.8 526.771 127.185 528.421 127.185C529.961 127.185 531.189 126.837 532.106 126.14C533.059 125.407 533.518 124.343 533.481 122.95H536.011C536.011 124.967 535.314 126.543 533.921 127.68C532.528 128.78 530.658 129.33 528.311 129.33ZM570.613 157.655C568.706 157.655 566.983 157.325 565.443 156.665C563.939 156.005 562.638 155.107 561.538 153.97C560.474 152.833 559.649 151.513 559.063 150.01C558.513 148.47 558.238 146.838 558.238 145.115C558.238 143.208 558.549 141.503 559.173 140C559.833 138.497 560.713 137.232 561.813 136.205C562.949 135.142 564.269 134.335 565.773 133.785C567.276 133.235 568.871 132.96 570.558 132.96C572.318 132.96 573.986 133.253 575.563 133.84C577.139 134.427 578.514 135.307 579.688 136.48L578.038 138.625C577.121 137.635 576.003 136.883 574.683 136.37C573.399 135.82 572.024 135.545 570.558 135.545C569.274 135.545 568.046 135.765 566.873 136.205C565.736 136.608 564.728 137.213 563.848 138.02C563.004 138.827 562.326 139.835 561.813 141.045C561.299 142.218 561.043 143.575 561.043 145.115C561.043 146.618 561.281 147.975 561.758 149.185C562.271 150.395 562.968 151.44 563.848 152.32C564.728 153.2 565.754 153.878 566.928 154.355C568.101 154.832 569.384 155.07 570.778 155.07C572.391 155.07 573.839 154.777 575.123 154.19C576.406 153.603 577.433 152.833 578.203 151.88L579.963 153.64C578.973 154.74 577.689 155.693 576.113 156.5C574.573 157.27 572.739 157.655 570.613 157.655ZM585.39 133.4H594.245C596.775 133.4 598.627 133.913 599.8 134.94C601.01 135.967 601.615 137.342 601.615 139.065C601.615 140.238 601.322 141.265 600.735 142.145C600.148 142.988 599.305 143.612 598.205 144.015C599.855 144.345 601.157 145.005 602.11 145.995C603.063 146.985 603.54 148.378 603.54 150.175C603.54 152.448 602.733 154.19 601.12 155.4C599.543 156.61 597.252 157.215 594.245 157.215H585.39V133.4ZM588.195 145.5V154.63H593.695C596.188 154.63 597.967 154.245 599.03 153.475C600.13 152.668 600.68 151.495 600.68 149.955C600.68 148.378 600.112 147.242 598.975 146.545C597.875 145.848 596.152 145.5 593.805 145.5H588.195ZM588.195 135.93V143.025H593.695C595.272 143.025 596.518 142.768 597.435 142.255C598.388 141.705 598.865 140.788 598.865 139.505C598.865 137.122 597.087 135.93 593.53 135.93H588.195ZM619.145 157.655C617.679 157.655 616.249 157.38 614.855 156.83C613.499 156.28 612.289 155.473 611.225 154.41C610.162 153.347 609.3 152.063 608.64 150.56C608.017 149.02 607.705 147.26 607.705 145.28C607.705 143.373 608.017 141.668 608.64 140.165C609.264 138.625 610.089 137.323 611.115 136.26C612.179 135.197 613.407 134.39 614.8 133.84C616.194 133.253 617.679 132.96 619.255 132.96C621.529 132.96 623.435 133.51 624.975 134.61C626.515 135.673 627.652 136.957 628.385 138.46V133.4H631.025V157.215H628.385V151.605C627.652 153.365 626.479 154.813 624.865 155.95C623.289 157.087 621.382 157.655 619.145 157.655ZM619.255 155.015C620.722 155.015 622.005 154.74 623.105 154.19C624.242 153.603 625.177 152.852 625.91 151.935C626.68 151.018 627.249 149.992 627.615 148.855C628.019 147.718 628.22 146.6 628.22 145.5V144.895C628.22 143.722 628.037 142.585 627.67 141.485C627.304 140.348 626.754 139.34 626.02 138.46C625.287 137.58 624.37 136.883 623.27 136.37C622.17 135.82 620.887 135.545 619.42 135.545C616.817 135.545 614.69 136.388 613.04 138.075C611.427 139.762 610.62 142.145 610.62 145.225C610.62 148.158 611.39 150.523 612.93 152.32C614.507 154.117 616.615 155.015 619.255 155.015ZM635 154.63H637.86C638.96 152.833 639.73 150.597 640.17 147.92C640.647 145.207 640.885 142.328 640.885 139.285V133.4H656.56V154.63H660.52V163.43H657.825V157.215H637.695V163.43H635V154.63ZM643.58 140.165C643.58 142.695 643.397 145.207 643.03 147.7C642.664 150.193 641.967 152.503 640.94 154.63H653.755V135.985H643.58V140.165ZM664.882 133.4H667.687V141.925H673.187C676.414 141.925 678.834 142.53 680.447 143.74C682.06 144.95 682.867 146.875 682.867 149.515C682.867 152.155 682.024 154.098 680.337 155.345C678.687 156.592 676.12 157.215 672.637 157.215H664.882V133.4ZM672.197 154.63C674.874 154.63 676.854 154.263 678.137 153.53C679.457 152.797 680.117 151.458 680.117 149.515C680.117 147.682 679.512 146.398 678.302 145.665C677.092 144.932 675.222 144.565 672.692 144.565H667.687V154.63H672.197ZM698.709 157.655C694.859 157.655 691.889 156.317 689.799 153.64C687.709 150.927 686.664 146.563 686.664 140.55C686.664 136.59 687.049 133.345 687.819 130.815C688.626 128.248 689.689 126.232 691.009 124.765C692.329 123.262 693.833 122.198 695.519 121.575C697.206 120.915 698.948 120.493 700.744 120.31C702.504 120.09 703.861 119.833 704.814 119.54C705.804 119.247 706.666 118.733 707.399 118L709.324 119.705C708.958 120.255 708.463 120.713 707.839 121.08C707.216 121.447 706.519 121.758 705.749 122.015C705.016 122.272 704.228 122.473 703.384 122.62C702.578 122.73 701.808 122.822 701.074 122.895C699.461 123.078 697.976 123.39 696.619 123.83C695.299 124.27 694.126 125.058 693.099 126.195C692.109 127.332 691.284 128.908 690.624 130.925C690.001 132.942 689.598 135.582 689.414 138.845C690.441 136.828 691.834 135.362 693.594 134.445C695.354 133.528 697.279 133.07 699.369 133.07C701.129 133.07 702.688 133.382 704.044 134.005C705.438 134.628 706.611 135.49 707.564 136.59C708.554 137.69 709.288 138.992 709.764 140.495C710.278 141.962 710.534 143.538 710.534 145.225C710.534 147.058 710.241 148.745 709.654 150.285C709.068 151.788 708.243 153.09 707.179 154.19C706.153 155.29 704.906 156.152 703.439 156.775C702.009 157.362 700.433 157.655 698.709 157.655ZM698.764 155.07C701.368 155.07 703.494 154.208 705.144 152.485C706.794 150.725 707.619 148.305 707.619 145.225C707.619 143.868 707.418 142.603 707.014 141.43C706.648 140.257 706.098 139.248 705.364 138.405C704.631 137.562 703.714 136.902 702.614 136.425C701.551 135.912 700.341 135.655 698.984 135.655C697.884 135.655 696.803 135.82 695.739 136.15C694.676 136.48 693.704 137.03 692.824 137.8C691.981 138.533 691.284 139.505 690.734 140.715C690.221 141.925 689.964 143.41 689.964 145.17C689.964 148.213 690.771 150.633 692.384 152.43C693.998 154.19 696.124 155.07 698.764 155.07ZM724.311 141.925C727.538 141.925 729.958 142.53 731.571 143.74C733.221 144.95 734.046 146.875 734.046 149.515C734.046 152.155 733.203 154.098 731.516 155.345C729.866 156.592 727.281 157.215 723.761 157.215H716.391V133.4H719.196V141.925H724.311ZM738.061 133.4H740.866V157.215H738.061V133.4ZM723.376 154.63C726.053 154.63 728.033 154.263 729.316 153.53C730.636 152.797 731.278 151.458 731.241 149.515C731.241 147.682 730.654 146.398 729.481 145.665C728.308 144.932 726.438 144.565 723.871 144.565H719.196V154.63H723.376ZM755.124 145.665C755.124 144.088 755.344 142.75 755.784 141.65C756.224 140.55 756.774 139.578 757.434 138.735C758.131 137.892 758.864 137.14 759.634 136.48C760.404 135.783 761.119 135.05 761.779 134.28C762.476 133.473 763.044 132.593 763.484 131.64C763.924 130.65 764.144 129.458 764.144 128.065C764.144 125.975 763.558 124.252 762.384 122.895C761.211 121.502 759.414 120.805 756.994 120.805C754.684 120.805 752.869 121.538 751.549 123.005C750.266 124.435 749.624 126.507 749.624 129.22H746.984V128.065C747.094 126.305 747.443 124.802 748.029 123.555C748.616 122.308 749.349 121.3 750.229 120.53C751.146 119.76 752.191 119.21 753.364 118.88C754.538 118.513 755.766 118.33 757.049 118.33C758.479 118.33 759.818 118.532 761.064 118.935C762.348 119.338 763.448 119.943 764.364 120.75C765.281 121.557 765.996 122.547 766.509 123.72C767.059 124.893 767.334 126.25 767.334 127.79C767.334 129.367 767.096 130.723 766.619 131.86C766.143 132.96 765.538 133.968 764.804 134.885C764.108 135.765 763.338 136.59 762.494 137.36C761.688 138.13 760.918 138.918 760.184 139.725C759.488 140.532 758.901 141.412 758.424 142.365C757.948 143.282 757.709 144.382 757.709 145.665H755.124ZM756.444 157.765C755.821 157.765 755.308 157.582 754.904 157.215C754.538 156.812 754.354 156.317 754.354 155.73C754.354 155.107 754.538 154.593 754.904 154.19C755.271 153.787 755.784 153.585 756.444 153.585C757.141 153.585 757.673 153.787 758.039 154.19C758.406 154.593 758.589 155.107 758.589 155.73C758.589 156.317 758.388 156.812 757.984 157.215C757.618 157.582 757.104 157.765 756.444 157.765ZM114.837 196.965H92.3974V216.215H89.4824V177.715H92.3974V194.16H114.837V177.715H117.752V216.215H114.837V196.965ZM136.553 216.655C135.086 216.655 133.656 216.38 132.263 215.83C130.906 215.28 129.696 214.473 128.633 213.41C127.569 212.347 126.708 211.063 126.048 209.56C125.424 208.02 125.113 206.26 125.113 204.28C125.113 202.373 125.424 200.668 126.048 199.165C126.671 197.625 127.496 196.323 128.523 195.26C129.586 194.197 130.814 193.39 132.208 192.84C133.601 192.253 135.086 191.96 136.663 191.96C138.936 191.96 140.843 192.51 142.383 193.61C143.923 194.673 145.059 195.957 145.793 197.46V192.4H148.433V216.215H145.793V210.605C145.059 212.365 143.886 213.813 142.273 214.95C140.696 216.087 138.789 216.655 136.553 216.655ZM136.663 214.015C138.129 214.015 139.413 213.74 140.513 213.19C141.649 212.603 142.584 211.852 143.318 210.935C144.088 210.018 144.656 208.992 145.023 207.855C145.426 206.718 145.628 205.6 145.628 204.5V203.895C145.628 202.722 145.444 201.585 145.078 200.485C144.711 199.348 144.161 198.34 143.428 197.46C142.694 196.58 141.778 195.883 140.678 195.37C139.578 194.82 138.294 194.545 136.828 194.545C134.224 194.545 132.098 195.388 130.448 197.075C128.834 198.762 128.028 201.145 128.028 204.225C128.028 207.158 128.798 209.523 130.338 211.32C131.914 213.117 134.023 214.015 136.663 214.015ZM155.488 192.4H174.188V216.215H171.328V194.985H158.293V216.215H155.488V192.4ZM181.161 192.4H183.966V210.55L199.751 192.4H200.796V216.215H197.991V198.01L182.206 216.215H181.161V192.4ZM233.486 192.4H236.291V216.215H207.856V192.4H210.661V213.63H220.671V192.4H223.476V213.63H233.486V192.4ZM243.305 192.4H246.11V210.55L261.895 192.4H262.94V216.215H260.135V198.01L244.35 216.215H243.305V192.4ZM275.884 194.985H267.854V192.4H286.774V194.985H278.744V216.215H275.884V194.985ZM301.142 216.655C299.419 216.655 297.806 216.362 296.302 215.775C294.836 215.188 293.552 214.345 292.452 213.245C291.352 212.145 290.472 210.825 289.812 209.285C289.189 207.745 288.877 206.022 288.877 204.115C288.877 202.208 289.207 200.503 289.867 199C290.564 197.497 291.462 196.232 292.562 195.205C293.699 194.142 294.982 193.335 296.412 192.785C297.842 192.235 299.327 191.96 300.867 191.96C302.737 191.96 304.369 192.308 305.762 193.005C307.192 193.665 308.384 194.527 309.337 195.59C310.291 196.653 311.006 197.863 311.482 199.22C311.959 200.54 312.197 201.878 312.197 203.235V204.72H291.682C291.719 206.15 291.994 207.433 292.507 208.57C293.057 209.707 293.772 210.697 294.652 211.54C295.532 212.347 296.522 212.97 297.622 213.41C298.759 213.85 299.969 214.07 301.252 214.07C302.976 214.07 304.534 213.74 305.927 213.08C307.321 212.383 308.494 211.485 309.447 210.385L311.317 212.09C309.997 213.667 308.457 214.822 306.697 215.555C304.937 216.288 303.086 216.655 301.142 216.655ZM300.812 194.545C299.712 194.545 298.667 194.728 297.677 195.095C296.687 195.462 295.789 195.993 294.982 196.69C294.176 197.35 293.497 198.157 292.947 199.11C292.434 200.063 292.067 201.108 291.847 202.245H309.337C309.227 201.182 308.952 200.192 308.512 199.275C308.072 198.322 307.486 197.497 306.752 196.8C306.019 196.103 305.157 195.553 304.167 195.15C303.177 194.747 302.059 194.545 300.812 194.545ZM335.274 192.4H336.484L345.174 211.045L353.589 192.4H354.744L358.979 216.215H356.284L353.314 198.725L345.284 216.38H344.844L336.704 199.11L333.734 216.215H331.039L335.274 192.4ZM381.63 204.61H367.55V216.215H364.745V192.4H367.55V202.025H381.63V192.4H384.435V216.215H381.63V204.61ZM402.548 216.655C400.825 216.655 399.212 216.362 397.708 215.775C396.242 215.188 394.958 214.345 393.858 213.245C392.758 212.145 391.878 210.825 391.218 209.285C390.595 207.745 390.283 206.022 390.283 204.115C390.283 202.208 390.613 200.503 391.273 199C391.97 197.497 392.868 196.232 393.968 195.205C395.105 194.142 396.388 193.335 397.818 192.785C399.248 192.235 400.733 191.96 402.273 191.96C404.143 191.96 405.775 192.308 407.168 193.005C408.598 193.665 409.79 194.527 410.743 195.59C411.697 196.653 412.412 197.863 412.888 199.22C413.365 200.54 413.603 201.878 413.603 203.235V204.72H393.088C393.125 206.15 393.4 207.433 393.913 208.57C394.463 209.707 395.178 210.697 396.058 211.54C396.938 212.347 397.928 212.97 399.028 213.41C400.165 213.85 401.375 214.07 402.658 214.07C404.382 214.07 405.94 213.74 407.333 213.08C408.727 212.383 409.9 211.485 410.853 210.385L412.723 212.09C411.403 213.667 409.863 214.822 408.103 215.555C406.343 216.288 404.492 216.655 402.548 216.655ZM402.218 194.545C401.118 194.545 400.073 194.728 399.083 195.095C398.093 195.462 397.195 195.993 396.388 196.69C395.582 197.35 394.903 198.157 394.353 199.11C393.84 200.063 393.473 201.108 393.253 202.245H410.743C410.633 201.182 410.358 200.192 409.918 199.275C409.478 198.322 408.892 197.497 408.158 196.8C407.425 196.103 406.563 195.553 405.573 195.15C404.583 194.747 403.465 194.545 402.218 194.545ZM470.065 204.83H433.38V202.245H470.065V204.83ZM491.074 192.4H493.879V210.55L509.664 192.4H510.709V216.215H507.904V198.01L492.119 216.215H491.074V192.4ZM530.79 215.83L538.16 206.975C536.18 206.608 534.64 205.857 533.54 204.72C532.477 203.583 531.945 201.97 531.945 199.88C531.945 197.24 532.807 195.333 534.53 194.16C536.29 192.987 538.838 192.4 542.175 192.4H549.93V216.215H547.07V207.25H541.625H541.46L534.035 216.215H530.79V215.83ZM547.07 204.72V194.985H542.395C539.902 194.985 537.995 195.333 536.675 196.03C535.355 196.69 534.713 197.992 534.75 199.935C534.75 201.732 535.337 202.978 536.51 203.675C537.683 204.372 539.462 204.72 541.845 204.72H547.07ZM582.21 216.655C578.36 216.655 575.39 215.317 573.3 212.64C571.21 209.927 570.165 205.563 570.165 199.55C570.165 195.59 570.55 192.345 571.32 189.815C572.127 187.248 573.19 185.232 574.51 183.765C575.83 182.262 577.334 181.198 579.02 180.575C580.707 179.915 582.449 179.493 584.245 179.31C586.005 179.09 587.362 178.833 588.315 178.54C589.305 178.247 590.167 177.733 590.9 177L592.825 178.705C592.459 179.255 591.964 179.713 591.34 180.08C590.717 180.447 590.02 180.758 589.25 181.015C588.517 181.272 587.729 181.473 586.885 181.62C586.079 181.73 585.309 181.822 584.575 181.895C582.962 182.078 581.477 182.39 580.12 182.83C578.8 183.27 577.627 184.058 576.6 185.195C575.61 186.332 574.785 187.908 574.125 189.925C573.502 191.942 573.099 194.582 572.915 197.845C573.942 195.828 575.335 194.362 577.095 193.445C578.855 192.528 580.78 192.07 582.87 192.07C584.63 192.07 586.189 192.382 587.545 193.005C588.939 193.628 590.112 194.49 591.065 195.59C592.055 196.69 592.789 197.992 593.265 199.495C593.779 200.962 594.035 202.538 594.035 204.225C594.035 206.058 593.742 207.745 593.155 209.285C592.569 210.788 591.744 212.09 590.68 213.19C589.654 214.29 588.407 215.152 586.94 215.775C585.51 216.362 583.934 216.655 582.21 216.655ZM582.265 214.07C584.869 214.07 586.995 213.208 588.645 211.485C590.295 209.725 591.12 207.305 591.12 204.225C591.12 202.868 590.919 201.603 590.515 200.43C590.149 199.257 589.599 198.248 588.865 197.405C588.132 196.562 587.215 195.902 586.115 195.425C585.052 194.912 583.842 194.655 582.485 194.655C581.385 194.655 580.304 194.82 579.24 195.15C578.177 195.48 577.205 196.03 576.325 196.8C575.482 197.533 574.785 198.505 574.235 199.715C573.722 200.925 573.465 202.41 573.465 204.17C573.465 207.213 574.272 209.633 575.885 211.43C577.499 213.19 579.625 214.07 582.265 214.07ZM610.947 216.655C609.224 216.655 607.61 216.362 606.107 215.775C604.64 215.188 603.357 214.345 602.257 213.245C601.157 212.145 600.277 210.825 599.617 209.285C598.994 207.745 598.682 206.022 598.682 204.115C598.682 202.208 599.012 200.503 599.672 199C600.369 197.497 601.267 196.232 602.367 195.205C603.504 194.142 604.787 193.335 606.217 192.785C607.647 192.235 609.132 191.96 610.672 191.96C612.542 191.96 614.174 192.308 615.567 193.005C616.997 193.665 618.189 194.527 619.142 195.59C620.095 196.653 620.81 197.863 621.287 199.22C621.764 200.54 622.002 201.878 622.002 203.235V204.72H601.487C601.524 206.15 601.799 207.433 602.312 208.57C602.862 209.707 603.577 210.697 604.457 211.54C605.337 212.347 606.327 212.97 607.427 213.41C608.564 213.85 609.774 214.07 611.057 214.07C612.78 214.07 614.339 213.74 615.732 213.08C617.125 212.383 618.299 211.485 619.252 210.385L621.122 212.09C619.802 213.667 618.262 214.822 616.502 215.555C614.742 216.288 612.89 216.655 610.947 216.655ZM610.617 194.545C609.517 194.545 608.472 194.728 607.482 195.095C606.492 195.462 605.594 195.993 604.787 196.69C603.98 197.35 603.302 198.157 602.752 199.11C602.239 200.063 601.872 201.108 601.652 202.245H619.142C619.032 201.182 618.757 200.192 618.317 199.275C617.877 198.322 617.29 197.497 616.557 196.8C615.824 196.103 614.962 195.553 613.972 195.15C612.982 194.747 611.864 194.545 610.617 194.545ZM638.987 216.655C637.08 216.655 635.357 216.325 633.817 215.665C632.313 215.005 631.012 214.107 629.912 212.97C628.848 211.833 628.023 210.513 627.437 209.01C626.887 207.47 626.612 205.838 626.612 204.115C626.612 202.208 626.923 200.503 627.547 199C628.207 197.497 629.087 196.232 630.187 195.205C631.323 194.142 632.643 193.335 634.147 192.785C635.65 192.235 637.245 191.96 638.932 191.96C640.692 191.96 642.36 192.253 643.937 192.84C645.513 193.427 646.888 194.307 648.062 195.48L646.412 197.625C645.495 196.635 644.377 195.883 643.057 195.37C641.773 194.82 640.398 194.545 638.932 194.545C637.648 194.545 636.42 194.765 635.247 195.205C634.11 195.608 633.102 196.213 632.222 197.02C631.378 197.827 630.7 198.835 630.187 200.045C629.673 201.218 629.417 202.575 629.417 204.115C629.417 205.618 629.655 206.975 630.132 208.185C630.645 209.395 631.342 210.44 632.222 211.32C633.102 212.2 634.128 212.878 635.302 213.355C636.475 213.832 637.758 214.07 639.152 214.07C640.765 214.07 642.213 213.777 643.497 213.19C644.78 212.603 645.807 211.833 646.577 210.88L648.337 212.64C647.347 213.74 646.063 214.693 644.487 215.5C642.947 216.27 641.113 216.655 638.987 216.655ZM653.764 192.4H672.464V216.215H669.604V194.985H656.569V216.215H653.764V192.4ZM677.513 216.49C677.219 216.49 676.981 216.472 676.798 216.435C676.614 216.398 676.486 216.362 676.413 216.325V213.41C676.559 213.447 676.816 213.465 677.183 213.465C677.623 213.465 678.063 213.318 678.503 213.025C678.979 212.695 679.401 212.035 679.768 211.045C680.171 210.055 680.483 208.643 680.703 206.81C680.959 204.94 681.088 202.465 681.088 199.385V192.4H696.433V216.215H693.573V194.985H683.783V200.87C683.783 203.84 683.618 206.333 683.288 208.35C682.958 210.33 682.499 211.925 681.913 213.135C681.363 214.345 680.703 215.207 679.933 215.72C679.163 216.233 678.356 216.49 677.513 216.49ZM713.623 216.655C712.156 216.655 710.726 216.38 709.333 215.83C707.976 215.28 706.766 214.473 705.703 213.41C704.64 212.347 703.778 211.063 703.118 209.56C702.495 208.02 702.183 206.26 702.183 204.28C702.183 202.373 702.495 200.668 703.118 199.165C703.741 197.625 704.566 196.323 705.593 195.26C706.656 194.197 707.885 193.39 709.278 192.84C710.671 192.253 712.156 191.96 713.733 191.96C716.006 191.96 717.913 192.51 719.453 193.61C720.993 194.673 722.13 195.957 722.863 197.46V192.4H725.503V216.215H722.863V210.605C722.13 212.365 720.956 213.813 719.343 214.95C717.766 216.087 715.86 216.655 713.623 216.655ZM713.733 214.015C715.2 214.015 716.483 213.74 717.583 213.19C718.72 212.603 719.655 211.852 720.388 210.935C721.158 210.018 721.726 208.992 722.093 207.855C722.496 206.718 722.698 205.6 722.698 204.5V203.895C722.698 202.722 722.515 201.585 722.148 200.485C721.781 199.348 721.231 198.34 720.498 197.46C719.765 196.58 718.848 195.883 717.748 195.37C716.648 194.82 715.365 194.545 713.898 194.545C711.295 194.545 709.168 195.388 707.518 197.075C705.905 198.762 705.098 201.145 705.098 204.225C705.098 207.158 705.868 209.523 707.408 211.32C708.985 213.117 711.093 214.015 713.733 214.015ZM738.443 194.985H730.413V192.4H749.333V194.985H741.303V216.215H738.443V194.985ZM771.088 204.61H757.008V216.215H754.203V192.4H757.008V202.025H771.088V192.4H773.893V216.215H771.088V204.61ZM791.676 216.655C789.99 216.655 788.413 216.343 786.946 215.72C785.516 215.097 784.251 214.235 783.151 213.135C782.088 211.998 781.245 210.678 780.621 209.175C780.035 207.635 779.741 205.967 779.741 204.17C779.741 202.41 780.035 200.778 780.621 199.275C781.245 197.772 782.088 196.488 783.151 195.425C784.251 194.325 785.516 193.482 786.946 192.895C788.413 192.272 789.99 191.96 791.676 191.96C793.363 191.96 794.921 192.272 796.351 192.895C797.781 193.482 799.028 194.325 800.091 195.425C801.155 196.488 801.98 197.772 802.566 199.275C803.19 200.778 803.501 202.41 803.501 204.17C803.501 205.967 803.19 207.635 802.566 209.175C801.98 210.678 801.155 211.998 800.091 213.135C799.028 214.235 797.763 215.097 796.296 215.72C794.866 216.343 793.326 216.655 791.676 216.655ZM791.676 214.07C792.996 214.07 794.206 213.832 795.306 213.355C796.406 212.878 797.36 212.2 798.166 211.32C798.973 210.44 799.596 209.395 800.036 208.185C800.513 206.975 800.751 205.637 800.751 204.17C800.751 202.74 800.513 201.438 800.036 200.265C799.596 199.092 798.973 198.083 798.166 197.24C797.36 196.36 796.406 195.7 795.306 195.26C794.206 194.783 792.996 194.545 791.676 194.545C790.356 194.545 789.128 194.783 787.991 195.26C786.891 195.7 785.938 196.36 785.131 197.24C784.325 198.083 783.683 199.092 783.206 200.265C782.766 201.438 782.546 202.74 782.546 204.17C782.546 205.637 782.766 206.975 783.206 208.185C783.683 209.395 784.325 210.44 785.131 211.32C785.975 212.2 786.946 212.878 788.046 213.355C789.146 213.832 790.356 214.07 791.676 214.07ZM42.7215 251.4H61.4215V275.215H58.5615V253.985H45.5265V275.215H42.7215V251.4ZM79.1203 275.655C77.4336 275.655 75.857 275.343 74.3903 274.72C72.9603 274.097 71.6953 273.235 70.5953 272.135C69.532 270.998 68.6886 269.678 68.0653 268.175C67.4786 266.635 67.1853 264.967 67.1853 263.17C67.1853 261.41 67.4786 259.778 68.0653 258.275C68.6886 256.772 69.532 255.488 70.5953 254.425C71.6953 253.325 72.9603 252.482 74.3903 251.895C75.857 251.272 77.4336 250.96 79.1203 250.96C80.807 250.96 82.3653 251.272 83.7953 251.895C85.2253 252.482 86.472 253.325 87.5353 254.425C88.5986 255.488 89.4236 256.772 90.0103 258.275C90.6336 259.778 90.9453 261.41 90.9453 263.17C90.9453 264.967 90.6336 266.635 90.0103 268.175C89.4236 269.678 88.5986 270.998 87.5353 272.135C86.472 273.235 85.207 274.097 83.7403 274.72C82.3103 275.343 80.7703 275.655 79.1203 275.655ZM79.1203 273.07C80.4403 273.07 81.6503 272.832 82.7503 272.355C83.8503 271.878 84.8036 271.2 85.6103 270.32C86.417 269.44 87.0403 268.395 87.4803 267.185C87.957 265.975 88.1953 264.637 88.1953 263.17C88.1953 261.74 87.957 260.438 87.4803 259.265C87.0403 258.092 86.417 257.083 85.6103 256.24C84.8036 255.36 83.8503 254.7 82.7503 254.26C81.6503 253.783 80.4403 253.545 79.1203 253.545C77.8003 253.545 76.572 253.783 75.4353 254.26C74.3353 254.7 73.382 255.36 72.5753 256.24C71.7686 257.083 71.127 258.092 70.6503 259.265C70.2103 260.438 69.9903 261.74 69.9903 263.17C69.9903 264.637 70.2103 265.975 70.6503 267.185C71.127 268.395 71.7686 269.44 72.5753 270.32C73.4186 271.2 74.3903 271.878 75.4903 272.355C76.5903 272.832 77.8003 273.07 79.1203 273.07ZM92.7616 272.63H95.6216C96.7216 270.833 97.4916 268.597 97.9316 265.92C98.4082 263.207 98.6466 260.328 98.6466 257.285V251.4H114.322V272.63H118.282V281.43H115.587V275.215H95.4566V281.43H92.7616V272.63ZM101.342 258.165C101.342 260.695 101.158 263.207 100.792 265.7C100.425 268.193 99.7282 270.503 98.7016 272.63H111.517V253.985H101.342V258.165ZM122.643 251.4H137.658V253.985H125.448V275.215H122.643V251.4ZM152.275 275.655C150.588 275.655 149.011 275.343 147.545 274.72C146.115 274.097 144.85 273.235 143.75 272.135C142.686 270.998 141.843 269.678 141.22 268.175C140.633 266.635 140.34 264.967 140.34 263.17C140.34 261.41 140.633 259.778 141.22 258.275C141.843 256.772 142.686 255.488 143.75 254.425C144.85 253.325 146.115 252.482 147.545 251.895C149.011 251.272 150.588 250.96 152.275 250.96C153.961 250.96 155.52 251.272 156.95 251.895C158.38 252.482 159.626 253.325 160.69 254.425C161.753 255.488 162.578 256.772 163.165 258.275C163.788 259.778 164.1 261.41 164.1 263.17C164.1 264.967 163.788 266.635 163.165 268.175C162.578 269.678 161.753 270.998 160.69 272.135C159.626 273.235 158.361 274.097 156.895 274.72C155.465 275.343 153.925 275.655 152.275 275.655ZM152.275 273.07C153.595 273.07 154.805 272.832 155.905 272.355C157.005 271.878 157.958 271.2 158.765 270.32C159.571 269.44 160.195 268.395 160.635 267.185C161.111 265.975 161.35 264.637 161.35 263.17C161.35 261.74 161.111 260.438 160.635 259.265C160.195 258.092 159.571 257.083 158.765 256.24C157.958 255.36 157.005 254.7 155.905 254.26C154.805 253.783 153.595 253.545 152.275 253.545C150.955 253.545 149.726 253.783 148.59 254.26C147.49 254.7 146.536 255.36 145.73 256.24C144.923 257.083 144.281 258.092 143.805 259.265C143.365 260.438 143.145 261.74 143.145 263.17C143.145 264.637 143.365 265.975 143.805 267.185C144.281 268.395 144.923 269.44 145.73 270.32C146.573 271.2 147.545 271.878 148.645 272.355C149.745 272.832 150.955 273.07 152.275 273.07ZM174.236 253.985H166.206V251.4H185.126V253.985H177.096V275.215H174.236V253.985ZM199.164 275.655C197.478 275.655 195.901 275.343 194.434 274.72C193.004 274.097 191.739 273.235 190.639 272.135C189.576 270.998 188.733 269.678 188.109 268.175C187.523 266.635 187.229 264.967 187.229 263.17C187.229 261.41 187.523 259.778 188.109 258.275C188.733 256.772 189.576 255.488 190.639 254.425C191.739 253.325 193.004 252.482 194.434 251.895C195.901 251.272 197.478 250.96 199.164 250.96C200.851 250.96 202.409 251.272 203.839 251.895C205.269 252.482 206.516 253.325 207.579 254.425C208.643 255.488 209.468 256.772 210.054 258.275C210.678 259.778 210.989 261.41 210.989 263.17C210.989 264.967 210.678 266.635 210.054 268.175C209.468 269.678 208.643 270.998 207.579 272.135C206.516 273.235 205.251 274.097 203.784 274.72C202.354 275.343 200.814 275.655 199.164 275.655ZM199.164 273.07C200.484 273.07 201.694 272.832 202.794 272.355C203.894 271.878 204.848 271.2 205.654 270.32C206.461 269.44 207.084 268.395 207.524 267.185C208.001 265.975 208.239 264.637 208.239 263.17C208.239 261.74 208.001 260.438 207.524 259.265C207.084 258.092 206.461 257.083 205.654 256.24C204.848 255.36 203.894 254.7 202.794 254.26C201.694 253.783 200.484 253.545 199.164 253.545C197.844 253.545 196.616 253.783 195.479 254.26C194.379 254.7 193.426 255.36 192.619 256.24C191.813 257.083 191.171 258.092 190.694 259.265C190.254 260.438 190.034 261.74 190.034 263.17C190.034 264.637 190.254 265.975 190.694 267.185C191.171 268.395 191.813 269.44 192.619 270.32C193.463 271.2 194.434 271.878 195.534 272.355C196.634 272.832 197.844 273.07 199.164 273.07ZM216.799 251.4H225.654C228.184 251.4 230.035 251.913 231.209 252.94C232.419 253.967 233.024 255.342 233.024 257.065C233.024 258.238 232.73 259.265 232.144 260.145C231.557 260.988 230.714 261.612 229.614 262.015C231.264 262.345 232.565 263.005 233.519 263.995C234.472 264.985 234.949 266.378 234.949 268.175C234.949 270.448 234.142 272.19 232.529 273.4C230.952 274.61 228.66 275.215 225.654 275.215H216.799V251.4ZM219.604 263.5V272.63H225.104C227.597 272.63 229.375 272.245 230.439 271.475C231.539 270.668 232.089 269.495 232.089 267.955C232.089 266.378 231.52 265.242 230.384 264.545C229.284 263.848 227.56 263.5 225.214 263.5H219.604ZM219.604 253.93V261.025H225.104C226.68 261.025 227.927 260.768 228.844 260.255C229.797 259.705 230.274 258.788 230.274 257.505C230.274 255.122 228.495 253.93 224.939 253.93H219.604ZM239.097 275.49C238.804 275.49 238.566 275.472 238.382 275.435C238.199 275.398 238.071 275.362 237.997 275.325V272.41C238.144 272.447 238.401 272.465 238.767 272.465C239.207 272.465 239.647 272.318 240.087 272.025C240.564 271.695 240.986 271.035 241.352 270.045C241.756 269.055 242.067 267.643 242.287 265.81C242.544 263.94 242.672 261.465 242.672 258.385V251.4H258.017V275.215H255.157V253.985H245.367V259.87C245.367 262.84 245.202 265.333 244.872 267.35C244.542 269.33 244.084 270.925 243.497 272.135C242.947 273.345 242.287 274.207 241.517 274.72C240.747 275.233 239.941 275.49 239.097 275.49ZM264.977 251.4H267.782V261.3H273.117C273.337 259.613 273.777 258.128 274.437 256.845C275.134 255.562 275.977 254.48 276.967 253.6C277.994 252.72 279.131 252.06 280.377 251.62C281.661 251.18 282.981 250.96 284.337 250.96C285.951 250.96 287.454 251.253 288.847 251.84C290.241 252.427 291.432 253.27 292.422 254.37C293.449 255.433 294.256 256.735 294.842 258.275C295.429 259.815 295.722 261.557 295.722 263.5C295.722 265.443 295.411 267.185 294.787 268.725C294.164 270.228 293.321 271.493 292.257 272.52C291.194 273.547 289.966 274.335 288.572 274.885C287.179 275.398 285.731 275.655 284.227 275.655C282.687 275.655 281.239 275.398 279.882 274.885C278.562 274.335 277.389 273.565 276.362 272.575C275.372 271.548 274.566 270.32 273.942 268.89C273.356 267.423 273.044 265.755 273.007 263.885H267.782V275.215H264.977V251.4ZM284.337 273.07C285.584 273.07 286.721 272.85 287.747 272.41C288.811 271.97 289.727 271.347 290.497 270.54C291.267 269.697 291.854 268.707 292.257 267.57C292.697 266.397 292.917 265.077 292.917 263.61C292.917 262.033 292.697 260.622 292.257 259.375C291.817 258.128 291.194 257.083 290.387 256.24C289.617 255.36 288.701 254.7 287.637 254.26C286.574 253.783 285.437 253.545 284.227 253.545C282.944 253.545 281.771 253.783 280.707 254.26C279.681 254.7 278.801 255.342 278.067 256.185C277.334 257.028 276.747 258.055 276.307 259.265C275.904 260.475 275.702 261.832 275.702 263.335C275.702 264.875 275.922 266.25 276.362 267.46C276.802 268.67 277.407 269.697 278.177 270.54C278.947 271.347 279.864 271.97 280.927 272.41C281.991 272.85 283.127 273.07 284.337 273.07ZM312.762 272.63H315.622C316.722 270.833 317.492 268.597 317.932 265.92C318.408 263.207 318.647 260.328 318.647 257.285V251.4H334.322V272.63H338.282V281.43H335.587V275.215H315.457V281.43H312.762V272.63ZM321.342 258.165C321.342 260.695 321.158 263.207 320.792 265.7C320.425 268.193 319.728 270.503 318.702 272.63H331.517V253.985H321.342V258.165ZM341.255 275.49C340.962 275.49 340.724 275.472 340.54 275.435C340.357 275.398 340.229 275.362 340.155 275.325V272.41C340.302 272.447 340.559 272.465 340.925 272.465C341.365 272.465 341.805 272.318 342.245 272.025C342.722 271.695 343.144 271.035 343.51 270.045C343.914 269.055 344.225 267.643 344.445 265.81C344.702 263.94 344.83 261.465 344.83 258.385V251.4H360.175V275.215H357.315V253.985H347.525V259.87C347.525 262.84 347.36 265.333 347.03 267.35C346.7 269.33 346.242 270.925 345.655 272.135C345.105 273.345 344.445 274.207 343.675 274.72C342.905 275.233 342.099 275.49 341.255 275.49ZM365.871 274.83L373.241 265.975C371.261 265.608 369.721 264.857 368.621 263.72C367.557 262.583 367.026 260.97 367.026 258.88C367.026 256.24 367.887 254.333 369.611 253.16C371.371 251.987 373.919 251.4 377.256 251.4H385.011V275.215H382.151V266.25H376.706H376.541L369.116 275.215H365.871V274.83ZM382.151 263.72V253.985H377.476C374.982 253.985 373.076 254.333 371.756 255.03C370.436 255.69 369.794 256.992 369.831 258.935C369.831 260.732 370.417 261.978 371.591 262.675C372.764 263.372 374.542 263.72 376.926 263.72H382.151ZM406.291 251.4H415.146C417.676 251.4 419.527 251.913 420.701 252.94C421.911 253.967 422.516 255.342 422.516 257.065C422.516 258.238 422.222 259.265 421.636 260.145C421.049 260.988 420.206 261.612 419.106 262.015C420.756 262.345 422.057 263.005 423.011 263.995C423.964 264.985 424.441 266.378 424.441 268.175C424.441 270.448 423.634 272.19 422.021 273.4C420.444 274.61 418.152 275.215 415.146 275.215H406.291V251.4ZM409.096 263.5V272.63H414.596C417.089 272.63 418.867 272.245 419.931 271.475C421.031 270.668 421.581 269.495 421.581 267.955C421.581 266.378 421.012 265.242 419.876 264.545C418.776 263.848 417.052 263.5 414.706 263.5H409.096ZM409.096 253.93V261.025H414.596C416.172 261.025 417.419 260.768 418.336 260.255C419.289 259.705 419.766 258.788 419.766 257.505C419.766 255.122 417.987 253.93 414.431 253.93H409.096ZM440.046 275.655C438.58 275.655 437.15 275.38 435.756 274.83C434.4 274.28 433.19 273.473 432.126 272.41C431.063 271.347 430.201 270.063 429.541 268.56C428.918 267.02 428.606 265.26 428.606 263.28C428.606 261.373 428.918 259.668 429.541 258.165C430.165 256.625 430.99 255.323 432.016 254.26C433.08 253.197 434.308 252.39 435.701 251.84C437.095 251.253 438.58 250.96 440.156 250.96C442.43 250.96 444.336 251.51 445.876 252.61C447.416 253.673 448.553 254.957 449.286 256.46V251.4H451.926V275.215H449.286V269.605C448.553 271.365 447.38 272.813 445.766 273.95C444.19 275.087 442.283 275.655 440.046 275.655ZM440.156 273.015C441.623 273.015 442.906 272.74 444.006 272.19C445.143 271.603 446.078 270.852 446.811 269.935C447.581 269.018 448.15 267.992 448.516 266.855C448.92 265.718 449.121 264.6 449.121 263.5V262.895C449.121 261.722 448.938 260.585 448.571 259.485C448.205 258.348 447.655 257.34 446.921 256.46C446.188 255.58 445.271 254.883 444.171 254.37C443.071 253.82 441.788 253.545 440.321 253.545C437.718 253.545 435.591 254.388 433.941 256.075C432.328 257.762 431.521 260.145 431.521 263.225C431.521 266.158 432.291 268.523 433.831 270.32C435.408 272.117 437.516 273.015 440.156 273.015ZM470.146 275.655C468.24 275.655 466.516 275.325 464.976 274.665C463.473 274.005 462.171 273.107 461.071 271.97C460.008 270.833 459.183 269.513 458.596 268.01C458.046 266.47 457.771 264.838 457.771 263.115C457.771 261.208 458.083 259.503 458.706 258C459.366 256.497 460.246 255.232 461.346 254.205C462.483 253.142 463.803 252.335 465.306 251.785C466.81 251.235 468.405 250.96 470.091 250.96C471.851 250.96 473.52 251.253 475.096 251.84C476.673 252.427 478.048 253.307 479.221 254.48L477.571 256.625C476.655 255.635 475.536 254.883 474.216 254.37C472.933 253.82 471.558 253.545 470.091 253.545C468.808 253.545 467.58 253.765 466.406 254.205C465.27 254.608 464.261 255.213 463.381 256.02C462.538 256.827 461.86 257.835 461.346 259.045C460.833 260.218 460.576 261.575 460.576 263.115C460.576 264.618 460.815 265.975 461.291 267.185C461.805 268.395 462.501 269.44 463.381 270.32C464.261 271.2 465.288 271.878 466.461 272.355C467.635 272.832 468.918 273.07 470.311 273.07C471.925 273.07 473.373 272.777 474.656 272.19C475.94 271.603 476.966 270.833 477.736 269.88L479.496 271.64C478.506 272.74 477.223 273.693 475.646 274.5C474.106 275.27 472.273 275.655 470.146 275.655ZM499.211 251.4H517.911V275.215H515.051V253.985H502.016V275.215H499.211V251.4ZM524.885 288.415V251.4H527.525V256.79C528.148 255.213 529.23 253.857 530.77 252.72C532.31 251.547 534.271 250.96 536.655 250.96C538.231 250.96 539.716 251.253 541.11 251.84C542.503 252.39 543.713 253.197 544.74 254.26C545.803 255.323 546.646 256.625 547.27 258.165C547.893 259.668 548.205 261.373 548.205 263.28C548.205 265.26 547.875 267.02 547.215 268.56C546.591 270.063 545.748 271.347 544.685 272.41C543.621 273.473 542.393 274.28 541 274.83C539.643 275.38 538.231 275.655 536.765 275.655C534.601 275.655 532.731 275.123 531.155 274.06C529.578 272.96 528.423 271.585 527.69 269.935V288.415H524.885ZM536.49 253.545C535.06 253.545 533.795 253.802 532.695 254.315C531.631 254.828 530.733 255.507 530 256.35C529.266 257.193 528.698 258.165 528.295 259.265C527.928 260.328 527.726 261.428 527.69 262.565V263.83C527.726 264.93 527.928 266.03 528.295 267.13C528.698 268.23 529.266 269.22 530 270.1C530.77 270.943 531.705 271.64 532.805 272.19C533.941 272.74 535.225 273.015 536.655 273.015C539.295 273.015 541.385 272.117 542.925 270.32C544.501 268.523 545.29 266.158 545.29 263.225C545.29 260.145 544.465 257.762 542.815 256.075C541.201 254.388 539.093 253.545 536.49 253.545ZM564.775 275.655C563.088 275.655 561.511 275.343 560.045 274.72C558.615 274.097 557.35 273.235 556.25 272.135C555.186 270.998 554.343 269.678 553.72 268.175C553.133 266.635 552.84 264.967 552.84 263.17C552.84 261.41 553.133 259.778 553.72 258.275C554.343 256.772 555.186 255.488 556.25 254.425C557.35 253.325 558.615 252.482 560.045 251.895C561.511 251.272 563.088 250.96 564.775 250.96C566.461 250.96 568.02 251.272 569.45 251.895C570.88 252.482 572.126 253.325 573.19 254.425C574.253 255.488 575.078 256.772 575.665 258.275C576.288 259.778 576.6 261.41 576.6 263.17C576.6 264.967 576.288 266.635 575.665 268.175C575.078 269.678 574.253 270.998 573.19 272.135C572.126 273.235 570.861 274.097 569.395 274.72C567.965 275.343 566.425 275.655 564.775 275.655ZM564.775 273.07C566.095 273.07 567.305 272.832 568.405 272.355C569.505 271.878 570.458 271.2 571.265 270.32C572.071 269.44 572.695 268.395 573.135 267.185C573.611 265.975 573.85 264.637 573.85 263.17C573.85 261.74 573.611 260.438 573.135 259.265C572.695 258.092 572.071 257.083 571.265 256.24C570.458 255.36 569.505 254.7 568.405 254.26C567.305 253.783 566.095 253.545 564.775 253.545C563.455 253.545 562.226 253.783 561.09 254.26C559.99 254.7 559.036 255.36 558.23 256.24C557.423 257.083 556.781 258.092 556.305 259.265C555.865 260.438 555.645 261.74 555.645 263.17C555.645 264.637 555.865 265.975 556.305 267.185C556.781 268.395 557.423 269.44 558.23 270.32C559.073 271.2 560.045 271.878 561.145 272.355C562.245 272.832 563.455 273.07 564.775 273.07ZM593.409 275.655C589.559 275.655 586.589 274.317 584.499 271.64C582.409 268.927 581.364 264.563 581.364 258.55C581.364 254.59 581.749 251.345 582.519 248.815C583.326 246.248 584.389 244.232 585.709 242.765C587.029 241.262 588.532 240.198 590.219 239.575C591.906 238.915 593.647 238.493 595.444 238.31C597.204 238.09 598.561 237.833 599.514 237.54C600.504 237.247 601.366 236.733 602.099 236L604.024 237.705C603.657 238.255 603.162 238.713 602.539 239.08C601.916 239.447 601.219 239.758 600.449 240.015C599.716 240.272 598.927 240.473 598.084 240.62C597.277 240.73 596.507 240.822 595.774 240.895C594.161 241.078 592.676 241.39 591.319 241.83C589.999 242.27 588.826 243.058 587.799 244.195C586.809 245.332 585.984 246.908 585.324 248.925C584.701 250.942 584.297 253.582 584.114 256.845C585.141 254.828 586.534 253.362 588.294 252.445C590.054 251.528 591.979 251.07 594.069 251.07C595.829 251.07 597.387 251.382 598.744 252.005C600.137 252.628 601.311 253.49 602.264 254.59C603.254 255.69 603.987 256.992 604.464 258.495C604.977 259.962 605.234 261.538 605.234 263.225C605.234 265.058 604.941 266.745 604.354 268.285C603.767 269.788 602.942 271.09 601.879 272.19C600.852 273.29 599.606 274.152 598.139 274.775C596.709 275.362 595.132 275.655 593.409 275.655ZM593.464 273.07C596.067 273.07 598.194 272.208 599.844 270.485C601.494 268.725 602.319 266.305 602.319 263.225C602.319 261.868 602.117 260.603 601.714 259.43C601.347 258.257 600.797 257.248 600.064 256.405C599.331 255.562 598.414 254.902 597.314 254.425C596.251 253.912 595.041 253.655 593.684 253.655C592.584 253.655 591.502 253.82 590.439 254.15C589.376 254.48 588.404 255.03 587.524 255.8C586.681 256.533 585.984 257.505 585.434 258.715C584.921 259.925 584.664 261.41 584.664 263.17C584.664 266.213 585.471 268.633 587.084 270.43C588.697 272.19 590.824 273.07 593.464 273.07ZM627.976 263.61H613.896V275.215H611.091V251.4H613.896V261.025H627.976V251.4H630.781V275.215H627.976V263.61ZM645.759 259.925C648.985 259.925 651.405 260.53 653.019 261.74C654.669 262.95 655.494 264.875 655.494 267.515C655.494 270.155 654.65 272.098 652.964 273.345C651.314 274.592 648.729 275.215 645.209 275.215H637.839V251.4H640.644V259.925H645.759ZM659.509 251.4H662.314V275.215H659.509V251.4ZM644.824 272.63C647.5 272.63 649.48 272.263 650.764 271.53C652.084 270.797 652.725 269.458 652.689 267.515C652.689 265.682 652.102 264.398 650.929 263.665C649.755 262.932 647.885 262.565 645.319 262.565H640.644V272.63H644.824ZM669.367 251.4H672.172V269.55L687.957 251.4H689.002V275.215H686.197V257.01L670.412 275.215H669.367V251.4ZM679.212 247.33C676.902 247.33 675.05 246.78 673.657 245.68C672.3 244.543 671.659 242.967 671.732 240.95H674.262C674.225 242.233 674.647 243.26 675.527 244.03C676.407 244.8 677.672 245.185 679.322 245.185C680.862 245.185 682.09 244.837 683.007 244.14C683.96 243.407 684.419 242.343 684.382 240.95H686.912C686.912 242.967 686.215 244.543 684.822 245.68C683.429 246.78 681.559 247.33 679.212 247.33ZM713.318 251.4H714.528L723.218 270.045L731.633 251.4H732.788L737.023 275.215H734.328L731.358 257.725L723.328 275.38H722.888L714.748 258.11L711.778 275.215H709.083L713.318 251.4ZM752.268 275.655C750.801 275.655 749.371 275.38 747.978 274.83C746.621 274.28 745.411 273.473 744.348 272.41C743.285 271.347 742.423 270.063 741.763 268.56C741.14 267.02 740.828 265.26 740.828 263.28C740.828 261.373 741.14 259.668 741.763 258.165C742.386 256.625 743.211 255.323 744.238 254.26C745.301 253.197 746.53 252.39 747.923 251.84C749.316 251.253 750.801 250.96 752.378 250.96C754.651 250.96 756.558 251.51 758.098 252.61C759.638 253.673 760.775 254.957 761.508 256.46V251.4H764.148V275.215H761.508V269.605C760.775 271.365 759.601 272.813 757.988 273.95C756.411 275.087 754.505 275.655 752.268 275.655ZM752.378 273.015C753.845 273.015 755.128 272.74 756.228 272.19C757.365 271.603 758.3 270.852 759.033 269.935C759.803 269.018 760.371 267.992 760.738 266.855C761.141 265.718 761.343 264.6 761.343 263.5V262.895C761.343 261.722 761.16 260.585 760.793 259.485C760.426 258.348 759.876 257.34 759.143 256.46C758.41 255.58 757.493 254.883 756.393 254.37C755.293 253.82 754.01 253.545 752.543 253.545C749.94 253.545 747.813 254.388 746.163 256.075C744.55 257.762 743.743 260.145 743.743 263.225C743.743 266.158 744.513 268.523 746.053 270.32C747.63 272.117 749.738 273.015 752.378 273.015ZM771.203 251.4H774.008V261.41H776.373L785.613 251.4H788.748V251.785L778.793 262.345L791.058 274.83V275.215H787.703L776.318 263.885H774.008V275.215H771.203V251.4ZM804.602 275.655C802.878 275.655 801.265 275.362 799.762 274.775C798.295 274.188 797.012 273.345 795.912 272.245C794.812 271.145 793.932 269.825 793.272 268.285C792.648 266.745 792.337 265.022 792.337 263.115C792.337 261.208 792.667 259.503 793.327 258C794.023 256.497 794.922 255.232 796.022 254.205C797.158 253.142 798.442 252.335 799.872 251.785C801.302 251.235 802.787 250.96 804.327 250.96C806.197 250.96 807.828 251.308 809.222 252.005C810.652 252.665 811.843 253.527 812.797 254.59C813.75 255.653 814.465 256.863 814.942 258.22C815.418 259.54 815.657 260.878 815.657 262.235V263.72H795.142C795.178 265.15 795.453 266.433 795.967 267.57C796.517 268.707 797.232 269.697 798.112 270.54C798.992 271.347 799.982 271.97 801.082 272.41C802.218 272.85 803.428 273.07 804.712 273.07C806.435 273.07 807.993 272.74 809.387 272.08C810.78 271.383 811.953 270.485 812.907 269.385L814.777 271.09C813.457 272.667 811.917 273.822 810.157 274.555C808.397 275.288 806.545 275.655 804.602 275.655ZM804.272 253.545C803.172 253.545 802.127 253.728 801.137 254.095C800.147 254.462 799.248 254.993 798.442 255.69C797.635 256.35 796.957 257.157 796.407 258.11C795.893 259.063 795.527 260.108 795.307 261.245H812.797C812.687 260.182 812.412 259.192 811.972 258.275C811.532 257.322 810.945 256.497 810.212 255.8C809.478 255.103 808.617 254.553 807.627 254.15C806.637 253.747 805.518 253.545 804.272 253.545ZM825.804 253.985H817.774V251.4H836.694V253.985H828.664V275.215H825.804V253.985ZM842.499 236.715H845.579L845.359 265.48H842.664L842.499 236.715ZM844.039 275.765C843.379 275.765 842.848 275.582 842.444 275.215C842.078 274.812 841.894 274.317 841.894 273.73C841.894 273.107 842.078 272.593 842.444 272.19C842.848 271.787 843.379 271.585 844.039 271.585C844.699 271.585 845.213 271.787 845.579 272.19C845.983 272.593 846.184 273.107 846.184 273.73C846.184 274.317 845.983 274.812 845.579 275.215C845.213 275.582 844.699 275.765 844.039 275.765Z" fill="#252525"></path></svg> 