<?xml version="1.0" encoding="UTF-8"?> <svg xmlns="http://www.w3.org/2000/svg" width="469" height="641" viewBox="0 0 469 641" fill="none"><path d="M200.088 0.901806C166.623 5.27405 155.02 9.1418 152.161 17.0455C148.462 27.8079 151.152 54.3777 156.534 58.7499C160.065 61.7769 159.392 62.7859 153.507 62.954C142.576 63.4585 129.964 82.9654 126.937 104.322C125.255 115.421 125.423 116.598 128.787 120.129C134 125.679 151.32 132.91 162.756 134.255C173.854 135.432 179.908 134.592 200.088 128.538C207.487 126.352 213.877 124.838 214.213 125.174C214.55 125.511 213.709 127.192 212.196 128.874C208.328 133.078 196.893 158.134 192.52 172.092L188.821 183.863L153.17 184.031C118.36 184.2 94.8176 186.218 88.0911 189.917C82.7099 192.776 85.2323 193.28 94.3131 191.431C98.8536 190.422 121.724 189.076 145.267 188.572C186.467 187.563 187.812 187.731 186.971 190.758C186.467 192.608 185.626 197.653 184.953 202.025C184.112 208.751 183.44 209.929 181.085 209.088C174.863 206.565 156.029 206.229 133.663 208.247C111.129 210.097 109.952 210.097 99.1899 206.565C93.136 204.547 87.0821 201.352 85.5687 199.334L83.0462 195.635L83.5507 199.839C83.887 202.866 86.0732 205.052 91.118 207.574C98.1809 211.106 98.8536 213.292 93.136 213.292C91.4544 213.292 89.6046 213.965 89.1001 214.974C88.4274 215.982 91.6225 216.319 97.8446 215.646C104.067 214.974 112.307 215.646 120.547 217.328C127.609 218.841 139.213 220.018 146.276 220.018C157.879 220.018 159.056 220.355 158.215 223.045C156.702 227.586 161.915 231.454 173.014 233.976L182.935 236.162L175.704 238.348C166.287 241.207 168.473 242.889 178.395 240.366C182.599 239.189 186.467 238.516 186.635 238.853C186.803 239.189 187.476 242.216 188.148 245.579L189.325 251.801L182.935 250.96C179.404 250.456 172.509 248.774 167.8 247.429C159.056 244.907 158.888 244.738 158.888 238.348V231.79H144.762C127.441 231.79 105.916 228.09 92.4634 222.877L82.3736 219.009L81.5328 209.76C80.8601 203.034 80.1874 201.52 79.1785 203.707C76.9923 208.415 79.1785 233.976 82.2054 240.534C87.7548 252.138 107.598 262.396 129.123 264.75C143.585 266.263 140.054 262.9 122.565 258.528C98.3491 252.306 85.905 243.057 83.3825 229.436C82.0372 222.373 82.2054 221.7 84.7279 222.709C100.872 229.94 127.273 235.153 147.285 235.153H155.02L156.197 247.093C156.87 253.651 157.879 260.041 158.383 261.387C159.056 263.068 157.711 263.741 153.675 263.741C148.798 263.909 148.462 264.077 150.984 265.591C152.666 266.6 155.02 266.936 156.365 266.431C157.711 265.927 160.401 268.113 162.924 271.308C167.296 277.026 181.422 284.761 190.671 286.611C196.22 287.788 196.388 288.293 199.247 308.304C201.601 324.784 201.433 336.051 198.911 336.724C197.734 337.06 189.83 339.582 181.422 342.273L165.951 346.982L164.942 337.06C164.437 331.679 163.933 315.535 163.933 301.241C163.933 276.858 163.765 275.176 160.738 274.335C158.888 273.831 157.879 272.485 158.215 271.308C159.224 268.954 150.984 266.768 149.471 268.954C148.966 269.795 149.471 270.467 150.311 270.467C152.666 270.467 152.834 338.742 150.648 340.087C149.807 340.76 146.948 340.255 144.258 339.246C135.849 335.883 89.7727 335.378 66.3981 338.405C38.3148 342.105 27.0479 345.468 19.985 352.027C15.1083 356.567 14.4356 358.249 14.9401 363.966C15.2765 367.498 15.6128 374.392 15.781 379.101L15.9491 387.677L27.3842 385.491C64.5483 378.26 104.403 376.915 115.165 382.296C117.52 383.473 124.078 385.491 129.964 386.5C135.681 387.677 140.39 389.191 140.39 389.863C140.39 390.536 133.831 392.89 125.76 394.908C112.979 398.103 107.094 398.608 84.0552 398.271C57.1491 397.935 36.2969 399.785 19.6487 404.157C11.0724 406.343 10.5679 406.175 6.19565 402.475L1.65525 398.608L5.523 393.226C9.22259 388.182 9.39075 388.013 6.02749 389.695C1.15076 392.386 -0.530875 400.289 0.141778 416.433C1.15076 437.622 7.70912 447.711 26.2071 456.12C40.6691 462.846 68.0797 466.714 68.0797 462.173C68.0797 459.987 66.9026 459.651 49.7499 457.297C33.2699 455.111 20.6577 449.897 12.5859 441.489C6.19565 434.763 0.646267 422.487 5.01851 424C20.1532 429.886 35.1197 434.258 50.4226 437.453L68.9205 441.321L69.425 452.756C69.5932 458.978 71.1066 467.218 72.6201 471.086C74.6381 475.963 75.647 484.875 75.9834 500.346L76.656 522.712H70.0977C62.0258 522.712 47.2275 518.508 44.705 515.313C42.0144 512.118 47.9001 508.586 61.5213 505.055C75.8152 501.355 78.674 498.328 66.3981 499.842C53.7858 501.524 43.3597 506.4 40.8373 511.95C38.9875 515.986 39.1556 516.658 43.696 520.358C48.9091 524.394 60.8487 527.757 70.434 527.757C75.3107 527.757 76.1515 528.43 77.1605 532.97C78.674 540.706 78.3377 546.255 75.8152 553.318C72.9564 561.558 74.4699 563.408 83.3825 562.735L90.7817 562.23L84.896 560.213L79.0103 558.363L86.2413 558.195C92.9678 558.026 93.3042 557.858 91.6225 554.495C90.6136 552.645 89.2683 546.087 88.7638 539.865L87.9229 528.598L96.1629 528.262C114.493 527.757 125.928 521.703 124.919 513.127C124.246 506.737 117.183 502.364 103.562 500.346C93.8087 498.833 91.6225 497.824 91.6225 495.47C91.6225 492.611 91.9589 492.611 96.3311 494.797C103.394 498.497 119.706 502.364 133.495 503.542C141.063 504.214 144.762 505.223 143.417 506.064C142.071 507.073 141.903 508.082 142.912 508.923C144.762 510.268 144.762 510.436 147.116 531.961C148.966 548.777 149.303 597.04 147.789 602.926C147.116 605.112 145.771 606.794 144.594 606.794C143.417 606.794 141.399 607.971 140.222 609.484C138.372 611.839 138.54 612.511 141.231 614.529C144.762 617.22 157.206 617.724 157.206 615.37C157.206 614.529 157.711 612.679 158.215 611.166C159.056 609.148 158.215 608.475 155.356 608.475H151.32V570.302C151.32 549.114 150.816 528.43 150.143 523.889C148.966 516.826 149.134 515.986 151.993 515.986C154.684 515.986 155.188 518.34 156.197 544.069C158.047 587.119 159.729 606.626 161.915 608.812C162.924 609.821 164.269 610.325 164.774 609.989C165.11 609.484 164.437 598.89 163.26 586.446C159.729 553.15 158.215 524.394 159.56 513.631C160.738 504.887 161.074 504.214 165.11 504.214C167.464 504.214 177.386 503.037 187.139 501.524C206.478 498.665 224.471 491.77 228.171 485.884C231.871 479.831 232.88 481.848 232.88 496.479C232.88 509.091 232.543 510.604 229.516 511.445C225.144 512.622 225.144 517.163 229.685 518.508C232.375 519.349 232.88 520.862 232.543 524.898C232.039 529.943 231.534 530.279 224.471 530.784C210.85 531.793 195.884 526.075 195.884 519.853C195.884 516.49 205.637 511.277 216.063 509.091C230.021 506.232 231.03 505.728 225.312 504.046C217.913 501.86 203.787 506.568 196.22 513.295C190.671 518.508 190.166 519.517 191.68 523.889C194.034 530.784 203.787 534.988 219.763 535.829L232.711 536.67L231.871 543.564C231.366 547.264 231.702 553.486 232.375 557.186C233.889 563.408 234.393 563.912 239.27 563.576C244.819 563.408 249.696 560.549 249.696 557.69C249.696 556.681 248.519 556.513 247.005 557.017C245.66 557.522 243.306 556.849 241.96 555.504C240.447 554.159 237.756 552.981 235.907 552.981C232.88 552.981 232.711 552.645 234.729 550.123C236.579 548.105 237.084 538.856 237.252 509.427C237.42 488.575 238.093 465.032 238.765 457.128C240.279 440.312 238.933 439.808 236.243 456.12C232.039 482.185 220.267 491.266 183.271 496.311C149.975 501.019 122.901 499.674 102.049 492.443C83.3825 485.884 75.647 475.458 73.6291 454.438C72.6201 443.507 72.6201 443.339 76.1515 445.525C78.8421 447.207 79.1785 448.216 77.8332 449.897C76.656 451.411 76.656 452.084 77.8332 452.084C78.8421 452.084 80.0193 451.411 80.6919 450.57C81.1964 449.561 84.0552 449.729 87.9229 451.075C95.3221 453.765 111.466 456.456 133.327 458.81C151.152 460.828 174.527 459.146 205.805 453.597C216.4 451.747 227.162 450.738 229.853 451.243C232.711 451.915 234.561 451.579 234.561 450.57C234.561 449.561 233.889 448.72 233.048 448.72C232.207 448.72 233.384 444.853 235.57 440.312C239.438 432.24 239.942 431.904 246.669 431.904C259.281 431.904 275.257 427.027 279.965 421.982C285.01 416.265 292.409 414.92 317.466 414.92C348.408 414.92 384.226 421.814 395.83 430.054C399.697 432.913 401.043 435.099 401.043 438.799C401.043 442.835 400.37 443.675 398.184 443.003C381.199 438.126 364.047 435.94 332.096 434.258C308.049 433.081 274.08 436.613 257.6 442.162C252.218 444.012 247.173 445.021 246.333 444.516C245.492 444.012 243.978 441.153 243.138 438.126C241.96 433.417 241.456 433.249 240.447 435.94C238.597 440.144 242.465 446.871 249.528 451.579C255.077 455.279 266.68 459.146 281.311 462.342C295.268 465.2 342.354 466.209 356.48 464.023C369.933 461.837 389.439 455.783 395.662 451.915C398.352 450.234 399.866 450.234 401.043 451.411C403.565 453.933 400.202 472.768 396.334 479.494C392.466 485.884 384.226 490.929 379.518 489.584C376.995 488.911 375.818 489.416 376.155 490.761C376.827 493.62 361.524 498.665 345.044 500.851C317.297 504.719 276.938 499.169 262.981 489.752C257.936 486.221 248.014 472.095 248.014 468.227C248.014 467.723 252.05 469.404 257.095 472.263C270.548 479.831 287.533 482.689 322.847 482.857C350.93 483.194 354.293 482.857 368.251 478.822C376.659 476.299 387.253 472.431 391.794 470.077C402.556 464.528 399.361 464.191 387.422 469.573C370.269 477.308 353.284 479.662 319.484 478.485C284.842 477.14 268.362 474.449 255.918 467.723C248.687 463.855 246.837 461.837 245.324 456.288C244.147 452.588 243.138 449.897 242.969 450.402C242.129 452.588 241.624 534.484 242.465 540.874C242.969 545.582 244.147 547.937 245.828 547.937C247.173 547.937 247.846 548.609 247.173 549.45C246.669 550.459 249.023 551.636 252.555 552.141C275.761 555.672 285.01 559.708 285.01 566.435C285.01 574.338 264.158 579.888 234.561 579.888C212.532 579.888 202.442 576.692 198.911 568.789C197.061 564.921 197.229 564.08 200.592 561.39C202.61 559.708 207.991 557.017 212.364 555.504C226.658 550.459 229.012 549.114 225.817 548.441C220.436 547.096 203.956 553.15 199.079 558.026C192.689 564.248 192.689 570.47 199.247 576.524C205.973 582.746 215.391 585.101 236.243 585.437C260.795 585.941 275.257 582.746 282.656 575.347C289.214 568.957 289.887 563.744 285.01 557.69C280.806 552.309 275.425 550.123 259.786 547.432C247.342 545.414 247.173 545.246 246.669 540.201C246.164 535.324 246.501 534.82 252.555 534.147C263.485 532.634 281.647 522.544 281.647 517.835C281.647 514.808 274.08 507.073 268.867 504.887C261.467 501.692 248.014 501.692 248.014 504.887C248.014 506.232 250.537 507.409 254.573 508.082C262.644 509.091 272.734 513.799 273.911 516.995C274.584 518.844 271.893 520.862 263.99 524.562C252.387 529.775 246.333 530.784 246.333 527.253C246.333 526.244 245.828 513.799 245.324 500.01C244.483 475.795 244.651 474.954 247.342 479.831C253.564 491.266 261.636 497.488 275.761 501.692C283.16 504.046 293.587 506.232 298.8 506.905C308.049 507.914 308.553 508.25 309.226 513.295C312.084 531.457 311.075 587.455 307.544 605.617C306.535 611.334 306.871 612.175 310.066 613.016C311.916 613.52 313.598 614.529 313.598 615.37C313.598 617.556 321.502 617.22 325.874 614.866C329.405 613.016 329.405 613.016 326.21 611.67C324.36 610.998 320.324 610.325 317.298 610.325L311.748 610.157L312.925 602.253C313.598 597.713 314.271 577.701 314.271 557.69C314.439 522.712 314.607 521.199 317.802 520.358C319.652 519.853 321.502 519.349 322.006 519.349C322.511 519.349 322.342 526.748 321.502 535.661C319.988 553.486 321.165 596.031 323.351 604.103C325.201 610.661 328.733 611.839 328.733 605.953C328.733 601.412 328.901 601.412 336.3 602.085C346.894 603.43 363.038 611.67 363.711 616.211C364.215 619.238 362.365 620.751 354.966 624.451C333.105 635.045 281.142 633.532 270.716 621.76C267.689 618.733 267.858 618.397 271.725 614.193C276.434 608.98 286.524 604.271 296.445 602.59C305.526 601.076 305.526 598.386 296.445 598.386C281.983 598.386 264.831 610.493 264.831 620.583C264.831 625.628 274.08 631.346 287.028 634.372C296.613 636.559 305.022 637.231 322.174 636.727C343.363 636.222 345.381 635.886 354.798 631.177C363.038 627.141 365.224 624.955 366.906 620.247C368.419 615.706 368.251 613.688 366.737 610.998C363.711 606.289 353.116 600.74 341.345 597.545C332.264 595.19 331.087 595.19 329.405 597.545C327.724 599.731 327.387 599.563 326.378 596.368C324.529 589.473 325.538 523.889 327.555 515.986C329.405 509.091 330.078 508.418 335.459 507.914L341.177 507.241L336.636 511.95C334.114 514.472 332.096 517.667 332.096 519.349C332.096 526.075 345.885 532.466 364.888 534.147L376.659 535.324L376.155 544.573C375.818 551.636 376.155 553.318 377.668 551.804C378.845 550.627 379.854 540.369 380.527 522.88C381.031 507.914 382.04 495.806 382.713 495.806C383.554 495.806 384.226 504.719 384.226 515.481C384.226 526.412 384.731 540.537 385.404 546.759L386.413 558.195L379.182 557.017C372.623 556.008 371.951 556.177 372.96 558.699C373.632 560.381 374.137 562.399 374.137 563.239C374.137 564.921 385.74 565.257 389.776 563.744C391.626 563.071 391.794 561.221 390.785 555.84C390.112 551.973 389.776 548.609 389.776 548.441C389.944 548.273 395.325 549.282 401.547 550.627C415.337 553.486 421.895 556.681 425.763 562.399C428.453 566.603 428.453 566.939 424.417 569.966C412.31 579.215 365.897 581.065 349.417 572.993C335.627 566.098 339.831 560.549 363.711 554.663C367.915 553.486 370.773 551.804 370.773 550.459C370.773 547.264 370.437 547.264 356.143 551.468C341.345 555.84 336.804 559.708 337.477 566.939C337.982 571.648 339.327 572.993 348.071 577.365C357.993 582.242 358.666 582.41 383.386 582.41C411.469 582.41 421.559 580.056 427.949 571.984C432.321 566.266 432.153 562.735 427.108 556.513C422.568 551.132 406.76 544.91 395.83 544.237L389.608 543.733L388.431 519.013L387.253 494.461L393.812 487.902C398.184 483.53 401.379 478.149 403.397 471.759L406.424 462.173H415C419.709 462.173 429.63 460.492 437.03 458.642C448.633 455.447 451.66 453.933 457.714 447.711C466.795 438.462 468.981 430.727 468.981 408.025C469.149 387.677 468.476 386.164 456.368 381.455L449.474 378.764L448.969 363.63L448.465 348.663L442.075 343.114C429.799 332.52 403.565 328.484 363.711 331.174C349.585 332.183 335.123 333.529 331.76 334.369C326.042 335.547 324.865 335.21 318.643 329.324L311.916 323.102V299.391C311.916 284.593 312.589 275.512 313.598 275.512C314.607 275.512 315.28 274.335 315.28 272.99C315.28 270.972 314.102 270.636 310.739 271.476C306.031 272.485 306.031 272.485 309.562 269.795C314.102 266.6 318.138 256.678 319.652 245.579L320.661 237.171L329.405 235.994C357.32 232.462 379.182 227.586 379.182 225.063C379.182 223.045 378.004 223.045 370.773 225.063C366.065 226.409 324.697 233.471 321.502 233.471C320.997 233.471 320.156 231.79 319.484 229.604L318.138 225.904L317.466 229.604C317.129 231.79 315.952 233.471 314.775 233.471C313.43 233.471 313.43 233.976 314.943 235.489C316.12 236.667 316.961 238.348 316.961 239.525C316.961 241.88 296.277 248.606 288.878 248.606H283.665L285.515 242.552C287.869 234.985 292.746 232.967 302.331 235.153C311.244 237.171 311.916 237.171 311.916 235.321C311.916 234.48 309.898 232.967 307.376 232.126C304.685 231.117 303.844 230.276 305.022 230.276C306.367 230.108 309.394 228.258 311.748 226.072C315.448 222.709 319.147 221.7 333.778 220.018C351.939 218 373.128 213.965 377.5 211.61C378.845 210.769 374.305 210.265 367.41 210.433C360.515 210.601 349.08 209.76 342.186 208.583C335.291 207.406 322.511 206.397 314.102 206.397H298.463V198.662V190.926L315.784 192.103C336.132 193.449 363.374 198.83 374.641 203.538C383.89 207.574 383.89 207.742 379.686 230.613C377.668 242.384 375.986 246.925 372.455 250.96C368.587 255.165 367.41 255.669 365.224 253.987C362.533 251.633 359.675 253.987 361.524 256.846C362.87 259.032 353.789 261.555 336.468 263.741C320.324 265.759 317.97 266.431 319.484 268.954C320.997 271.14 336.3 270.804 349.08 268.113C374.137 262.732 381.199 254.996 385.572 228.427C388.767 208.079 387.758 204.716 375.818 198.662C365.897 193.785 338.486 188.404 316.625 187.058L299.136 185.881L296.445 175.455C291.905 158.303 287.196 150.567 272.398 135.096C261.131 123.325 259.281 120.802 262.981 121.643C295.941 129.883 313.766 130.556 328.228 123.829C335.964 120.129 345.549 110.544 345.549 106.34C345.549 99.9499 337.982 74.5573 335.123 71.6985C331.423 67.9989 319.82 67.6626 306.703 71.0258C293.755 74.3891 262.813 87.8422 251.882 94.905C247.005 98.1001 242.465 100.623 241.96 100.623C241.288 100.623 241.288 98.2683 241.624 95.5777C242.633 89.0193 241.624 89.1875 239.27 95.7458C237.756 99.9499 236.916 100.791 233.552 99.9499C231.366 99.2773 229.516 99.6136 229.516 100.454C229.516 101.463 228.339 101.8 226.994 101.295C225.649 100.623 224.471 101.127 224.471 102.136C224.471 103.145 223.462 103.986 222.453 103.986C219.258 103.986 195.043 87.3377 192.689 83.4699C190.839 80.443 191.007 80.2748 195.379 81.1156C197.902 81.6201 205.637 82.4609 212.364 82.9654C222.79 83.9744 224.471 84.6471 224.471 87.3377C224.471 89.0193 225.312 90.5328 226.153 90.5328C227.162 90.5328 227.835 92.0462 227.835 93.896C227.835 95.7458 228.676 97.2593 229.516 97.2593C231.702 97.2593 237.925 91.0373 237.925 88.8511C237.925 88.0103 236.579 86.4969 235.066 85.656C232.711 84.3107 234.729 83.9744 243.306 83.8062C267.353 83.8062 294.259 75.3981 301.827 65.8128C306.535 59.7589 304.685 58.9181 297.286 64.1312C280.974 75.3981 259.786 79.434 224.471 78.2569C198.406 77.416 183.608 74.5573 170.323 67.6626C164.774 64.8038 157.879 53.3687 156.197 44.4561C155.188 38.234 155.188 38.0659 158.888 40.0838C169.65 45.8014 212.7 48.6601 237.588 45.2969C243.81 44.4561 259.113 42.7744 271.557 41.5973C309.394 38.234 313.598 36.8887 300.649 32.1802C287.028 27.3034 180.749 25.4536 161.915 29.8259L155.525 31.3393V23.2675C155.525 15.532 155.861 15.0275 161.074 13.3459C183.944 5.9467 243.474 3.59242 275.761 8.97364C285.01 10.4871 293.25 12.3369 294.091 13.3459C295.1 14.3549 294.764 14.8593 292.914 14.8593C291.4 14.8593 272.902 16.0365 251.882 17.3818C214.886 19.9042 172.173 18.8953 163.428 15.7002C158.72 13.8504 160.065 17.55 164.942 19.7361C175.2 24.2765 211.523 25.1173 255.413 21.754C278.452 19.9042 297.959 17.7181 298.968 16.7091C299.977 15.7002 303.004 14.8593 305.694 14.8593H310.739L309.73 29.8259C309.226 37.8977 307.712 47.3148 306.199 50.8463C304.853 54.2095 304.349 56.9001 305.19 56.9001C310.571 56.9001 316.12 35.3753 314.271 21.4177C313.43 14.523 312.589 13.514 306.703 10.9916C299.64 7.96466 284.842 4.26507 268.026 1.57446C257.6 -0.107173 211.523 -0.611663 200.088 0.901806ZM294.091 33.021C297.622 34.0299 293.418 35.0389 276.77 37.3932C237.084 42.9426 160.401 41.4291 156.365 35.0389C155.861 34.1981 159.897 33.1891 165.11 32.5165C170.491 32.012 176.377 31.1712 178.227 30.8348C184.112 29.8259 289.214 31.6757 294.091 33.021ZM331.591 85.4879C332.6 87.8422 334.618 93.3915 335.795 97.7638C338.991 110.04 337.477 111.385 319.315 112.058C304.013 112.562 272.062 109.535 270.716 107.517C269.539 105.331 320.829 80.2748 325.369 80.7793C327.892 81.1156 330.414 82.9654 331.591 85.4879ZM161.242 86.1605C165.951 88.5148 177.722 94.905 187.307 100.454L204.628 110.544L198.238 112.226C194.538 113.067 186.803 115.085 180.749 116.766C165.783 120.634 153.002 120.634 143.417 116.934C135.345 113.739 135.345 113.739 135.345 105.836C135.345 96.7548 140.222 87.8422 147.116 84.3107C152.498 81.6201 151.32 81.452 161.242 86.1605ZM238.597 145.522C239.942 171.419 241.792 181.509 246.501 185.713C250.369 189.076 250.537 187.227 247.342 179.491C245.156 174.446 241.288 144.009 241.288 132.91C241.288 128.874 241.456 128.874 247.173 135.264C258.104 147.372 269.876 166.038 273.071 176.296L276.266 186.386H266.344C260.963 186.386 256.422 187.058 256.422 188.067C256.422 188.908 261.131 191.094 267.017 192.776C272.734 194.626 277.611 197.148 277.947 198.494C279.124 204.547 236.243 210.601 212.196 207.574C203.115 206.397 202.61 206.061 202.61 201.52C202.61 197.485 203.619 196.476 208.328 194.794C211.523 193.785 214.886 191.935 215.895 190.758C217.409 188.908 216.231 188.236 210.178 187.395C200.592 185.881 200.424 184.031 208.496 161.666C213.541 147.876 226.489 124.165 229.012 124.165C229.348 124.165 229.18 136.105 228.507 150.567C227.835 168.392 226.658 178.987 224.976 182.518C222.453 187.731 222.622 188.236 226.321 191.431C231.871 195.971 240.615 195.803 242.969 191.263C245.492 186.722 244.315 185.713 238.429 187.227C234.057 188.404 234.057 188.572 237.084 189.749C240.111 191.094 239.942 191.263 235.907 191.263C227.498 191.599 226.321 190.254 228.844 183.359C230.189 179.323 231.03 168.56 231.198 153.594C231.198 128.369 232.039 122.484 235.402 122.484C236.747 122.484 237.756 129.042 238.597 145.522ZM278.284 206.565C278.284 207.406 276.938 208.247 275.425 208.247C272.566 208.415 272.566 208.415 275.425 210.097C278.284 211.778 279.124 219.009 277.275 225.904C276.434 229.099 275.089 229.267 241.288 229.267H206.31L205.301 224.391C202.778 211.778 201.097 212.451 232.543 212.451C257.6 212.283 261.467 211.947 268.194 208.751C277.107 204.547 278.284 204.379 278.284 206.565ZM332.096 210.938C344.54 211.947 353.789 214.637 346.39 214.974C344.54 215.142 336.804 215.814 329.069 216.487C316.961 217.664 314.271 217.496 308.889 214.805C305.526 212.956 301.658 211.442 300.145 211.274C298.8 211.274 301.49 210.601 306.031 209.929C310.739 209.256 315.616 209.088 316.961 209.256C318.306 209.592 325.201 210.265 332.096 210.938ZM176.545 211.61C176.04 212.451 174.359 213.292 173.014 213.292C171.668 213.292 168.305 214.469 165.614 215.814C162.587 217.328 160.401 217.664 159.729 216.655C159.224 215.646 151.993 214.974 143.753 214.974C124.919 214.974 118.529 212.787 133.663 211.442C153.338 209.76 177.722 209.76 176.545 211.61ZM184.785 221.868C185.458 226.577 185.626 230.949 185.121 231.285C184.112 232.294 167.632 228.595 163.428 226.409C161.747 225.568 160.906 224.054 161.578 223.045C162.756 221.196 178.899 213.292 181.758 213.292C182.767 213.292 184.112 217.16 184.785 221.868ZM306.871 218.337C309.562 220.355 310.403 222.036 309.394 223.045C307.88 224.391 292.578 230.108 290.391 230.108C289.551 230.108 291.064 223.55 293.25 217.832C295.1 212.956 300.145 213.292 306.871 218.337ZM249.36 234.649C242.129 234.985 230.357 234.985 223.294 234.649C216.063 234.48 221.949 234.144 236.243 234.144C250.537 234.144 256.422 234.48 249.36 234.649ZM274.92 243.393C274.92 249.279 274.416 249.951 269.539 250.96C266.512 251.465 254.068 252.474 241.792 253.147C227.667 253.819 219.931 254.828 220.604 255.837C221.276 256.846 231.198 257.182 247.846 256.51C269.707 255.669 273.575 255.837 271.221 257.687C267.858 260.041 267.185 263.741 269.876 263.741C270.884 263.741 271.557 266.431 271.557 269.627C271.557 273.158 270.716 275.512 269.539 275.512C268.026 275.512 268.026 276.017 269.539 277.53C272.734 280.725 272.062 282.071 266.008 284.593C259.113 287.452 230.357 289.47 223.631 287.62C218.418 286.107 217.745 284.425 212.868 257.855C211.859 253.147 210.682 246.925 210.009 244.066L209 238.685L235.57 238.012C250.369 237.844 265.167 237.339 268.698 237.171C274.92 236.835 274.92 236.835 274.92 243.393ZM185.626 255.333C190.334 255.333 190.671 255.837 191.68 263.236C192.184 267.777 193.025 273.831 193.529 276.689C194.707 284.089 191.848 283.92 177.89 276.017C169.146 271.14 166.287 268.618 163.765 263.068C162.083 259.2 160.569 254.156 160.569 251.633V247.093L170.659 251.297C176.209 253.483 182.935 255.333 185.626 255.333ZM314.439 250.624C313.766 252.81 312.421 256.342 311.244 258.696C309.226 263.236 291.905 275.68 283.497 278.539L278.284 280.389V273.999C278.284 269.458 279.124 267.104 280.974 266.431C282.992 265.591 283.16 264.75 281.983 263.236C280.974 262.059 280.47 259.369 280.974 257.519C281.815 254.66 283.833 253.651 290.56 252.81C295.268 252.138 301.827 250.624 305.022 249.279C314.102 246.084 315.616 246.252 314.439 250.624ZM305.19 275.512C305.19 276.353 304.517 277.194 303.508 277.194C302.667 277.194 301.658 285.098 301.49 295.019L300.986 313.013L295.604 308.472C289.719 303.596 279.629 289.133 280.47 286.779C280.806 285.602 300.818 274.84 304.013 274.167C304.685 273.999 305.19 274.503 305.19 275.512ZM160.738 305.782C160.233 336.219 162.756 363.63 166.119 362.453C167.296 362.116 167.8 359.258 167.632 355.894L167.128 350.009L181.254 346.141C189.157 344.123 196.22 342.609 197.061 342.946C198.07 343.282 198.07 345.804 197.229 348.831C196.052 353.372 194.707 354.381 188.485 356.062C179.067 358.417 176.04 361.948 184.785 360.435C190.166 359.426 190.671 359.594 189.83 362.116C188.821 364.471 187.307 364.807 179.74 363.798C169.482 362.621 166.791 365.48 176.545 367.329C179.74 367.834 182.431 368.675 182.431 369.179C182.431 371.197 172.173 378.764 164.437 382.296C154.852 386.668 148.294 386.332 127.105 380.614C110.625 376.242 111.129 374.56 131.141 366.825C145.771 361.275 148.798 358.753 139.213 360.267C135.177 360.771 131.814 360.603 131.141 359.594C129.964 357.576 86.4095 357.576 57.9899 359.426C43.1916 360.435 36.9695 361.612 31.4201 364.471C24.3573 368.002 23.8528 368.17 20.8258 365.311C16.6218 361.612 16.7899 359.258 21.4985 355.053C26.8797 350.009 39.492 346.309 60.3442 343.618C82.3736 340.591 127.609 340.255 141.063 343.114L150.816 344.964L149.639 351.858C147.116 365.648 147.621 368.675 152.666 371.029C157.374 373.215 163.933 372.374 163.933 369.515C163.933 368.675 162.419 368.002 160.569 368.002C158.72 368.002 157.206 367.161 157.206 366.32C157.206 365.311 155.693 364.639 153.843 364.639C149.807 364.639 149.975 366.489 153.17 342.778C154.684 332.183 156.029 313.013 156.029 300.4C156.365 281.062 156.702 277.194 158.888 277.194C161.074 277.194 161.41 281.23 160.738 305.782ZM310.235 299.896C310.235 311.667 309.562 319.235 308.553 319.235C307.712 319.235 306.871 317.889 306.703 316.208C306.535 314.694 306.031 305.95 305.358 296.869C304.517 282.071 304.685 280.557 307.376 280.557C309.898 280.557 310.235 282.575 310.235 299.896ZM276.434 298.551C281.479 312.508 292.073 331.847 298.463 338.573C302.499 342.778 303.508 345.636 304.517 354.885C305.358 362.957 305.022 366.32 303.676 366.32C302.667 366.32 301.827 368.338 301.827 370.693C301.827 374.56 302.331 374.897 307.376 374.392C310.571 374.056 312.589 373.047 312.253 371.702C312.084 370.693 313.43 369.684 315.28 369.684C318.811 369.684 319.988 365.648 316.961 363.798C316.12 363.293 315.28 360.771 315.28 358.585C315.28 354.381 315.448 354.381 322.847 360.939C326.883 364.471 333.778 369.347 337.982 371.533C342.186 373.72 345.549 376.074 345.549 376.578C345.549 379.437 326.042 381.791 307.544 381.119C288.037 380.446 276.602 377.419 276.602 373.047C276.602 370.524 283.497 366.657 291.4 364.807C299.809 362.957 300.986 362.284 299.304 359.594C298.631 358.417 296.277 358.08 293.923 358.753C291.4 359.258 284.001 357.744 274.584 354.549C265.167 351.522 255.75 349.504 250.2 349.504C241.792 349.504 241.288 349.336 241.288 345.3C241.288 341.264 241.792 341.096 250.369 341.096C264.494 341.096 285.01 344.459 293.25 347.991C301.995 351.858 301.827 351.858 301.827 348.831C301.827 343.114 279.461 337.733 255.245 337.733H241.288L241.12 331.342C240.951 327.979 241.12 320.748 241.288 315.367C241.792 301.241 238.429 303.596 237.084 318.394C235.402 335.378 237.084 384.482 239.438 390.368C241.456 395.581 245.996 398.103 248.014 395.076C249.864 392.049 265.84 394.235 284.001 400.121C297.454 404.493 304.349 405.166 300.649 401.635C296.95 398.103 271.221 391.04 258.272 390.031C244.315 389.022 243.978 389.022 242.801 384.146C241.96 381.287 241.792 378.764 242.297 378.26C244.651 375.906 268.53 378.428 280.47 382.296C287.701 384.65 295.1 386.5 296.95 386.5C301.322 386.5 308.553 393.731 308.553 398.271C308.553 400.962 306.199 402.812 298.968 406.175C293.587 408.698 289.046 411.22 288.71 412.061C287.701 414.415 284.842 413.574 279.797 409.202C274.752 405.166 267.689 402.475 256.086 400.626C244.819 398.776 249.023 402.812 262.308 406.848C269.203 408.866 275.929 411.724 277.443 413.406C279.629 415.929 279.461 416.601 275.089 420.805C271.053 424.673 268.194 425.514 253.9 427.195C241.792 428.373 233.216 428.373 222.453 427.027C202.947 424.505 194.202 421.142 194.202 415.929C194.202 410.884 196.22 409.538 209.841 405.166C216.063 402.98 221.108 400.626 221.108 399.785C221.108 398.776 220.604 398.44 219.931 398.776C219.09 399.28 214.213 400.458 208.832 401.635C203.451 402.644 197.061 405.334 194.37 407.689C188.989 412.229 184.953 412.733 177.89 409.706C171.164 406.848 167.296 403.316 167.296 399.953C167.296 392.554 186.803 382.8 207.151 379.773C214.382 378.764 221.613 377.587 223.294 377.083C225.817 376.242 226.153 377.419 226.153 385.827C226.153 401.298 229.012 394.404 231.03 374.056C233.384 351.186 233.384 307.968 231.198 306.622C230.357 306.118 229.516 311.499 229.18 320.412L228.676 335.21L222.117 335.715C215.727 336.219 215.727 336.219 216.736 331.511C217.24 328.988 218.249 319.067 218.922 309.481L219.931 292.329H224.976C228.676 292.329 229.685 293.001 228.844 294.851C228.339 296.196 228.507 297.373 229.348 297.373C230.189 297.373 230.693 298.382 230.525 299.728C230.357 302.418 230.525 302.418 237.084 302.418C239.774 302.418 241.288 301.409 241.288 299.896C241.288 298.551 242.129 297.373 242.969 297.373C243.978 297.373 244.651 296.365 244.651 295.019C244.651 293.506 247.51 292.329 252.723 291.488C257.095 290.983 261.804 289.806 263.149 288.797C269.539 284.929 272.398 286.947 276.434 298.551ZM404.406 336.051C422.063 338.237 433.33 341.769 439.72 347.318C446.279 352.867 446.11 355.558 438.543 359.426C430.639 363.293 427.949 363.966 396.839 367.834L371.782 371.029L362.029 364.134C356.648 360.267 352.275 356.567 352.275 355.894C352.275 355.39 366.065 354.717 383.049 354.717C410.964 354.717 419.877 355.39 430.976 358.753C436.021 360.435 435.684 357.24 430.471 354.885C421.895 351.018 397.511 349.168 371.951 350.681L347.231 352.027L338.654 345.636C333.946 341.937 330.582 338.573 331.255 338.069C334.282 334.874 383.89 333.529 404.406 336.051ZM227.835 345.3C227.835 348.831 226.994 349.504 223.126 349.504C220.436 349.504 216.904 350.681 215.054 352.027C212.027 354.549 212.364 354.717 219.931 354.213L227.835 353.708V363.462V373.047L214.045 372.038C206.31 371.365 199.415 370.356 198.742 369.684C197.902 369.011 199.92 364.975 203.115 360.603C206.478 356.399 210.009 350.177 211.187 346.982C213.205 341.432 213.877 341.096 220.604 341.096C227.162 341.096 227.835 341.432 227.835 345.3ZM312.421 359.93C312.925 365.984 312.589 367.498 310.907 366.825C309.562 366.32 308.553 363.63 308.553 360.603C308.553 357.744 308.049 353.54 307.544 351.186C306.535 347.486 306.703 347.318 309.058 349.504C310.403 350.849 311.916 355.558 312.421 359.93ZM269.035 356.231C273.743 357.408 278.452 359.089 279.629 360.098C284.338 363.798 271.557 368.17 250.2 370.356L241.288 371.197V361.612V351.858L251.041 353.035C256.254 353.54 264.494 355.053 269.035 356.231ZM126.096 362.957C125.591 363.798 123.574 364.639 121.556 364.639C119.706 364.639 116.174 366.825 113.652 369.515C109.28 374.224 109.112 374.224 84.0552 375.065C66.5662 375.738 54.7948 375.233 45.3777 373.72C10.2316 367.498 35.1197 362.453 105.58 361.612C119.538 361.444 126.769 361.78 126.096 362.957ZM441.234 366.993C442.915 369.011 442.411 370.02 439.048 372.206C435.18 374.729 432.826 374.897 418.364 373.215C409.451 372.038 401.884 371.029 401.547 370.693C401.211 370.356 406.928 369.684 414.159 369.179C421.39 368.675 429.126 367.498 431.312 366.489C437.198 364.134 439.048 364.302 441.234 366.993ZM271.557 373.047C271.557 373.888 269.035 374.56 266.176 374.56L260.627 374.392L265.671 373.047C268.53 372.374 270.884 371.702 271.221 371.533C271.389 371.533 271.557 372.038 271.557 373.047ZM444.261 377.587C443.756 378.092 442.579 377.924 441.57 377.251C440.393 376.578 440.393 375.569 441.906 373.888C443.588 372.038 444.093 372.038 444.429 374.224C444.765 375.569 444.597 377.083 444.261 377.587ZM34.9516 375.906C40.8373 377.083 42.6871 379.773 37.474 379.773C35.2879 379.773 32.0928 380.11 30.243 380.614C26.2071 381.623 20.1532 377.419 21.8348 374.729C22.5075 373.551 24.5254 373.215 26.7116 373.888C28.5614 374.56 32.2609 375.401 34.9516 375.906ZM196.725 374.729C197.734 376.41 187.307 381.96 185.962 380.446C185.289 379.773 192.857 373.215 194.538 373.047C195.211 373.047 196.22 373.888 196.725 374.729ZM405.751 376.41C432.153 379.269 459.227 385.995 463.095 390.536C465.617 393.563 463.768 397.935 458.555 400.626C454.855 402.644 453.173 402.475 445.438 398.944C434.844 394.235 416.346 390.704 414.159 392.89C413.15 393.899 416.682 395.244 423.072 396.422C428.958 397.599 436.693 399.785 440.561 401.298L447.288 403.989L440.561 406.007C436.693 407.184 422.736 408.193 407.097 408.193L380.527 408.361L381.536 404.493C382.04 402.475 382.545 399.112 382.545 396.926C382.545 393.395 383.217 393.226 395.157 393.226C402.388 393.226 407.769 392.554 407.769 391.545C407.769 390.536 402.388 389.863 395.157 389.863C382.881 389.863 382.377 389.695 380.695 385.323C379.686 382.632 377.668 379.269 376.323 377.755C373.8 374.897 374.137 374.729 381.536 374.729C385.908 374.729 396.671 375.569 405.751 376.41ZM356.143 391.713C320.493 397.262 321.838 397.094 319.147 394.404C314.775 390.031 317.634 387.341 328.901 384.986C334.786 383.809 342.017 381.96 344.708 380.614C349.417 378.596 350.089 378.764 356.143 384.65L362.533 390.704L356.143 391.713ZM313.934 391.881C314.439 396.758 315.616 397.935 324.024 402.139C333.105 406.511 347.903 410.211 366.233 412.565C370.773 413.238 374.137 414.079 373.632 414.415C373.128 414.92 364.215 414.079 353.789 412.733C343.363 411.22 327.555 410.043 318.811 410.043C303.844 410.043 303.004 409.875 306.535 407.352C312.925 402.98 313.766 399.449 310.403 392.554C307.376 386.668 307.376 386.5 310.235 386.5C312.589 386.5 313.598 388.013 313.934 391.881ZM368.251 399.953C369.596 402.644 370.773 405.502 370.773 406.343C370.773 408.361 348.576 405.502 337.141 402.139C327.219 399.112 327.555 398.944 343.026 396.758C362.365 393.899 365.392 394.404 368.251 399.953ZM167.632 408.529C168.978 409.37 165.951 410.043 160.569 409.875C151.489 409.875 151.489 409.875 155.861 407.52C158.383 406.175 160.906 403.316 161.578 401.298C162.756 397.599 162.924 397.599 164.101 402.307C164.942 404.998 166.455 407.857 167.632 408.529ZM466.29 414.751C465.113 434.258 458.386 447.711 448.801 449.225C447.119 449.393 444.597 450.402 443.252 451.075C439.72 453.261 407.769 459.483 406.76 458.306C406.592 458.137 406.088 453.429 405.919 447.88L405.247 437.79L416.177 436.613C433.33 434.763 461.581 423.328 461.581 418.451C461.581 416.097 460.741 416.265 451.828 420.805C441.738 425.85 424.249 431.4 414.159 432.913C406.928 433.754 405.919 433.586 402.388 429.55C400.202 427.027 393.98 423.328 388.431 420.973C382.881 418.787 378.173 416.097 377.836 415.256C377.332 413.911 385.908 413.406 404.07 413.406C434.003 413.406 451.324 410.547 460.404 404.157C463.263 401.971 466.122 400.121 466.458 400.121C466.795 399.953 466.795 406.511 466.29 414.751ZM120.21 405.839C128.114 407.184 134.84 408.361 135.177 408.361C135.681 408.361 135.177 409.202 134 410.379C132.991 411.388 125.423 413.742 117.352 415.592C92.9678 420.973 44.705 418.619 23.012 411.052L16.7899 408.866L26.0389 406.68C48.2364 401.298 92.6315 400.962 120.21 405.839ZM148.125 405.839C144.258 408.866 140.558 409.034 137.027 406.511C135.177 405.166 135.681 404.998 139.549 405.671C142.408 406.175 145.771 406.007 147.116 404.998C150.984 402.475 151.657 403.148 148.125 405.839ZM5.85933 409.37C5.85933 410.884 6.8683 411.724 8.04545 411.22C9.05443 410.884 12.754 411.893 16.1173 413.574C24.5254 417.778 55.8038 423.496 71.1066 423.496L84.0552 423.664L77.8332 427.027C74.3017 428.709 70.7703 431.736 69.9295 433.417C68.0797 436.781 67.7434 436.781 43.696 431.904C28.5614 428.709 12.754 423.832 6.02749 420.301C3.33688 418.787 2.49606 416.769 2.49606 411.556C2.49606 407.52 3.16871 405.166 4.17769 405.839C5.18667 406.343 5.85933 408.025 5.85933 409.37ZM191.007 421.814C195.716 427.027 201.601 429.045 220.267 431.904C226.658 432.913 232.207 434.09 232.711 434.595C234.057 435.94 229.516 443.675 227.33 443.675C226.153 443.675 222.117 442.162 218.418 440.48C195.043 429.213 138.876 426.859 107.934 435.94C99.6944 438.462 90.9499 441.489 88.4274 442.835C84.2234 444.853 83.2144 444.853 78.674 441.994C67.9115 435.435 69.9295 432.24 88.2593 426.859C115.334 418.787 145.435 414.92 170.659 416.097C185.626 416.769 186.803 417.106 191.007 421.814ZM187.307 437.79C197.565 439.135 209.337 441.657 213.205 443.339L220.267 446.534L208.496 448.552C166.791 455.951 146.276 456.456 109.616 451.243C87.2503 447.88 85.4005 446.534 98.3491 443.003C127.105 434.931 153.843 433.417 187.307 437.79ZM368.251 442.835C378.509 444.18 388.599 445.862 390.953 446.702L394.989 448.216L390.953 450.402C369.428 461.837 305.526 463.687 268.362 453.933C261.636 452.084 255.245 449.897 254.404 449.057C252.555 447.207 267.689 443.339 287.533 440.48C300.313 438.462 344.035 439.808 368.251 442.835ZM82.2054 507.914C82.7099 521.199 83.7189 537.006 84.3915 543.228C85.0642 552.309 84.896 554.663 83.0462 554.663C81.1964 554.663 80.5238 548.441 80.1874 522.208C80.0193 504.551 79.3466 488.575 78.8421 486.893C78.3377 485.38 78.674 484.035 79.5148 484.035C80.3556 484.035 81.5328 494.797 82.2054 507.914ZM88.7638 496.142C89.7727 504.046 88.9319 506.4 86.5776 502.533C84.5597 499.337 84.3915 489.079 86.4095 489.079C87.0821 489.079 88.2593 492.275 88.7638 496.142ZM376.659 523.889C375.65 529.439 375.65 529.439 365.897 529.439C354.63 529.439 342.186 525.571 337.813 520.862C333.946 516.658 335.795 514.808 347.567 510.773C352.444 509.091 356.311 507.073 356.143 506.064C355.975 505.223 357.657 504.214 359.843 503.71C364.047 503.037 365.56 504.719 362.365 506.737C359.002 508.923 360.852 510.941 366.233 510.941C373.128 510.941 375.65 508.418 376.155 501.692C376.323 499.001 376.827 501.524 377.164 507.577C377.5 513.631 377.164 521.03 376.659 523.889ZM372.455 505.055C372.455 508.082 371.782 508.923 369.933 508.25C367.074 507.073 367.074 507.073 368.419 503.542C369.933 499.506 372.455 500.346 372.455 505.055ZM116.511 508.923C120.547 510.773 121.892 512.286 121.556 514.977C120.883 519.349 113.82 521.871 97.8446 523.553L86.5776 524.73V517.835C86.5776 512.118 87.0821 510.941 89.9409 510.941C92.127 510.941 93.3042 509.764 93.3042 507.577C93.3042 504.719 94.145 504.551 102.217 505.391C106.925 505.896 113.484 507.409 116.511 508.923ZM157.542 508.418C157.038 511.782 155.861 512.622 152.329 512.454C148.462 512.118 148.294 512.118 151.825 511.445C155.861 510.604 156.87 506.737 153.507 505.391C152.329 504.887 153.002 504.382 154.852 504.382C157.711 504.214 158.215 505.055 157.542 508.418ZM325.033 511.277C324.697 513.295 323.351 515.313 322.006 515.649C319.82 516.49 319.82 516.154 321.67 513.799C323.015 512.286 323.52 510.268 322.847 509.259C322.342 508.418 322.679 507.577 323.688 507.577C324.697 507.577 325.369 509.259 325.033 511.277Z" fill="#FEFAEF"></path><path d="M177.722 266.93C178.058 268.107 178.899 268.948 179.572 268.948C181.59 268.78 181.085 266.426 179.067 265.585C177.89 265.249 177.217 265.921 177.722 266.93Z" fill="#FEFAEF"></path><path d="M295.436 259.035C296.445 262.062 299.64 262.567 299.64 259.54C299.64 258.194 298.463 257.017 297.286 257.017C295.941 257.017 295.1 257.858 295.436 259.035Z" fill="#FEFAEF"></path><path d="M282.488 273.997C283.665 275.847 288.373 276.015 288.373 274.166C288.373 273.493 286.86 272.82 285.01 272.652C283.16 272.484 281.983 272.988 282.488 273.997Z" fill="#FEFAEF"></path><path d="M199.078 395.751C192.016 397.937 183.944 400.964 181.421 402.478C175.872 405.505 177.217 405.337 197.397 399.115C205.132 396.76 213.54 394.91 216.231 394.91C218.754 394.91 221.444 394.07 221.949 393.229C223.798 390.37 212.531 391.547 199.078 395.751Z" fill="#FEFAEF"></path><path d="M225.648 399.448C223.462 401.466 224.471 404.997 226.993 404.997C228.339 404.997 229.516 406.174 229.516 407.52C229.516 410.883 239.437 410.883 243.978 407.52C247.173 405.165 247.005 405.165 243.473 404.997C241.287 404.997 239.606 404.156 239.606 403.315C239.606 402.306 238.092 401.634 236.242 401.634C234.393 401.634 232.879 400.793 232.879 399.952C232.879 398.102 227.33 397.598 225.648 399.448Z" fill="#FEFAEF"></path><path d="M461.077 412.395C462.758 414.581 464.44 415.759 464.608 414.918C465.449 412.9 461.749 408.359 459.563 408.359C458.722 408.359 459.395 410.209 461.077 412.395Z" fill="#FEFAEF"></path><path d="M363.205 514.128C362.701 514.968 363.205 516.314 364.046 516.818C366.569 518.332 374.136 516.314 374.136 514.296C374.136 512.11 364.551 512.11 363.205 514.128Z" fill="#FEFAEF"></path><path d="M369.091 218.332C372.286 220.518 374.136 220.518 374.136 218.332C374.136 217.323 372.454 216.65 370.436 216.65C367.241 216.65 367.073 216.987 369.091 218.332Z" fill="#FEFAEF"></path><path d="M88.5949 233.805C89.6038 236.832 93.3034 237.336 93.3034 234.477C93.3034 232.964 92.1263 231.787 90.6128 231.787C89.0993 231.787 88.2585 232.628 88.5949 233.805Z" fill="#FEFAEF"></path><path d="M111.802 242.555C111.802 244.068 112.979 245.245 114.493 245.245C116.006 245.245 116.847 244.404 116.511 243.227C115.502 240.2 111.802 239.696 111.802 242.555Z" fill="#FEFAEF"></path><path d="M364.047 244.4C364.047 245.914 364.888 246.923 365.897 246.587C366.906 246.25 367.746 245.241 367.746 244.4C367.746 243.56 366.906 242.551 365.897 242.214C364.888 241.878 364.047 242.887 364.047 244.4Z" fill="#FEFAEF"></path><path d="M76.488 457.633C76.488 463.182 85.737 468.227 105.748 473.44C117.856 476.467 125.255 477.308 143.081 477.308C176.545 477.308 217.577 469.74 226.49 462.005C228.508 460.155 229.18 458.978 227.835 459.482C199.752 468.731 176.881 472.263 144.09 472.263C120.883 472.263 117.688 471.758 92.968 465.368C89.6048 464.527 84.3917 461.837 81.5329 459.482C78.0015 456.455 76.488 455.951 76.488 457.633Z" fill="#FEFAEF"></path><path d="M212.7 478.985C212.7 479.826 213.877 480.667 215.223 480.667C216.568 480.667 217.745 479.826 217.745 478.985C217.745 477.976 216.568 477.304 215.223 477.304C213.877 477.304 212.7 477.976 212.7 478.985Z" fill="#FEFAEF"></path><path d="M390.953 506.392C390.953 507.906 393.139 509.251 396.503 509.924C403.229 511.269 409.451 515.305 409.451 518.668C409.451 521.023 408.274 521.695 396.503 526.067C390.113 528.422 389.272 531.112 394.989 531.112C401.716 531.112 409.115 527.749 411.974 523.209C417.523 514.8 411.637 507.738 397.175 505.047C392.299 504.038 390.953 504.374 390.953 506.392Z" fill="#FEFAEF"></path><path d="M92.4633 549.611C90.6135 552.637 92.7997 553.646 106.253 555.833C119.369 557.851 125.255 561.214 125.255 566.763C125.255 575.003 92.6315 581.73 68.9205 578.366C37.1377 573.994 33.2699 565.418 58.8307 556.169C71.2748 551.628 73.7972 549.611 66.9025 549.611C55.2993 549.611 37.8103 560.709 37.8103 567.94C37.8103 576.517 60.0078 584.925 82.3735 584.925C96.4992 584.925 114.661 580.721 122.228 575.676C127.441 572.144 128.618 570.463 128.618 565.922C128.618 556.505 120.378 551.46 101.376 548.77C96.3311 548.097 93.136 548.433 92.4633 549.611Z" fill="#FEFAEF"></path><path d="M122.732 601.745C102.385 608.303 94.4809 620.243 104.403 629.492C109.616 634.369 116.51 636.386 133.999 638.741C174.527 643.954 204.291 636.386 204.291 620.747C204.291 615.534 200.256 608.64 194.874 604.604C190.166 601.072 172.509 597.373 168.305 598.886C163.596 600.736 166.791 603.09 175.367 604.435C185.625 605.781 193.529 609.48 197.565 614.862C201.937 620.243 201.769 622.597 197.229 626.801C190.166 633.528 177.049 635.882 152.161 634.873C139.717 634.369 125.591 633.023 121.051 632.014C110.288 629.66 102.553 623.942 104.066 619.234C105.58 614.357 115.838 608.64 128.786 605.276C135.345 603.595 140.558 601.577 140.558 600.736C140.558 598.045 132.99 598.382 122.732 601.745Z" fill="#FEFAEF"></path></svg> 