<?xml version="1.0" encoding="UTF-8"?> <svg xmlns="http://www.w3.org/2000/svg" width="61" height="52" viewBox="0 0 61 52" fill="none"><path d="M30.2087 14.7901C23.99 6.63674 9.78385 -6.35334 2.70839 6.91313C-6.13592 23.4962 22.1679 47.5132 30.4594 50.4152" stroke="#771919" stroke-width="2.03291" stroke-linecap="round"></path><path d="M30.1831 14.7901C36.4017 6.63674 50.6079 -6.35334 57.6834 6.91313C66.5277 23.4962 38.6128 47.5132 30.3212 50.4152" stroke="#771919" stroke-width="2.4395" stroke-linecap="round"></path><path d="M30.4661 27.3711C30.8409 27.2105 31.6229 26.8065 32.716 26.2529C34.2642 25.4687 35.4096 25.1825 36.0748 25.0324C36.221 24.9994 36.3847 25.0186 36.4273 25.0588C36.5191 25.1454 36.2533 25.3423 35.5431 25.9057C34.9044 26.4123 33.6282 27.2722 32.7391 27.9682C31.8501 28.6642 31.3682 29.146 31.0664 29.4344C30.7647 29.7228 30.6576 29.8031 31.0174 29.6169C31.3771 29.4308 32.207 28.9757 33.3974 28.4602C34.5879 27.9447 36.1137 27.3825 36.8463 27.1464C37.5788 26.9104 37.4717 27.0174 37.363 27.1128C36.8 27.6064 35.8233 27.9649 34.8925 28.3559C34.4523 28.5408 33.7256 28.7988 32.9517 29.0438C30.4573 29.8335 30.0086 29.9394 29.7632 30.0343C29.3843 30.1809 30.5992 29.8859 31.2072 29.7918C31.571 29.6977 33.0222 29.5087 35.116 29.3059C35.9515 29.2369 36.3263 29.2369 36.7124 29.2369" stroke="#771919" stroke-width="0.813165" stroke-linecap="round"></path><path d="M26.3705 23.7393C25.9837 23.055 25.8649 22.8469 25.7085 22.6606C25.5474 22.4687 25.4629 22.2663 25.351 22.0874C25.2497 21.9254 25.2539 21.524 25.2909 21.2167C25.3276 20.9126 25.4022 20.6441 25.477 20.3978C25.5379 20.197 25.596 19.9884 25.6556 19.7725C25.709 19.579 25.8193 19.4078 25.8716 19.2142C25.9379 18.9685 25.9238 18.4583 25.8794 18.105C25.8485 17.8594 25.671 17.6659 25.5743 17.4871C25.4743 17.3021 25.3736 17.0853 25.2543 16.8694C25.151 16.6823 25.002 16.4752 24.845 16.2738C24.6556 16.0308 24.4213 15.7901 23.9307 15.3073C23.6697 15.0504 23.5424 14.8522 23.4084 14.6659C23.2388 14.4302 23.0368 14.2421 22.8056 14.0406C22.5819 13.8456 22.441 13.6016 22.3065 13.4227C22.1651 13.2345 21.9649 12.962 21.7782 12.7528C21.6322 12.5891 21.4736 12.3957 21.2353 12.1355C20.8329 11.6961 20.5356 11.5176 20.2824 11.3532C19.9871 11.1616 19.8505 11.0254 19.4492 10.7804C19.2399 10.6527 19.0912 10.5341 18.8308 10.3115C18.5697 10.0882 18.3319 9.84986 18.1604 9.70806C18.006 9.58037 17.7227 9.32998 17.4387 9.09036C17.2108 8.89814 16.9626 8.73328 16.5758 8.37642C16.3291 8.1488 16.0836 8.01867 15.8904 7.89919C15.5179 7.6688 15.2948 7.497 15.1086 7.38556C14.778 7.18776 14.4016 6.96104 14.1191 6.79779C13.7465 6.58251 13.553 6.46974 13.3223 6.33598C12.9908 6.14376 12.5114 6.06777 12.2874 6.00815C12.0358 5.94116 11.7968 5.88912 11.4839 5.83686C11.2937 5.80509 11.0965 5.79979 10.653 5.75513C9.00519 5.58919 8.7597 5.81408 8.51338 5.88108C8.31059 5.93623 8.11922 6.06688 7.84365 6.23057C7.59977 6.37544 7.46357 6.54299 7.24807 6.75871C6.87014 7.13703 6.67481 7.58454 6.45886 7.98629C6.21628 8.43759 6.12367 8.81993 6.01178 9.05173C5.91129 9.25993 5.78155 9.68193 5.64711 10.0118C5.51012 10.3479 5.37958 10.769 5.25251 11.0913C5.17623 11.2847 5.08212 11.7659 4.9843 12.163C4.92826 12.3905 4.88739 12.6315 4.84295 12.8926C4.79361 13.1824 4.76858 13.4801 4.71632 13.8738C4.59365 14.7981 4.78287 15.0433 4.8425 15.3785C4.89199 15.6568 4.96153 15.9214 5.03589 16.3383C5.11726 16.7945 5.27328 17.2595 5.34139 17.6121C5.38897 17.8585 5.4823 18.1849 5.52741 18.4455C5.58975 18.8057 5.75028 19.1515 5.86953 19.4728C5.99346 19.8068 6.10759 20.1046 6.22684 20.4107C6.35612 20.7426 6.46489 21.013 6.57678 21.2745C6.66224 21.4743 6.77754 21.6839 6.86709 21.8775C6.98749 22.1378 7.11966 22.3386 7.23176 22.5919C7.37627 22.9183 7.49215 23.1131 7.6114 23.3661C7.74853 23.6571 8.35237 24.2565 8.73491 24.5872C8.9743 24.7942 9.35104 24.9738 9.67284 25.0937C9.82195 25.1493 10.155 25.3016 11.1686 25.5682C11.9126 25.7639 13.1403 26.0117 13.8147 26.1632C14.7711 26.3779 15.1876 26.4039 15.6495 26.4932C15.7679 26.5161 15.8871 26.5084 16.3089 26.5231C16.7308 26.5379 17.453 26.5674 17.8913 26.5752C18.7782 26.591 19.2824 26.3601 19.7062 26.0265C20.4015 25.4792 20.3552 24.9622 20.4744 24.56C20.5809 24.2011 20.5642 23.6236 20.4684 22.8078C20.4117 22.3248 20.181 21.7267 19.9718 21.2238C19.7625 20.7209 19.5414 20.3377 19.2654 19.9413C18.9894 19.5449 18.6651 19.147 18.0928 18.5882C17.5204 18.0295 16.7098 17.322 16.2185 16.906C15.5903 16.3741 15.1921 16.1478 14.7906 15.9321C14.4035 15.7241 14.1488 15.6704 13.9324 15.6476C13.7219 15.6255 13.9237 16.1152 14.0501 16.561C14.3205 17.5146 14.7419 17.8276 14.9878 18.0217C15.1186 18.125 15.2636 18.1711 15.375 18.1861C15.427 18.193 15.4717 18.1715 15.5092 18.1271C15.693 17.9094 15.6361 17.5623 15.6439 17.168C15.6485 16.9369 15.4297 16.4038 15.1175 15.7048C14.9185 15.2592 14.5816 14.8097 14.0771 14.1713C13.5111 13.4549 12.9875 13.0656 12.6394 12.8358C11.6946 12.2122 11.4386 12.2461 11.3419 12.2679C11.2096 12.2979 11.2742 12.5725 11.289 12.8097C11.3112 13.1668 11.4667 13.8048 11.7557 14.7546C11.9171 15.285 12.2068 15.8812 12.5277 16.4578C13.162 17.5975 13.6557 18.1559 13.7966 18.2745C14.1479 18.5701 14.281 18.7066 14.3703 18.8475C14.4708 19.006 14.2828 19.6106 14.0894 20.4357C13.9561 21.0044 13.954 21.4592 13.9614 21.8458C13.9666 22.1153 14.0871 22.4418 14.2653 22.8505C14.417 23.1983 14.6968 23.4847 15.1119 23.7817C15.351 23.9527 15.704 24.0787 16.5271 24.221C17.3502 24.3632 18.6473 24.4959 20.3545 24.5052C22.0618 24.5146 24.14 24.3967 25.3506 24.3139C26.5612 24.231 26.8412 24.1868 27.1697 24.1124C27.8712 23.9536 28.3495 23.7844 28.5574 23.7026C29.0977 23.4902 29.6746 23.2783 29.883 23.1222C30.25 22.8473 30.3598 22.5941 30.4717 22.3853C30.6528 22.0473 30.8806 21.6115 31.0076 21.3804C31.1058 21.2019 31.2084 20.9862 31.2906 20.7922C31.3726 20.5985 31.4317 20.3609 31.5436 20.1669C31.639 20.0013 31.6702 19.8098 31.7669 19.6309C31.8578 19.4628 31.8935 19.2738 31.9531 19.095C32.0128 18.9161 32.1017 18.7379 32.2946 18.4927C32.7349 17.9331 32.9056 17.7999 33.0248 17.6211C33.1441 17.4422 33.2334 17.264 33.3375 17.0851C33.4456 16.8993 33.605 16.728 33.7395 16.5491C33.8668 16.3798 34.0222 16.2367 34.1785 16.0949C34.3348 15.9531 34.4983 15.7901 34.6698 15.6112C34.8198 15.4547 34.9896 15.2988 35.124 15.1199C35.2532 14.9481 35.3916 14.7923 35.5334 14.6286C35.689 14.449 35.8382 14.2715 36.0171 14.063C36.1545 13.9027 36.2848 13.7651 36.4266 13.6014C36.582 13.4221 36.8056 13.2595 36.9773 13.0507C37.195 12.786 37.4014 12.6342 37.5803 12.4475C37.7381 12.2828 37.9374 12.1572 38.0792 12.0009C38.2983 11.7593 38.652 11.4872 38.8235 11.3606C38.9933 11.2352 39.1433 11.0558 39.3222 10.914C39.5084 10.7663 39.6792 10.6386 39.8952 10.4526C40.0645 10.3068 40.334 10.2072 40.5649 10.0951C40.928 9.9188 41.1674 9.83468 42.0437 9.83379C42.5884 9.83323 42.761 10.2349 42.9325 10.5178C43.017 10.6571 43.0299 11.0223 43.0151 11.5055C43.0053 11.8295 42.7932 12.2871 42.2603 13.2945C41.8996 13.9766 41.2559 14.9504 39.9716 16.6382C38.6873 18.3261 36.7565 20.6843 35.7102 21.9802C34.664 23.2761 34.5608 23.4382 34.4487 23.5881C34.2305 23.8798 33.9351 24.2136 33.6526 24.5852C33.2837 25.0705 32.6725 25.8769 32.4371 26.2996C32.3977 26.3702 32.6966 26.2261 33.0595 25.9968C33.7028 25.5902 34.1705 25.1989 34.4154 25.0653C34.6847 24.9186 35.4014 24.5459 36.2725 24.1734C36.5496 24.0549 36.5099 24.1252 36.1187 24.4724C35.7274 24.8197 34.9905 25.4534 34.4487 25.8905C33.9069 26.3275 33.5827 26.5486 33.2462 26.7509C32.1378 27.4173 31.7461 27.5053 31.5592 27.5135C31.3679 27.522 31.9069 27.1203 32.1017 26.9037C32.3094 26.6725 32.651 26.3914 32.7723 26.1591C32.7909 26.1235 32.7135 26.0921 32.6539 26.0769C32.2217 25.9669 31.5974 26.24 30.7479 26.4544C30.0335 26.6346 28.734 26.9193 27.8006 27.0712C26.8671 27.223 26.3365 27.223 25.9968 27.2083C25.5245 27.1641 25.2257 27.06 24.9653 26.9262C24.8671 26.8662 24.8376 26.8219 24.8072 26.6424" stroke="#771919" stroke-width="8.94482" stroke-linecap="round"></path><path d="M22.1721 25.3015C22.1721 25.3309 22.1721 25.3604 22.2827 25.9136C22.3932 26.4667 22.6143 27.5427 22.7798 28.4654C22.9453 29.3882 23.0484 30.1251 23.1016 30.5637C23.1688 31.1187 23.2137 31.6691 23.3251 32.3831C23.4616 33.2577 23.6014 34.1421 23.6087 34.4999C23.6118 34.6506 23.5281 33.9394 23.3564 33.469C23.2665 33.2228 23.0958 32.9702 22.8664 32.5036C22.7068 32.179 22.416 31.6981 22.0728 31.1897C21.7295 30.6812 21.3316 30.1653 21.0529 29.8332C20.6476 29.3503 20.357 29.0992 19.8467 28.6255C19.4657 28.2719 18.7911 27.7392 18.3831 27.414C17.8508 26.9898 17.6174 26.8209 17.4318 26.6574C17.0028 26.2795 16.1328 25.7365 15.6156 25.4511C15.1594 25.1993 14.9528 25.079 14.6772 24.9002C14.3972 24.7184 14.2078 24.4243 13.9775 24.2155C13.6786 23.9444 13.2279 23.8437 12.7422 23.7976C12.6082 23.785 12.5253 23.9312 12.4509 24.0426C12.2928 24.2796 12.3462 25.0438 12.4199 26.0308C12.4598 26.5646 12.641 27.1505 12.8348 27.7416C13.222 28.9224 13.5664 29.5882 13.6778 29.7517C13.7709 29.8882 13.8496 29.9907 13.9016 30.0282C14.1277 30.1912 13.9246 29.3667 13.8279 29.1805C13.5814 28.7057 13.2404 27.8785 13.0986 27.5878C12.9618 27.3073 12.6017 26.8531 12.2209 26.36C11.9661 26.0299 11.6772 25.8678 11.4538 25.7041C11.2228 25.5347 11.0519 25.406 10.873 25.3019C10.6196 25.1545 10.3368 25.004 10.2551 24.9888C9.97599 24.937 10.2167 25.6427 10.4025 26.207C10.6126 26.8452 10.7973 27.0273 11.0202 27.3176C11.2678 27.6402 11.4672 27.7124 11.6383 27.8098C11.6906 27.8321 11.7495 27.8616 11.802 27.8841C11.8545 27.9067 11.8987 27.9214 11.9442 27.9366" stroke="#771919" stroke-width="8.94482" stroke-linecap="round"></path><path d="M25.4323 32.262C25.4471 32.262 25.4618 32.262 25.8231 32.6747C26.1845 33.0874 26.8919 33.9127 27.2785 34.3527C27.7688 34.9107 27.9326 35.0159 28.1115 35.0758C28.1561 35.0907 28.2006 35.0025 28.2233 34.9058C28.2762 34.6815 28.1872 34.2303 28.1052 33.5402C28.0082 32.7232 28.1269 32.1588 28.1713 31.9435C28.1948 31.83 28.2452 31.7135 28.3122 31.9475C28.3792 32.1816 28.4676 32.7711 28.5132 33.1928C28.584 33.848 28.5145 34.5206 28.4107 35.2345C28.3474 35.6698 28.1572 35.8493 28.0681 35.9534C27.9926 36.0417 27.8598 36.0731 27.6965 36.0954C27.5054 36.1216 27.1027 35.8819 26.6193 35.5101C26.3455 35.2996 26.0451 35.0182 25.1351 34.1751C24.4474 33.538 23.3555 32.4183 22.6902 31.7825C21.8581 30.9873 21.577 30.8627 21.4361 30.8403C21.3548 30.8275 21.2509 30.8328 21.1831 30.8622C20.9474 30.9645 20.9964 31.6179 20.9513 32.1709C20.9106 32.669 20.6551 33.5215 20.3566 34.2922C20.2883 34.4682 20.1625 34.5246 20.066 34.5767C20.0159 34.6037 19.9548 34.614 19.8876 34.5994C19.594 34.536 19.4778 34.2432 18.8865 33.5181C18.4562 32.9905 17.618 32.0431 17.1781 31.5201C16.5117 30.7279 16.0995 30.1646 15.8009 29.7919C15.6156 29.5606 15.4876 29.404 15.4208 29.3296C15.3888 29.2939 15.3393 29.2847 15.3092 29.3213C15.0984 29.5774 15.1303 30.0565 15.0633 30.3035C15.0312 30.4219 14.9664 30.5197 14.9219 30.594C14.9002 30.6304 14.848 30.6389 14.8031 30.6391C14.5705 30.6403 14.2388 30.2387 13.9918 30.0295C13.7863 29.8553 13.6421 29.6724 13.4632 29.4638C13.3122 29.2877 13.0329 28.9739 12.7562 28.7416C12.7068 28.7001 12.6595 28.6746 12.6441 28.6963C12.5104 28.8843 12.6881 29.1641 12.718 29.4694C12.7449 29.7436 12.9552 30.1753 13.0677 30.4375C13.1846 30.7096 13.4465 31.0248 13.6479 31.3156C13.8226 31.5677 14.1155 31.9609 14.3478 32.2687C14.4988 32.4687 14.6229 32.6336 14.7573 32.8343C14.8966 33.0422 15.1437 33.2732 15.3672 33.5708C15.6779 33.9845 15.9181 34.1968 16.0673 34.3752C16.2985 34.6518 16.5282 34.9552 16.7149 35.1274C16.9241 35.3203 17.1687 35.5814 17.3474 35.7819C17.6806 36.1559 17.8539 36.2808 18.0175 36.4523C18.1672 36.6091 18.33 36.7426 18.568 36.9878C18.8598 37.2884 19.1339 37.4572 19.4611 37.7545C19.6362 37.9135 19.8923 38.0968 20.3168 38.365C20.6405 38.5695 20.8758 38.723 21.2248 38.9083C21.7568 39.1908 21.903 39.3626 22.2079 39.5859C22.504 39.8028 22.7659 40.0173 23.3459 40.3967C23.6354 40.5861 23.853 40.7623 24.1583 40.9854C24.3475 41.1237 24.6266 41.3126 24.8881 41.4251C25.1297 41.5291 25.3868 41.7297 25.5878 41.8418C25.8826 42.0063 26.2336 42.2201 26.5406 42.4001C26.7669 42.5327 27.142 42.7864 27.4413 42.9434C27.752 43.1064 28.096 43.3081 28.2975 43.4274C28.5272 43.5634 28.7365 43.7396 28.9154 43.8296C29.0838 43.9143 29.2725 43.9781 29.4514 44.0602C29.6362 44.1452 29.8084 44.2166 30.0244 44.3503C30.1952 44.4561 30.3448 44.4845 30.4118 44.4997C30.6289 44.5489 30.1832 43.7588 29.7754 42.9798C29.5417 42.5334 29.2055 42.0093 28.8689 41.2864C28.5324 40.5636 28.1934 39.6645 27.9672 38.9802C27.5988 37.866 27.5168 37.2804 27.4944 36.8954C27.4219 35.6449 27.6056 35.2553 27.68 35.091C27.7188 35.0053 27.8732 35.3571 28.1249 36.1258C28.326 36.74 28.5829 37.8377 28.9187 38.827C29.2546 39.8163 29.6378 40.6712 29.8352 41.1411C30.1755 41.9508 30.2113 42.6373 30.2484 42.8907C30.3089 43.3043 30.3006 43.7815 30.2562 44.1045C30.2237 44.3407 30.1372 44.5435 30.0405 44.7298C29.9362 44.9307 29.9138 45.1241 29.8542 45.3474C29.7871 45.5988 29.7647 45.8977 29.7276 46.1143C29.7187 46.1664 29.72 46.2255 29.7347 46.2338C29.8872 46.3193 29.9576 45.8852 30.099 45.5656C30.2822 45.1515 30.5525 44.8883 30.7466 44.6717C30.9356 44.4607 31.059 44.2326 31.312 43.9055C31.5383 43.6129 31.8183 43.2947 32.1528 42.886C32.2866 42.7226 32.4583 42.5064 32.6441 42.2239C32.7761 42.0232 33.0528 41.556 33.3875 40.9235C33.7028 40.328 34.0666 39.7225 34.2156 39.3722C34.3276 39.1088 34.3498 38.8882 34.4465 38.6497C34.5693 38.3468 34.6625 37.9208 34.7591 37.6524C34.9018 37.2564 35.0939 36.7158 35.4718 35.8842C35.6408 35.512 35.9961 34.9972 36.3253 34.5543C36.6544 34.1115 36.9787 33.7725 37.2563 33.5094C37.7389 33.052 38.2333 32.7546 38.694 32.5389C39.0462 32.374 39.3365 32.396 39.5223 32.4402C39.9006 32.5302 39.8139 33.4625 39.6362 34.5733C39.5798 34.9255 39.3977 35.1932 39.1388 35.7263C38.9548 36.1053 38.6 36.672 38.1674 37.2998C37.7348 37.9275 37.219 38.5908 36.9238 38.9619C36.5769 39.398 36.4057 39.5265 36.2272 39.6234C36.158 39.661 36.1078 39.6171 36.085 39.5725C36.0368 39.478 36.0769 39.3492 36.1214 39.2156C36.1779 39.0458 36.2703 38.8583 36.9856 37.4565C37.6531 36.1485 39.0127 33.6671 39.6815 32.3986C40.3503 31.1302 40.3061 31.1597 40.2539 31.2117C40.1349 31.3302 40.0229 31.5165 39.2409 32.5425C38.5302 33.4748 37.1323 35.2044 36.0501 36.4762C34.968 37.748 34.231 38.4997 33.7261 38.9827C32.9942 39.6829 32.6682 39.8695 32.6086 39.8402C32.5668 39.8197 32.6079 39.6931 33.3967 37.7754C34.1854 35.8578 35.7478 32.1289 36.9579 29.552C38.1681 26.9752 38.9787 25.6634 39.4184 24.9656C39.8581 24.2677 39.9024 24.2235 39.6819 24.466C39.4615 24.7085 38.9751 25.2391 38.4224 25.763C37.8697 26.2869 37.2654 26.788 36.5046 27.2968C35.7438 27.8055 34.8447 28.3066 34.0204 28.6974C33.1962 29.0882 32.4739 29.3535 32.0503 29.4902C31.6267 29.6268 31.5235 29.6268 31.4556 29.5753C31.3877 29.5237 31.3583 29.4205 31.3726 29.2863C31.4049 28.9827 31.595 28.646 31.8985 28.1275C32.1024 27.7791 32.4525 27.2847 34.3221 25.0515C36.1917 22.8184 39.5817 18.8683 41.4164 16.6787C43.2512 14.4891 43.4281 14.1796 43.5708 13.8875C43.8382 13.3401 43.9524 12.8946 43.9971 12.1994C44.0313 11.6673 44.0123 10.7673 44.0049 10.2599C43.9919 9.36158 43.789 8.74137 43.8408 8.48701C43.9033 8.18025 43.9971 7.92135 44.0938 7.74247C44.2 7.54596 44.3839 7.34073 44.577 7.11004C44.7226 6.93626 45.0525 6.80477 45.4018 6.65604C45.6684 6.54249 46.2557 6.53589 46.9701 6.52852C47.4808 6.52326 47.9561 6.46175 48.4172 6.43183C49.0007 6.39396 49.6238 6.38672 49.9661 6.49078C50.2404 6.57417 50.4876 6.7735 50.6294 6.93719C50.7924 7.12538 50.9047 7.33894 51.0016 7.53256C51.1386 7.80622 51.262 7.99371 51.507 8.40215C51.9415 9.12663 52.066 9.37827 52.4001 9.86867C52.7125 10.3273 52.8252 10.5994 52.9371 10.8153C53.055 11.0428 53.1977 11.314 53.3462 11.5373C53.4952 11.7613 53.5845 11.9393 53.6593 12.1626C53.6982 12.2787 53.7042 12.4011 53.719 12.4683C53.7312 12.524 53.7935 12.1952 53.7714 11.8017C53.7482 11.3888 53.468 10.6061 53.1703 9.69091C53.0325 9.2673 52.9164 8.69939 52.7303 7.94056C52.6388 7.56697 52.6323 7.38539 52.6544 7.33246C52.7348 7.14011 52.7958 7.7561 52.8552 7.91175C52.9396 8.13309 53.0923 8.73467 53.3378 9.47117C53.4625 9.84549 53.5698 10.063 53.6957 10.6029C53.7901 11.0075 53.8954 11.6883 53.9561 12.1333C54.0426 12.767 54.0463 13.0558 54.091 13.4551C54.2551 14.9226 54.0615 15.2586 54.0245 15.5494C53.9893 15.8252 53.8981 16.2109 53.8384 16.5394C53.7893 16.8101 53.7194 16.9862 53.6969 17.2763C53.688 17.39 53.6596 17.4927 53.5859 17.9137C53.5222 18.2775 53.3648 18.9389 53.2889 19.6859C53.2129 20.4329 53.2129 21.2435 53.2056 21.698C53.1945 22.3805 52.9753 22.7907 52.8561 23.0828C52.73 23.3916 52.5733 23.6259 52.417 23.8644C52.265 24.0964 52.0972 24.37 51.9184 24.631C51.7297 24.9063 51.6059 25.1891 51.4271 25.4647C51.3429 25.5944 51.204 25.7992 50.9152 26.2362C50.4302 26.9703 50.057 27.4526 49.9902 27.5714C49.7081 28.0734 49.0914 28.9837 48.7995 29.3133C48.4962 29.6559 47.8712 30.3674 47.5492 30.8091C47.1766 31.3201 46.7975 31.6653 46.1887 32.3926C45.8042 32.8521 45.266 33.287 44.7454 33.6367C44.5403 33.7745 44.4312 33.7948 44.3633 33.7879C44.2954 33.781 44.266 33.7368 44.3024 32.6896C44.3388 31.6425 44.4419 29.5938 44.8046 27.0277C45.1673 24.4615 45.7863 21.4401 46.1494 19.3087C46.5125 17.1774 46.601 16.0277 46.6613 15.3618C46.7595 14.2765 46.8698 13.5677 46.9154 13.2131C46.9199 13.1776 46.9154 13.3962 46.8491 13.9806C46.7827 14.565 46.6501 15.582 45.7932 18.2946C44.9364 21.0073 43.3593 25.3847 42.4216 27.8756C41.4839 30.3665 41.2333 30.8381 41.0821 31.1621C40.8606 31.637 40.7085 32.1101 40.4854 32.6231C40.2236 33.2251 39.9935 33.7037 39.6589 34.3734C39.4213 34.8491 39.3378 35.0597 39.2337 35.2611C39.0961 35.5275 38.9957 35.8636 38.9061 36.1169C38.8465 36.2856 38.7572 36.4594 38.6609 36.6892C38.5165 37.034 38.3405 37.3375 37.8829 38.1794C37.4848 38.9119 36.6884 40.2299 36.2196 41.0017C35.474 42.2293 35.2297 42.5033 35.0506 42.8383C34.9909 42.9498 34.9027 43.0973 34.8793 43.1069C34.7638 43.1542 35.2257 42.4787 35.6868 41.8836C36.1092 41.3385 36.5222 40.9133 36.8201 40.5709C36.9239 40.4517 37.0716 40.2898 37.7592 39.7125C38.4468 39.1352 39.6701 38.1477 40.3961 37.5506C41.3232 36.788 41.5701 36.5206 41.7036 36.3648C41.9751 36.0479 42.224 35.7922 42.4113 35.5677C42.5826 35.3446 42.7019 35.1209 42.7539 35.0318C42.7764 34.9869 42.7912 34.9427 42.8064 34.8971" stroke="#771919" stroke-width="8.94482" stroke-linecap="round"></path></svg> 