<?xml version="1.0" encoding="UTF-8"?> <svg xmlns="http://www.w3.org/2000/svg" width="154" height="155" viewBox="0 0 154 155" fill="none"><ellipse cx="78" cy="76.5" rx="66" ry="67.5" fill="#711717"></ellipse><path d="M72.3102 8.00552C46.3972 9.66715 21.1253 28.432 12.0409 52.8646C9.26359 60.5146 7.30098 75.9337 8.08748 83.9247C12.0261 121.175 45.5707 149.004 83.0547 145.884C107.429 143.914 131.2 126.311 140.42 103.474C143.558 95.6443 145.732 78.5613 144.896 68.3094C143.046 45.6415 126.3 23.1066 104.199 13.4172C95.9684 9.88957 81.8542 7.4167 72.3102 8.00552ZM101.349 16.3235C124.935 25.8637 140.933 48.0779 143.203 74.5194C143.893 82.3853 143.695 83.9383 140.886 93.6133C131.243 125.978 101.933 145.469 69.0978 141.29C37.8159 137.308 14.751 112.165 12.5771 79.6489C11.9459 70.4378 12.1436 68.8848 14.9109 59.5425C19.2575 44.8778 25.9093 35.1282 38.1499 25.7518C48.1538 18.007 57.5808 13.9088 69.2768 12.3539C77.3101 11.2346 93.8526 13.2275 101.349 16.3235Z" fill="#FEFAEF"></path><path d="M56.7958 35.9562C52.515 37.1246 51.6783 39.7392 50.5674 54.0095C49.0976 73.4748 48.9818 108.431 50.4135 111.435C52.7341 116.165 55.7743 115.242 77.5622 104.007C88.8971 98.0923 101.92 91.5866 106.624 89.4643C121.719 82.5168 125.249 78.5318 121.082 73.2647C118.733 70.3453 99.7508 57.9518 78.9207 45.827C62.2269 36.0428 60.0343 35.0582 56.7958 35.9562ZM77.9703 49.3342C105.03 64.7715 119.506 73.7696 120.383 75.5944C121.728 78.4867 119.604 80.1312 106.433 86.215C99.7054 89.1883 85.6405 95.9645 75.1009 101.174C64.5613 106.383 55.4011 110.256 54.7321 109.969C53.2337 109.073 53.0768 107.138 53.4143 83.9009C53.7571 58.2453 55.0827 42.2889 56.9219 40.5074C58.9722 38.652 60.3101 39.2254 77.9703 49.3342Z" fill="#FEFAEF"></path><path d="M73.3102 8.00552C47.3972 9.66715 22.1253 28.432 13.0409 52.8646C10.2636 60.5146 8.30098 75.9337 9.08748 83.9247C13.0261 121.175 46.5707 149.004 84.0547 145.884C108.429 143.914 132.2 126.311 141.42 103.474C144.558 95.6443 146.732 78.5613 145.896 68.3094C144.046 45.6415 127.3 23.1066 105.199 13.4172C96.9684 9.88957 82.8542 7.4167 73.3102 8.00552ZM102.349 16.3235C125.935 25.8637 141.933 48.0779 144.203 74.5194C144.893 82.3853 144.695 83.9383 141.886 93.6133C132.243 125.978 102.933 145.469 70.0978 141.29C38.8159 137.308 15.751 112.165 13.5771 79.6489C12.9459 70.4378 13.1436 68.8848 15.9109 59.5425C20.2575 44.8778 26.9093 35.1282 39.1499 25.7518C49.1538 18.007 58.5808 13.9088 70.2768 12.3539C78.3101 11.2346 94.8526 13.2275 102.349 16.3235Z" fill="#FEFAEF"></path><path d="M57.7958 35.964C53.515 37.1324 52.6783 39.747 51.5674 54.0174C50.0976 73.4827 49.9818 108.439 51.4135 111.443C53.7341 116.173 56.7743 115.25 78.5622 104.014C89.8971 98.1001 102.92 91.5944 107.624 89.4721C122.719 82.5246 126.249 78.5396 122.082 73.2725C119.733 70.3531 100.751 57.9597 79.9207 45.8348C63.2269 36.0506 61.0343 35.0661 57.7958 35.964ZM78.9703 49.342C106.03 64.7793 120.506 73.7774 121.383 75.6022C122.728 78.4945 120.604 80.139 107.433 86.2228C100.705 89.1961 86.6405 95.9723 76.1009 101.182C65.5613 106.391 56.4011 110.264 55.7321 109.977C54.2337 109.081 54.0768 107.146 54.4143 83.9087C54.7571 58.2531 56.0827 42.2967 57.9219 40.5152C59.9722 38.6598 61.3101 39.2332 78.9703 49.342Z" fill="#FEFAEF"></path></svg> 