<?xml version="1.0" encoding="UTF-8"?> <svg xmlns="http://www.w3.org/2000/svg" width="583" height="179" viewBox="0 0 583 179" fill="none"><path d="M148.074 2.76375C170.43 5.98374 183.402 15.3217 186.99 30.7777C190.118 44.2097 186.024 60.1717 174.708 78.6637C164.036 96.2357 149.96 111.232 132.48 123.652C113.896 136.9 96.784 143.294 81.144 142.834C75.9 142.742 70.104 141.914 63.756 140.35C61.272 139.706 58.512 138.924 55.476 138.004L51.474 136.762L47.61 135.52C40.066 140.948 30.636 143.34 19.32 142.696C12.512 142.328 7.49801 141.224 4.27801 139.384C1.42601 137.728 0.41401 135.75 1.24201 133.45C1.97801 131.15 4.18601 129.218 7.86601 127.654C11.914 125.814 16.744 124.848 22.356 124.756C28.612 124.664 36.662 126.228 46.506 129.448C49.266 126.964 52.486 123.238 56.166 118.27C59.202 114.222 63.342 108.242 68.586 100.33L71.622 95.7757L74.658 91.2217C76.958 87.8177 78.936 84.9657 80.592 82.6657C89.608 70.0617 96.738 63.8977 101.982 64.1737C102.718 64.2657 103.178 64.6797 103.362 65.4157C103.454 66.1517 103.224 66.6577 102.672 66.9337C100.74 66.4737 95.542 72.3617 87.078 84.5977C85.79 86.5297 83.904 89.3357 81.42 93.0157L78.384 97.4317L75.348 101.986C70.38 109.162 66.194 115.004 62.79 119.512C58.65 124.756 55.2 128.712 52.44 131.38C65.872 136.164 75.486 138.51 81.282 138.418C96.554 138.142 113.988 130.092 133.584 114.268C144.716 105.344 154.422 95.2237 162.702 83.9077C171.074 72.3157 176.686 61.2297 179.538 50.6497C182.574 39.2417 181.884 29.7197 177.468 22.0837C172.5 13.7117 163.208 8.32974 149.592 5.93775C135.792 3.54574 119.968 5.29374 102.12 11.1817C86.204 16.4257 71.254 23.9237 57.27 33.6757C45.402 42.0477 36.478 50.6497 30.498 59.4817C24.334 68.5897 22.31 76.6397 24.426 83.6317C25.714 87.5877 28.612 90.0717 33.12 91.0837C37.352 92.0957 41.584 91.4977 45.816 89.2897C46.828 88.6457 47.564 88.6457 48.024 89.2897C48.576 90.0257 48.346 90.7617 47.334 91.4977C41.814 96.0057 35.972 96.8337 29.808 93.9817C23.552 91.0377 20.286 85.7937 20.01 78.2497C19.642 68.0377 23.598 57.8257 31.878 47.6137C39.514 38.0457 50.048 29.4437 63.48 21.8077C76.636 14.2637 90.574 8.78975 105.294 5.38575C120.75 1.79774 135.01 0.923743 148.074 2.76375ZM20.01 138.97C28.566 139.062 35.742 137.222 41.538 133.45C33.074 130.782 26.496 129.448 21.804 129.448C10.948 129.448 5.15201 130.966 4.41601 134.002C4.14001 135.29 5.24401 136.394 7.72801 137.314C10.58 138.326 14.674 138.878 20.01 138.97ZM221.452 70.2457C227.616 69.2337 230.652 71.0737 230.56 75.7657C230.468 80.4577 227.754 86.9437 222.418 95.2237C217.45 102.952 213.218 107.966 209.722 110.266C206.502 112.29 203.144 112.198 199.648 109.99C196.428 107.874 194.726 105.252 194.542 102.124C188.194 109.852 182.904 117.074 178.672 123.79C169.84 139.522 166.39 150.102 168.322 155.53C165.194 155.898 163.354 155.024 162.802 152.908C160.962 146.468 167.356 131.334 181.984 107.506L186.124 100.744L188.194 97.4317L190.126 94.2577C193.162 89.2897 195.554 85.2877 197.302 82.2517C201.902 74.0637 204.018 68.5897 203.65 65.8297C205.03 65.1857 206.226 65.5997 207.238 67.0717C208.158 68.4517 208.434 70.0617 208.066 71.9017C207.606 75.3977 204.11 82.4817 197.578 93.1537C209.63 78.6177 217.588 70.9817 221.452 70.2457ZM205.03 107.92C207.698 107.092 212.298 101.066 218.83 89.8417C225.362 78.5257 227.294 72.7297 224.626 72.4537C223.522 72.3617 220.302 74.8457 214.966 79.9057C209.262 85.3337 203.42 91.5897 197.44 98.6737C198.176 101.71 199.28 104.148 200.752 105.988C202.224 107.736 203.65 108.38 205.03 107.92ZM282.449 92.3257C283.001 91.9577 283.507 91.9577 283.967 92.3257C284.335 92.6937 284.381 93.1077 284.105 93.5677C282.081 97.1557 279.137 100.606 275.273 103.918C271.961 106.678 267.959 108.886 263.267 110.542C258.207 112.29 253.561 112.934 249.329 112.474C242.337 111.83 237.599 108.242 235.115 101.71C232.999 95.9137 235.943 88.9217 243.947 80.7337C247.351 77.2377 250.893 74.5697 254.573 72.7297C258.529 70.7057 261.841 70.0157 264.509 70.6597C268.465 71.6717 270.719 73.5117 271.271 76.1797C271.731 78.6637 270.673 81.4237 268.097 84.4597C262.117 91.6357 253.101 96.0977 241.049 97.8457C240.313 101.342 240.819 104.102 242.567 106.126C245.971 109.806 251.123 110.634 258.023 108.61C260.599 107.782 263.313 106.632 266.165 105.16C268.557 103.872 270.673 102.492 272.513 101.02C274.721 99.3637 278.033 96.4657 282.449 92.3257ZM246.155 87.0817C244.315 89.5657 242.843 92.2797 241.739 95.2237C247.627 93.5677 253.607 89.8877 259.679 84.1837C265.659 78.4797 267.177 74.8917 264.233 73.4197C262.393 72.5917 259.173 74.1557 254.573 78.1117C252.825 79.6757 251.123 81.3777 249.467 83.2177C247.995 84.7817 246.891 86.0697 246.155 87.0817ZM377.292 92.3257C377.844 91.9577 378.35 91.9577 378.81 92.3257C379.178 92.6937 379.224 93.1077 378.948 93.5677C375.452 99.8237 369.886 105.206 362.25 109.714C354.246 114.406 346.702 116.43 339.618 115.786C332.81 115.142 328.118 111.508 325.542 104.884C325.174 103.596 324.99 102.584 324.99 101.848C315.79 110.128 305.394 113.67 293.802 112.474C286.81 111.83 282.072 108.196 279.588 101.572C277.472 95.8677 280.416 88.8757 288.42 80.5957C291.824 77.1917 295.366 74.5237 299.046 72.5917C303.002 70.5677 306.314 69.8777 308.982 70.5218C312.754 71.4417 315.192 73.4197 316.296 76.4557C317.216 79.1237 316.94 81.6537 315.468 84.0457C315.1 84.6897 314.548 85.0117 313.812 85.0117C313.076 85.0117 312.754 84.6437 312.846 83.9077C313.766 80.1357 313.076 77.0997 310.776 74.7997C308.844 72.8677 305.302 73.8797 300.15 77.8357C298.218 79.2157 296.286 80.8717 294.354 82.8037C292.698 84.5517 291.456 85.9777 290.628 87.0817C284.096 95.8217 282.578 102.124 286.074 105.988C288.834 108.84 293.112 109.944 298.908 109.3C307.924 108.38 317.078 103.826 326.37 95.6377C328.946 88.9217 333.73 82.4357 340.722 76.1797C347.898 69.7397 353.648 67.0257 357.972 68.0377C361.744 68.9577 364.136 70.8897 365.148 73.8337C366.068 76.4097 365.838 78.9397 364.458 81.4237C364.09 82.0677 363.538 82.3897 362.802 82.3897C362.066 82.4817 361.744 82.1597 361.836 81.4237C362.756 77.6517 362.066 74.5697 359.766 72.1777C357.834 70.2457 353.97 71.6717 348.174 76.4557C346.15 78.2037 344.034 80.1817 341.826 82.3897C339.986 84.3217 338.606 85.8857 337.686 87.0817C334.834 90.9457 332.81 94.9937 331.614 99.2257C330.142 104.01 330.28 107.322 332.028 109.162C334.788 112.106 339.02 113.256 344.724 112.612C350.796 111.968 356.822 109.438 362.802 105.022C364.826 103.458 367.31 101.388 370.254 98.8117L373.704 95.4997L377.292 92.3257ZM384.405 80.1817C386.613 78.6177 392.593 78.3877 402.345 79.4917L407.865 80.1817C410.165 80.4577 411.821 80.6417 412.833 80.7337C416.421 81.1937 418.767 81.2857 419.871 81.0097C420.239 80.9177 420.561 80.9637 420.837 81.1477C421.113 81.3317 421.297 81.6537 421.389 82.1137C421.481 82.4817 421.481 82.8037 421.389 83.0797C421.297 83.4477 421.067 83.6777 420.699 83.7697C419.319 84.2297 416.789 84.4137 413.109 84.3217C411.637 84.2297 409.843 84.1377 407.727 84.0457L402.069 83.6317C392.225 82.8957 386.751 82.8957 385.647 83.6317C385.555 83.9077 385.325 83.9537 384.957 83.7697C384.681 83.5857 384.451 83.3097 384.267 82.9417C383.991 82.4817 383.853 82.0217 383.853 81.5617C383.853 81.0097 384.037 80.5497 384.405 80.1817ZM455.85 63.4837C455.482 66.7957 454.286 70.0157 452.262 73.1437C450.238 76.2717 447.432 81.1937 443.844 87.9097C438.048 98.6737 434.414 107.046 432.942 113.026C437.726 104.746 445.5 95.5917 456.264 85.5637C467.672 74.9837 475.308 70.4297 479.172 71.9017C480.184 72.2697 481.058 72.8217 481.794 73.5577C482.622 74.2937 482.99 75.0757 482.898 75.9037C482.806 76.2717 482.622 76.4557 482.346 76.4557C481.978 76.5477 481.748 76.5017 481.656 76.3177C481.564 75.4897 481.242 75.1217 480.69 75.2137C476.366 75.5817 467.994 81.6537 455.574 93.4297H455.712C454.792 95.6377 454.102 99.1337 453.642 103.918C453.182 109.254 453.596 112.244 454.884 112.888C456.908 113.992 461.922 111.508 469.926 105.436C472.87 103.136 475.814 100.698 478.758 98.1217C481.426 95.7297 483.266 93.8897 484.278 92.6017C484.738 92.2337 485.198 92.2337 485.658 92.6017C486.026 92.9697 486.118 93.3837 485.934 93.8438L485.382 94.5337L484.692 95.3617L483.312 97.0177C482.116 98.4897 481.012 99.8237 480 101.02C477.056 104.424 474.296 107.23 471.72 109.438C464.36 115.786 458.242 117.672 453.366 115.096C448.766 112.612 447.064 107.736 448.26 100.468C438.324 110.772 433.08 117.718 432.528 121.306C431.976 121.858 431.148 121.95 430.044 121.582C429.032 121.214 428.388 120.662 428.112 119.926C425.536 114.314 429.308 102.354 439.428 84.0457C443.2 77.3297 446.236 72.0397 448.536 68.1757C450.928 64.2197 451.894 60.6317 451.434 57.4117C452.814 56.7677 454.01 57.1817 455.022 58.6537C455.942 60.1257 456.218 61.7357 455.85 63.4837ZM530.746 92.4637C531.022 92.1877 531.436 92.1877 531.988 92.4637C532.448 92.7397 532.54 93.1537 532.264 93.7057C530.332 96.9257 526.79 99.7777 521.638 102.262C516.486 104.746 511.242 106.126 505.906 106.402C499.834 111.646 494.176 113.394 488.932 111.646C484.056 109.99 481.296 106.678 480.652 101.71C480.008 96.6497 481.802 91.6357 486.034 86.6677C486.954 81.6077 489.3 77.4217 493.072 74.1097C497.212 70.6137 501.858 69.3257 507.01 70.2457C514.554 71.6257 518.234 75.9497 518.05 83.2177C517.958 89.7497 515.152 96.2357 509.632 102.676C513.588 101.94 517.728 100.422 522.052 98.1217C525.732 96.2817 528.63 94.3957 530.746 92.4637ZM492.52 83.3557C491.048 86.6677 490.542 89.8877 491.002 93.0157C491.462 96.1437 492.796 98.5357 495.004 100.192C497.028 101.848 499.512 102.814 502.456 103.09C504.296 101.066 506.274 98.3057 508.39 94.8097C511.426 89.3817 512.99 84.5517 513.082 80.3197C513.082 75.6277 510.966 73.1437 506.734 72.8677C503.79 72.6837 500.984 73.6497 498.316 75.7657C495.74 77.7897 493.808 80.3197 492.52 83.3557ZM490.174 109.024C492.658 110.22 495.74 109.208 499.42 105.988C496.66 105.528 494.268 104.562 492.244 103.09C489.116 100.974 487.092 98.0297 486.172 94.2577C484.608 102.262 485.942 107.184 490.174 109.024ZM580.69 92.8778C580.966 92.4177 581.38 92.3717 581.932 92.7397C582.484 93.1077 582.622 93.5677 582.346 94.1197C579.954 98.2597 575.446 102.4 568.822 106.54C566.338 108.104 563.072 109.944 559.024 112.06L553.642 114.958L547.984 117.856C538.416 137.176 529.952 151.39 522.592 160.498C512.748 172.734 504.376 176.736 497.476 172.504C490.852 168.456 490.944 161.326 497.752 151.114C503.456 142.558 511.46 134.692 521.764 127.516C527.652 123.376 534.782 119.144 543.154 114.82C545.822 109.484 548.398 104.24 550.882 99.0877C551.894 97.0637 552.86 94.9937 553.78 92.8778C554.516 91.4978 555.344 89.7957 556.264 87.7717L553.09 91.9117L549.778 96.3277C547.294 99.5477 545.086 102.216 543.154 104.332C538.002 109.852 533.954 112.382 531.01 111.922C528.526 111.646 526.594 110.818 525.214 109.438C523.65 107.874 523.144 106.034 523.696 103.918C525.352 97.8457 529.4 91.0377 535.84 83.4937C542.832 75.2137 548.674 71.4417 553.366 72.1777C556.034 72.6377 557.598 73.8797 558.058 75.9037C558.242 76.6397 558.242 77.5137 558.058 78.5257C557.874 79.3537 557.598 80.2277 557.23 81.1477L559.576 78.6637L561.922 76.3177C562.014 76.2257 562.29 76.1337 562.75 76.0417C563.302 75.9497 563.854 75.9497 564.406 76.0417C565.97 76.1337 566.798 76.7777 566.89 77.9737C565.418 80.3657 563.44 84.3677 560.956 89.9797L559.99 91.9117L559.024 94.1197C558.196 95.9597 557.506 97.5697 556.954 98.9497C555.022 102.998 553.136 107 551.296 110.956C567.028 103.32 576.826 97.2937 580.69 92.8778ZM530.32 107.92C532.436 108.196 535.61 106.08 539.842 101.572C541.406 99.9157 543.43 97.6157 545.914 94.6717L549.088 90.8078L552.4 86.9437C553.688 84.2757 554.47 81.6997 554.746 79.2157C555.114 76.4557 554.608 75.1677 553.228 75.3517C550.928 75.8117 547.846 78.2497 543.982 82.6657C540.578 86.4377 537.312 90.8077 534.184 95.7757C529.308 103.688 528.02 107.736 530.32 107.92ZM497.89 169.882C501.846 172.826 508.01 169.192 516.382 158.98C523.558 150.148 531.24 137.958 539.428 122.41C532.896 125.998 527.33 129.402 522.73 132.622C514.91 138.234 508.102 144.904 502.306 152.632C495.59 161.372 494.118 167.122 497.89 169.882Z" fill="#771919"></path></svg> 