<?xml version="1.0" encoding="UTF-8"?> <svg xmlns="http://www.w3.org/2000/svg" width="245" height="72" viewBox="0 0 245 72" fill="none"><path d="M38.4197 0.361779C40.675 0.120143 42.0845 0.764499 42.6483 2.29485C42.6483 3.90574 36.3658 15.1417 23.8009 36.0028L20.2972 41.9228L16.6727 47.8428C14.0953 52.2728 12.0011 55.857 10.3902 58.5955C6.04079 65.8445 3.58418 70.2745 3.02037 71.8854C2.05383 71.8049 1.28866 71.1605 0.724848 69.9523C0.24158 68.9858 0.120763 68.0595 0.362397 67.1735C1.0873 64.5156 6.52406 54.8905 16.6727 38.2983L19.6931 33.4656L22.5927 28.5121C24.9285 24.7265 26.8213 21.5853 28.2711 19.0884C32.3789 12.3227 35.1979 7.4497 36.7283 4.46955C36.0839 5.19445 35.5604 5.79854 35.1577 6.2818L33.4662 8.09406C32.1775 9.62441 30.9694 10.8729 29.8417 11.8394C27.0227 14.4974 24.8882 15.7458 23.4384 15.5847C22.4719 15.182 21.7873 14.5376 21.3845 13.6516C20.9818 12.6851 21.0221 11.7186 21.5054 10.752C23.0357 11.3158 26.0159 9.94659 30.4458 6.64426L32.983 4.71119C33.5468 4.22792 34.312 3.62383 35.2785 2.89893C36.9699 1.44913 38.017 0.60341 38.4197 0.361779ZM89.3101 8.81896C90.035 11.8797 85.6453 16.2291 76.141 21.8672C74.5301 22.9143 72.5165 24.0822 70.1002 25.3709L66.9589 27.0623L63.9385 28.7538C59.1058 31.4923 55.6424 33.5864 53.5483 35.0362C57.1728 33.4253 60.7973 32.3783 64.4218 31.895C68.6907 31.3312 71.9527 31.6936 74.208 32.9823C77.2687 34.8349 77.7519 38.6205 75.6578 44.3391C73.6442 49.5745 70.3418 54.4878 65.7508 59.0788C57.4547 67.3749 49.6821 70.9994 42.4331 69.9523C32.365 68.5025 27.8545 61.8979 28.9016 50.1384C29.546 49.2524 30.3514 48.5677 31.318 48.0845C32.5261 47.6012 33.6135 47.6415 34.58 48.2053C33.1302 49.8967 32.7275 52.7963 33.3718 56.9041C33.9357 61.173 35.3452 64.0726 37.6004 65.6029C40.6611 67.536 44.487 67.6165 49.078 65.8445C53.3469 64.1531 57.656 61.173 62.0055 56.9041C65.9521 53.038 69.1337 48.7288 71.55 43.9767C74.0469 38.9829 74.3691 36.043 72.5165 35.157C70.4224 34.1905 66.677 34.2711 61.2806 35.3987C55.8035 36.4458 51.7763 37.9761 49.1989 39.9897C48.474 39.8286 47.9101 39.3856 47.5074 38.6607C48.1518 36.6471 50.7292 33.9892 55.2397 30.6868C56.9311 29.4787 59.1058 28.0289 61.7638 26.3374L65.3883 24.0419L69.1337 21.8672C75.3356 18.001 79.6045 15.1417 81.9402 13.2892C85.5648 10.3896 87.0548 8.13433 86.4105 6.52344C86.0077 5.63745 83.9539 5.11391 80.2488 4.95282C76.7854 4.87228 72.8387 5.07364 68.4088 5.5569C63.8177 6.04017 60.1932 6.7248 57.5352 7.61079C54.4745 8.57733 53.3469 9.58414 54.1524 10.6312C53.5885 10.9534 53.3066 11.1548 53.3066 11.2353C53.065 11.2353 52.6623 11.0339 52.0985 10.6312C51.4541 10.2285 51.0917 9.86604 51.0111 9.54387C50.3668 7.69134 51.6152 5.9999 54.7564 4.46955C57.5755 3.18084 61.3611 2.13376 66.1132 1.32832C70.6237 0.683958 74.7718 0.442322 78.5574 0.60341C82.6651 0.925589 85.2023 1.69076 86.1688 2.89893C87.8603 5.23473 88.9074 7.20807 89.3101 8.81896ZM96.8895 51.3465C99.0642 51.7492 99.3863 53.481 97.856 56.5416C96.2451 59.5218 94.3523 60.8105 92.1776 60.4078C90.0029 59.9245 89.721 58.1928 91.3319 55.2127C92.8622 52.2325 94.7147 50.9438 96.8895 51.3465ZM108.005 34.3113C105.91 33.9086 105.629 32.1769 107.159 29.1162C108.77 26.1361 110.663 24.8473 112.837 25.2501C115.012 25.7333 115.294 27.465 113.683 30.4452C112.072 33.5059 110.179 34.7946 108.005 34.3113ZM172.473 5.79854C180.286 8.6176 184.071 13.4905 183.829 20.4174C183.668 25.0084 181.937 30.4452 178.634 36.7277C175.332 42.8491 171.224 48.5275 166.311 53.7629C160.995 59.3204 155.719 63.3477 150.484 65.8445C144.524 68.6636 139.288 69.1872 134.778 67.4152C131.153 65.9654 129.261 62.7033 129.099 57.629C128.938 52.9574 130.227 47.3596 132.966 40.8354C139.087 26.1763 147.786 15.1417 159.062 7.73161H157.854L156.646 7.85243C155.76 7.36916 155.558 6.7248 156.042 5.91936C156.364 5.19446 156.887 4.71119 157.612 4.46955C160.029 4.06683 162.646 3.98629 165.465 4.22792C171.184 1.65049 176.701 1.36859 182.017 3.3822C182.581 3.62383 182.782 4.06683 182.621 4.71119C182.541 5.35554 182.219 5.59718 181.655 5.43609C178.916 4.63064 175.856 4.75146 172.473 5.79854ZM169.331 42.1644C183.991 21.3034 183.306 9.90631 167.278 7.97324C156.726 13.6919 147.383 24.1627 139.248 39.3856C135.785 45.9098 133.69 51.5479 132.966 56.3C132.08 61.4549 133.006 64.5961 135.744 65.7237C140.174 67.5763 145.772 65.8445 152.538 60.5286C158.176 56.0987 163.774 49.9773 169.331 42.1644ZM225.448 5.79854C233.261 8.6176 237.047 13.4905 236.805 20.4174C236.644 25.0084 234.912 30.4452 231.61 36.7277C228.307 42.8491 224.2 48.5275 219.286 53.7629C213.97 59.3204 208.695 63.3477 203.459 65.8445C197.499 68.6636 192.264 69.1872 187.753 67.4152C184.129 65.9654 182.236 62.7033 182.075 57.629C181.914 52.9574 183.202 47.3596 185.941 40.8354C192.062 26.1763 200.761 15.1417 212.037 7.73161H210.829L209.621 7.85243C208.735 7.36916 208.534 6.7248 209.017 5.91936C209.339 5.19446 209.863 4.71119 210.588 4.46955C213.004 4.06683 215.622 3.98629 218.441 4.22792C224.159 1.65049 229.677 1.36859 234.993 3.3822C235.556 3.62383 235.758 4.06683 235.597 4.71119C235.516 5.35554 235.194 5.59718 234.63 5.43609C231.892 4.63064 228.831 4.75146 225.448 5.79854ZM222.307 42.1644C236.966 21.3034 236.281 9.90631 220.253 7.97324C209.702 13.6919 200.358 24.1627 192.223 39.3856C188.76 45.9098 186.666 51.5479 185.941 56.3C185.055 61.4549 185.981 64.5961 188.72 65.7237C193.15 67.5763 198.748 65.8445 205.513 60.5286C211.151 56.0987 216.749 49.9773 222.307 42.1644Z" fill="#FEFAEF"></path></svg> 