<?xml version="1.0" encoding="UTF-8"?> <svg xmlns="http://www.w3.org/2000/svg" width="711" height="151" viewBox="0 0 711 151" fill="none"><path d="M139.242 99.9106C139.794 100.371 139.932 100.877 139.656 101.429C139.38 101.981 138.92 102.165 138.276 101.981C135.976 100.969 133.722 100.187 131.514 99.6346C122.13 115.091 116.702 125.671 115.23 131.375C113.022 139.563 114.77 144.347 120.474 145.727C122.682 146.187 124.982 145.911 127.374 144.899C129.766 143.795 131.56 142.093 132.756 139.793C133.124 139.425 133.538 139.425 133.998 139.793C134.55 140.069 134.688 140.483 134.412 141.035C132.572 144.255 129.904 146.371 126.408 147.383C123.188 148.303 120.014 148.119 116.886 146.831C113.574 145.543 111.182 143.381 109.71 140.345C108.054 136.941 107.87 132.939 109.158 128.339C110.906 122.175 116.196 112.055 125.028 97.9786C121.348 97.2426 116.748 96.6446 111.228 96.1846C90.2521 113.849 70.0121 127.143 50.5081 136.067C28.9801 145.819 15.0881 146.739 8.83206 138.827C2.94406 131.559 5.56606 122.865 16.6981 112.745C26.9101 103.637 41.3081 97.3806 59.8921 93.9766C75.2561 91.1246 91.3101 90.5266 108.054 92.1826C133.998 70.1026 148.856 51.8866 152.628 37.5346C155.48 26.4026 153.548 18.0306 146.832 12.4186C140.668 7.26656 131.56 5.15056 119.508 6.07056C107.548 7.08256 95.2661 10.7626 82.6621 17.1106C69.0461 24.0106 57.5461 32.9346 48.1621 43.8826C43.1941 49.6786 40.1121 55.1066 38.9161 60.1666C37.9041 64.6746 38.5021 68.4466 40.7101 71.4826C45.8621 78.8426 57.9141 77.7386 76.8661 68.1706C77.6941 68.0786 78.1541 68.4006 78.2461 69.1366C78.4301 69.8726 78.2001 70.4246 77.5561 70.7926C70.6561 76.0366 63.6641 79.0266 56.5801 79.7626C50.0481 80.4986 44.6201 79.2106 40.2961 75.8986C35.9721 72.5866 33.7641 67.9866 33.6721 62.0986C33.5801 55.5666 36.2481 48.5286 41.6761 40.9846C54.8321 22.5846 73.8301 10.3026 98.6701 4.13856C109.618 1.37856 119.738 0.596556 129.03 1.79256C138.69 2.98856 146.096 6.16256 151.248 11.3146V11.1766C160.632 19.7326 162.518 32.7506 156.906 50.2306C154.698 57.0386 151.202 64.9046 146.418 73.8286C144.578 77.4166 142.37 81.3726 139.794 85.6966C138.23 88.4566 135.976 92.2746 133.032 97.1506C135.332 97.8866 137.402 98.8066 139.242 99.9106ZM11.3161 136.343C15.4561 143.519 27.2781 142.507 46.7821 133.307C64.6301 124.843 83.6281 112.331 103.776 95.7706C88.0441 95.2186 72.8641 96.6446 58.2361 100.049C41.4921 103.913 28.2901 109.801 18.6301 117.713C10.4421 124.429 8.00406 130.639 11.3161 136.343ZM114.954 93.0106C118.45 93.4706 122.406 94.2066 126.822 95.2186L130.548 89.4226L134.412 83.4886C137.356 78.7966 139.794 74.7946 141.726 71.4826C147.246 62.2826 151.248 54.5086 153.732 48.1606C147.292 61.0406 134.366 75.9906 114.954 93.0106ZM139.242 99.9106C139.794 100.371 139.932 100.877 139.656 101.429C139.38 101.981 138.92 102.165 138.276 101.981C135.976 100.969 133.722 100.187 131.514 99.6346C122.13 115.091 116.702 125.671 115.23 131.375C113.022 139.563 114.77 144.347 120.474 145.727C122.682 146.187 124.982 145.911 127.374 144.899C129.766 143.795 131.56 142.093 132.756 139.793C133.124 139.425 133.538 139.425 133.998 139.793C134.55 140.069 134.688 140.483 134.412 141.035C132.572 144.255 129.904 146.371 126.408 147.383C123.188 148.303 120.014 148.119 116.886 146.831C113.574 145.543 111.182 143.381 109.71 140.345C108.054 136.941 107.87 132.939 109.158 128.339C110.906 122.175 116.196 112.055 125.028 97.9786C121.348 97.2426 116.748 96.6446 111.228 96.1846C90.2521 113.849 70.0121 127.143 50.5081 136.067C28.9801 145.819 15.0881 146.739 8.83206 138.827C2.94406 131.559 5.56606 122.865 16.6981 112.745C26.9101 103.637 41.3081 97.3806 59.8921 93.9766C75.2561 91.1246 91.3101 90.5266 108.054 92.1826C133.998 70.1026 148.856 51.8866 152.628 37.5346C155.48 26.4026 153.548 18.0306 146.832 12.4186C140.668 7.26656 131.56 5.15056 119.508 6.07056C107.548 7.08256 95.2661 10.7626 82.6621 17.1106C69.0461 24.0106 57.5461 32.9346 48.1621 43.8826C43.1941 49.6786 40.1121 55.1066 38.9161 60.1666C37.9041 64.6746 38.5021 68.4466 40.7101 71.4826C45.8621 78.8426 57.9141 77.7386 76.8661 68.1706C77.6941 68.0786 78.1541 68.4006 78.2461 69.1366C78.4301 69.8726 78.2001 70.4246 77.5561 70.7926C70.6561 76.0366 63.6641 79.0266 56.5801 79.7626C50.0481 80.4986 44.6201 79.2106 40.2961 75.8986C35.9721 72.5866 33.7641 67.9866 33.6721 62.0986C33.5801 55.5666 36.2481 48.5286 41.6761 40.9846C54.8321 22.5846 73.8301 10.3026 98.6701 4.13856C109.618 1.37856 119.738 0.596556 129.03 1.79256C138.69 2.98856 146.096 6.16256 151.248 11.3146V11.1766C160.632 19.7326 162.518 32.7506 156.906 50.2306C154.698 57.0386 151.202 64.9046 146.418 73.8286C144.578 77.4166 142.37 81.3726 139.794 85.6966C138.23 88.4566 135.976 92.2746 133.032 97.1506C135.332 97.8866 137.402 98.8066 139.242 99.9106ZM11.3161 136.343C15.4561 143.519 27.2781 142.507 46.7821 133.307C64.6301 124.843 83.6281 112.331 103.776 95.7706C88.0441 95.2186 72.8641 96.6446 58.2361 100.049C41.4921 103.913 28.2901 109.801 18.6301 117.713C10.4421 124.429 8.00406 130.639 11.3161 136.343ZM114.954 93.0106C118.45 93.4706 122.406 94.2066 126.822 95.2186L130.548 89.4226L134.412 83.4886C137.356 78.7966 139.794 74.7946 141.726 71.4826C147.246 62.2826 151.248 54.5086 153.732 48.1606C147.292 61.0406 134.366 75.9906 114.954 93.0106ZM189.166 82.3846L190.27 80.4526L191.65 78.1066C193.766 74.7026 194.962 72.4026 195.238 71.2066C196.342 70.8386 197.446 70.7926 198.55 71.0686C199.93 71.3446 200.896 71.9886 201.448 73.0006C200.988 74.3806 199.47 77.1406 196.894 81.2806L195.238 83.9026L193.582 86.6626C192.202 88.8706 191.052 90.8026 190.132 92.4586C184.796 102.027 184.244 107.639 188.476 109.295C190.316 110.307 194.502 108.513 201.034 103.913C207.106 99.6806 211.43 95.8626 214.006 92.4586C215.11 92.4586 215.754 92.9186 215.938 93.8386C206.37 106.535 197.584 112.929 189.58 113.021C185.532 113.021 182.772 111.319 181.3 107.915C179.644 104.235 180.518 98.8066 183.922 91.6306C183.278 92.2746 182.634 92.8726 181.99 93.4246C174.354 100.049 167.96 102.395 162.808 100.463C162.348 100.279 161.888 100.049 161.428 99.7726C160.876 101.337 160.37 102.993 159.91 104.741C158.438 109.525 157.334 112.561 156.598 113.849C156.322 114.585 155.632 114.677 154.528 114.125C153.332 113.573 152.642 112.561 152.458 111.089C151.998 107.041 154.62 99.9106 160.324 89.6986L161.98 86.8006L163.498 84.0406C164.878 81.6486 165.89 79.9006 166.534 78.7966C168.466 75.1166 169.57 72.5406 169.846 71.0686C169.846 70.4246 170.214 69.9646 170.95 69.6886C171.594 69.5046 172.376 69.5506 173.296 69.8266C174.216 70.1026 174.906 70.5166 175.366 71.0686C175.826 71.7126 175.872 72.4026 175.504 73.1386C174.952 75.1626 172.79 79.2566 169.018 85.4206C168.19 86.7086 167.454 87.9046 166.81 89.0086C164.694 93.8846 164.142 96.8286 165.154 97.8406C166.166 98.9446 170.628 96.5526 178.54 90.6646C181.116 88.8246 183.83 86.7546 186.682 84.4546C187.51 83.8106 188.338 83.1206 189.166 82.3846ZM233.521 63.6166C233.153 66.9286 231.957 70.1486 229.933 73.2766C227.909 76.4046 225.103 81.3266 221.515 88.0426C215.719 98.8066 212.085 107.179 210.613 113.159C215.397 104.879 223.171 95.7246 233.935 85.6966C245.343 75.1166 252.979 70.5626 256.843 72.0346C257.855 72.4026 258.729 72.9546 259.465 73.6906C260.293 74.4266 260.661 75.2086 260.569 76.0366C260.477 76.4046 260.293 76.5886 260.017 76.5886C259.649 76.6806 259.419 76.6346 259.327 76.4506C259.235 75.6226 258.913 75.2546 258.361 75.3466C254.037 75.7146 245.665 81.7866 233.245 93.5626H233.383C232.463 95.7706 231.773 99.2666 231.313 104.051C230.853 109.387 231.267 112.377 232.555 113.021C234.579 114.125 239.593 111.641 247.597 105.569C250.541 103.269 253.485 100.831 256.429 98.2546C259.097 95.8626 260.937 94.0226 261.949 92.7346C262.409 92.3666 262.869 92.3666 263.329 92.7346C263.697 93.1026 263.789 93.5166 263.605 93.9766L263.053 94.6666L262.363 95.4946L260.983 97.1506C259.787 98.6226 258.683 99.9566 257.671 101.153C254.727 104.557 251.967 107.363 249.391 109.571C242.031 115.919 235.913 117.805 231.037 115.229C226.437 112.745 224.735 107.869 225.931 100.601C215.995 110.905 210.751 117.851 210.199 121.439C209.647 121.991 208.819 122.083 207.715 121.715C206.703 121.347 206.059 120.795 205.783 120.059C203.207 114.447 206.979 102.487 217.099 84.1786C220.871 77.4626 223.907 72.1726 226.207 68.3086C228.599 64.3526 229.565 60.7646 229.105 57.5446C230.485 56.9006 231.681 57.3146 232.693 58.7866C233.613 60.2586 233.889 61.8686 233.521 63.6166ZM305.933 92.4586C306.485 92.0906 306.991 92.0906 307.451 92.4586C307.819 92.8266 307.865 93.2406 307.589 93.7006C305.565 97.2886 302.621 100.739 298.757 104.051C295.445 106.811 291.443 109.019 286.751 110.675C281.691 112.423 277.045 113.067 272.813 112.607C265.821 111.963 261.083 108.375 258.599 101.843C256.483 96.0466 259.427 89.0546 267.431 80.8666C270.835 77.3706 274.377 74.7026 278.057 72.8626C282.013 70.8386 285.325 70.1486 287.993 70.7926C291.949 71.8046 294.203 73.6446 294.755 76.3126C295.215 78.7966 294.157 81.5566 291.581 84.5926C285.601 91.7686 276.585 96.2306 264.533 97.9786C263.797 101.475 264.303 104.235 266.051 106.259C269.455 109.939 274.607 110.767 281.507 108.743C284.083 107.915 286.797 106.765 289.649 105.293C292.041 104.005 294.157 102.625 295.997 101.153C298.205 99.4966 301.517 96.5986 305.933 92.4586ZM269.639 87.2146C267.799 89.6986 266.327 92.4126 265.223 95.3566C271.111 93.7006 277.091 90.0206 283.163 84.3166C289.143 78.6126 290.661 75.0246 287.717 73.5526C285.877 72.7246 282.657 74.2886 278.057 78.2446C276.309 79.8086 274.607 81.5106 272.951 83.3506C271.479 84.9146 270.375 86.2026 269.639 87.2146ZM320.184 76.7266C319.632 78.8426 317.7 82.5226 314.388 87.7666L312.318 90.9406L310.248 94.3906C308.684 97.1506 307.396 99.7266 306.384 102.119C307.856 100.371 309.972 97.6106 312.732 93.8386L316.044 89.0086L319.494 84.3166C325.014 77.1406 328.786 73.7366 330.81 74.1046C332.006 74.2886 332.972 74.9326 333.708 76.0366C334.444 76.9566 334.812 77.8766 334.812 78.7966C334.812 80.0846 334.306 82.3846 333.294 85.6966C332.834 86.9846 332.282 88.5026 331.638 90.2506L329.982 95.0806C326.946 103.177 325.704 107.363 326.256 107.639C326.716 107.823 330.166 102.349 336.606 91.2166C339.642 86.0646 342.034 82.2466 343.782 79.7626C346.266 76.2666 348.014 74.5186 349.026 74.5186C349.946 74.5186 350.912 75.1166 351.924 76.3126C352.844 77.4166 353.212 78.3826 353.028 79.2106C352.752 80.4986 352.154 82.6606 351.234 85.6966C350.958 86.7086 350.544 88.0886 349.992 89.8366L348.75 94.2526C346.542 101.521 345.53 105.615 345.714 106.535C346.174 108.559 349.762 107.915 356.478 104.603C358.778 103.499 361.216 102.211 363.792 100.739C364.712 100.187 365.586 99.6346 366.414 99.0826C367.15 98.6226 367.656 98.3006 367.932 98.1166C368.576 97.6566 369.082 97.7026 369.45 98.2546C369.726 98.8066 369.634 99.3126 369.174 99.7726C368.806 100.141 368.346 100.601 367.794 101.153C366.966 101.797 366.138 102.487 365.31 103.223C363.01 105.063 360.71 106.627 358.41 107.915C351.878 111.595 346.91 112.193 343.506 109.709C341.574 108.329 340.7 105.799 340.884 102.119C340.884 99.1746 341.574 95.5866 342.954 91.3546C343.506 89.6986 344.104 87.9506 344.748 86.1106C345.3 84.7306 345.898 83.2586 346.542 81.6946L348.198 77.5546C347.922 77.6466 346.726 79.6246 344.61 83.4886L343.92 84.8686L343.092 86.2486L341.436 89.2846C340.056 91.8606 338.86 94.0686 337.848 95.9086C330.948 107.869 326.348 113.481 324.048 112.745C321.288 111.825 320 109.387 320.184 105.431C320.368 102.395 321.426 98.3466 323.358 93.2866C324.094 91.5386 324.968 89.5606 325.98 87.3526L327.222 84.5926C327.682 83.4886 328.004 82.7066 328.188 82.2466C329.568 79.1186 329.936 77.6926 329.292 77.9686C327.636 78.6126 322.99 84.5006 315.354 95.6326C312.502 99.7726 309.65 104.097 306.798 108.605C304.222 112.561 302.382 115.459 301.278 117.299C301.002 118.127 300.312 118.265 299.208 117.713C298.012 117.161 297.322 116.149 297.138 114.677C296.586 110.629 299.3 103.223 305.28 92.4586L306.936 89.2846L308.592 86.3866C310.064 83.9026 311.122 82.0626 311.766 80.8666C313.79 77.0026 314.94 74.3346 315.216 72.8626C315.308 72.2186 315.63 71.8966 316.182 71.8966C316.734 71.8966 317.378 72.1266 318.114 72.5866C318.85 73.1386 319.402 73.7826 319.77 74.5186C320.23 75.2546 320.368 75.9906 320.184 76.7266ZM425.518 92.5966C426.53 92.5046 427.174 92.9186 427.45 93.8386C416.87 107.639 407.578 114.539 399.574 114.539C397.642 114.539 395.94 114.125 394.468 113.297C392.72 112.377 391.662 111.089 391.294 109.433C389.454 102.625 391.57 92.5506 397.642 79.2106L395.848 81.8326L393.916 84.5926L390.052 90.2506C387.016 94.4826 384.348 97.9786 382.048 100.739C376.068 108.099 371.652 111.595 368.8 111.227C366.408 110.859 364.522 109.985 363.142 108.605C361.578 107.133 361.072 105.339 361.624 103.223C363.28 97.0586 367.328 90.2046 373.768 82.6606C380.76 74.3806 386.602 70.6546 391.294 71.4826C393.962 71.8506 395.802 72.7706 396.814 74.2426C400.494 69.3666 403.438 65.9166 405.646 63.8926C406.566 63.5246 407.578 63.5246 408.682 63.8926C409.878 64.2606 410.752 64.9506 411.304 65.9626C410.016 67.8946 408.406 70.8386 406.474 74.7946C404.082 79.6706 402.058 84.2706 400.402 88.5946C395.71 101.107 395.342 108.421 399.298 110.537C401.138 111.457 405.416 109.479 412.132 104.603C418.388 100.095 422.85 96.0926 425.518 92.5966ZM368.11 107.225C370.226 107.409 374.044 104.097 379.564 97.2886C381.404 94.9886 383.934 91.6306 387.154 87.2146L391.018 81.8326L395.02 76.5886C394.468 74.8406 393.18 74.1966 391.156 74.6566C388.856 75.0246 385.774 77.4166 381.91 81.8326C378.506 85.6046 375.24 89.9746 372.112 94.9426C367.328 102.855 365.994 106.949 368.11 107.225ZM487.192 71.7586C487.928 70.9306 489.032 71.0226 490.504 72.0346C492.068 73.2306 492.896 74.2886 492.988 75.2086C492.988 76.4966 492.022 78.8886 490.09 82.3846C489.354 83.7646 488.342 85.4666 487.054 87.4906L485.398 90.2506L483.742 92.8726C478.13 102.257 476.014 107.685 477.394 109.157C478.406 110.261 482.868 107.869 490.78 101.981C493.356 100.141 496.07 98.0706 498.922 95.7706C499.842 95.0346 500.716 94.2986 501.544 93.5626C501.82 93.3786 502.05 93.1946 502.234 93.0106L502.51 92.7346C502.878 92.4586 503.292 92.4586 503.752 92.7346C504.304 93.0106 504.442 93.4246 504.166 93.9766L503.89 94.2526C503.798 94.4366 503.614 94.7126 503.338 95.0806C502.694 95.8166 502.004 96.6446 501.268 97.5646C498.968 100.233 496.622 102.625 494.23 104.741C486.594 111.365 480.2 113.711 475.048 111.779C470.172 109.939 470.402 104.511 475.738 95.4946C476.658 93.9306 477.716 92.2746 478.912 90.5266L480.43 88.1806C480.89 87.6286 481.396 86.9386 481.948 86.1106L487.054 77.5546C483.742 79.3026 478.038 84.5466 469.942 93.2866C469.114 94.0226 468.332 94.7586 467.596 95.4946C466.86 96.1386 465.434 97.4266 463.318 99.3586C462.674 100.003 462.122 99.7266 461.662 98.5306C461.11 97.3346 461.294 96.4146 462.214 95.7706C464.698 93.3786 468.93 89.1926 474.91 83.2126C480.89 77.1406 484.984 73.3226 487.192 71.7586ZM549.378 92.5966C549.654 92.3206 550.068 92.3206 550.62 92.5966C551.08 92.8726 551.172 93.2866 550.896 93.8386C548.964 97.0586 545.422 99.9106 540.27 102.395C535.118 104.879 529.874 106.259 524.538 106.535C518.466 111.779 512.808 113.527 507.564 111.779C502.688 110.123 499.928 106.811 499.284 101.843C498.64 96.7826 500.434 91.7686 504.666 86.8006C505.586 81.7406 507.932 77.5546 511.704 74.2426C515.844 70.7466 520.49 69.4586 525.642 70.3786C533.186 71.7586 536.866 76.0826 536.682 83.3506C536.59 89.8826 533.784 96.3686 528.264 102.809C532.22 102.073 536.36 100.555 540.684 98.2546C544.364 96.4146 547.262 94.5286 549.378 92.5966ZM511.152 83.4886C509.68 86.8006 509.174 90.0206 509.634 93.1486C510.094 96.2766 511.428 98.6686 513.636 100.325C515.66 101.981 518.144 102.947 521.088 103.223C522.928 101.199 524.906 98.4386 527.022 94.9426C530.058 89.5146 531.622 84.6846 531.714 80.4526C531.714 75.7606 529.598 73.2766 525.366 73.0006C522.422 72.8166 519.616 73.7826 516.948 75.8986C514.372 77.9226 512.44 80.4526 511.152 83.4886ZM508.806 109.157C511.29 110.353 514.372 109.341 518.052 106.121C515.292 105.661 512.9 104.695 510.876 103.223C507.748 101.107 505.724 98.1626 504.804 94.3906C503.24 102.395 504.574 107.317 508.806 109.157ZM579.45 84.4546C580.37 80.6826 579.634 77.6466 577.242 75.3466C575.31 73.4146 571.768 74.4266 566.616 78.3826C564.684 79.7626 562.752 81.4186 560.82 83.3506C559.164 85.0986 557.922 86.5246 557.094 87.6286C550.746 96.4606 549.274 102.763 552.678 106.535C555.438 109.387 559.67 110.491 565.374 109.847C571.63 109.203 577.426 107.225 582.762 103.913C585.89 101.981 590.536 98.3006 596.7 92.8726C597.252 92.5046 597.758 92.5046 598.218 92.8726C598.586 93.2406 598.632 93.6546 598.356 94.1146C594.952 100.187 589.57 105.017 582.21 108.605C574.942 112.285 567.628 113.757 560.268 113.021C553.276 112.377 548.584 108.743 546.192 102.119C544.076 96.4146 547.02 89.4226 555.024 81.1426C558.428 77.7386 561.97 75.0706 565.65 73.1386C569.514 71.1146 572.78 70.4246 575.448 71.0686C579.22 71.9886 581.658 73.9666 582.762 77.0026C583.774 79.5786 583.544 82.1086 582.072 84.5926C581.704 85.1446 581.152 85.4666 580.416 85.5586C579.68 85.5586 579.358 85.1906 579.45 84.4546ZM610.738 76.7266C610.186 78.8426 608.254 82.5226 604.942 87.7666L602.872 90.9406L600.802 94.3906C599.238 97.1506 597.95 99.7266 596.938 102.119C598.41 100.371 600.526 97.6106 603.286 93.8386L606.598 89.0086L610.048 84.3166C615.568 77.1406 619.34 73.7366 621.364 74.1046C622.56 74.2886 623.526 74.9326 624.262 76.0366C624.998 76.9566 625.366 77.8766 625.366 78.7966C625.366 80.0846 624.86 82.3846 623.848 85.6966C623.388 86.9846 622.836 88.5026 622.192 90.2506L620.536 95.0806C617.5 103.177 616.258 107.363 616.81 107.639C617.27 107.823 620.72 102.349 627.16 91.2166C630.196 86.0646 632.588 82.2466 634.336 79.7626C636.82 76.2666 638.568 74.5186 639.58 74.5186C640.5 74.5186 641.466 75.1166 642.478 76.3126C643.398 77.4166 643.766 78.3826 643.582 79.2106C643.306 80.4986 642.708 82.6606 641.788 85.6966C641.512 86.7086 641.098 88.0886 640.546 89.8366L639.304 94.2526C637.096 101.521 636.084 105.615 636.268 106.535C636.728 108.559 640.316 107.915 647.032 104.603C649.332 103.499 651.77 102.211 654.346 100.739C655.266 100.187 656.14 99.6346 656.968 99.0826C657.704 98.6226 658.21 98.3006 658.486 98.1166C659.13 97.6566 659.636 97.7026 660.004 98.2546C660.28 98.8066 660.188 99.3126 659.728 99.7726C659.36 100.141 658.9 100.601 658.348 101.153C657.52 101.797 656.692 102.487 655.864 103.223C653.564 105.063 651.264 106.627 648.964 107.915C642.432 111.595 637.464 112.193 634.06 109.709C632.128 108.329 631.254 105.799 631.438 102.119C631.438 99.1746 632.128 95.5866 633.508 91.3546C634.06 89.6986 634.658 87.9506 635.302 86.1106C635.854 84.7306 636.452 83.2586 637.096 81.6946L638.752 77.5546C638.476 77.6466 637.28 79.6246 635.164 83.4886L634.474 84.8686L633.646 86.2486L631.99 89.2846C630.61 91.8606 629.414 94.0686 628.402 95.9086C621.502 107.869 616.902 113.481 614.602 112.745C611.842 111.825 610.554 109.387 610.738 105.431C610.922 102.395 611.98 98.3466 613.912 93.2866C614.648 91.5386 615.522 89.5606 616.534 87.3526L617.776 84.5926C618.236 83.4886 618.558 82.7066 618.742 82.2466C620.122 79.1186 620.49 77.6926 619.846 77.9686C618.19 78.6126 613.544 84.5006 605.908 95.6326C603.056 99.7726 600.204 104.097 597.352 108.605C594.776 112.561 592.936 115.459 591.832 117.299C591.556 118.127 590.866 118.265 589.762 117.713C588.566 117.161 587.876 116.149 587.692 114.677C587.14 110.629 589.854 103.223 595.834 92.4586L597.49 89.2846L599.146 86.3866C600.618 83.9026 601.676 82.0626 602.32 80.8666C604.344 77.0026 605.494 74.3346 605.77 72.8626C605.862 72.2186 606.184 71.8966 606.736 71.8966C607.288 71.8966 607.932 72.1266 608.668 72.5866C609.404 73.1386 609.956 73.7826 610.324 74.5186C610.784 75.2546 610.922 75.9906 610.738 76.7266ZM690.68 76.7266C691.14 76.0826 691.554 75.4846 691.922 74.9326C691.462 74.2886 690.772 74.1046 689.852 74.3806C688.564 74.5646 686.862 75.7146 684.746 77.8306C682.906 79.5786 681.112 81.7406 679.364 84.3166C677.616 86.8006 676.374 88.8706 675.638 90.5266C674.902 92.3666 675.04 93.1486 676.052 92.8726C676.144 92.7806 676.328 92.6886 676.604 92.5966C677.984 91.2166 679.272 89.8826 680.468 88.5946C681.02 88.0426 681.618 87.3986 682.262 86.6626C682.906 85.9266 683.642 85.0066 684.47 83.9026L686.954 81.1426C688.426 79.3946 689.668 77.9226 690.68 76.7266ZM683.78 89.8366C681.296 92.7806 678.812 95.5866 676.328 98.2546C666.392 108.559 659.4 113.343 655.352 112.607C653.236 112.239 652.04 110.997 651.764 108.881C651.212 104.833 653.052 99.3126 657.284 92.3206L658.388 89.5606C658.388 88.9166 658.756 88.4566 659.492 88.1806C660.136 87.9966 660.918 88.0426 661.838 88.3186C662.758 88.5946 663.448 89.0086 663.908 89.5606C664.46 90.2046 664.506 90.8946 664.046 91.6306L663.356 93.7006L661.7 96.3226C657.008 104.419 655.214 108.697 656.318 109.157C657.698 109.617 663.54 104.971 673.844 95.2186C673.108 94.8506 672.418 94.3906 671.774 93.8386C670.394 92.5506 669.888 91.3086 670.256 90.1126C671.176 86.6166 673.798 82.6146 678.122 78.1066C682.722 73.3226 686.586 71.1606 689.714 71.6206C690.91 71.8046 691.968 72.1726 692.888 72.7246C692.98 72.5406 693.072 72.3106 693.164 72.0346C693.532 70.9306 694.498 70.9306 696.062 72.0346C697.626 73.2306 698.454 74.2886 698.546 75.2086C698.546 76.4966 697.58 78.8886 695.648 82.3846C694.912 83.7646 693.9 85.4666 692.612 87.4906L690.956 90.2506L689.3 92.8726C683.688 102.257 681.572 107.685 682.952 109.157C683.964 110.261 688.426 107.869 696.338 101.981C698.914 100.141 701.628 98.0706 704.48 95.7706C705.4 95.0346 706.274 94.2986 707.102 93.5626C707.378 93.3786 707.608 93.1946 707.792 93.0106L708.068 92.7346C708.436 92.4586 708.85 92.4586 709.31 92.7346C709.862 93.0106 710 93.4246 709.724 93.9766L709.448 94.2526C709.356 94.4366 709.172 94.7126 708.896 95.0806C708.252 95.8166 707.562 96.6446 706.826 97.5646C704.526 100.233 702.18 102.625 699.788 104.741C692.152 111.365 685.758 113.711 680.606 111.779C675.73 109.939 675.96 104.511 681.296 95.4946C682.216 93.9306 683.274 92.2746 684.47 90.5266L685.988 88.1806C686.448 87.6286 686.954 86.9386 687.506 86.1106C689.622 83.1666 690.634 81.6026 690.542 81.4186C690.45 81.6026 689.99 82.2006 689.162 83.2126C688.242 84.4086 687.184 85.7426 685.988 87.2146C685.528 87.8586 685.022 88.4566 684.47 89.0086C684.378 89.1926 684.24 89.3766 684.056 89.5606C683.964 89.6526 683.872 89.7446 683.78 89.8366Z" fill="#771919"></path></svg> 