<?xml version="1.0" encoding="UTF-8"?> <svg xmlns="http://www.w3.org/2000/svg" width="752" height="136" viewBox="0 0 752 136" fill="none"><path d="M55.9448 113.287C73.4276 105.206 87.5692 96.3089 98.3696 86.5963C83.3733 87.6064 67.5611 91.4915 50.9331 98.2515C42.1529 101.748 35.354 105.439 30.5365 109.324C25.7191 113.209 23.9319 116.434 25.1752 118.998C27.4285 123.66 37.6851 121.756 55.9448 113.287ZM119.932 44.1715C109.986 51.32 94.5234 57.808 73.5441 63.6356C83.1791 62.4701 91.0269 62.5089 97.0876 63.7521C104.78 65.3062 109.287 68.725 110.608 74.0087C111.229 76.8059 110.025 80.1859 106.994 84.1487C108.471 84.2264 110.413 84.4206 112.822 84.7315C113.288 84.8869 113.521 85.1977 113.521 85.6639C113.444 86.2078 113.133 86.5186 112.589 86.5963L108.976 86.3632H105.246C95.3005 97.7852 79.9156 108.081 59.0917 117.249C49.6122 121.445 41.7644 123.893 35.5483 124.592C28.5552 125.291 24.5147 123.66 23.4269 119.697C22.106 115.035 24.1262 110.295 29.4876 105.478C34.3828 101.049 41.4924 97.0471 50.8165 93.4728C67.3669 87.1013 84.1115 83.9156 101.05 83.9156C105.946 79.0204 108.005 75.1742 107.228 72.377C105.751 67.171 96.971 64.84 80.8869 65.3839C66.6676 65.8501 56.1391 67.5595 49.3014 70.5121C45.0278 77.1944 42.6191 81.5069 42.0752 83.4494C41.1428 84.6926 40.1715 85.0034 39.1614 84.3818C38.1513 83.8379 37.8405 83.1386 38.229 82.2839C39.0837 78.6319 43.0464 71.7942 50.1172 61.7708C57.188 51.6696 62.4329 45.5701 65.8517 43.4721C67.2503 43.1613 68.0662 43.8606 68.2993 45.5701C65.4244 47.5126 60.0241 54.3892 52.0986 66.1997C60.568 64.1795 69.3094 61.5377 78.3228 58.2742C88.8901 54.4669 97.9811 50.5041 105.596 46.3859C125.177 35.5855 131.431 25.6009 124.361 16.4321C118.145 8.42893 107.383 5.94249 92.0759 8.97283C78.6336 11.6147 64.22 17.7531 48.8352 27.388C32.751 37.3338 21.329 47.6292 14.569 58.2742C7.26505 69.774 8.50827 77.311 18.2986 80.8852C18.7648 81.1961 18.6871 81.5846 18.0655 82.0508C17.4439 82.517 16.9388 82.6724 16.5503 82.517C5.51678 78.1657 2.91379 70.1625 8.74137 58.5073C14.1028 47.8623 24.5536 37.1395 40.0938 26.339C56.0225 15.3055 71.6405 8.27352 86.9476 5.24318C104.43 1.74662 117.368 4.66042 125.759 13.9846C135.239 24.5519 133.296 34.6142 119.932 44.1715ZM173.901 81.3515C174.755 81.2738 175.299 81.6234 175.532 82.4004C166.597 94.0556 158.749 99.8832 151.989 99.8832C150.357 99.8832 148.92 99.5335 147.676 98.8342C146.2 98.0572 145.307 96.9694 144.996 95.5708C143.442 89.8209 145.229 81.3126 150.357 70.0459L148.842 72.2604L147.21 74.5915L143.947 79.3701C141.383 82.9443 139.129 85.897 137.187 88.228C132.136 94.4441 128.407 97.3967 125.998 97.0859C123.978 96.7751 122.385 96.037 121.219 94.8715C119.898 93.6282 119.471 92.1131 119.937 90.3259C121.336 85.12 124.755 79.3312 130.194 72.9597C136.099 65.9666 141.033 62.8197 144.996 63.519C147.249 63.8298 148.803 64.6069 149.658 65.8501C152.766 61.7319 155.252 58.8181 157.117 57.1087C157.894 56.7979 158.749 56.7979 159.681 57.1087C160.691 57.4195 161.43 58.0023 161.896 58.857C160.808 60.4887 159.448 62.9751 157.816 66.3163C155.796 70.4344 154.087 74.3195 152.688 77.9715C148.725 88.5388 148.415 94.7161 151.756 96.5032C153.31 97.2802 156.923 95.6096 162.595 91.4915C167.879 87.6841 171.647 84.3041 173.901 81.3515ZM125.415 93.7059C127.202 93.8613 130.427 91.0641 135.089 85.3142C136.643 83.3717 138.78 80.5356 141.499 76.8059L144.763 72.2604L148.143 67.8315C147.676 66.3551 146.589 65.8112 144.879 66.1997C142.937 66.5105 140.334 68.5308 137.07 72.2604C134.195 75.4462 131.437 79.137 128.795 83.3328C124.755 90.0151 123.628 93.4728 125.415 93.7059ZM193.467 84.1487C193.544 84.071 193.622 83.9544 193.7 83.799C194.477 82.4781 195.37 81.0795 196.381 79.6032L197.663 77.6218C198.051 77.1556 198.478 76.5728 198.945 75.8735C200.732 73.3871 201.587 72.0662 201.509 71.9108C201.431 72.0662 201.043 72.5712 200.343 73.4259C199.566 74.4361 198.673 75.5627 197.663 76.8059C194.943 80.1471 192.224 83.2551 189.504 86.1301C181.112 94.8326 175.207 98.8731 171.788 98.2515C170.001 97.9407 168.991 96.8917 168.758 95.1046C168.292 91.6857 170.04 86.7128 174.003 80.1859L175.168 78.3211L176.334 76.5728C177.266 75.0188 177.965 73.8533 178.432 73.0763C179.83 70.6675 180.646 68.8416 180.879 67.5983C180.879 67.0544 181.19 66.6659 181.812 66.4328C182.355 66.2774 183.016 66.3163 183.793 66.5494C184.57 66.7825 185.153 67.1321 185.541 67.5983C186.007 68.1423 186.046 68.725 185.658 69.3466C185.425 70.279 184.492 72.1827 182.861 75.0577C182.239 76.0678 181.423 77.4664 180.413 79.2535L179.131 81.3515L177.732 83.5659C173.381 91.0252 171.672 94.9492 172.604 95.3377C173.77 95.7262 178.937 91.5692 188.105 82.8666C197.507 73.8533 202.713 67.5595 203.723 63.9852C204.034 63.0528 204.85 63.0528 206.171 63.9852C207.492 64.9954 208.191 65.8889 208.269 66.6659C208.269 67.7538 207.453 69.774 205.821 72.7266C205.2 73.8921 204.345 75.3296 203.257 77.039L201.858 79.3701L200.46 81.5846C199.761 82.7501 199.139 83.8767 198.595 84.9646C197.74 86.5186 197.002 87.8784 196.381 89.0439C196.225 89.277 196.109 89.5101 196.031 89.7432C194.244 93.162 193.661 95.0269 194.283 95.3377C195.448 95.7262 200.615 91.5692 209.784 82.8666C219.186 73.8533 224.392 67.5595 225.402 63.9852C225.713 63.0528 226.529 63.0528 227.85 63.9852C229.17 64.9954 229.87 65.8889 229.947 66.6659C229.947 67.7538 229.132 69.774 227.5 72.7266C226.878 73.8921 226.024 75.3296 224.936 77.039L223.537 79.3701L222.138 81.5846C217.399 89.5101 215.612 94.0944 216.777 95.3377C217.632 96.2701 221.4 94.2498 228.083 89.277C230.258 87.7229 232.55 85.9747 234.959 84.0321C235.736 83.4105 236.474 82.7889 237.174 82.1673C237.407 82.0119 237.601 81.8565 237.756 81.7011L237.99 81.468C238.3 81.2349 238.65 81.2349 239.038 81.468C239.505 81.7011 239.621 82.0508 239.388 82.517L239.155 82.7501C239.077 82.9055 238.922 83.1386 238.689 83.4494C238.145 84.071 237.562 84.7703 236.941 85.5473C234.998 87.8007 233.017 89.8209 230.996 91.608C224.547 97.2025 219.147 99.1839 214.796 97.5521C210.678 95.9981 210.872 91.4138 215.378 83.799C216.155 82.4781 217.049 81.0795 218.059 79.6032L219.341 77.6218C219.73 77.1556 220.157 76.5728 220.623 75.8735C222.41 73.3871 223.265 72.0662 223.187 71.9108C223.11 72.0662 222.721 72.5712 222.022 73.4259C221.245 74.4361 220.351 75.5627 219.341 76.8059C216.622 80.1471 213.902 83.2551 211.183 86.1301C202.791 94.8326 196.886 98.8731 193.467 98.2515C191.68 97.9407 190.67 96.8917 190.436 95.1046C190.281 93.7836 190.359 92.2296 190.67 90.4425C191.136 88.8885 191.913 87.0625 193.001 84.9646C193.156 84.7315 193.311 84.4595 193.467 84.1487ZM286.696 81.3515C287.551 81.2738 288.095 81.6234 288.328 82.4004C279.392 94.0556 271.545 99.8832 264.785 99.8832C263.153 99.8832 261.715 99.5335 260.472 98.8342C258.996 98.0572 258.102 96.9694 257.791 95.5708C256.237 89.8209 258.025 81.3126 263.153 70.0459L261.638 72.2604L260.006 74.5915L256.742 79.3701C254.178 82.9443 251.925 85.897 249.982 88.228C244.932 94.4441 241.202 97.3967 238.794 97.0859C236.773 96.7751 235.18 96.037 234.015 94.8715C232.694 93.6282 232.267 92.1131 232.733 90.3259C234.131 85.12 237.55 79.3312 242.989 72.9597C248.895 65.9666 253.829 62.8197 257.791 63.519C260.045 63.8298 261.599 64.6069 262.454 65.8501C265.562 61.7319 268.048 58.8181 269.913 57.1087C270.69 56.7979 271.545 56.7979 272.477 57.1087C273.487 57.4195 274.225 58.0023 274.691 58.857C273.604 60.4887 272.244 62.9751 270.612 66.3163C268.592 70.4344 266.882 74.3195 265.484 77.9715C261.521 88.5388 261.21 94.7161 264.551 96.5032C266.105 97.2802 269.719 95.6096 275.391 91.4915C280.674 87.6841 284.443 84.3041 286.696 81.3515ZM238.211 93.7059C239.998 93.8613 243.222 91.0641 247.885 85.3142C249.439 83.3717 251.575 80.5356 254.295 76.8059L257.558 72.2604L260.938 67.8315C260.472 66.3551 259.384 65.8112 257.675 66.1997C255.732 66.5105 253.129 68.5308 249.866 72.2604C246.991 75.4462 244.233 79.137 241.591 83.3328C237.55 90.0151 236.424 93.4728 238.211 93.7059ZM369.671 81.3515C370.526 81.2738 371.07 81.6234 371.303 82.4004C362.367 94.0556 354.519 99.8832 347.759 99.8832C346.128 99.8832 344.69 99.5335 343.447 98.8342C341.971 98.0572 341.077 96.9694 340.766 95.5708C339.212 89.8209 340.999 81.3126 346.128 70.0459L344.612 72.2604L342.981 74.5915L339.717 79.3701C337.153 82.9443 334.9 85.897 332.957 88.228C327.907 94.4441 324.177 97.3967 321.768 97.0859C319.748 96.7751 318.155 96.037 316.99 94.8715C315.669 93.6282 315.241 92.1131 315.708 90.3259C317.106 85.12 320.525 79.3312 325.964 72.9597C331.869 65.9666 336.804 62.8197 340.766 63.519C343.02 63.8298 344.574 64.6069 345.428 65.8501C348.536 61.7319 351.023 58.8181 352.888 57.1087C353.665 56.7979 354.519 56.7979 355.452 57.1087C356.462 57.4195 357.2 58.0023 357.666 58.857C356.578 60.4887 355.219 62.9751 353.587 66.3163C351.567 70.4344 349.857 74.3195 348.459 77.9715C344.496 88.5388 344.185 94.7161 347.526 96.5032C349.08 97.2802 352.693 95.6096 358.366 91.4915C363.649 87.6841 367.418 84.3041 369.671 81.3515ZM321.186 93.7059C322.973 93.8613 326.197 91.0641 330.859 85.3142C332.413 83.3717 334.55 80.5356 337.27 76.8059L340.533 72.2604L343.913 67.8315C343.447 66.3551 342.359 65.8112 340.65 66.1997C338.707 66.5105 336.104 68.5308 332.841 72.2604C329.966 75.4462 327.207 79.137 324.566 83.3328C320.525 90.0151 319.398 93.4728 321.186 93.7059ZM381.894 67.948C381.428 69.7351 379.797 72.8432 376.999 77.2721L375.251 79.9528L373.503 82.8666C372.182 85.1977 371.094 87.3733 370.239 89.3935C371.482 87.9172 373.27 85.5862 375.601 82.4004L378.398 78.3211L381.312 74.3584C385.974 68.2977 389.16 65.4227 390.869 65.7335C391.879 65.8889 392.695 66.4328 393.317 67.3652C393.938 68.1423 394.249 68.9193 394.249 69.6963C394.249 70.7841 393.822 72.7266 392.967 75.5239C392.578 76.6117 392.112 77.8938 391.568 79.3701L390.17 83.4494C387.605 90.2871 386.557 93.8225 387.023 94.0556C387.411 94.211 390.325 89.5878 395.764 80.1859C398.328 75.8347 400.348 72.6101 401.825 70.5121C403.923 67.5595 405.399 66.0832 406.254 66.0832C407.031 66.0832 407.847 66.5882 408.701 67.5983C409.478 68.5308 409.789 69.3466 409.634 70.0459C409.401 71.1338 408.896 72.9597 408.119 75.5239C407.885 76.3786 407.536 77.5441 407.07 79.0204L406.021 82.7501C404.156 88.8885 403.301 92.3462 403.457 93.1232C403.845 94.8326 406.875 94.2887 412.548 91.4915C414.49 90.559 416.549 89.4712 418.725 88.228C419.502 87.7618 420.24 87.2956 420.939 86.8294C421.561 86.4409 421.988 86.1689 422.221 86.0135C422.765 85.625 423.193 85.6639 423.503 86.1301C423.737 86.5963 423.659 87.0236 423.27 87.4121C422.96 87.7229 422.571 88.1115 422.105 88.5777C421.405 89.1216 420.706 89.7043 420.007 90.3259C418.064 91.88 416.122 93.2009 414.179 94.2887C408.662 97.3967 404.467 97.9018 401.592 95.8039C399.96 94.6384 399.222 92.5016 399.377 89.3935C399.377 86.9071 399.96 83.8767 401.125 80.3025C401.592 78.9039 402.097 77.4275 402.641 75.8735C403.107 74.708 403.612 73.4648 404.156 72.1439L405.554 68.6473C405.321 68.725 404.311 70.3956 402.524 73.659L401.941 74.8246L401.242 75.9901L399.843 78.5542C398.678 80.7298 397.668 82.5947 396.813 84.1487C390.985 94.2498 387.1 98.9896 385.158 98.368C382.827 97.591 381.739 95.5319 381.894 92.1908C382.05 89.6266 382.943 86.2078 384.575 81.9342C385.197 80.4579 385.935 78.7873 386.79 76.9225L387.839 74.5915C388.227 73.659 388.499 72.9986 388.654 72.6101C389.82 69.9682 390.131 68.7639 389.587 68.997C388.188 69.5409 384.264 74.5138 377.815 83.9156C375.406 87.4121 372.998 91.0641 370.589 94.8715C368.413 98.2126 366.859 100.66 365.927 102.214C365.694 102.914 365.111 103.03 364.179 102.564C363.168 102.098 362.586 101.243 362.43 99.9997C361.964 96.5809 364.256 90.3259 369.307 81.2349L370.705 78.5542L372.104 76.1066C373.347 74.0087 374.241 72.4547 374.785 71.4446C376.494 68.1811 377.465 65.9278 377.699 64.6846C377.776 64.1406 378.048 63.8687 378.514 63.8687C378.981 63.8687 379.525 64.0629 380.146 64.4515C380.768 64.9177 381.234 65.4616 381.545 66.0832C381.933 66.7048 382.05 67.3264 381.894 67.948ZM439.272 88.4611C440.204 86.3632 440.942 84.8092 441.486 83.799C442.263 82.4781 443.157 81.0795 444.167 79.6032L445.449 77.6218C445.837 77.1556 446.265 76.5728 446.731 75.8735C448.518 73.3871 449.373 72.0662 449.295 71.9108C449.217 72.0662 448.829 72.5712 448.13 73.4259C447.353 74.4361 446.459 75.5627 445.449 76.8059C442.729 80.1471 440.01 83.2551 437.29 86.1301C428.899 94.8326 422.993 98.8731 419.574 98.2515C417.787 97.9407 416.777 96.8917 416.544 95.1046C416.078 91.6857 417.632 87.0236 421.206 81.1184L422.139 78.7873C422.139 78.2434 422.449 77.8549 423.071 77.6218C423.615 77.4664 424.275 77.5052 425.052 77.7384C425.829 77.9715 426.412 78.3211 426.801 78.7873C427.267 79.3312 427.306 79.914 426.917 80.5356L426.334 82.2839L424.936 84.4984C420.973 91.3361 419.458 94.9492 420.39 95.3377C421.556 95.7262 426.723 91.5692 435.892 82.8666C445.293 73.8533 450.499 67.5595 451.51 63.9852C451.82 63.0528 452.636 63.0528 453.957 63.9852C455.278 64.9954 455.977 65.8889 456.055 66.6659C456.055 67.7538 455.239 69.774 453.607 72.7266C452.986 73.8921 452.131 75.3296 451.043 77.039L449.645 79.3701L448.246 81.5846C447.78 82.3616 447.275 83.2551 446.731 84.2652C442.69 91.2584 441.136 94.9492 442.069 95.3377C443.234 95.7262 448.401 91.5692 457.57 82.8666C465.496 75.2519 470.43 69.5797 472.372 65.8501C472.761 65.1508 473.033 64.5292 473.188 63.9852C473.266 63.8298 473.344 63.6744 473.421 63.519C473.499 63.4413 473.616 63.3636 473.771 63.2859C474.159 63.1305 474.781 63.3636 475.636 63.9852C476.957 64.9954 477.656 65.8889 477.734 66.6659C477.734 67.7538 476.918 69.774 475.286 72.7266C474.664 73.8921 473.81 75.3296 472.722 77.039L471.323 79.3701L469.925 81.5846C465.185 89.5101 463.398 94.0944 464.563 95.3377C465.418 96.2701 469.187 94.2498 475.869 89.277C478.044 87.7229 480.337 85.9747 482.745 84.0321C483.522 83.4105 484.261 82.7889 484.96 82.1673C485.193 82.0119 485.387 81.8565 485.543 81.7011L485.776 81.468C486.087 81.2349 486.436 81.2349 486.825 81.468C487.291 81.7011 487.407 82.0508 487.174 82.517L486.941 82.7501C486.864 82.9055 486.708 83.1386 486.475 83.4494C485.931 84.071 485.348 84.7703 484.727 85.5473C482.784 87.8007 480.803 89.8209 478.783 91.608C472.333 97.2025 466.933 99.1839 462.582 97.5521C458.464 95.9981 458.658 91.4138 463.165 83.799C463.942 82.4781 464.835 81.0795 465.845 79.6032L467.127 77.6218C467.516 77.1556 467.943 76.5728 468.41 75.8735C470.197 73.3871 471.051 72.0662 470.974 71.9108C470.896 72.0662 470.507 72.5712 469.808 73.4259C469.031 74.4361 468.138 75.5627 467.127 76.8059C464.408 80.1471 461.688 83.2551 458.969 86.1301C450.577 94.8326 444.672 98.8731 441.253 98.2515C439.466 97.9407 438.456 96.8917 438.223 95.1046C437.99 93.3174 438.339 91.1029 439.272 88.4611ZM525.272 81.3515C525.505 81.1184 525.855 81.1184 526.321 81.3515C526.71 81.5846 526.787 81.9342 526.554 82.4004C524.923 85.12 521.931 87.5287 517.58 89.6266C513.229 91.7246 508.8 92.8901 504.293 93.1232C499.165 97.5521 494.386 99.0285 489.957 97.5521C485.839 96.1535 483.508 93.3563 482.964 89.1604C482.42 84.8869 483.935 80.6521 487.509 76.4563C488.286 72.1827 490.268 68.6473 493.454 65.8501C496.95 62.8974 500.874 61.8096 505.225 62.5866C511.597 63.7521 514.705 67.4041 514.549 73.5425C514.472 79.0593 512.102 84.5372 507.44 89.9763C510.781 89.3547 514.277 88.0726 517.929 86.1301C521.037 84.5761 523.485 82.9832 525.272 81.3515ZM492.987 73.659C491.744 76.4563 491.317 79.1758 491.705 81.8177C492.094 84.4595 493.22 86.4797 495.085 87.8784C496.795 89.277 498.893 90.0928 501.379 90.3259C502.933 88.6165 504.604 86.2855 506.391 83.3328C508.955 78.7485 510.276 74.6692 510.354 71.0949C510.354 67.1321 508.566 65.0342 504.992 64.8011C502.506 64.6457 500.136 65.4616 497.883 67.2487C495.707 68.9581 494.075 71.0949 492.987 73.659ZM491.006 95.3377C493.104 96.3478 495.707 95.4931 498.815 92.7735C496.484 92.385 494.464 91.5692 492.754 90.3259C490.112 88.5388 488.403 86.0524 487.626 82.8666C486.305 89.6266 487.432 93.7836 491.006 95.3377ZM550.67 74.4749C551.447 71.2892 550.826 68.725 548.806 66.7825C547.174 65.1508 544.182 66.0055 539.831 69.3466C538.199 70.5121 536.568 71.9108 534.936 73.5425C533.537 75.0188 532.488 76.2232 531.789 77.1556C526.428 84.6149 525.184 89.9374 528.059 93.1232C530.39 95.5319 533.965 96.4643 538.782 95.9204C544.066 95.3765 548.961 93.7059 553.468 90.9087C556.11 89.277 560.033 86.1689 565.239 81.5846C565.706 81.2738 566.133 81.2738 566.522 81.5846C566.832 81.8954 566.871 82.245 566.638 82.6335C563.763 87.7618 559.218 91.8411 553.002 94.8715C546.863 97.9795 540.686 99.2227 534.47 98.6011C528.564 98.0572 524.602 94.988 522.582 89.3935C520.794 84.5761 523.281 78.6708 530.041 71.6777C532.916 68.8027 535.907 66.5494 539.015 64.9177C542.279 63.2082 545.037 62.6255 547.29 63.1694C550.476 63.9464 552.535 65.617 553.468 68.1811C554.322 70.3567 554.128 72.4935 552.885 74.5915C552.574 75.0577 552.108 75.3296 551.486 75.4073C550.865 75.4073 550.593 75.0965 550.67 74.4749ZM584.905 75.0577C585.915 73.1151 586.303 71.1338 586.07 69.1135C585.915 67.171 585.254 66.2774 584.089 66.4328C582.302 66.7436 580.048 68.4142 577.329 71.4446C574.92 74.0864 572.511 77.311 570.103 81.1184C567.849 84.6926 566.257 87.7229 565.324 90.2094C564.392 92.8512 564.586 93.9779 565.907 93.5894C568.782 92.8124 575.114 86.6351 584.905 75.0577ZM608.332 79.137C613.848 69.5797 615.48 64.6846 613.227 64.4515C612.294 64.3738 609.575 66.4717 605.068 70.7452C600.251 75.3296 595.317 80.6133 590.266 86.5963C590.888 89.1604 591.82 91.2195 593.063 92.7735C594.307 94.2498 595.511 94.7938 596.677 94.4052C598.93 93.7059 602.815 88.6165 608.332 79.137ZM595.628 58.857V58.0411C596.793 57.4972 597.803 57.8469 598.658 59.0901C599.435 60.2556 599.707 61.6154 599.474 63.1694C599.396 63.4802 599.318 63.8298 599.241 64.2184C598.697 67.2487 595.744 73.154 590.383 81.9342C600.562 69.6574 607.283 63.2082 610.546 62.5866C615.752 61.7319 618.316 63.2859 618.239 67.2487C618.161 71.2115 615.869 76.6894 611.362 83.6825C607.166 90.2094 603.592 94.4441 600.639 96.3866C597.92 98.0961 595.084 98.0184 592.131 96.1535C589.411 94.3664 587.974 92.1519 587.819 89.5101C582.457 96.037 577.989 102.137 574.415 107.809C566.956 121.096 564.042 130.031 565.674 134.616C563.032 134.926 561.478 134.188 561.012 132.401C559.458 126.962 564.858 114.18 577.212 94.0556L580.709 88.3446L582.457 85.5473L584.089 82.8666C586.187 79.3701 587.935 76.4563 589.334 74.1252C590.344 72.2604 591.199 70.6287 591.898 69.2301C587.935 75.6793 583.467 81.6623 578.494 87.179C572.9 93.4728 568.898 96.5809 566.49 96.5032C564.469 96.1924 562.877 95.4542 561.711 94.2887C560.39 93.0455 559.963 91.5303 560.429 89.7432C561.284 85.7027 564.159 80.4967 569.054 74.1252C573.949 67.7538 577.834 64.2184 580.709 63.519C582.03 63.1305 583.467 63.3248 585.021 64.1018C586.575 64.8011 587.741 65.8112 588.518 67.1321C588.984 68.0646 589.217 68.9581 589.217 69.8128C593.025 64.9954 595.123 61.4988 595.511 59.3232V58.857H595.628ZM662.035 81.2349C662.501 80.9241 662.928 80.9241 663.317 81.2349C663.628 81.5457 663.666 81.8954 663.433 82.2839C661.724 85.3142 659.237 88.228 655.974 91.0252C653.177 93.3563 649.797 95.2211 645.834 96.6197C641.56 98.0961 637.637 98.64 634.062 98.2515C628.157 97.7075 624.155 94.6772 622.057 89.1604C620.27 84.2652 622.757 78.36 629.517 71.4446C632.392 68.4919 635.383 66.2386 638.491 64.6846C641.832 62.9751 644.63 62.3924 646.883 62.9363C650.224 63.791 652.128 65.345 652.594 67.5983C652.983 69.6963 652.089 72.0273 649.913 74.5915C644.863 80.6521 637.248 84.4207 627.069 85.897C626.448 88.8496 626.875 91.1807 628.351 92.8901C631.226 95.9981 635.577 96.6974 641.405 94.988C643.581 94.2887 645.873 93.3174 648.282 92.0742C650.302 90.9864 652.089 89.8209 653.643 88.5777C655.508 87.179 658.305 84.7315 662.035 81.2349ZM631.382 76.8059C629.828 78.9039 628.584 81.1961 627.652 83.6825C632.625 82.2839 637.675 79.1758 642.804 74.3584C647.854 69.5409 649.136 66.5105 646.65 65.2673C645.096 64.568 642.376 65.8889 638.491 69.2301C637.015 70.551 635.577 71.9885 634.179 73.5425C632.936 74.8634 632.003 75.9512 631.382 76.8059ZM686.891 62.5866C692.097 61.7319 694.661 63.2859 694.584 67.2487C694.506 71.2115 692.214 76.6894 687.707 83.6825C683.511 90.2094 679.937 94.4441 676.984 96.3866C674.265 98.0961 671.429 98.0184 668.476 96.1535C665.756 94.3664 664.319 92.1519 664.164 89.5101C658.802 96.037 654.334 102.137 650.76 107.809C643.301 121.096 640.387 130.031 642.019 134.616C639.377 134.926 637.823 134.188 637.357 132.401C635.803 126.962 641.203 114.18 653.557 94.0556L657.054 88.3446L658.802 85.5473L660.434 82.8666C662.998 78.6708 665.018 75.2908 666.495 72.7266C670.38 65.8112 672.167 61.188 671.856 58.857C673.022 58.3131 674.032 58.6627 674.886 59.9059C675.663 61.0715 675.896 62.4312 675.586 63.9852C675.197 66.9379 672.245 72.9209 666.728 81.9342C676.907 69.6574 683.628 63.2082 686.891 62.5866ZM673.022 94.4052C675.275 93.7059 679.16 88.6165 684.677 79.137C690.193 69.5797 691.825 64.6846 689.572 64.4515C688.639 64.3738 685.92 66.4717 681.413 70.7452C676.596 75.3296 671.662 80.6133 666.611 86.5963C667.233 89.1604 668.165 91.2195 669.408 92.7735C670.652 94.2498 671.856 94.7938 673.022 94.4052ZM749.83 81.3515C750.685 81.2738 751.229 81.6234 751.462 82.4004C742.526 94.0556 734.678 99.8832 727.918 99.8832C726.287 99.8832 724.849 99.5335 723.606 98.8342C722.13 98.0572 721.236 96.9694 720.925 95.5708C719.371 89.8209 721.158 81.3126 726.287 70.0459L724.771 72.2604L723.14 74.5915L719.876 79.3701C717.312 82.9443 715.059 85.897 713.116 88.228C708.066 94.4441 704.336 97.3967 701.927 97.0859C699.907 96.7751 698.314 96.037 697.149 94.8715C695.828 93.6282 695.4 92.1131 695.867 90.3259C697.265 85.12 700.684 79.3312 706.123 72.9597C712.028 65.9666 716.962 62.8197 720.925 63.519C723.179 63.8298 724.733 64.6069 725.587 65.8501C728.695 61.7319 731.182 58.8181 733.047 57.1087C733.824 56.7979 734.678 56.7979 735.611 57.1087C736.621 57.4195 737.359 58.0023 737.825 58.857C736.737 60.4887 735.378 62.9751 733.746 66.3163C731.726 70.4344 730.016 74.3195 728.618 77.9715C724.655 88.5388 724.344 94.7161 727.685 96.5032C729.239 97.2802 732.852 95.6096 738.525 91.4915C743.808 87.6841 747.577 84.3041 749.83 81.3515ZM701.345 93.7059C703.132 93.8613 706.356 91.0641 711.018 85.3142C712.572 83.3717 714.709 80.5356 717.429 76.8059L720.692 72.2604L724.072 67.8315C723.606 66.3551 722.518 65.8112 720.809 66.1997C718.866 66.5105 716.263 68.5308 713 72.2604C710.125 75.4462 707.366 79.137 704.725 83.3328C700.684 90.0151 699.557 93.4728 701.345 93.7059Z" fill="#771919"></path></svg> 