<?xml version="1.0" encoding="UTF-8"?> <svg xmlns="http://www.w3.org/2000/svg" width="389" height="411" viewBox="0 0 389 411" fill="none"><path d="M217.33 186.659C203.782 189.204 192.377 192.161 192.317 193.013C191.579 195.067 227.077 190.366 236.338 186.996C250.919 181.956 241.254 181.744 217.33 186.659Z" fill="#FEFAEF"></path><path d="M197.032 152.474C189.884 157.636 181.674 164.765 178.906 168.521L174.047 174.83L179.722 171.868C185.809 168.672 209.498 147.55 210.091 144.762C210.357 143.793 204.387 147.194 197.032 152.474Z" fill="#FEFAEF"></path><path d="M179.704 134.024C177.44 135.315 172.127 148.963 174.303 147.996C177.185 146.354 183.549 136.464 182.494 134.614C182.026 133.791 180.734 133.438 179.704 134.024Z" fill="#FEFAEF"></path><path d="M208.983 220.824C191.48 216.906 188.925 216.728 196.968 220.316C207.389 224.727 230.444 229.294 230.947 226.828C231.125 226.183 221.317 223.327 208.983 220.824Z" fill="#FEFAEF"></path><path d="M193.513 246.804C189.086 241.427 184.422 237.548 183.599 238.018C181.952 238.956 188.135 247.417 197.783 257.17C205.085 264.721 201.897 256.733 193.513 246.804Z" fill="#FEFAEF"></path><path d="M174.721 256.42C172.567 261.733 174.79 267.548 178.084 265.671C179.319 264.968 179.673 263.675 179.088 262.648C178.502 261.619 177.597 258.595 177.248 256.069C176.61 252.076 176.404 252.194 174.721 256.42Z" fill="#FEFAEF"></path></svg> 