<?xml version="1.0" encoding="UTF-8"?> <svg xmlns="http://www.w3.org/2000/svg" width="986" height="176" viewBox="0 0 986 176" fill="none"><path d="M148.074 2.76375C170.43 5.98374 183.402 15.3217 186.99 30.7777C190.118 44.2097 186.024 60.1717 174.708 78.6637C164.036 96.2357 149.96 111.232 132.48 123.652C113.896 136.9 96.784 143.294 81.144 142.834C75.9 142.742 70.104 141.914 63.756 140.35C61.272 139.706 58.512 138.924 55.476 138.004L51.474 136.762L47.61 135.52C40.066 140.948 30.636 143.34 19.32 142.696C12.512 142.328 7.49801 141.224 4.27801 139.384C1.42601 137.728 0.41401 135.75 1.24201 133.45C1.97801 131.15 4.18601 129.218 7.86601 127.654C11.914 125.814 16.744 124.848 22.356 124.756C28.612 124.664 36.662 126.228 46.506 129.448C49.266 126.964 52.486 123.238 56.166 118.27C59.202 114.222 63.342 108.242 68.586 100.33L71.622 95.7757L74.658 91.2217C76.958 87.8177 78.936 84.9657 80.592 82.6657C89.608 70.0617 96.738 63.8977 101.982 64.1737C102.718 64.2657 103.178 64.6797 103.362 65.4157C103.454 66.1517 103.224 66.6577 102.672 66.9337C100.74 66.4737 95.542 72.3617 87.078 84.5977C85.79 86.5297 83.904 89.3357 81.42 93.0157L78.384 97.4317L75.348 101.986C70.38 109.162 66.194 115.004 62.79 119.512C58.65 124.756 55.2 128.712 52.44 131.38C65.872 136.164 75.486 138.51 81.282 138.418C96.554 138.142 113.988 130.092 133.584 114.268C144.716 105.344 154.422 95.2237 162.702 83.9077C171.074 72.3157 176.686 61.2297 179.538 50.6497C182.574 39.2417 181.884 29.7197 177.468 22.0837C172.5 13.7117 163.208 8.32974 149.592 5.93775C135.792 3.54574 119.968 5.29374 102.12 11.1817C86.204 16.4257 71.254 23.9237 57.27 33.6757C45.402 42.0477 36.478 50.6497 30.498 59.4817C24.334 68.5897 22.31 76.6397 24.426 83.6317C25.714 87.5877 28.612 90.0717 33.12 91.0837C37.352 92.0957 41.584 91.4977 45.816 89.2897C46.828 88.6457 47.564 88.6457 48.024 89.2897C48.576 90.0257 48.346 90.7617 47.334 91.4977C41.814 96.0057 35.972 96.8337 29.808 93.9817C23.552 91.0377 20.286 85.7937 20.01 78.2497C19.642 68.0377 23.598 57.8257 31.878 47.6137C39.514 38.0457 50.048 29.4437 63.48 21.8077C76.636 14.2637 90.574 8.78975 105.294 5.38575C120.75 1.79774 135.01 0.923743 148.074 2.76375ZM20.01 138.97C28.566 139.062 35.742 137.222 41.538 133.45C33.074 130.782 26.496 129.448 21.804 129.448C10.948 129.448 5.15201 130.966 4.41601 134.002C4.14001 135.29 5.24401 136.394 7.72801 137.314C10.58 138.326 14.674 138.878 20.01 138.97ZM238.978 92.4637C239.254 92.1877 239.668 92.1877 240.22 92.4637C240.68 92.7397 240.772 93.1537 240.496 93.7057C238.564 96.9257 235.022 99.7777 229.87 102.262C224.718 104.746 219.474 106.126 214.138 106.402C208.066 111.646 202.408 113.394 197.164 111.646C192.288 109.99 189.528 106.678 188.884 101.71C188.24 96.6497 190.034 91.6357 194.266 86.6677C195.186 81.6077 197.532 77.4217 201.304 74.1097C205.444 70.6137 210.09 69.3257 215.242 70.2457C222.786 71.6257 226.466 75.9497 226.282 83.2177C226.19 89.7497 223.384 96.2357 217.864 102.676C221.82 101.94 225.96 100.422 230.284 98.1217C233.964 96.2817 236.862 94.3957 238.978 92.4637ZM200.752 83.3557C199.28 86.6677 198.774 89.8877 199.234 93.0157C199.694 96.1437 201.028 98.5357 203.236 100.192C205.26 101.848 207.744 102.814 210.688 103.09C212.528 101.066 214.506 98.3057 216.622 94.8097C219.658 89.3817 221.222 84.5517 221.314 80.3197C221.314 75.6277 219.198 73.1437 214.966 72.8677C212.022 72.6837 209.216 73.6497 206.548 75.7657C203.972 77.7897 202.04 80.3197 200.752 83.3557ZM198.406 109.024C200.89 110.22 203.972 109.208 207.652 105.988C204.892 105.528 202.5 104.562 200.476 103.09C197.348 100.974 195.324 98.0297 194.404 94.2577C192.84 102.262 194.174 107.184 198.406 109.024ZM267.946 70.2457C274.11 69.2337 277.146 71.0737 277.054 75.7657C276.962 80.4577 274.248 86.9437 268.912 95.2237C263.944 102.952 259.712 107.966 256.216 110.266C252.996 112.29 249.638 112.198 246.142 109.99C242.922 107.874 241.22 105.252 241.036 102.124C234.688 109.852 229.398 117.074 225.166 123.79C216.334 139.522 212.884 150.102 214.816 155.53C211.688 155.898 209.848 155.024 209.296 152.908C207.456 146.468 213.85 131.334 228.478 107.506L232.618 100.744L234.688 97.4317L236.62 94.2577C239.656 89.2897 242.048 85.2877 243.796 82.2517C248.396 74.0637 250.512 68.5897 250.144 65.8297C251.524 65.1857 252.72 65.5997 253.732 67.0717C254.652 68.4517 254.928 70.0617 254.56 71.9017C254.1 75.3977 250.604 82.4817 244.072 93.1537C256.124 78.6177 264.082 70.9817 267.946 70.2457ZM251.524 107.92C254.192 107.092 258.792 101.066 265.324 89.8417C271.856 78.5257 273.788 72.7297 271.12 72.4537C270.016 72.3617 266.796 74.8457 261.46 79.9057C255.756 85.3337 249.914 91.5897 243.934 98.6737C244.67 101.71 245.774 104.148 247.246 105.988C248.718 107.736 250.144 108.38 251.524 107.92ZM331.427 92.4637C331.703 92.1877 332.117 92.1877 332.669 92.4637C333.129 92.7397 333.221 93.1537 332.945 93.7057C331.013 96.9257 327.471 99.7777 322.319 102.262C317.167 104.746 311.923 106.126 306.587 106.402C300.515 111.646 294.857 113.394 289.613 111.646C284.737 109.99 281.977 106.678 281.333 101.71C280.689 96.6497 282.483 91.6357 286.715 86.6677C287.635 81.6077 289.981 77.4217 293.753 74.1097C297.893 70.6137 302.539 69.3257 307.691 70.2457C315.235 71.6257 318.915 75.9497 318.731 83.2177C318.639 89.7497 315.833 96.2357 310.313 102.676C314.269 101.94 318.409 100.422 322.733 98.1217C326.413 96.2817 329.311 94.3957 331.427 92.4637ZM293.201 83.3557C291.729 86.6677 291.223 89.8877 291.683 93.0157C292.143 96.1437 293.477 98.5357 295.685 100.192C297.709 101.848 300.193 102.814 303.137 103.09C304.977 101.066 306.955 98.3057 309.071 94.8097C312.107 89.3817 313.671 84.5517 313.763 80.3197C313.763 75.6277 311.647 73.1437 307.415 72.8677C304.471 72.6837 301.665 73.6497 298.997 75.7657C296.421 77.7897 294.489 80.3197 293.201 83.3557ZM290.855 109.024C293.339 110.22 296.421 109.208 300.101 105.988C297.341 105.528 294.949 104.562 292.925 103.09C289.797 100.974 287.773 98.0297 286.853 94.2577C285.289 102.262 286.623 107.184 290.855 109.024ZM352.392 71.6257C353.128 70.7977 354.232 70.8897 355.704 71.9017C357.268 73.0977 358.096 74.1557 358.188 75.0757C358.188 76.3637 357.222 78.7557 355.29 82.2517C354.554 83.6317 353.542 85.3337 352.254 87.3577L350.598 90.1177L348.942 92.7397C343.33 102.124 341.214 107.552 342.594 109.024C343.606 110.128 348.068 107.736 355.98 101.848C358.556 100.008 361.27 97.9377 364.122 95.6377C365.042 94.9017 365.916 94.1657 366.744 93.4297C367.02 93.2457 367.25 93.0617 367.434 92.8778L367.71 92.6017C368.078 92.3257 368.492 92.3257 368.952 92.6017C369.504 92.8777 369.642 93.2917 369.366 93.8438L369.09 94.1197C368.998 94.3037 368.814 94.5797 368.538 94.9477C367.894 95.6837 367.204 96.5117 366.468 97.4317C364.168 100.1 361.822 102.492 359.43 104.608C351.794 111.232 345.4 113.578 340.248 111.646C335.372 109.806 335.602 104.378 340.938 95.3617C341.858 93.7977 342.916 92.1417 344.112 90.3937L345.63 88.0477C346.09 87.4957 346.596 86.8057 347.148 85.9777L352.254 77.4217C348.942 79.1697 343.238 84.4137 335.142 93.1537C334.314 93.8897 333.532 94.6257 332.796 95.3617C332.06 96.0057 330.634 97.2937 328.518 99.2257C327.874 99.8697 327.322 99.5937 326.862 98.3977C326.31 97.2017 326.494 96.2817 327.414 95.6377C329.898 93.2457 334.13 89.0597 340.11 83.0797C346.09 77.0077 350.184 73.1897 352.392 71.6257ZM418.856 92.6017C419.408 92.8777 419.546 93.2917 419.27 93.8438L418.994 94.1197C418.902 94.3037 418.718 94.5797 418.442 94.9477C417.798 95.6837 417.108 96.5117 416.372 97.4317C414.072 100.1 411.726 102.492 409.334 104.608C401.698 111.232 395.304 113.578 390.152 111.646C385.276 109.806 385.506 104.378 390.842 95.3617C391.762 93.7977 392.82 92.1417 394.016 90.3937L395.534 88.0477C395.994 87.4957 396.5 86.8057 397.052 85.9777C399.168 83.0337 400.18 81.4697 400.088 81.2857C399.996 81.4697 399.536 82.0677 398.708 83.0797C397.788 84.2757 396.73 85.6097 395.534 87.0817C392.314 91.0377 389.094 94.7177 385.874 98.1217C375.938 108.426 368.946 113.21 364.898 112.474C362.782 112.106 361.586 110.864 361.31 108.748C360.758 104.7 362.828 98.8117 367.52 91.0837L368.9 88.8757L370.28 86.8057C371.384 84.9657 372.212 83.5857 372.764 82.6657C374.42 79.8137 375.386 77.6517 375.662 76.1797C375.662 75.5357 376.03 75.0757 376.766 74.7997C377.41 74.6157 378.192 74.6617 379.112 74.9377C380.032 75.2137 380.722 75.6277 381.182 76.1797C381.734 76.8237 381.78 77.5137 381.32 78.2497C381.044 79.3537 379.94 81.6077 378.008 85.0117C377.272 86.2077 376.306 87.8637 375.11 89.9797L373.592 92.4637L371.936 95.0857C366.784 103.918 364.76 108.564 365.864 109.024C367.244 109.484 373.362 104.562 384.218 94.2577C395.35 83.5857 401.514 76.1337 402.71 71.9017C403.078 70.7977 404.044 70.7977 405.608 71.9017C407.172 73.0977 408 74.1557 408.092 75.0757C408.092 76.3637 407.126 78.7557 405.194 82.2517C404.458 83.6317 403.446 85.3337 402.158 87.3577L400.502 90.1177L398.846 92.7397C393.234 102.124 391.118 107.552 392.498 109.024C393.51 110.128 397.972 107.736 405.884 101.848C408.46 100.008 411.174 97.9377 414.026 95.6377C414.946 94.9017 415.82 94.1657 416.648 93.4297C416.924 93.2457 417.154 93.0617 417.338 92.8778L417.614 92.6017C417.982 92.3257 418.396 92.3257 418.856 92.6017ZM461.822 92.3257C462.374 91.9577 462.88 91.9577 463.34 92.3257C463.708 92.6937 463.754 93.1077 463.478 93.5677C461.454 97.1557 458.51 100.606 454.646 103.918C451.334 106.678 447.332 108.886 442.64 110.542C437.58 112.29 432.934 112.934 428.702 112.474C421.71 111.83 416.972 108.242 414.488 101.71C412.372 95.9137 415.316 88.9217 423.32 80.7337C426.724 77.2377 430.266 74.5697 433.946 72.7297C437.902 70.7057 441.214 70.0157 443.882 70.6597C447.838 71.6717 450.092 73.5117 450.644 76.1797C451.104 78.6637 450.046 81.4237 447.47 84.4597C441.49 91.6357 432.474 96.0977 420.422 97.8457C419.686 101.342 420.192 104.102 421.94 106.126C425.344 109.806 430.496 110.634 437.396 108.61C439.972 107.782 442.686 106.632 445.538 105.16C447.93 103.872 450.046 102.492 451.886 101.02C454.094 99.3637 457.406 96.4657 461.822 92.3257ZM425.528 87.0817C423.688 89.5657 422.216 92.2797 421.112 95.2237C427 93.5677 432.98 89.8877 439.052 84.1837C445.032 78.4797 446.55 74.8917 443.606 73.4197C441.766 72.5917 438.546 74.1557 433.946 78.1117C432.198 79.6757 430.496 81.3777 428.84 83.2177C427.368 84.7817 426.264 86.0697 425.528 87.0817ZM553.082 92.6017C553.634 92.8777 553.772 93.2917 553.496 93.8438L553.22 94.1197C553.128 94.3037 552.944 94.5797 552.668 94.9477C552.024 95.6837 551.334 96.5117 550.598 97.4317C548.298 100.1 545.952 102.492 543.56 104.608C535.924 111.232 529.53 113.578 524.378 111.646C519.502 109.806 519.732 104.378 525.068 95.3617C525.988 93.7977 527.046 92.1417 528.242 90.3937L529.76 88.0477C530.22 87.4957 530.726 86.8057 531.278 85.9777C533.394 83.0337 534.406 81.4697 534.314 81.2857C534.222 81.4697 533.762 82.0677 532.934 83.0797C532.014 84.2757 530.956 85.6097 529.76 87.0817C526.54 91.0377 523.32 94.7177 520.1 98.1217C510.164 108.426 503.172 113.21 499.124 112.474C497.008 112.106 495.812 110.864 495.536 108.748C494.984 104.7 497.054 98.8117 501.746 91.0837L503.126 88.8757L504.506 86.8057C505.61 84.9657 506.438 83.5857 506.99 82.6657C508.646 79.8137 509.612 77.6517 509.888 76.1797C509.888 75.5357 510.256 75.0757 510.992 74.7997C511.636 74.6157 512.418 74.6617 513.338 74.9377C514.258 75.2137 514.948 75.6277 515.408 76.1797C515.96 76.8237 516.006 77.5137 515.546 78.2497C515.27 79.3537 514.166 81.6077 512.234 85.0117C511.498 86.2077 510.532 87.8637 509.336 89.9797L507.818 92.4637L506.162 95.0857C501.01 103.918 498.986 108.564 500.09 109.024C501.47 109.484 507.588 104.562 518.444 94.2577C529.576 83.5857 535.74 76.1337 536.936 71.9017C537.304 70.7977 538.27 70.7977 539.834 71.9017C541.398 73.0977 542.226 74.1557 542.318 75.0757C542.318 76.3637 541.352 78.7557 539.42 82.2517C538.684 83.6317 537.672 85.3337 536.384 87.3577L534.728 90.1177L533.072 92.7397C527.46 102.124 525.344 107.552 526.724 109.024C527.736 110.128 532.198 107.736 540.11 101.848C542.686 100.008 545.4 97.9377 548.252 95.6377C549.172 94.9017 550.046 94.1657 550.874 93.4297C551.15 93.2457 551.38 93.0617 551.564 92.8778L551.84 92.6017C552.208 92.3257 552.622 92.3257 553.082 92.6017ZM598.814 93.0157C599.274 96.1437 600.608 98.5357 602.816 100.192C604.84 101.848 607.324 102.814 610.268 103.09C612.108 101.066 614.086 98.3057 616.202 94.8097C619.238 89.3817 620.802 84.5517 620.894 80.3197C620.894 75.6277 618.778 73.1437 614.546 72.8677C611.602 72.6837 608.796 73.6497 606.128 75.7657C603.552 77.7897 601.62 80.3197 600.332 83.3557C598.86 86.6677 598.354 89.8877 598.814 93.0157ZM607.232 105.988C604.472 105.528 602.08 104.562 600.056 103.09C596.928 100.974 594.904 98.0297 593.984 94.2577C592.42 102.262 593.754 107.184 597.986 109.024C600.47 110.22 603.552 109.208 607.232 105.988ZM621.032 97.7077C620.02 99.3637 618.824 101.02 617.444 102.676C621.4 101.94 625.54 100.422 629.864 98.1217C633.544 96.2817 636.442 94.3957 638.558 92.4637C638.834 92.1877 639.248 92.1877 639.8 92.4637C640.26 92.7397 640.352 93.1537 640.076 93.7057C638.144 96.9257 634.602 99.7777 629.45 102.262C624.298 104.746 619.054 106.126 613.718 106.402C607.646 111.646 601.988 113.394 596.744 111.646C591.868 109.99 589.108 106.678 588.464 101.71C587.82 96.6497 589.614 91.6357 593.846 86.6677C594.766 81.6077 597.112 77.4217 600.884 74.1097C605.024 70.6137 609.67 69.3257 614.822 70.2457C621.078 71.3497 624.666 74.5237 625.586 79.7677C625.954 76.0877 625.034 72.5457 622.826 69.1417C620.066 65.0937 615.604 60.6317 609.44 55.7557C605.852 52.0757 603.736 47.6597 603.092 42.5077C602.448 37.5397 604.012 32.7557 607.784 28.1557C610.912 24.2917 614.868 21.3017 619.652 19.1857C629.404 14.9537 638.466 13.4357 646.838 14.6317L650.978 15.5977C655.118 16.7937 658.43 18.6797 660.914 21.2557C663.398 23.8317 664.686 26.6837 664.778 29.8117C665.054 37.1717 659.626 43.4737 648.494 48.7177C647.666 49.1777 646.93 48.9937 646.286 48.1657C645.458 47.4297 645.504 46.6937 646.424 45.9577C660.96 36.7577 665.238 28.8457 659.258 22.2217C657.326 20.1057 654.152 18.8177 649.736 18.3577L645.182 18.0817C637.178 18.2657 629.128 20.1517 621.032 23.7397C616.432 25.9477 612.66 28.7077 609.716 32.0197C607.232 35.3317 606.358 39.2417 607.094 43.7497C607.922 48.2577 610.452 52.2137 614.684 55.6177C618.916 58.9297 622.366 62.2417 625.034 65.5537C627.702 68.8657 628.944 73.3737 628.76 79.0777C628.576 84.6897 626.736 89.9337 623.24 94.8097C622.32 96.0977 621.584 97.0637 621.032 97.7077ZM688.088 92.6017C688.456 92.3257 688.87 92.3257 689.33 92.6017C689.882 92.8777 690.02 93.2917 689.744 93.8438L689.468 94.1197C689.376 94.3037 689.192 94.5797 688.916 94.9477C688.272 95.6837 687.582 96.5117 686.846 97.4317C684.546 100.1 682.2 102.492 679.808 104.608C672.172 111.232 665.778 113.578 660.626 111.646C655.75 109.806 655.98 104.378 661.316 95.3617C662.236 93.7977 663.294 92.1417 664.49 90.3937L666.008 88.0477C666.468 87.4957 666.974 86.8057 667.526 85.9777C669.642 83.0337 670.654 81.4697 670.562 81.2857C670.47 81.4697 670.01 82.0677 669.182 83.0797C668.262 84.2757 667.204 85.6097 666.008 87.0817C662.788 91.0377 659.568 94.7177 656.348 98.1217C646.412 108.426 639.42 113.21 635.372 112.474C633.256 112.106 632.06 110.864 631.784 108.748C631.232 104.7 633.072 99.1797 637.304 92.1877L638.408 89.4277C638.408 88.7837 638.776 88.3237 639.512 88.0477C640.156 87.8637 640.938 87.9097 641.858 88.1857C642.778 88.4617 643.468 88.8757 643.928 89.4277C644.48 90.0717 644.526 90.7617 644.066 91.4977L643.376 93.5677L641.72 96.1897C637.028 104.286 635.234 108.564 636.338 109.024C637.718 109.484 643.836 104.562 654.692 94.2577C665.824 83.5857 671.988 76.1337 673.184 71.9017C673.552 70.7977 674.518 70.7977 676.082 71.9017C677.646 73.0977 678.474 74.1557 678.566 75.0757C678.566 76.3637 677.6 78.7557 675.668 82.2517C674.932 83.6317 673.92 85.3337 672.632 87.3577L670.976 90.1177L669.32 92.7397C663.708 102.124 661.592 107.552 662.972 109.024C663.984 110.128 668.446 107.736 676.358 101.848C678.934 100.008 681.648 97.9377 684.5 95.6377C685.42 94.9017 686.294 94.1657 687.122 93.4297C687.398 93.2457 687.628 93.0617 687.812 92.8778L688.088 92.6017ZM739.059 92.6017C739.611 92.8777 739.749 93.2917 739.473 93.8438L739.197 94.1197C739.105 94.3037 738.921 94.5797 738.645 94.9477C738.001 95.6837 737.311 96.5117 736.575 97.4317C734.275 100.1 731.929 102.492 729.537 104.608C721.901 111.232 715.507 113.578 710.355 111.646C705.479 109.806 705.709 104.378 711.045 95.3617C711.965 93.7977 713.023 92.1417 714.219 90.3937L715.737 88.0477C716.197 87.4957 716.703 86.8057 717.255 85.9777C719.371 83.0337 720.383 81.4697 720.291 81.2857C720.199 81.4697 719.739 82.0677 718.911 83.0797C717.991 84.2757 716.933 85.6097 715.737 87.0817C712.517 91.0377 709.297 94.7177 706.077 98.1217C696.141 108.426 689.149 113.21 685.101 112.474C682.985 112.106 681.789 110.864 681.513 108.748C680.961 104.7 683.031 98.8117 687.723 91.0837L689.103 88.8757L690.483 86.8057C691.587 84.9657 692.415 83.5857 692.967 82.6657C694.623 79.8137 695.589 77.6517 695.865 76.1797C695.865 75.5357 696.233 75.0757 696.969 74.7997C697.613 74.6157 698.395 74.6617 699.315 74.9377C700.235 75.2137 700.925 75.6277 701.385 76.1797C701.937 76.8237 701.983 77.5137 701.523 78.2497C701.247 79.3537 700.143 81.6077 698.211 85.0117C697.475 86.2077 696.509 87.8637 695.313 89.9797L693.795 92.4637L692.139 95.0857C686.987 103.918 684.963 108.564 686.067 109.024C687.447 109.484 693.565 104.562 704.421 94.2577C715.553 83.5857 721.717 76.1337 722.913 71.9017C723.281 70.7977 724.247 70.7977 725.811 71.9017C727.375 73.0977 728.203 74.1557 728.295 75.0757C728.295 76.3637 727.329 78.7557 725.397 82.2517C724.661 83.6317 723.649 85.3337 722.361 87.3577L720.705 90.1177L719.049 92.7397C713.437 102.124 711.321 107.552 712.701 109.024C713.713 110.128 718.175 107.736 726.087 101.848C728.663 100.008 731.377 97.9377 734.229 95.6377C735.149 94.9017 736.023 94.1657 736.851 93.4297C737.127 93.2457 737.357 93.0617 737.541 92.8778L737.817 92.6017C738.185 92.3257 738.599 92.3257 739.059 92.6017ZM768.226 115.372C755.99 120.708 746.284 126.55 739.108 132.898C731.932 139.154 726.918 145.594 724.066 152.218C721.582 157.922 721.03 162.706 722.41 166.57C723.79 170.342 726.458 171.952 730.414 171.4C734.738 170.756 739.384 167.536 744.352 161.74C752.816 151.804 760.774 136.348 768.226 115.372ZM739.384 67.0717C739.844 70.1997 741.178 72.6377 743.386 74.3857C745.41 75.8577 747.802 76.7317 750.562 77.0077C751.942 75.5357 753.23 74.0177 754.426 72.4537C755.438 71.0737 756.22 69.9237 756.772 69.0037C759.9 63.2997 761.648 58.1017 762.016 53.4097C762.384 48.0737 760.452 45.2677 756.22 44.9917C753.368 44.8077 750.378 46.0957 747.25 48.8557C744.398 51.4317 742.282 54.2837 740.902 57.4117C739.43 60.8157 738.924 64.0357 739.384 67.0717ZM785.338 70.6597C767.582 76.6397 757.232 79.9517 754.288 80.5957C751.068 83.3557 746.836 87.5417 741.592 93.1537C740.764 93.8897 739.982 94.6257 739.246 95.3617C738.51 96.0057 737.084 97.2937 734.968 99.2257C734.324 99.8697 733.772 99.5937 733.312 98.3977C732.76 97.2017 732.944 96.2817 733.864 95.6377C736.348 93.2457 740.58 89.0137 746.56 82.9417C747.48 82.0217 748.216 81.1017 748.768 80.1817H747.526C744.858 79.6297 742.558 78.6637 740.626 77.2837C737.222 74.8917 735.244 71.5337 734.692 67.2097C734.048 63.1617 734.692 59.0677 736.624 54.9277C738.464 50.6957 741.086 47.4297 744.49 45.1297C748.262 42.5537 752.264 41.6337 756.496 42.3697C762.568 43.4737 765.972 46.9697 766.708 52.8577C767.352 58.0097 766.064 63.6217 762.844 69.6937C762.108 71.0737 760.682 73.0977 758.566 75.7657C760.866 74.5697 763.074 73.6497 765.19 73.0057C766.11 72.7297 767.26 72.3617 768.64 71.9017L772.228 70.7977C780.692 68.1297 785.798 67.1637 787.546 67.8997C788.374 68.3597 788.88 69.0957 789.064 70.1077C789.892 75.1677 784.878 80.9177 774.022 87.3577C772.182 88.5537 769.882 89.8877 767.122 91.3597L763.534 93.2917L760.084 95.2237C754.564 98.3517 750.608 100.744 748.216 102.4C752.356 100.56 756.496 99.3637 760.636 98.8117C765.512 98.1677 769.238 98.5817 771.814 100.054C774.85 101.802 776.322 104.286 776.23 107.506C783.406 104.194 789.064 101.296 793.204 98.8117C795.964 97.1557 798.448 95.0857 800.656 92.6017C800.932 92.1417 801.346 92.1417 801.898 92.6017C802.45 92.9697 802.588 93.3837 802.312 93.8438C800.932 96.2357 798.816 98.6277 795.964 101.02C791.64 104.424 784.694 108.242 775.126 112.474C772.734 118.638 770.848 123.468 769.468 126.964C767.26 132.392 765.236 137.13 763.396 141.178C758.704 151.39 754.242 158.98 750.01 163.948C744.122 170.756 738.234 174.344 732.346 174.712C726.918 175.08 722.916 172.918 720.34 168.226C717.672 163.442 717.534 157.738 719.926 151.114C722.594 143.478 728.206 136.348 736.762 129.724C746.238 122.456 757.232 116.062 769.744 110.542C771.676 106.034 771.722 103.366 769.882 102.538C767.49 101.434 763.212 101.526 757.048 102.814C750.792 104.01 746.192 105.758 743.248 108.058C742.42 107.874 741.776 107.368 741.316 106.54C742.052 104.24 744.996 101.204 750.148 97.4317C752.08 96.0517 754.564 94.3957 757.6 92.4637L761.74 89.8417L766.018 87.3577C773.102 82.9417 777.978 79.6757 780.646 77.5597C783.866 74.9837 785.43 72.6837 785.338 70.6597ZM819.852 63.4837C819.484 66.7957 818.288 70.0157 816.264 73.1437C814.24 76.2717 811.434 81.1937 807.846 87.9097C802.05 98.6737 798.416 107.046 796.944 113.026C801.728 104.746 809.502 95.5917 820.266 85.5637C831.674 74.9837 839.31 70.4297 843.174 71.9017C844.186 72.2697 845.06 72.8217 845.796 73.5577C846.624 74.2937 846.992 75.0757 846.9 75.9037C846.808 76.2717 846.624 76.4557 846.348 76.4557C845.98 76.5477 845.75 76.5017 845.658 76.3177C845.566 75.4897 845.244 75.1217 844.692 75.2137C840.368 75.5817 831.996 81.6537 819.576 93.4297H819.714C818.794 95.6377 818.104 99.1337 817.644 103.918C817.184 109.254 817.598 112.244 818.886 112.888C820.91 113.992 825.924 111.508 833.928 105.436C836.872 103.136 839.816 100.698 842.76 98.1217C845.428 95.7297 847.268 93.8897 848.28 92.6017C848.74 92.2337 849.2 92.2337 849.66 92.6017C850.028 92.9697 850.12 93.3837 849.936 93.8438L849.384 94.5337L848.694 95.3617L847.314 97.0177C846.118 98.4897 845.014 99.8237 844.002 101.02C841.058 104.424 838.298 107.23 835.722 109.438C828.362 115.786 822.244 117.672 817.368 115.096C812.768 112.612 811.066 107.736 812.262 100.468C802.326 110.772 797.082 117.718 796.53 121.306C795.978 121.858 795.15 121.95 794.046 121.582C793.034 121.214 792.39 120.662 792.114 119.926C789.538 114.314 793.31 102.354 803.43 84.0457C807.202 77.3297 810.238 72.0397 812.538 68.1757C814.93 64.2197 815.896 60.6317 815.436 57.4117C816.816 56.7677 818.012 57.1817 819.024 58.6537C819.944 60.1257 820.22 61.7357 819.852 63.4837ZM899.026 92.6017C899.578 92.8777 899.716 93.2917 899.44 93.8438L899.164 94.1197C899.072 94.3037 898.888 94.5797 898.612 94.9477C897.968 95.6837 897.278 96.5117 896.542 97.4317C894.242 100.1 891.896 102.492 889.504 104.608C881.868 111.232 875.474 113.578 870.322 111.646C865.446 109.806 865.676 104.378 871.012 95.3617C871.932 93.7977 872.99 92.1417 874.186 90.3937L875.704 88.0477C876.164 87.4957 876.67 86.8057 877.222 85.9777C879.338 83.0337 880.35 81.4697 880.258 81.2857C880.166 81.4697 879.706 82.0677 878.878 83.0797C877.958 84.2757 876.9 85.6097 875.704 87.0817C872.484 91.0377 869.264 94.7177 866.044 98.1217C856.108 108.426 849.116 113.21 845.068 112.474C842.952 112.106 841.756 110.864 841.48 108.748C840.928 104.7 842.998 98.8117 847.69 91.0837L849.07 88.8757L850.45 86.8057C851.554 84.9657 852.382 83.5857 852.934 82.6657C854.59 79.8137 855.556 77.6517 855.832 76.1797C855.832 75.5357 856.2 75.0757 856.936 74.7997C857.58 74.6157 858.362 74.6617 859.282 74.9377C860.202 75.2137 860.892 75.6277 861.352 76.1797C861.904 76.8237 861.95 77.5137 861.49 78.2497C861.214 79.3537 860.11 81.6077 858.178 85.0117C857.442 86.2077 856.476 87.8637 855.28 89.9797L853.762 92.4637L852.106 95.0857C846.954 103.918 844.93 108.564 846.034 109.024C847.414 109.484 853.532 104.562 864.388 94.2577C875.52 83.5857 881.684 76.1337 882.88 71.9017C883.248 70.7977 884.214 70.7977 885.778 71.9017C887.342 73.0977 888.17 74.1557 888.262 75.0757C888.262 76.3637 887.296 78.7557 885.364 82.2517C884.628 83.6317 883.616 85.3337 882.328 87.3577L880.672 90.1177L879.016 92.7397C873.404 102.124 871.288 107.552 872.668 109.024C873.68 110.128 878.142 107.736 886.054 101.848C888.63 100.008 891.344 97.9377 894.196 95.6377C895.116 94.9017 895.99 94.1657 896.818 93.4297C897.094 93.2457 897.324 93.0617 897.508 92.8778L897.784 92.6017C898.152 92.3257 898.566 92.3257 899.026 92.6017ZM941.992 92.3257C942.544 91.9577 943.05 91.9577 943.51 92.3257C943.878 92.6937 943.924 93.1077 943.648 93.5677C941.624 97.1557 938.68 100.606 934.816 103.918C931.504 106.678 927.502 108.886 922.81 110.542C917.75 112.29 913.104 112.934 908.872 112.474C901.88 111.83 897.142 108.242 894.658 101.71C892.542 95.9137 895.486 88.9217 903.49 80.7337C906.894 77.2377 910.436 74.5697 914.116 72.7297C918.072 70.7057 921.384 70.0157 924.052 70.6597C928.008 71.6717 930.262 73.5117 930.814 76.1797C931.274 78.6637 930.216 81.4237 927.64 84.4597C921.66 91.6357 912.644 96.0977 900.592 97.8457C899.856 101.342 900.362 104.102 902.11 106.126C905.514 109.806 910.666 110.634 917.566 108.61C920.142 107.782 922.856 106.632 925.708 105.16C928.1 103.872 930.216 102.492 932.056 101.02C934.264 99.3637 937.576 96.4657 941.992 92.3257ZM905.698 87.0817C903.858 89.5657 902.386 92.2797 901.282 95.2237C907.17 93.5677 913.15 89.8877 919.222 84.1837C925.202 78.4797 926.72 74.8917 923.776 73.4197C921.936 72.5917 918.716 74.1557 914.116 78.1117C912.368 79.6757 910.666 81.3777 909.01 83.2177C907.538 84.7817 906.434 86.0697 905.698 87.0817ZM981.359 48.9937C983.843 48.7177 985.361 49.3157 985.913 50.7877C985.913 52.6277 981.727 60.1717 973.355 73.4197L970.871 77.2837L968.387 81.1477C966.639 83.9997 965.167 86.3917 963.971 88.3237C960.935 93.2917 959.049 96.6957 958.313 98.5357C957.669 98.6277 957.025 98.0757 956.381 96.8797C955.829 95.6837 955.691 94.6717 955.967 93.8438C956.611 91.7277 958.313 88.3237 961.073 83.6317C962.177 81.7917 963.557 79.5837 965.213 77.0077L967.421 73.4197L969.767 69.9697C977.495 57.8257 981.359 50.8337 981.359 48.9937ZM954.449 102.262C955.645 102.538 956.289 103.274 956.381 104.47C956.473 105.574 956.197 106.816 955.553 108.196C953.713 111.692 951.551 113.164 949.067 112.612C947.871 112.428 947.227 111.692 947.135 110.404C947.043 109.3 947.365 108.058 948.101 106.678C949.849 103.274 951.965 101.802 954.449 102.262Z" fill="#771919"></path></svg> 