<?xml version="1.0" encoding="UTF-8"?> <svg xmlns="http://www.w3.org/2000/svg" width="154" height="154" viewBox="0 0 154 154" fill="none"><ellipse cx="80" cy="76.5" rx="66" ry="67.5" fill="#711717"></ellipse><path d="M72.2661 8.00599C46.3689 9.66661 21.1124 28.42 12.0336 52.8377C9.25794 60.4831 7.29652 75.8928 8.08254 83.8788C12.0187 121.106 45.5429 148.919 83.004 145.801C107.363 143.832 131.12 126.239 140.334 103.416C143.47 95.5913 145.643 78.5187 144.807 68.2731C142.959 45.619 126.223 23.0979 104.136 13.4144C95.9098 9.88889 81.8042 7.41751 72.2661 8.00599ZM101.288 16.3189C124.859 25.8533 140.847 48.0539 143.116 74.4793C143.805 82.3404 143.608 83.8924 140.8 93.5615C131.162 125.907 101.871 145.386 69.0557 141.209C37.7928 137.23 14.742 112.102 12.5695 79.6057C11.9387 70.4001 12.1362 68.8481 14.9018 59.5116C19.2457 44.8557 25.8935 35.1121 38.1266 25.7414C48.1244 18.0014 57.5457 13.9057 69.2345 12.3517C77.2629 11.2331 93.7953 13.2248 101.288 16.3189Z" fill="#FEFAEF"></path><path d="M56.5529 36.9333C58.3654 36.8765 60.2621 37.7677 62.1649 39.7314C64.0679 41.6955 65.8761 44.6368 67.4607 48.3978C70.6266 55.9119 72.7958 66.4471 73.1647 78.2092C73.5336 89.9711 72.0289 100.621 69.3402 108.318C67.9944 112.171 66.3742 115.22 64.598 117.3C62.822 119.379 60.9849 120.387 59.1724 120.444C57.3599 120.501 55.4632 119.61 53.5604 117.646C51.6574 115.682 49.8492 112.741 48.2646 108.98C45.0988 101.466 42.9296 90.9311 42.5606 79.1691C42.1917 67.407 43.6963 56.7566 46.3851 49.0589C47.7309 45.206 49.3511 42.1571 51.1273 40.0776C52.9033 37.9985 54.7404 36.9902 56.5529 36.9333Z" stroke="#FEFAEF" stroke-width="2.5"></path><path d="M93.8484 36.3318C95.6609 36.2749 97.5576 37.1662 99.4604 39.1299C101.363 41.0939 103.172 44.0353 104.756 47.7962C107.922 55.3103 110.091 65.8455 110.46 77.6076C110.829 89.3696 109.324 100.019 106.636 107.717C105.29 111.57 103.67 114.619 101.893 116.698C100.118 118.777 98.2804 119.786 96.4679 119.842C94.6554 119.899 92.7587 119.008 90.8559 117.044C88.9529 115.08 87.1447 112.139 85.5601 108.378C82.3943 100.864 80.2251 90.3295 79.8561 78.5676C79.4872 66.8055 80.9918 56.1551 83.6806 48.4573C85.0264 44.6044 86.6466 41.5556 88.4228 39.4761C90.1988 37.397 92.0359 36.3886 93.8484 36.3318Z" stroke="#FEFAEF" stroke-width="2.5"></path><path d="M73.05 8.00599C47.1527 9.66661 21.8963 28.42 12.8174 52.8377C10.0418 60.4831 8.08038 75.8928 8.8664 83.8788C12.8026 121.106 46.3268 148.919 83.7879 145.801C108.147 143.832 131.904 126.239 141.118 103.416C144.254 95.5913 146.427 78.5187 145.591 68.2731C143.743 45.619 127.007 23.0979 104.92 13.4144C96.6937 9.88889 82.5881 7.41751 73.05 8.00599ZM102.071 16.3189C125.642 25.8533 141.63 48.0539 143.9 74.4793C144.589 82.3404 144.391 83.8924 141.584 93.5615C131.946 125.907 102.654 145.386 69.8395 141.209C38.5767 137.23 15.5258 112.102 13.3533 79.6057C12.7225 70.4001 12.9201 68.8481 15.6857 59.5116C20.0296 44.8557 26.6773 35.1121 38.9105 25.7414C48.9083 18.0014 58.3295 13.9057 70.0184 12.3517C78.0468 11.2331 94.5792 13.2248 102.071 16.3189Z" fill="#FEFAEF"></path><path d="M57.3368 36.9333C59.1492 36.8765 61.046 37.7677 62.9487 39.7314C64.8518 41.6955 66.6599 44.6368 68.2445 48.3978C71.4104 55.9119 73.5796 66.4471 73.9486 78.2092C74.3175 89.9711 72.8128 100.621 70.1241 108.318C68.7783 112.171 67.158 115.22 65.3819 117.3C63.6059 119.379 61.7688 120.387 59.9563 120.444C58.1438 120.501 56.2471 119.61 54.3443 117.646C52.4413 115.682 50.6331 112.741 49.0485 108.98C45.8826 101.466 43.7135 90.9311 43.3445 79.1691C42.9756 67.407 44.4802 56.7566 47.169 49.0589C48.5147 45.206 50.135 42.1571 51.9112 40.0776C53.6872 37.9985 55.5243 36.9902 57.3368 36.9333Z" stroke="#FEFAEF" stroke-width="2.5"></path><path d="M94.6322 36.3318C96.4447 36.2749 98.3415 37.1662 100.244 39.1299C102.147 41.0939 103.955 44.0353 105.54 47.7962C108.706 55.3103 110.875 65.8455 111.244 77.6076C111.613 89.3696 110.108 100.019 107.42 107.717C106.074 111.57 104.454 114.619 102.677 116.698C100.901 118.777 99.0642 119.786 97.2518 119.842C95.4393 119.899 93.5426 119.008 91.6398 117.044C89.7367 115.08 87.9286 112.139 86.344 108.378C83.1781 100.864 81.009 90.3295 80.64 78.5676C80.271 66.8055 81.7757 56.1551 84.4644 48.4573C85.8102 44.6044 87.4305 41.5556 89.2067 39.4761C90.9826 37.397 92.8198 36.3886 94.6322 36.3318Z" stroke="#FEFAEF" stroke-width="2.5"></path></svg> 