<?xml version="1.0" encoding="UTF-8"?> <svg xmlns="http://www.w3.org/2000/svg" width="150" height="127" viewBox="0 0 150 127" fill="none"><path d="M74.7992 36.3791C59.5043 16.3257 24.5639 -15.6237 7.16161 17.0055C-14.5912 57.792 55.0227 116.862 75.416 124" stroke="#711717" stroke-width="5" stroke-linecap="round"></path><path d="M74.7363 36.3791C90.0312 16.3257 124.972 -15.6237 142.374 17.0055C164.127 57.792 95.4693 116.862 75.0761 124" stroke="#711717" stroke-width="6" stroke-linecap="round"></path><path d="M75.4323 67.3247C76.3541 66.9296 78.2775 65.936 80.966 64.5743C84.7737 62.6457 87.591 61.9417 89.227 61.5726C89.5866 61.4914 89.9892 61.5387 90.0939 61.6374C90.3198 61.8504 89.6659 62.3347 87.9192 63.7204C86.3483 64.9665 83.2095 67.0813 81.0228 68.7931C78.8361 70.505 77.651 71.6901 76.9088 72.3994C76.1666 73.1087 75.9032 73.3062 76.7881 72.8483C77.6729 72.3904 79.714 71.2711 82.6419 70.0032C85.5698 68.7353 89.3228 67.3526 91.1244 66.772C92.9261 66.1914 92.6627 66.4548 92.3953 66.6892C91.0107 67.9034 88.6085 68.7851 86.319 69.7468C85.2364 70.2016 83.449 70.8362 81.5456 71.4387C75.4106 73.3808 74.3071 73.6414 73.7035 73.8748C72.7714 74.2354 75.7595 73.5097 77.2549 73.2783C78.1498 73.0468 81.7191 72.582 86.8687 72.0832C88.9237 71.9136 89.8455 71.9136 90.7952 71.9136" stroke="#711717" stroke-width="2" stroke-linecap="round"></path><path d="M65.3586 58.3796C64.4073 56.6967 64.1151 56.1847 63.7306 55.7267C63.3343 55.2545 63.1264 54.7567 62.8512 54.3167C62.602 53.9183 62.6123 52.931 62.7035 52.1752C62.7937 51.4272 62.977 50.7669 63.161 50.1611C63.311 49.6672 63.4538 49.1543 63.6004 48.6232C63.7318 48.1472 64.003 47.7263 64.1316 47.25C64.2946 46.6459 64.2601 45.3908 64.1508 44.5219C64.0748 43.9179 63.6383 43.4421 63.4005 43.0021C63.1546 42.5472 62.9067 42.014 62.6134 41.4829C62.3593 41.0227 61.9928 40.5135 61.6066 40.018C61.1408 39.4203 60.5647 38.8284 59.358 37.6409C58.716 37.0091 58.4028 36.5215 58.0733 36.0634C57.6562 35.4837 57.1593 35.0209 56.5909 34.5255C56.0405 34.0459 55.6939 33.4457 55.3633 33.0057C55.0153 32.5428 54.5229 31.8726 54.0637 31.358C53.7047 30.9555 53.3146 30.4797 52.7285 29.8398C51.7387 28.7591 51.0077 28.32 50.3848 27.9158C49.6585 27.4444 49.3226 27.1095 48.3356 26.507C47.8209 26.1927 47.4551 25.9011 46.8147 25.3535C46.1726 24.8045 45.5877 24.2182 45.1658 23.8694C44.786 23.5554 44.0893 22.9396 43.3907 22.3502C42.8302 21.8774 42.2197 21.472 41.2683 20.5943C40.6616 20.0344 40.0578 19.7143 39.5827 19.4205C38.6665 18.8538 38.1178 18.4313 37.6598 18.1572C36.8466 17.6707 35.9208 17.1131 35.226 16.7116C34.3097 16.1821 33.8337 15.9047 33.2663 15.5757C32.451 15.103 31.2719 14.9161 30.721 14.7694C30.1022 14.6047 29.5143 14.4767 28.7448 14.3481C28.2769 14.27 27.7919 14.257 26.7011 14.1471C22.6483 13.739 22.0445 14.2921 21.4387 14.4569C20.9399 14.5926 20.4692 14.9139 19.7915 15.3165C19.1916 15.6728 18.8566 16.0849 18.3266 16.6155C17.3971 17.5459 16.9167 18.6466 16.3855 19.6347C15.7889 20.7447 15.5611 21.6851 15.2859 22.2552C15.0388 22.7673 14.7197 23.8052 14.389 24.6164C14.0521 25.4431 13.731 26.4789 13.4185 27.2715C13.2309 27.7473 12.9994 28.9308 12.7588 29.9074C12.621 30.4669 12.5204 31.0597 12.4111 31.7018C12.2898 32.4146 12.2282 33.1469 12.0997 34.1152C11.798 36.3885 12.2634 36.9917 12.41 37.8161C12.5318 38.5004 12.7028 39.1513 12.8857 40.1768C13.0858 41.2988 13.4696 42.4424 13.6371 43.3097C13.7541 43.9156 13.9837 44.7185 14.0946 45.3595C14.2479 46.2453 14.6428 47.0957 14.9361 47.8861C15.2409 48.7074 15.5216 49.4399 15.8149 50.1929C16.1328 51.0093 16.4004 51.6743 16.6755 52.3175C16.8857 52.8087 17.1693 53.3242 17.3896 53.8004C17.6857 54.4407 18.0108 54.9346 18.2865 55.5575C18.6419 56.3604 18.9269 56.8395 19.2202 57.4618C19.5575 58.1773 21.0427 59.6516 21.9835 60.4651C22.5723 60.9741 23.4989 61.4158 24.2904 61.7108C24.6571 61.8474 25.4762 62.2221 27.9693 62.8779C29.7991 63.3593 32.8186 63.9688 34.4774 64.3412C36.8296 64.8692 37.8542 64.9332 38.99 65.153C39.2814 65.2093 39.5745 65.1903 40.612 65.2266C41.6495 65.2628 43.4258 65.3353 44.504 65.3545C46.6853 65.3934 47.9253 64.8256 48.9678 64.005C50.6777 62.659 50.5639 61.3873 50.8572 60.3981C51.1189 59.5154 51.078 58.095 50.8424 56.0886C50.7029 54.9007 50.1355 53.4297 49.6208 52.1928C49.1062 50.9559 48.5624 50.0133 47.8835 49.0384C47.2047 48.0635 46.4072 47.0847 44.9994 45.7105C43.5917 44.3363 41.5979 42.5962 40.3895 41.573C38.8446 40.2647 37.8652 39.7083 36.8776 39.1777C35.9255 38.6662 35.2991 38.534 34.7668 38.4779C34.2492 38.4234 34.7454 39.6281 35.0563 40.7244C35.7214 43.0697 36.7579 43.8397 37.3626 44.317C37.6845 44.5711 38.0409 44.6845 38.315 44.7213C38.4429 44.7385 38.5528 44.6856 38.6451 44.5763C39.0972 44.0408 38.9571 43.1872 38.9763 42.2172C38.9876 41.649 38.4496 40.3377 37.6817 38.6185C37.1922 37.5226 36.3635 36.4171 35.1228 34.8468C33.7306 33.085 32.4429 32.1275 31.5867 31.5623C29.2628 30.0285 28.6333 30.1117 28.3955 30.1655C28.0702 30.2392 28.2291 30.9147 28.2653 31.498C28.3199 32.3764 28.7025 33.9455 29.4133 36.2815C29.8102 37.586 30.5228 39.0524 31.312 40.4706C32.8721 43.2737 34.0863 44.6471 34.4329 44.9388C35.297 45.6659 35.6242 46.0016 35.8439 46.3482C36.091 46.7379 35.6286 48.225 35.153 50.2545C34.8251 51.6532 34.8201 52.7717 34.8382 53.7224C34.8509 54.3853 35.1475 55.1884 35.5858 56.1935C35.9588 57.049 36.6469 57.7534 37.668 58.4839C38.256 58.9046 39.1241 59.2144 41.1486 59.5643C43.1732 59.9142 46.3632 60.2404 50.5623 60.2635C54.7613 60.2866 59.8726 59.9966 62.8501 59.7928C65.8276 59.589 66.5164 59.4803 67.3244 59.2974C69.0497 58.9068 70.2261 58.4905 70.7374 58.2895C72.0663 57.7671 73.4853 57.2459 73.9978 56.862C74.9005 56.1857 75.1704 55.563 75.4456 55.0494C75.8911 54.2181 76.4513 53.1463 76.7638 52.5778C77.0052 52.1388 77.2576 51.6084 77.4597 51.1311C77.6615 50.6547 77.8069 50.0705 78.082 49.5932C78.3168 49.186 78.3935 48.7149 78.6313 48.275C78.8548 47.8615 78.9427 47.3967 79.0894 46.9567C79.236 46.5168 79.4546 46.0785 79.9292 45.4754C81.0121 44.0992 81.4319 43.7716 81.7252 43.3317C82.0185 42.8917 82.2382 42.4534 82.4942 42.0135C82.7601 41.5564 83.1522 41.1352 83.4828 40.6953C83.7959 40.2787 84.1782 39.9269 84.5627 39.5781C84.9472 39.2293 85.3492 38.8284 85.771 38.3884C86.14 38.0036 86.5576 37.62 86.8882 37.18C87.2059 36.7574 87.5462 36.3743 87.895 35.9717C88.2778 35.5298 88.6447 35.0934 89.0847 34.5804C89.4227 34.1863 89.7432 33.8477 90.092 33.4451C90.474 33.0041 91.0241 32.6042 91.4465 32.0907C91.9819 31.4397 92.4895 31.0663 92.9294 30.6071C93.3176 30.202 93.8077 29.8931 94.1565 29.5086C94.6954 28.9145 95.5653 28.2453 95.9871 27.9339C96.4048 27.6256 96.7737 27.1842 97.2136 26.8354C97.6717 26.4722 98.0919 26.1582 98.623 25.7007C99.0393 25.342 99.7023 25.097 100.27 24.8213C101.163 24.3878 101.752 24.1809 103.907 24.1787C105.247 24.1773 105.672 25.1651 106.093 25.861C106.301 26.2037 106.333 27.1018 106.297 28.2904C106.272 29.0873 105.751 30.2128 104.44 32.6905C103.553 34.3679 101.97 36.7632 98.8108 40.9144C95.6521 45.0657 90.9032 50.8658 88.33 54.0531C85.7567 57.2404 85.503 57.6392 85.2273 58.0077C84.6905 58.7252 83.964 59.5462 83.2692 60.4601C82.3618 61.6537 80.8585 63.637 80.2796 64.6768C80.1829 64.8505 80.9178 64.496 81.8104 63.932C83.3927 62.9319 84.5429 61.9695 85.1454 61.641C85.8076 61.28 87.5704 60.3635 89.713 59.4473C90.3944 59.156 90.2969 59.3287 89.3346 60.1828C88.3723 61.0369 86.5598 62.5956 85.2273 63.6705C83.8948 64.7454 83.0973 65.2892 82.2695 65.7868C79.5434 67.4257 78.5802 67.6422 78.1205 67.6625C77.6499 67.6833 78.9757 66.6953 79.4546 66.1625C79.9657 65.594 80.8058 64.9025 81.104 64.3313C81.1498 64.2436 80.9596 64.1665 80.8129 64.1291C79.7499 63.8584 78.2144 64.5301 76.125 65.0574C74.368 65.5008 71.1719 66.2009 68.876 66.5744C66.5801 66.9479 65.2751 66.9479 64.4397 66.9117C63.278 66.8029 62.5431 66.547 61.9027 66.218C61.661 66.0702 61.5885 65.9615 61.5138 65.5199" stroke="#711717" stroke-width="22" stroke-linecap="round"></path><path d="M55.0326 62.224C55.0326 62.2965 55.0326 62.369 55.3045 63.7295C55.5764 65.09 56.1201 67.7363 56.5271 70.0058C56.9341 72.2753 57.1879 74.0879 57.3186 75.1666C57.484 76.5316 57.5943 77.8854 57.8684 79.6414C58.2042 81.7925 58.5478 83.9678 58.5659 84.8477C58.5736 85.2184 58.3677 83.4691 57.9453 82.3124C57.7241 81.7068 57.3043 81.0854 56.7402 79.938C56.3477 79.1395 55.6324 77.9568 54.7882 76.7062C53.944 75.4555 52.9652 74.1867 52.2797 73.37C51.2828 72.1822 50.5683 71.5646 49.3132 70.3996C48.3761 69.5298 46.7169 68.2197 45.7134 67.4199C44.4041 66.3765 43.83 65.9611 43.3736 65.5591C42.3184 64.6296 40.1786 63.294 38.9065 62.592C37.7845 61.9729 37.2763 61.677 36.5986 61.237C35.9099 60.79 35.444 60.0665 34.8778 59.553C34.1426 58.8863 33.0339 58.6385 31.8393 58.5253C31.5099 58.4941 31.306 58.8538 31.1231 59.1279C30.7341 59.7107 30.8655 61.5902 31.0467 64.0179C31.1447 65.3307 31.5905 66.7718 32.0672 68.2257C33.0195 71.1297 33.8666 72.7675 34.1407 73.1695C34.3696 73.5053 34.563 73.7572 34.691 73.8495C35.2472 74.2505 34.7476 72.2226 34.5098 71.7645C33.9035 70.5968 33.0647 68.5624 32.7159 67.8473C32.3795 67.1574 31.4938 66.0402 30.5573 64.8275C29.9305 64.0157 29.2199 63.6169 28.6706 63.2143C28.1024 62.7978 27.682 62.4811 27.242 62.2251C26.6189 61.8626 25.9233 61.4924 25.7223 61.4551C25.0358 61.3275 25.6278 63.0633 26.0848 64.4512C26.6015 66.0208 27.0558 66.4686 27.604 67.1827C28.2132 67.9762 28.7036 68.1537 29.1243 68.3932C29.2529 68.4481 29.3979 68.5206 29.5269 68.5761C29.656 68.6316 29.7648 68.6678 29.8768 68.7052" stroke="#711717" stroke-width="22" stroke-linecap="round"></path><path d="M63.0516 79.3584C63.0879 79.3584 63.1241 79.3584 64.0128 80.3735C64.9015 81.3885 66.6416 83.4185 67.5923 84.5005C68.7982 85.873 69.2011 86.1318 69.641 86.279C69.7509 86.3158 69.8602 86.0989 69.9162 85.861C70.0462 85.3093 69.8272 84.1995 69.6256 82.5024C69.387 80.4929 69.6789 79.1047 69.7882 78.5752C69.8459 78.2959 69.97 78.0095 70.1348 78.5851C70.2996 79.1607 70.5171 80.6107 70.6291 81.6477C70.8033 83.2592 70.6324 84.9136 70.377 86.6695C70.2213 87.7401 69.7536 88.1816 69.5345 88.4376C69.3486 88.6547 69.022 88.732 68.6205 88.7869C68.1505 88.8512 67.16 88.2618 65.9709 87.3473C65.2977 86.8296 64.5588 86.1373 62.3206 84.0639C60.6291 82.4969 57.9436 79.7429 56.3074 78.1792C54.2608 76.2234 53.5693 75.9168 53.2228 75.8619C53.0228 75.8302 52.7674 75.8432 52.6005 75.9157C52.0209 76.1674 52.1413 77.7744 52.0303 79.1343C51.9304 80.3595 51.302 82.4562 50.5677 84.3517C50.3999 84.7848 50.0904 84.9235 49.8531 85.0514C49.7299 85.1179 49.5796 85.1432 49.4142 85.1075C48.6922 84.9515 48.4064 84.2314 46.9519 82.448C45.8936 81.1502 43.8322 78.8202 42.7501 77.5338C41.1112 75.5853 40.0973 74.1998 39.3629 73.2831C38.9072 72.7143 38.5923 72.3291 38.4281 72.1462C38.3493 72.0584 38.2276 72.0358 38.1534 72.1259C37.635 72.7557 37.7135 73.934 37.5487 74.5415C37.4697 74.8327 37.3103 75.0732 37.201 75.2561C37.1476 75.3454 37.0192 75.3665 36.9088 75.367C36.3368 75.3699 35.5209 74.3822 34.9134 73.8675C34.4079 73.4393 34.0533 72.9893 33.6133 72.4763C33.2419 72.0432 32.5549 71.2712 31.8744 70.7C31.7529 70.598 31.6366 70.5352 31.5987 70.5885C31.2698 71.0509 31.7069 71.7392 31.7805 72.49C31.8466 73.1644 32.3638 74.2262 32.6406 74.871C32.928 75.5404 33.5721 76.3156 34.0676 77.0307C34.4972 77.6509 35.2177 78.618 35.7889 79.3749C36.1603 79.867 36.4656 80.2724 36.7962 80.7662C37.1387 81.2775 37.7465 81.8455 38.2963 82.5776C39.0603 83.5951 39.6513 84.1172 40.0182 84.556C40.5868 85.2362 41.1518 85.9824 41.611 86.4059C42.1254 86.8803 42.7271 87.5225 43.1665 88.0158C43.986 88.9357 44.4122 89.2428 44.8148 89.6646C45.1829 90.0503 45.5832 90.3786 46.1687 90.9817C46.8864 91.721 47.5605 92.1363 48.3652 92.8673C48.7958 93.2586 49.4258 93.7093 50.4699 94.369C51.266 94.8719 51.8447 95.2494 52.7032 95.7053C54.0116 96.4001 54.3712 96.8225 55.121 97.3717C55.8493 97.9053 56.4936 98.4329 57.92 99.3661C58.632 99.8319 59.1673 100.265 59.9181 100.814C60.3836 101.154 61.0699 101.619 61.7131 101.895C62.3074 102.151 62.9396 102.645 63.4339 102.92C64.159 103.325 65.0224 103.851 65.7776 104.293C66.3339 104.62 67.2567 105.244 67.9927 105.63C68.7568 106.031 69.6031 106.527 70.0986 106.82C70.6636 107.154 71.1784 107.588 71.6183 107.809C72.0326 108.018 72.4966 108.174 72.9365 108.377C73.3912 108.585 73.8148 108.761 74.3459 109.09C74.766 109.35 75.1341 109.42 75.2989 109.457C75.8326 109.578 74.7364 107.635 73.7335 105.719C73.1587 104.621 72.3318 103.332 71.5041 101.554C70.6764 99.7764 69.8426 97.5651 69.2862 95.8822C68.3801 93.1416 68.1784 91.7012 68.1234 90.7543C67.945 87.6788 68.397 86.7206 68.5799 86.3164C68.6752 86.1057 69.055 86.9711 69.674 88.8616C70.1686 90.3722 70.8005 93.0722 71.6266 95.5054C72.4527 97.9386 73.3952 100.041 73.8807 101.197C74.7175 103.188 74.8057 104.877 74.8968 105.5C75.0456 106.517 75.0254 107.691 74.916 108.485C74.8361 109.066 74.6233 109.565 74.3855 110.023C74.1289 110.517 74.074 110.993 73.9274 111.542C73.7623 112.161 73.7071 112.896 73.616 113.429C73.5941 113.557 73.5973 113.702 73.6335 113.722C74.0086 113.933 74.1817 112.865 74.5294 112.079C74.98 111.06 75.6449 110.413 76.1222 109.88C76.5872 109.361 76.8906 108.801 77.5129 107.996C78.0695 107.276 78.7581 106.494 79.5809 105.489C79.9099 105.087 80.3322 104.555 80.7892 103.86C81.1139 103.366 81.7943 102.217 82.6177 100.662C83.393 99.1971 84.288 97.7079 84.6543 96.8461C84.9297 96.1983 84.9844 95.6559 85.2222 95.0693C85.5243 94.3243 85.7534 93.2765 85.9912 92.6163C86.342 91.6424 86.8145 90.3127 87.7439 88.2673C88.1597 87.3521 89.0335 86.0857 89.8431 84.9965C90.6527 83.9073 91.4502 83.0736 92.1329 82.4266C93.3201 81.3015 94.5359 80.5701 95.669 80.0395C96.5353 79.6339 97.2492 79.688 97.7062 79.7967C98.6366 80.0182 98.4235 82.3112 97.9863 85.0432C97.8477 85.9095 97.3997 86.5679 96.7631 87.879C96.3105 88.8112 95.4378 90.2051 94.3739 91.749C93.31 93.293 92.0412 94.9243 91.3151 95.8371C90.462 96.9096 90.0408 97.2256 89.602 97.464C89.4318 97.5565 89.3081 97.4486 89.2521 97.3388C89.1336 97.1063 89.2323 96.7895 89.3416 96.4611C89.4806 96.0434 89.708 95.5823 91.4672 92.1346C93.1089 88.9173 96.4528 82.8143 98.0978 79.6946C99.7428 76.5748 99.6341 76.6473 99.5056 76.7753C99.213 77.0666 98.9376 77.525 97.0141 80.0483C95.2661 82.3414 91.8281 86.5954 89.1664 89.7234C86.5047 92.8514 84.6922 94.7002 83.4503 95.8882C81.6502 97.6103 80.8485 98.0693 80.7019 97.9973C80.599 97.9468 80.7002 97.6354 82.6402 92.9189C84.5802 88.2025 88.4227 79.0311 91.3991 72.6932C94.3755 66.3554 96.3693 63.1291 97.4508 61.4127C98.5323 59.6963 98.641 59.5875 98.0989 60.184C97.5568 60.7805 96.3605 62.0855 95.0011 63.3741C93.6417 64.6626 92.1555 65.8951 90.2841 67.1463C88.4128 68.3975 86.2016 69.6301 84.1743 70.5913C82.147 71.5525 80.3707 72.205 79.3287 72.5411C78.2868 72.8773 78.0331 72.8772 77.8661 72.7504C77.6991 72.6235 77.6266 72.3697 77.6618 72.0396C77.7413 71.2931 78.2088 70.4649 78.9553 69.1896C79.4568 68.3326 80.318 67.1167 84.9163 61.6242C89.5146 56.1316 97.8523 46.4164 102.365 41.031C106.878 35.6456 107.313 34.8843 107.664 34.1659C108.321 32.8196 108.602 31.7239 108.712 30.0141C108.796 28.7052 108.749 26.4917 108.731 25.2438C108.699 23.0343 108.2 21.5089 108.328 20.8833C108.481 20.1288 108.712 19.4921 108.95 19.0521C109.211 18.5688 109.663 18.064 110.139 17.4966C110.496 17.0692 111.308 16.7458 112.167 16.38C112.823 16.1007 114.267 16.0845 116.024 16.0664C117.28 16.0534 118.449 15.9021 119.584 15.8285C121.019 15.7354 122.551 15.7176 123.393 15.9735C124.068 16.1786 124.676 16.6689 125.024 17.0715C125.425 17.5344 125.702 18.0596 125.94 18.5358C126.277 19.2089 126.58 19.67 127.183 20.6746C128.252 22.4565 128.558 23.0754 129.379 24.2815C130.148 25.4096 130.425 26.0787 130.7 26.6098C130.99 27.1693 131.341 27.8363 131.707 28.3856C132.073 28.9366 132.293 29.3742 132.477 29.9235C132.572 30.2091 132.587 30.5101 132.623 30.6754C132.653 30.8123 132.807 30.0037 132.752 29.0359C132.695 28.0203 132.006 26.0952 131.274 23.8443C130.935 22.8024 130.649 21.4057 130.192 19.5393C129.967 18.6204 129.951 18.1738 130.005 18.0437C130.203 17.5706 130.353 19.0856 130.499 19.4684C130.707 20.0128 131.082 21.4924 131.686 23.3039C131.993 24.2245 132.256 24.7594 132.566 26.0875C132.798 27.0826 133.057 28.7569 133.207 29.8515C133.419 31.4101 133.429 32.1205 133.538 33.1025C133.942 36.7117 133.466 37.5383 133.375 38.2534C133.288 38.9318 133.064 39.8803 132.917 40.6883C132.796 41.3542 132.624 41.7873 132.569 42.5008C132.547 42.7805 132.477 43.033 132.296 44.0684C132.139 44.9634 131.752 46.59 131.565 48.4272C131.379 50.2645 131.379 52.2583 131.361 53.376C131.333 55.0548 130.794 56.0635 130.501 56.7819C130.191 57.5415 129.806 58.1177 129.421 58.7043C129.047 59.2749 128.635 59.9478 128.195 60.5899C127.731 61.2669 127.426 61.9625 126.986 62.6403C126.779 62.9593 126.438 63.4631 125.727 64.5379C124.535 66.3434 123.617 67.5297 123.452 67.8219C122.759 69.0565 121.242 71.2954 120.524 72.1061C119.778 72.9487 118.241 74.6986 117.449 75.785C116.532 77.0419 115.6 77.8908 114.103 79.6797C113.157 80.8098 111.833 81.8795 110.553 82.7396C110.048 83.0786 109.78 83.1285 109.613 83.1115C109.446 83.0945 109.373 82.9857 109.463 80.4103C109.552 77.8348 109.806 72.796 110.698 66.4845C111.59 60.173 113.113 52.7416 114.006 47.4996C114.899 42.2575 115.116 39.4299 115.265 37.7921C115.506 35.1228 115.778 33.3794 115.89 32.5072C115.901 32.42 115.89 32.9575 115.727 34.3949C115.564 35.8323 115.237 38.3336 113.13 45.0054C111.022 51.6772 107.143 62.4436 104.837 68.57C102.531 74.6964 101.915 75.8564 101.543 76.6534C100.998 77.8212 100.624 78.9849 100.075 80.2466C99.4312 81.7273 98.8651 82.9044 98.0424 84.5516C97.4579 85.7216 97.2525 86.2395 96.9966 86.7349C96.6581 87.3901 96.4111 88.2168 96.1908 88.8396C96.044 89.2547 95.8245 89.6822 95.5877 90.2474C95.2325 91.0954 94.7996 91.8419 93.6741 93.9125C92.695 95.7141 90.7362 98.9558 89.5833 100.854C87.7495 103.873 87.1485 104.547 86.708 105.371C86.5613 105.645 86.3444 106.008 86.2867 106.032C86.0027 106.148 87.1386 104.487 88.2728 103.023C89.3116 101.682 90.3275 100.636 91.0602 99.7945C91.3155 99.5011 91.6787 99.103 93.3699 97.6832C95.061 96.2633 98.0698 93.8345 99.8554 92.3658C102.136 90.4903 102.743 89.8327 103.071 89.4493C103.739 88.6701 104.351 88.041 104.812 87.489C105.233 86.9403 105.526 86.39 105.654 86.1708C105.71 86.0604 105.746 85.9517 105.784 85.8396" stroke="#711717" stroke-width="22" stroke-linecap="round"></path></svg> 