<?xml version="1.0" encoding="UTF-8"?> <svg xmlns="http://www.w3.org/2000/svg" width="973" height="205" viewBox="0 0 973 205" fill="none"><path d="M132.459 92.9675C152.207 81.5411 165.31 71.0462 171.769 61.4828C179.345 50.1806 178.289 39.4994 168.602 29.4392C159.659 20.4968 143.637 16.4603 120.536 17.3297C98.6769 18.1991 77.4387 22.9808 56.8215 31.6748C42.4143 37.8848 30.4911 45.7094 21.0519 55.1486C11.3643 64.9604 6.9552 73.9028 7.8246 81.9758C8.8182 90.173 14.4072 97.1282 24.5916 102.841C32.5404 107.313 44.3394 111.535 59.9886 115.51C64.7082 116.628 71.6013 118.242 80.6679 120.354L90.7281 122.589L100.788 125.011C115.817 128.861 126.684 132.774 133.391 136.748C134.26 137.245 135.44 138.114 136.931 139.356C145.128 137.245 151.151 135.816 155.002 135.071C156.865 134.699 157.982 134.885 158.355 135.63C158.603 136.5 157.61 137.183 155.374 137.679C149.909 139.294 144.755 140.971 139.911 142.71C143.762 148.05 144.817 154.26 143.078 161.34C141.34 168.171 137.489 173.635 131.528 177.734C119.356 186.055 103.272 192.514 83.2761 197.109C60.9201 202.326 47.5686 200.897 43.2216 192.824C38.3778 183.882 46.3266 174.194 67.068 163.761C75.141 159.787 85.0149 155.751 96.6897 151.652C106.005 148.423 116.127 145.256 127.057 142.151C119.853 138.425 108.675 134.885 93.5226 131.532L83.835 129.669L73.9611 127.619C65.8881 126.005 59.3055 124.514 54.2133 123.148C39.4335 119.422 28.1313 114.951 20.3067 109.734C10.3707 103.028 4.5954 94.3337 2.9808 83.6525C0.993604 70.1147 5.7132 57.6326 17.1396 46.2062C25.9578 37.5122 37.881 30.1223 52.9092 24.0365C79.7364 13.2311 104.576 8.63567 127.429 10.2503C147.674 11.7407 162.764 17.7023 172.7 28.1351C182.512 38.3195 184.561 49.808 178.848 62.6006C172.638 76.3868 158.169 88.31 135.44 98.3702C133.329 99.7364 131.652 99.6743 130.41 98.1839C129.168 96.6935 129.851 94.9547 132.459 92.9675ZM128.92 171.586C134.881 167.984 138.235 163.761 138.98 158.918C139.725 153.825 137.427 149.23 132.087 145.131C108.489 152.956 90.5418 159.849 78.246 165.811C67.068 171.4 58.6224 176.492 52.9092 181.087C46.8234 185.931 44.7741 189.595 46.7613 192.079C49.7421 195.681 61.9137 194.625 83.2761 188.912C103.769 183.447 118.984 177.672 128.92 171.586ZM251.808 131.904C253.174 131.78 254.043 132.339 254.416 133.581C240.133 152.211 227.589 161.526 216.783 161.526C214.175 161.526 211.877 160.967 209.89 159.849C207.53 158.607 206.102 156.868 205.605 154.633C203.121 145.442 205.978 131.842 214.175 113.833L211.753 117.373L209.145 121.099L203.929 128.737C199.83 134.45 196.228 139.17 193.123 142.896C185.05 152.832 179.089 157.551 175.238 157.055C172.009 156.558 169.463 155.378 167.6 153.515C165.489 151.528 164.806 149.106 165.551 146.249C167.786 137.928 173.251 128.675 181.945 118.491C191.384 107.313 199.271 102.282 205.605 103.4C209.207 103.897 211.691 105.139 213.057 107.126C218.025 100.544 222 95.8862 224.981 93.1538C226.223 92.657 227.589 92.657 229.079 93.1538C230.694 93.6506 231.874 94.5821 232.619 95.9483C230.88 98.5565 228.707 102.531 226.098 107.871C222.869 114.454 220.137 120.664 217.901 126.501C211.567 143.393 211.07 153.267 216.411 156.123C218.895 157.365 224.67 154.695 233.737 148.112C242.182 142.026 248.206 136.624 251.808 131.904ZM174.307 151.652C177.164 151.9 182.318 147.429 189.77 138.238C192.254 135.133 195.669 130.6 200.016 124.638L205.233 117.373L210.635 110.293C209.89 107.934 208.151 107.064 205.419 107.685C202.314 108.182 198.153 111.411 192.937 117.373C188.342 122.465 183.932 128.364 179.71 135.071C173.251 145.752 171.45 151.279 174.307 151.652ZM261.472 100.419C261.845 102.407 261.534 106.629 260.541 113.088C260.168 115.448 259.671 118.491 259.05 122.217L258.119 127.06L257.373 131.904C254.393 148.795 253.647 157.614 255.138 158.359C255.635 156.62 257.87 152.459 261.845 145.877C266.192 138.921 270.911 131.842 276.003 124.638C289.914 105.263 299.85 95.0168 305.811 93.899C306.432 93.7748 307.178 93.8369 308.047 94.0853C308.668 94.2095 309.351 94.3958 310.096 94.6442C310.593 94.8926 310.966 95.141 311.214 95.3894C311.463 95.6378 311.338 95.762 310.842 95.762C305.501 96.2588 296.248 106.319 283.083 125.943C280.847 129.172 278.301 133.084 275.445 137.679L271.905 143.268C270.29 145.628 269.172 147.367 268.551 148.485C263.459 156.309 259.982 161.277 258.119 163.389C256.504 164.134 254.579 163.824 252.343 162.457C250.108 161.215 248.742 159.849 248.245 158.359C247.5 155.751 247.437 151.341 248.058 145.131C248.555 140.784 249.549 134.761 251.039 127.06C254.02 110.666 255.262 101.848 254.765 100.606C255.014 99.488 256.007 98.9912 257.746 99.1154C259.485 99.1154 260.727 99.5501 261.472 100.419ZM363.633 131.718C364.378 131.221 365.061 131.221 365.682 131.718C366.179 132.215 366.241 132.774 365.868 133.395C363.136 138.238 359.162 142.896 353.945 147.367C349.474 151.093 344.071 154.074 337.737 156.309C330.906 158.669 324.634 159.539 318.921 158.918C309.482 158.048 303.085 153.204 299.732 144.386C296.875 136.562 300.85 127.122 311.655 116.069C316.251 111.349 321.032 107.747 326 105.263C331.341 102.531 335.812 101.599 339.414 102.469C344.754 103.835 347.797 106.319 348.543 109.921C349.164 113.274 347.735 117 344.258 121.099C336.185 130.786 324.013 136.81 307.743 139.17C306.749 143.889 307.432 147.615 309.792 150.348C314.388 155.316 321.343 156.434 330.658 153.701C334.135 152.583 337.799 151.031 341.649 149.044C344.879 147.305 347.735 145.442 350.219 143.455C353.2 141.219 357.671 137.307 363.633 131.718ZM314.636 124.638C312.152 127.992 310.165 131.656 308.674 135.63C316.623 133.395 324.696 128.427 332.893 120.726C340.966 113.026 343.016 108.182 339.041 106.195C336.557 105.077 332.21 107.188 326 112.529C323.64 114.64 321.343 116.938 319.107 119.422C317.12 121.533 315.63 123.272 314.636 124.638ZM501.552 68.0033C501.924 68.3759 502.111 68.8727 502.111 69.4937C501.986 69.8663 501.8 70.2389 501.552 70.6115C501.179 70.9841 500.806 71.1704 500.434 71.1704C499.937 71.1704 499.502 70.922 499.13 70.4252C496.894 65.5814 492.112 63.47 484.785 64.091C480.313 64.3394 472.613 66.1403 461.683 69.4937C449.76 87.6269 440.569 102.407 434.111 113.833C424.92 129.979 419.021 142.896 416.413 152.583C414.922 158.048 415.108 161.402 416.971 162.644C419.207 164.258 425.79 161.464 436.719 154.26C447.152 147.429 456.343 140.039 464.292 132.09C464.788 131.594 465.347 131.656 465.968 132.277C466.589 132.774 466.776 133.27 466.527 133.767C461.559 141.964 452.865 150.534 440.445 159.477C426.411 169.537 416.723 172.518 411.382 168.419C408.153 165.935 407.035 161.277 408.029 154.446C408.277 151.962 408.836 149.354 409.706 146.622C410.451 144.51 411.196 142.585 411.941 140.847C418.524 126.067 431.689 103.276 451.437 72.4745C441.749 75.0827 434.235 75.9521 428.895 75.0827C421.815 73.9649 417.282 69.7421 415.295 62.4143C415.046 61.4207 415.295 60.7997 416.04 60.5513C416.909 60.3029 417.655 60.4892 418.276 61.1102C420.635 66.6992 425.603 69.3695 433.18 69.1211C437.899 68.8727 445.786 67.1339 456.84 63.9047C480.562 26.8931 492.05 6.08958 491.305 1.49418C493.168 0.624774 494.783 1.18367 496.149 3.17088C497.391 5.15808 497.826 7.33158 497.453 9.69138C496.832 14.1626 486.772 31.2401 467.272 60.9239C476.215 58.5641 483.108 57.6947 487.952 58.3157C494.534 59.0609 499.068 62.2901 501.552 68.0033ZM533.063 132.09C533.559 131.594 534.118 131.594 534.739 132.09C535.484 132.463 535.671 133.022 535.298 133.767L534.367 135.071C534.118 135.444 533.808 135.879 533.435 136.375C533.063 136.996 532.628 137.555 532.131 138.052C531.013 139.542 529.895 140.909 528.778 142.151C527.411 143.889 525.983 145.442 524.493 146.808C516.171 154.881 508.533 157.614 501.578 155.005C497.976 153.639 496.051 150.534 495.803 145.69C495.554 141.964 496.361 137.058 498.224 130.973C498.845 128.861 499.653 126.439 500.646 123.707L501.95 120.354L502.509 118.863L503.068 117.559C504.434 113.709 504.745 111.846 504 111.97C501.392 112.467 493.815 119.546 481.271 133.208C468.975 146.622 461.585 155.751 459.101 160.594C458.605 161.588 457.611 161.774 456.121 161.153C454.506 160.408 453.575 159.042 453.326 157.055C452.581 150.472 456.742 139.232 465.808 123.334C468.789 118.242 472.577 112.156 477.173 105.077L479.781 100.978L480.899 99.1154L482.203 97.4387C483.941 94.5821 485.246 92.5328 486.115 91.2908L494.312 78.4361L498.224 72.1019L502.137 66.1403C508.471 56.2043 513.191 48.6281 516.296 43.4117C525.486 28.1351 529.833 18.6959 529.337 15.0941C531.2 14.2247 532.814 14.7836 534.18 16.7708C535.422 18.6338 535.795 20.7452 535.298 23.105C534.801 26.9552 530.206 35.7734 521.512 49.5596C518.78 54.0308 514.433 60.8618 508.471 70.0526L504.931 75.4553L501.205 81.2306L493.753 92.7812C481.333 112.281 471.77 129.048 465.063 143.082C468.168 139.48 471.459 135.816 474.937 132.09C479.284 127.495 483.32 123.396 487.046 119.795C496.734 110.48 503.068 106.133 506.049 106.754C507.664 107.126 508.968 107.996 509.961 109.362C510.955 110.604 511.452 111.846 511.452 113.088C511.452 114.827 510.831 117.683 509.589 121.658C509.216 122.9 508.595 124.701 507.726 127.06L505.863 132.649C502.509 142.337 501.764 148.299 503.627 150.534C505.614 152.894 511.079 150.534 520.022 143.455C522.878 141.343 525.921 138.797 529.15 135.816C530.144 134.947 531.075 134.078 531.945 133.208C532.193 132.96 532.442 132.711 532.69 132.463L533.063 132.09ZM592.141 131.718C592.887 131.221 593.57 131.221 594.191 131.718C594.688 132.215 594.75 132.774 594.377 133.395C591.645 138.238 587.67 142.896 582.454 147.367C577.983 151.093 572.58 154.074 566.246 156.309C559.415 158.669 553.143 159.539 547.429 158.918C537.99 158.048 531.594 153.204 528.241 144.386C525.384 136.562 529.358 127.122 540.164 116.069C544.759 111.349 549.541 107.747 554.509 105.263C559.849 102.531 564.321 101.599 567.922 102.469C573.263 103.835 576.306 106.319 577.051 109.921C577.672 113.274 576.244 117 572.766 121.099C564.693 130.786 552.522 136.81 536.251 139.17C535.258 143.889 535.941 147.615 538.301 150.348C542.896 155.316 549.851 156.434 559.166 153.701C562.644 152.583 566.308 151.031 570.158 149.044C573.387 147.305 576.244 145.442 578.728 143.455C581.709 141.219 586.18 137.307 592.141 131.718ZM543.145 124.638C540.661 127.992 538.673 131.656 537.183 135.63C545.132 133.395 553.205 128.427 561.402 120.726C569.475 113.026 571.524 108.182 567.55 106.195C565.066 105.077 560.719 107.188 554.509 112.529C552.149 114.64 549.851 116.938 547.616 119.422C545.629 121.533 544.138 123.272 543.145 124.638ZM768.997 1.30788C770.86 0.438477 772.475 0.997377 773.841 2.98458C775.083 4.84758 775.455 6.95898 774.959 9.31878C774.462 13.2932 768.562 24.2228 757.26 42.1076C755.024 45.461 752.354 49.6217 749.249 54.5897L744.964 61.2965L740.493 68.1896C732.668 80.1128 726.458 89.7383 721.863 97.0661C689.447 148.733 676.468 179.473 682.926 189.285C678.952 189.781 676.033 188.105 674.17 184.254C671.189 178.417 674.667 165.749 684.603 146.249C691.682 132.215 703.357 112.405 719.627 86.8196C712.548 96.2588 704.475 106.567 695.408 117.745C671.065 147.057 656.223 161.402 650.883 160.781C647.654 160.532 644.797 159.104 642.313 156.496C639.705 153.763 638.587 150.845 638.96 147.74C640.45 140.412 645.542 130.911 654.236 119.236C663.303 107.064 671.314 99.5501 678.269 96.6935C679.387 96.1967 681.125 96.2588 683.485 96.8798C685.845 97.625 687.522 98.4944 688.515 99.488C690.13 101.103 691.248 103.214 691.869 105.822C692.366 107.934 692.49 110.231 692.241 112.715C713.48 89.6141 729.998 69.3695 741.797 51.9815C744.281 48.2555 746.517 44.7158 748.504 41.3624L748.69 41.1761C762.849 18.4475 769.618 5.15808 768.997 1.30788ZM647.902 154.074C651.504 154.571 664.979 142.275 688.329 117.186C689.074 113.957 689.012 110.542 688.143 106.94C687.273 103.462 686.031 101.848 684.417 102.096C678.579 103.214 670.072 111.97 658.894 128.364C654.298 135.071 650.945 140.847 648.833 145.69C646.474 150.907 646.163 153.701 647.902 154.074ZM807.797 131.904C809.163 131.78 810.032 132.339 810.405 133.581C796.122 152.211 783.578 161.526 772.772 161.526C770.164 161.526 767.867 160.967 765.879 159.849C763.52 158.607 762.091 156.868 761.594 154.633C759.11 145.442 761.967 131.842 770.164 113.833L767.742 117.373L765.134 121.099L759.918 128.737C755.819 134.45 752.217 139.17 749.112 142.896C741.039 152.832 735.078 157.551 731.228 157.055C727.998 156.558 725.452 155.378 723.589 153.515C721.478 151.528 720.795 149.106 721.54 146.249C723.776 137.928 729.24 128.675 737.934 118.491C747.374 107.313 755.26 102.282 761.594 103.4C765.196 103.897 767.68 105.139 769.046 107.126C774.014 100.544 777.989 95.8862 780.97 93.1538C782.212 92.657 783.578 92.657 785.068 93.1538C786.683 93.6506 787.863 94.5821 788.608 95.9483C786.869 98.5565 784.696 102.531 782.087 107.871C778.858 114.454 776.126 120.664 773.89 126.501C767.556 143.393 767.059 153.267 772.4 156.123C774.884 157.365 780.659 154.695 789.726 148.112C798.171 142.026 804.195 136.624 807.797 131.904ZM730.296 151.652C733.153 151.9 738.307 147.429 745.759 138.238C748.243 135.133 751.658 130.6 756.005 124.638L761.222 117.373L766.625 110.293C765.879 107.934 764.141 107.064 761.408 107.685C758.303 108.182 754.142 111.411 748.926 117.373C744.331 122.465 739.922 128.364 735.699 135.071C729.24 145.752 727.439 151.279 730.296 151.652ZM891.981 68.0033C892.354 68.3759 892.54 68.8727 892.54 69.4937C892.416 69.8663 892.23 70.2389 891.981 70.6115C891.609 70.9841 891.236 71.1704 890.863 71.1704C890.367 71.1704 889.932 70.922 889.559 70.4252C887.324 65.5814 882.542 63.47 875.214 64.091C870.743 64.3394 863.043 66.1403 852.113 69.4937C840.19 87.6269 830.999 102.407 824.541 113.833C815.35 129.979 809.45 142.896 806.842 152.583C805.352 158.048 805.538 161.402 807.401 162.644C809.637 164.258 816.219 161.464 827.149 154.26C837.582 147.429 846.772 140.039 854.721 132.09C855.218 131.594 855.777 131.656 856.398 132.277C857.019 132.774 857.205 133.27 856.957 133.767C851.989 141.964 843.295 150.534 830.875 159.477C816.84 169.537 807.153 172.518 801.812 168.419C798.583 165.935 797.465 161.277 798.459 154.446C798.707 151.962 799.266 149.354 800.135 146.622C800.88 144.51 801.626 142.585 802.371 140.847C808.953 126.067 822.119 103.276 841.866 72.4745C832.179 75.0827 824.665 75.9521 819.324 75.0827C812.245 73.9649 807.711 69.7421 805.724 62.4143C805.476 61.4207 805.724 60.7997 806.469 60.5513C807.339 60.3029 808.084 60.4892 808.705 61.1102C811.065 66.6992 816.033 69.3695 823.609 69.1211C828.329 68.8727 836.215 67.1339 847.269 63.9047C870.991 26.8931 882.48 6.08958 881.735 1.49418C883.598 0.624774 885.212 1.18367 886.578 3.17088C887.82 5.15808 888.255 7.33158 887.883 9.69138C887.262 14.1626 877.201 31.2401 857.702 60.9239C866.644 58.5641 873.537 57.6947 878.381 58.3157C884.964 59.0609 889.497 62.2901 891.981 68.0033ZM913.618 131.718C914.363 131.221 915.046 131.221 915.667 131.718C916.164 132.215 916.226 132.774 915.854 133.395C913.121 138.238 909.147 142.896 903.931 147.367C899.459 151.093 894.057 154.074 887.722 156.309C880.891 158.669 874.619 159.539 868.906 158.918C859.467 158.048 853.071 153.204 849.717 144.386C846.861 136.562 850.835 127.122 861.64 116.069C866.236 111.349 871.018 107.747 875.986 105.263C881.326 102.531 885.797 101.599 889.399 102.469C894.74 103.835 897.783 106.319 898.528 109.921C899.149 113.274 897.721 117 894.243 121.099C886.17 130.786 873.998 136.81 857.728 139.17C856.735 143.889 857.418 147.615 859.777 150.348C864.373 155.316 871.328 156.434 880.643 153.701C884.121 152.583 887.785 151.031 891.635 149.044C894.864 147.305 897.721 145.442 900.205 143.455C903.185 141.219 907.657 137.307 913.618 131.718ZM864.621 124.638C862.137 127.992 860.15 131.656 858.66 135.63C866.608 133.395 874.681 128.427 882.879 120.726C890.952 113.026 893.001 108.182 889.027 106.195C886.543 105.077 882.196 107.188 875.986 112.529C873.626 114.64 871.328 116.938 869.092 119.422C867.105 121.533 865.615 123.272 864.621 124.638ZM966.763 73.2197C970.117 72.8471 972.166 73.6544 972.911 75.6416C972.911 78.1256 967.26 88.31 955.958 106.195L952.604 111.411L949.251 116.628C946.891 120.478 944.904 123.707 943.289 126.315C939.191 133.022 936.645 137.617 935.651 140.101C934.782 140.226 933.912 139.48 933.043 137.866C932.298 136.251 932.111 134.885 932.484 133.767C933.353 130.911 935.651 126.315 939.377 119.981C940.867 117.497 942.73 114.516 944.966 111.039L947.947 106.195L951.114 101.537C961.547 85.1429 966.763 75.7037 966.763 73.2197ZM930.435 145.131C932.049 145.504 932.919 146.498 933.043 148.112C933.167 149.603 932.794 151.279 931.925 153.142C929.441 157.862 926.522 159.849 923.169 159.104C921.554 158.856 920.685 157.862 920.561 156.123C920.437 154.633 920.871 152.956 921.865 151.093C924.225 146.498 927.081 144.51 930.435 145.131Z" fill="#FEFAEF"></path></svg> 